<svg width="1443" height="870" viewBox="0 0 1443 870" fill="none" xmlns="http://www.w3.org/2000/svg">
<path d="M876.725 347.195L791.917 381.136L714.696 406.607L636.821 433.341L597.883 446.708L578.349 453.132L568.108 457.838L564.968 460.811L561.829 463.784L560.392 465.797L540.556 387.346L542.914 388.976L545.272 390.607L549.463 391.79L555.486 392.526L563.112 392.871L583.566 390.083L624.474 384.509L706.289 373.36L791.917 359.224L876.725 347.195Z" fill="#DDFA42"/>
<path d="M879.409 536.075L788.024 531.371L707.106 522.331L625.062 514.132L584.04 510.032L563.579 507.728L552.287 507.692L548.18 509.02L544.073 510.348L541.918 511.527L557.001 434.818L558.455 437.202L559.91 439.585L563.218 442.321L568.38 445.409L575.165 448.805L594.927 454.664L634.451 466.383L713.498 489.822L788.024 509.02L879.409 536.075Z" fill="#DDFA42"/>
<path d="M155.439 769.761L222.283 708.217L278.053 649.867L335.276 591.469L363.888 562.27L377.977 547.501L386.619 540.328L390.702 538.78L394.786 537.231L397.267 536.801L331.904 485.66L332.459 488.466L333.014 491.272L332.393 495.529L330.596 501.238L327.769 508.217L316.71 525.357L294.59 559.636L250.352 628.194L203.239 693.316L155.439 769.761Z" fill="#DDFA42"/>
<path d="M535.767 862.36L535.767 772.305L525.637 692.586L518.977 611.752L515.646 571.336L513.698 551.177L513.994 540.048L515.589 535.994L517.185 531.941L518.557 529.812L432.988 544.992L435.59 546.416L438.192 547.84L441.129 551.089L444.402 556.165L447.969 562.838L453.884 582.293L465.713 621.201L489.373 699.019L505.834 772.305L535.767 862.36Z" fill="#DDFA42"/>
<path d="M359.612 862.229L390.779 772.634L409.842 695.716L429.533 620.819L440.254 581.682L445.345 562.068L449.379 551.688L452.175 548.395L454.972 545.101L456.917 543.547L375.453 529.812L377.292 532.004L379.13 534.197L380.649 538.218L381.849 544.068L382.769 551.518L381.455 571.768L378.825 612.27L367.632 688.358L359.612 772.634L359.612 862.229Z" fill="#DDFA42"/>
<path d="M758.686 749.364L703.261 674.603L649.731 611.369L596.339 546.668L569.642 514.317L556.09 498.339L549.74 488.77L548.655 484.475L547.571 480.179L547.442 477.632L485.799 537.067L488.79 536.854L491.782 536.64L496.132 537.787L501.841 540.295L508.739 543.994L525.149 557.217L557.968 583.664L623.607 636.558L685.3 691.921L758.686 749.364Z" fill="#DDFA42"/>
<ellipse cx="439.5" cy="433.5" rx="121.5" ry="116.5" fill="#DDFA42"/>
<path d="M107.52 156.398L183.135 200.678L255.142 245.179L324.56 289.044L359.269 310.976L376.445 322.165L386.575 327.152L390.967 327.678L395.359 328.204L397.918 328.016L343.898 395.096L343.849 392.168L343.799 389.24L342.268 385.16L339.257 379.929L334.95 373.691L320.278 359.393L290.935 330.798L232.248 273.608L167.476 218.74L107.52 156.398Z" fill="#DDFA42"/>
<path d="M6.17514 360.327L97.7216 361.214L178.96 366.977L261.294 371.834L302.462 374.262L323.005 375.738L334.296 375.291L338.354 373.759L342.412 372.226L344.524 370.93L332.253 449.914L330.712 447.542L329.17 445.17L325.762 442.518L320.487 439.586L313.579 436.409L293.605 431.272L253.657 420.998L173.76 400.45L94.1465 384.227L6.17514 360.327Z" fill="#DDFA42"/>
<path d="M7.41301 529.549L94.0681 500.642L172.635 479.578L251.932 457.323L291.581 446.196L311.454 440.886L321.956 436.808L325.27 434.078L328.584 431.347L330.141 429.466L345.063 506.275L342.813 504.589L340.563 502.902L336.459 501.563L330.499 500.573L322.917 499.886L302.351 501.635L261.221 505.134L178.959 512.13L98.4159 523.022L7.41301 529.549Z" fill="#DDFA42"/>
<path d="M788.492 162.404L729.139 223.423L670.25 286.445L612.587 344.417L583.755 373.404L569.162 387.691L562.124 396.389L560.666 400.437L559.208 404.484L558.839 406.926L505.155 344.733L508.017 345.18L510.879 345.627L515.181 344.874L520.923 342.921L527.925 339.918L545.007 328.513L579.171 305.705L647.498 260.087L714.161 210.043L788.492 162.404Z" fill="#DDFA42"/>
<path d="M344.589 14.1522L376.483 93.6422L405.895 173.181L433.414 249.635L447.173 287.862L453.775 307.043L458.666 317.083L461.799 320.144L464.933 323.205L467.065 324.598L382.987 345.036L384.761 342.694L386.534 340.351L387.854 336.208L388.721 330.263L389.191 322.742L386.487 302.614L381.079 262.357L370.262 181.843L356.059 98.325L344.589 14.1522Z" fill="#DDFA42"/>
<path d="M612.24 49.5112L588.213 136.456L565.583 213.397L541.501 291.002L529.46 329.805L523.162 349.092L521.079 360.056L521.833 364.393L522.586 368.731L523.526 371.132L439.798 336.529L442.748 335.735L445.698 334.941L449.38 332.437L453.794 328.223L458.848 322.512L469.027 304.829L489.384 269.463L530.1 198.732L565.583 127.76L612.24 49.5112Z" fill="#DDFA42"/>
<rect x="1080.78" y="469" width="363.379" height="231.927" rx="16.7456" transform="rotate(19.8579 1080.78 469)" fill="#DDFA42"/>
<ellipse cx="1136.47" cy="599.499" rx="66.5638" ry="66.1451" transform="rotate(19.8579 1136.47 599.499)" fill="#BECD0E"/>
<ellipse cx="1289.24" cy="654.675" rx="66.5638" ry="66.1451" transform="rotate(19.8579 1289.24 654.675)" fill="#BECD0E"/>
<ellipse cx="1136.47" cy="599.499" rx="39.7708" ry="38.5149" transform="rotate(19.8579 1136.47 599.499)" fill="#DDFA42"/>
<ellipse cx="1289.24" cy="654.676" rx="39.7708" ry="38.5149" transform="rotate(19.8579 1289.24 654.676)" fill="#DDFA42"/>
<ellipse cx="1136.47" cy="599.499" rx="17.1642" ry="15.9083" transform="rotate(19.8579 1136.47 599.499)" fill="#BECD0E"/>
<ellipse cx="1289.24" cy="654.675" rx="17.1642" ry="15.9083" transform="rotate(19.8579 1289.24 654.675)" fill="#BECD0E"/>
<ellipse cx="1045.51" cy="668.28" rx="15.9083" ry="14.6524" transform="rotate(19.8579 1045.51 668.28)" fill="#BECD0E"/>
<ellipse cx="1317.75" cy="773.93" rx="15.9083" ry="14.6524" transform="rotate(19.8579 1317.75 773.93)" fill="#BECD0E"/>
<path d="M1083.43 666.5C1085.67 663.698 1089.44 662.633 1092.82 663.851L1283.39 732.681C1286.64 733.853 1288.83 736.894 1288.92 740.342L1289.91 778.978C1290.06 784.87 1284.24 789.069 1278.69 787.067L1063.39 709.308C1058 707.36 1056.12 700.687 1059.7 696.207L1083.43 666.5Z" fill="#BECD0E"/>
<circle cx="1087.75" cy="485.221" r="5.02368" transform="rotate(19.8579 1087.75 485.221)" fill="#DDFA42" stroke="#BECD0E" stroke-width="2.51184"/>
<rect x="1162.48" y="622.152" width="101.311" height="34.3285" transform="rotate(19.8579 1162.48 622.152)" fill="#BECD0E" fill-opacity="0.48"/>
<rect x="1143.65" y="516.538" width="205.971" height="30.9794" transform="rotate(19.8579 1143.65 516.538)" fill="#BECD0E"/>
<rect x="1103.28" y="501.607" width="291.373" height="29.3048" rx="6.2796" transform="rotate(19.8579 1103.28 501.607)" stroke="#BECD0E" stroke-width="4.1864"/>
<path d="M1115.96 532.573L1122.49 514.492L1130.21 517.28C1133.87 518.604 1135.47 521.332 1134.38 524.364L1134.31 524.556C1133.72 526.183 1132.59 527.239 1131.04 527.646C1132.25 528.955 1132.6 530.577 1131.97 532.313L1131.91 532.506C1130.78 535.62 1127.67 536.804 1124.06 535.5L1115.96 532.573ZM1122.45 530.055L1125.17 531.041C1126.14 531.389 1126.76 531.145 1127.08 530.263L1127.13 530.125C1127.42 529.298 1127.09 528.678 1126.15 528.34L1123.42 527.354L1122.45 530.055ZM1124.9 523.248L1127.3 524.114C1128.24 524.452 1128.86 524.208 1129.18 523.326L1129.23 523.188C1129.52 522.361 1129.21 521.779 1128.27 521.44L1125.87 520.574L1124.9 523.248Z" fill="white"/>
<path d="M1107.79 528.427C1107.12 530.279 1105.91 531.037 1104.46 530.514L1104.32 530.464L1105.06 528.423L1105.19 528.473C1105.59 528.614 1105.84 528.421 1106.05 527.829C1106.23 527.35 1106.19 527.052 1105.96 526.97L1105.93 526.957C1105.73 526.884 1105.59 526.978 1105.37 527.354L1104.83 528.298C1104.17 529.456 1103.17 529.978 1102.25 529.645L1102.16 529.614C1100.9 529.158 1100.47 527.707 1101.1 525.968C1101.74 524.192 1102.92 523.462 1104.33 523.972L1104.47 524.022L1103.73 526.063L1103.59 526.013C1103.24 525.886 1102.97 526.116 1102.76 526.709C1102.6 527.15 1102.62 527.442 1102.82 527.515L1102.86 527.529C1103.05 527.597 1103.16 527.511 1103.35 527.194L1104 526.104C1104.73 524.872 1105.62 524.423 1106.6 524.778L1106.69 524.81C1107.99 525.279 1108.41 526.701 1107.79 528.427ZM1108.89 524.854L1102.52 522.551L1103.31 520.371L1109.68 522.674L1108.89 524.854ZM1100.71 522.125C1099.96 521.856 1099.63 521.153 1099.91 520.385C1100.19 519.616 1100.88 519.281 1101.64 519.554C1102.38 519.823 1102.71 520.526 1102.43 521.295C1102.16 522.051 1101.45 522.393 1100.71 522.125ZM1110.94 519.704C1110.45 521.052 1109.06 521.687 1107.48 521.118L1105.98 520.577C1104.41 520.008 1103.75 518.632 1104.24 517.283C1104.42 516.767 1104.73 516.338 1105.14 516.03L1102.51 515.079L1103.3 512.899L1112.07 516.067L1111.37 517.995L1111.03 517.927C1111.19 518.486 1111.16 519.099 1110.94 519.704ZM1108 518.813C1108.55 519.014 1108.94 518.841 1109.12 518.35C1109.23 518.047 1109.22 517.729 1109.11 517.464L1107.07 516.727C1106.82 516.864 1106.61 517.101 1106.5 517.403C1106.32 517.895 1106.49 518.267 1107.04 518.468L1108 518.813ZM1113.57 512.418C1112.92 514.22 1111.45 514.984 1109.78 514.384L1108.52 513.929C1106.87 513.333 1106.22 511.787 1106.87 509.997C1107.52 508.183 1108.98 507.427 1110.64 508.027L1111.84 508.46L1110.49 512.189L1110.67 512.253C1111.17 512.435 1111.57 512.208 1111.73 511.754C1111.88 511.338 1111.81 511.014 1111.55 510.834L1112.34 508.642C1113.8 509.309 1114.19 510.692 1113.57 512.418ZM1109.19 511.721L1109.76 510.158C1109.24 509.972 1108.86 510.204 1108.69 510.657C1108.53 511.111 1108.68 511.534 1109.19 511.721Z" fill="white"/>
<path d="M1176.04 654.497C1172.38 653.174 1170.72 649.931 1171.96 646.505L1173.59 641.993C1174.83 638.567 1178.18 637.109 1181.85 638.432C1185.39 639.712 1187.06 642.931 1185.86 646.239L1185.68 646.735L1182.92 645.737L1183.1 645.241C1183.81 643.28 1183 641.734 1180.88 640.966C1178.75 640.198 1177.09 640.959 1176.31 643.109L1174.77 647.385C1173.99 649.535 1174.77 651.152 1176.92 651.928C1179.02 652.688 1180.66 651.997 1181.36 650.06L1181.54 649.564L1184.3 650.562L1184.12 651.058C1182.94 654.342 1179.56 655.768 1176.04 654.497ZM1184.75 657.321L1190.35 641.823L1195.76 643.777C1199.35 645.074 1200.94 648.212 1199.75 651.52L1198.18 655.867C1196.98 659.174 1193.75 660.572 1190.16 659.275L1184.75 657.321ZM1188.43 655.792L1191.15 656.773C1193.18 657.507 1194.72 656.782 1195.43 654.821L1196.96 650.593C1197.67 648.632 1196.93 647.056 1194.92 646.331L1192.2 645.349L1188.43 655.792ZM1198.78 662.387L1203.04 650.598L1205.71 651.562L1201.45 663.351L1198.78 662.387ZM1203.76 647.176C1204.14 646.136 1205.15 645.701 1206.17 646.067C1207.21 646.443 1207.68 647.416 1207.31 648.456C1206.94 649.472 1205.94 649.939 1204.91 649.564C1203.87 649.189 1203.4 648.192 1203.76 647.176ZM1209.54 666.273C1207.13 665.402 1206.27 663.625 1207.1 661.333L1209.18 655.569L1206.3 654.528L1207.18 652.095L1209.4 652.897C1209.97 653.102 1210.22 652.925 1210.4 652.429L1211.27 650.019L1213.87 650.958L1212.73 654.1L1216.37 655.414L1215.49 657.847L1211.85 656.533L1209.8 662.227C1209.51 663.03 1209.75 663.6 1210.51 663.873L1212.4 664.556L1211.52 666.989L1209.54 666.273ZM1220.44 670.212L1226.04 654.714L1228.81 655.712L1223.21 671.21L1220.44 670.212ZM1226.21 672.295L1231.81 656.797L1234.57 657.795L1228.98 673.293L1226.21 672.295Z" fill="#DDFA42"/>
<path d="M1153.09 588.592L1157.01 577.744L1161.71 579.44C1164.15 580.324 1165 582.164 1164.21 584.363L1164.17 584.479C1163.36 586.712 1161.56 587.573 1159.09 586.683L1157.35 586.056L1156.05 589.661L1153.09 588.592ZM1158.32 583.394L1159.87 583.955C1160.57 584.206 1160.97 584.016 1161.19 583.404L1161.23 583.288C1161.44 582.709 1161.24 582.282 1160.56 582.037L1159.01 581.475L1158.32 583.394ZM1166.99 593.856C1164.13 592.822 1162.95 590.34 1163.8 588.008L1164.86 585.048C1165.71 582.7 1168.21 581.544 1171.07 582.577C1173.94 583.616 1175.11 586.076 1174.26 588.441L1173.19 591.401C1172.34 593.749 1169.87 594.895 1166.99 593.856ZM1166.83 588.935C1166.46 589.96 1166.84 590.715 1167.98 591.127C1169.05 591.515 1169.92 591.136 1170.27 590.177L1171.23 587.498C1171.6 586.489 1171.22 585.718 1170.08 585.306C1168.96 584.9 1168.16 585.247 1167.79 586.256L1166.83 588.935ZM1176.68 597.356C1174.01 596.388 1173.01 594.495 1173.89 592.064L1173.99 591.783L1176.81 592.804L1176.71 593.085C1176.43 593.862 1176.77 594.488 1177.63 594.799C1178.42 595.085 1178.95 594.959 1179.14 594.447L1179.17 594.364C1179.33 593.918 1179.18 593.602 1178.57 593.159L1177.04 592.025C1175.47 590.88 1174.92 589.503 1175.46 588.015L1175.52 587.85C1176.23 585.882 1178.28 585.182 1180.71 586.06C1183.26 586.979 1184.29 588.774 1183.51 590.924L1183.41 591.205L1180.63 590.201L1180.74 589.92C1180.95 589.325 1180.63 588.855 1179.82 588.563C1179.1 588.3 1178.59 588.399 1178.44 588.812L1178.41 588.895C1178.29 589.242 1178.49 589.575 1179.06 590.006L1180.6 591.163C1182.26 592.377 1182.78 593.686 1182.2 595.274L1182.14 595.439C1181.38 597.556 1179.28 598.294 1176.68 597.356ZM1181.88 598.991L1185.8 588.142L1188.78 589.217L1184.86 600.066L1181.88 598.991ZM1187.96 601.184L1190.91 593.014L1188.54 592.16L1189.51 589.481L1197.22 592.264L1196.25 594.943L1193.88 594.089L1190.93 602.259L1187.96 601.184ZM1194.03 603.377L1197.95 592.529L1200.92 593.604L1197.01 604.452L1194.03 603.377ZM1202.6 606.717C1199.74 605.683 1198.56 603.201 1199.41 600.87L1200.47 597.909C1201.32 595.561 1203.82 594.405 1206.68 595.438C1209.55 596.477 1210.72 598.937 1209.87 601.302L1208.8 604.262C1207.95 606.61 1205.48 607.756 1202.6 606.717ZM1202.44 601.796C1202.07 602.821 1202.45 603.576 1203.59 603.988C1204.66 604.376 1205.53 603.997 1205.88 603.038L1206.84 600.359C1207.21 599.35 1206.83 598.579 1205.69 598.167C1204.57 597.761 1203.77 598.108 1203.4 599.117L1202.44 601.796ZM1208.49 608.599L1212.4 597.75L1215.38 598.825L1216.21 605.292L1218.18 599.834L1220.94 600.832L1217.02 611.68L1214.04 610.605L1213.17 604.271L1211.25 609.596L1208.49 608.599ZM1227.39 615.67C1224.62 614.667 1223.3 612.264 1224.18 609.817L1225.25 606.857C1226.13 604.409 1228.7 603.394 1231.47 604.392C1234.33 605.425 1235.5 607.679 1234.55 610.308L1234.3 610.986L1231.31 609.905L1231.6 609.095C1231.92 608.202 1231.51 607.49 1230.46 607.114C1229.34 606.708 1228.57 607.028 1228.19 608.07L1227.23 610.749C1226.85 611.791 1227.24 612.529 1228.36 612.935C1229.42 613.318 1230.18 613.031 1230.51 612.104L1230.75 611.459L1233.74 612.541L1233.54 613.086C1232.59 615.716 1230.25 616.703 1227.39 615.67ZM1233.13 617.499L1237.05 606.651L1240.03 607.726L1238.55 611.811L1241.13 612.742L1242.61 608.658L1245.58 609.733L1241.66 620.581L1238.69 619.506L1240.16 615.438L1237.58 614.506L1236.11 618.574L1233.13 617.499ZM1242.98 621.057L1246.9 610.209L1251.6 611.905C1254.04 612.789 1254.89 614.629 1254.1 616.828L1254.06 616.944C1253.5 618.498 1252.37 619.327 1250.84 619.278L1251.68 623.693L1251.52 624.139L1248.46 623.034L1247.69 618.421L1247.33 618.29L1245.94 622.126L1242.98 621.057ZM1248.21 615.859L1249.76 616.42C1250.46 616.671 1250.86 616.481 1251.08 615.869L1251.12 615.753C1251.33 615.174 1251.13 614.747 1250.45 614.502L1248.9 613.94L1248.21 615.859ZM1257.01 626.367C1254.15 625.334 1252.97 622.852 1253.81 620.52L1254.88 617.56C1255.73 615.211 1258.22 614.055 1261.08 615.089C1263.96 616.128 1265.13 618.587 1264.28 620.952L1263.21 623.912C1262.36 626.261 1259.89 627.406 1257.01 626.367ZM1256.84 621.446C1256.47 622.471 1256.86 623.226 1258 623.638C1259.07 624.027 1259.94 623.648 1260.28 622.688L1261.25 620.009C1261.62 619.001 1261.24 618.229 1260.1 617.817C1258.97 617.411 1258.18 617.758 1257.81 618.767L1256.84 621.446ZM1267.23 629.814L1267.65 623.873L1265.71 629.264L1262.9 628.249L1266.81 617.4L1270.45 618.714L1270.05 625.729L1274.24 620.082L1277.89 621.402L1273.98 632.251L1271.16 631.235L1273.13 625.778L1269.63 630.68L1267.23 629.814ZM1275.3 632.728L1279.22 621.88L1286.59 624.544L1285.64 627.19L1281.22 625.595L1280.69 627.067L1284.77 628.542L1283.82 631.171L1279.74 629.696L1279.21 631.152L1283.63 632.746L1282.67 635.392L1275.3 632.728Z" fill="#929E04"/>
<path d="M1058.78 576.12C1056.33 575.236 1055.42 573.578 1056.18 571.461L1056.32 571.081L1057.79 571.613L1057.65 571.993C1057.2 573.25 1057.78 574.187 1059.28 574.731C1060.67 575.233 1061.71 574.936 1062.1 573.877L1062.16 573.696C1062.47 572.836 1062.14 572.138 1061.08 571.4L1059.71 570.453C1058.13 569.379 1057.59 568.137 1058.08 566.781L1058.16 566.549C1058.81 564.763 1060.69 564.098 1062.91 564.898C1065.16 565.711 1066.05 567.324 1065.34 569.292L1065.2 569.672L1063.73 569.14L1063.87 568.76C1064.29 567.586 1063.81 566.756 1062.35 566.231C1061.06 565.765 1060.06 566.057 1059.71 567.016L1059.65 567.198C1059.38 567.942 1059.75 568.674 1060.67 569.326L1062.01 570.277C1063.73 571.476 1064.27 572.68 1063.74 574.135L1063.66 574.367C1062.97 576.269 1061.06 576.944 1058.78 576.12ZM1068.45 579.612C1065.97 578.717 1064.9 576.499 1065.76 574.117L1066.93 570.892C1067.79 568.495 1070.05 567.477 1072.51 568.367C1074.99 569.263 1076.07 571.503 1075.21 573.885L1074.05 577.11C1073.19 579.491 1070.95 580.514 1068.45 579.612ZM1067.33 574.629C1066.74 576.283 1067.35 577.588 1068.97 578.174C1070.59 578.759 1071.94 578.125 1072.53 576.504L1073.65 573.395C1074.25 571.725 1073.63 570.397 1071.99 569.806C1070.37 569.22 1069.06 569.85 1068.46 571.52L1067.33 574.629ZM1074.84 581.696L1078.76 570.847L1080.38 571.433L1081.88 581.059L1084.78 573.022L1086.3 573.571L1082.38 584.42L1080.76 583.834L1079.25 574.241L1076.36 582.245L1074.84 581.696ZM1087.21 586.162L1088.84 581.631L1087.63 574.331L1087.72 574.083L1089.32 574.662L1090.21 580.291L1094.46 576.52L1096.07 577.099L1095.98 577.347L1090.38 582.186L1088.74 586.717L1087.21 586.162Z" fill="white"/>
<circle cx="1018.4" cy="681.816" r="5.85158" transform="rotate(27.0641 1018.4 681.816)" fill="#DDFA42" stroke="#BECD0E" stroke-width="2.92579"/>
<circle cx="1336.04" cy="796.618" r="5.02368" transform="rotate(19.8579 1336.04 796.618)" fill="#DDFA42" stroke="#BECD0E" stroke-width="2.51184"/>
<path d="M1339.96 613.53C1335.47 611.908 1333.76 608.797 1335.03 605.269L1335.09 605.103L1340 606.875L1339.93 607.068C1339.54 608.143 1340.21 608.79 1341.53 609.268C1342.99 609.796 1344.08 609.285 1344.54 608.017L1344.93 606.942C1343.88 607.092 1342.71 606.952 1341.47 606.504C1337.58 605.1 1336.11 602.014 1337.18 599.065L1337.58 597.962C1338.79 594.6 1342.26 593.11 1346.81 594.753C1351.27 596.365 1353 600.107 1351.7 603.718L1349.55 609.671C1348.21 613.392 1344.48 615.163 1339.96 613.53ZM1342.35 600.278C1341.99 601.27 1342.46 602.125 1343.87 602.633C1344.86 602.991 1345.75 603.032 1346.43 602.78L1346.78 601.816C1347.23 600.575 1346.7 599.542 1345.18 598.995C1343.8 598.497 1342.87 598.845 1342.5 599.864L1342.35 600.278ZM1356.07 619.347C1351.66 617.754 1349.76 613.767 1351.08 610.129L1353.12 604.479C1354.43 600.841 1358.44 598.984 1362.85 600.577C1367.26 602.17 1369.12 606.146 1367.81 609.785L1365.77 615.435C1364.44 619.101 1360.48 620.94 1356.07 619.347ZM1356.1 611.663C1355.58 613.096 1356.14 614.232 1357.71 614.799C1359.28 615.367 1360.41 614.838 1360.92 613.405L1362.78 608.251C1363.29 606.845 1362.76 605.655 1361.21 605.097C1359.64 604.53 1358.47 605.103 1357.96 606.509L1356.1 611.663Z" fill="white"/>
<circle cx="1404.25" cy="599.988" r="5.02368" transform="rotate(19.8579 1404.25 599.988)" fill="#DDFA42" stroke="#BECD0E" stroke-width="2.51184"/>
</svg>
