<svg width="1465" height="798" viewBox="0 0 1465 798" fill="none" xmlns="http://www.w3.org/2000/svg">
<rect x="520.5" y="2.5" width="942" height="793" fill="white" stroke="black" stroke-width="5"/>
<rect x="575.355" y="48.3549" width="887.29" height="747.29" fill="white" stroke="black" stroke-width="4.70976"/>
<rect x="589.318" y="60.3178" width="873.364" height="735.364" fill="white" stroke="black" stroke-width="4.63569"/>
<path d="M768.382 308.906L1052.36 120.158C1055.45 118.101 1059.45 117.999 1062.65 119.895L1381.26 308.906" stroke="black" stroke-width="9.67276"/>
<mask id="path-5-inside-1_423_41" fill="white">
<rect x="747.5" y="304.669" width="667.212" height="338.331" rx="3.78024"/>
</mask>
<rect x="747.5" y="304.669" width="667.212" height="338.331" rx="3.78024" fill="white" stroke="black" stroke-width="14.6173" mask="url(#path-5-inside-1_423_41)"/>
<rect x="815.418" y="348.016" width="531.375" height="249.748" fill="white" stroke="black" stroke-width="7.30863"/>
<path d="M190.557 152.584C190.549 148.95 193.615 146.066 197.242 146.297L755.707 181.87C759.011 182.08 761.585 184.817 761.593 188.127L761.761 259.818C761.77 263.441 758.721 266.321 755.104 266.107L196.644 232.929C193.329 232.732 190.74 229.99 190.732 226.669L190.557 152.584Z" fill="#DDFA42" stroke="#BECD0E" stroke-width="2"/>
<path d="M206.506 163.116C206.452 159.453 209.528 156.52 213.184 156.749L742.684 189.91C745.96 190.115 748.526 192.807 748.576 196.089L749.37 249.165C749.424 252.818 746.362 255.748 742.714 255.533L213.242 224.247C209.957 224.053 207.378 221.358 207.328 218.067L206.506 163.116Z" fill="white" stroke="#BECD0E" stroke-width="2"/>
<path d="M194.232 234.04C194.541 233.986 194.854 233.968 195.166 233.987L728.277 266.193H57.2826C52.3945 266.193 51.7754 259.1 56.5896 258.253L194.232 234.04Z" fill="#DDFA42" stroke="#BECD0E" stroke-width="2"/>
<rect x="113.318" y="268.193" width="690.077" height="91.2483" rx="6.28502" fill="#DDFA42" stroke="#BECD0E" stroke-width="2"/>
<rect x="127.889" y="275.478" width="653.652" height="76.6783" rx="6.28502" fill="white" stroke="#BECD0E" stroke-width="2"/>
<rect x="97.291" y="361.441" width="663.851" height="97.0763" rx="6.28502" fill="#DDFA42" stroke="#BECD0E" stroke-width="2"/>
<rect x="113.318" y="368.726" width="630.34" height="75.2213" rx="6.28502" fill="white" stroke="#BECD0E" stroke-width="2"/>
<path d="M49.5024 187.476C49.5126 184.649 51.4091 182.177 54.137 181.435L186.257 145.477C190.263 144.387 194.207 147.412 194.192 151.565L193.915 228.672C193.904 231.585 191.894 234.109 189.057 234.77L56.9557 265.565C53.0048 266.486 49.2293 263.478 49.2439 259.421L49.5024 187.476Z" fill="#DDFA42" stroke="#BECD0E" stroke-width="2"/>
<path d="M56.2353 192.12C56.2353 189.264 58.1622 186.766 60.9256 186.041L177.879 155.363C181.863 154.318 185.759 157.323 185.759 161.442L185.759 222.146C185.759 225.096 183.707 227.649 180.827 228.284L63.8736 254.071C59.9512 254.936 56.2353 251.95 56.2353 247.934L56.2353 192.12Z" fill="#DDFA42" stroke="#BECD0E" stroke-width="2"/>
<path d="M1061.97 129.082L1005.25 125.279L1008.05 111.084L1061.97 129.082Z" fill="black"/>
<ellipse cx="1009.14" cy="118.263" rx="18.7515" ry="8.02728" transform="rotate(-60.2516 1009.14 118.263)" fill="black"/>
<path d="M82.9914 189.425L144.566 176.099L144.566 200.5L82.9913 214.5L82.9914 189.425Z" fill="black"/>
<path d="M119.5 235.5L68.862 214.191L161.5 196L119.5 235.5Z" fill="black"/>
<path d="M17.5 603.5H862.837L712.486 749.5H17.5V603.5Z" fill="white" stroke="black" stroke-width="5"/>
<path d="M715.768 745.817L714.044 704.008L859.339 561.618L861.934 604.006L715.768 745.817Z" fill="white" stroke="black" stroke-width="5"/>
<path d="M17.5 559.5H856.035L712.452 705.5H17.5V559.5Z" fill="white" stroke="black" stroke-width="5"/>
<path d="M63.7803 550.391C63.7803 546.744 66.8753 543.862 70.5137 544.122L624.175 583.721C627.464 583.957 630.012 586.693 630.012 589.99V668.528C630.012 672.257 626.785 675.165 623.076 674.779L69.4143 617.117C66.2125 616.784 63.7803 614.085 63.7803 610.866V550.391Z" fill="#DDFA42" stroke="#BECD0E" stroke-width="2"/>
<path d="M72.5225 557.72C72.5225 554.059 75.64 551.172 79.2908 551.454L611.098 592.467C614.372 592.719 616.899 595.45 616.899 598.733V659.08C616.899 662.802 613.683 665.708 609.981 665.333L78.1738 611.443C74.9645 611.118 72.5225 608.416 72.5225 605.19V557.72Z" fill="white" stroke="#BECD0E" stroke-width="2"/>
<path d="M226.765 552.469L703.835 537.012L765.155 542.368C772.319 542.994 772.987 553.213 765.965 554.766L628.954 585.063C628.341 585.199 627.711 585.242 627.085 585.191L226.765 552.469Z" fill="#DDFA42" stroke="#BECD0E" stroke-width="2"/>
<rect x="46.2959" y="456.146" width="663.851" height="97.0763" rx="6.28502" fill="#DDFA42" stroke="#BECD0E" stroke-width="2"/>
<rect x="63.7803" y="467.802" width="633.254" height="73.7643" rx="6.28502" fill="white" stroke="#BECD0E" stroke-width="2"/>
<path d="M633.747 581.939L767.177 548.259C771.147 547.256 775 550.258 775 554.352V626.284C775 629.046 773.197 631.484 770.556 632.293L637.126 673.159C633.086 674.397 629 671.375 629 667.15V588.033C629 585.154 630.956 582.644 633.747 581.939Z" fill="#DDFA42" stroke="#BECD0E" stroke-width="2"/>
<path d="M639 595.463C639 592.597 640.938 590.095 643.712 589.378L756.142 560.322C760.121 559.294 764 562.298 764 566.407V622.076C764 624.853 762.177 627.301 759.517 628.097L647.087 661.737C643.055 662.944 639 659.924 639 655.716V595.463Z" fill="#DDFA42" stroke="#BECD0E" stroke-width="2"/>
</svg>
