<svg width="702" height="557" viewBox="0 0 702 557" fill="none" xmlns="http://www.w3.org/2000/svg">
<path d="M14 427L10.5 413.5L26.5 82H33.5H37.5L57 79.5L64.5 73H86H94L109.5 70.5L115 64.5L118.5 57.5L122 54L477 56V50.5L486 52V56H590V72L596 76H632V72H641.5L651 80L661 82.5L668 80L686 336.5L692.5 435L686 440.5H636.5V449.5H584V440.5H519.5V449.5H503.5V440.5H482.5V449.5H448V440.5H430V449.5H398.5V439H394.5V446H372V435L366 439V446H340H323L320.5 440.5L314.5 446H300.5L297.5 439V449.5H264.5V439H242.5V449.5H208V439H179V449.5H174.5V435H35.5H25.5L14 427Z" stroke="black" stroke-width="3"/>
<path d="M14.7107 45.8803C14.8064 42.8951 17.2669 40.5319 20.2535 40.5567L678.788 46.0245C681.722 46.0488 684.121 48.3725 684.238 51.3046L700.21 450.78C700.335 453.902 697.838 456.5 694.714 456.5H7.22795C4.12133 456.5 1.63127 453.929 1.73079 450.824L14.7107 45.8803Z" stroke="black" stroke-width="3"/>
<path d="M372 59.5H584V71.5V71.985L584.284 72.3782L590.784 81.3782L591.233 82H592H633H634.5V80.5V79H638.511L641.121 85.0909L641.414 85.7748L642.136 85.9552L652.136 88.4552L652.315 88.5H652.5H663.5V100V100.035L663.502 100.07L677.433 397.612L665.389 398.504L664.901 398.54L664.529 398.857L654.529 407.357L654.145 407.683L654.036 408.175L651.036 421.675L650.959 422.02L651.045 422.364L653.579 432.5H523.5H361.012H361L42.8215 427.544L46.7361 421.85L47.101 421.319L46.9674 420.689L43.4674 404.189L43.327 403.527L42.7381 403.194L31.2381 396.694L31.0536 396.59L30.8474 396.541L21.5332 394.323L25.4988 251.063L30.4976 162.084L30.4983 162.072L30.4988 162.06L33.4408 89H42.5H52.5H52.8183L53.1092 88.8707L62.1092 84.8707L62.4351 84.7259L62.6609 84.4499L66.7108 79.5H110H110.391L110.733 79.3088L123.233 72.3088L123.784 72.0001L123.948 71.39L127.15 59.5H218.5H372Z" stroke="black" stroke-width="3"/>
<path d="M347 333H351H353.5V343L351 346.5L347 343V333Z" fill="black" stroke="black" stroke-width="3"/>
<circle cx="45.5" cy="64.5" r="11" stroke="black" stroke-width="3"/>
<circle cx="656.5" cy="66.5" r="11" stroke="black" stroke-width="3"/>
<circle cx="671.5" cy="419.5" r="11" stroke="black" stroke-width="3"/>
<circle cx="25.5" cy="418.5" r="11" stroke="black" stroke-width="3"/>
<circle cx="175.5" cy="363.5" r="11" stroke="black" stroke-width="3"/>
<circle cx="68.5" cy="391.5" r="11" stroke="black" stroke-width="3"/>
<circle cx="72.5" cy="396.5" r="33" stroke="black" stroke-width="3"/>
<path d="M97.5 392C97.5 407.717 84.5397 420.5 68.5 420.5C52.4603 420.5 39.5 407.717 39.5 392C39.5 376.283 52.4603 363.5 68.5 363.5C84.5397 363.5 97.5 376.283 97.5 392Z" stroke="black" stroke-width="3"/>
<path d="M657.5 394C657.5 409.717 644.54 422.5 628.5 422.5C612.46 422.5 599.5 409.717 599.5 394C599.5 378.283 612.46 365.5 628.5 365.5C644.54 365.5 657.5 378.283 657.5 394Z" stroke="black" stroke-width="3"/>
<path d="M657.5 400.5C657.5 419.932 642.851 435.5 625 435.5C607.149 435.5 592.5 419.932 592.5 400.5C592.5 381.068 607.149 365.5 625 365.5C642.851 365.5 657.5 381.068 657.5 400.5Z" stroke="black" stroke-width="3"/>
<circle cx="183.5" cy="424.5" r="11" stroke="black" stroke-width="3"/>
<circle cx="508.5" cy="421.5" r="11" stroke="black" stroke-width="3"/>
<circle cx="521.5" cy="375.5" r="11" stroke="black" stroke-width="3"/>
<circle cx="521.5" cy="375.5" r="11" stroke="black" stroke-width="3"/>
<circle cx="624.5" cy="393.5" r="11" stroke="black" stroke-width="3"/>
<circle cx="68.5" cy="391.5" r="11" stroke="black" stroke-width="3"/>
<path d="M416.5 361C416.5 365.067 412.996 368.5 408.5 368.5C404.004 368.5 400.5 365.067 400.5 361C400.5 356.933 404.004 353.5 408.5 353.5C412.996 353.5 416.5 356.933 416.5 361Z" stroke="black" stroke-width="3"/>
<path d="M299.5 360C299.5 364.067 295.996 367.5 291.5 367.5C287.004 367.5 283.5 364.067 283.5 360C283.5 355.933 287.004 352.5 291.5 352.5C295.996 352.5 299.5 355.933 299.5 360Z" stroke="black" stroke-width="3"/>
<path d="M121 432.5L124.5 418L128 406L129.5 400H140L160 412.75M160 412.75V411V401.5L138 389.5H131H122V401.5L117.5 413L114.5 423.5V432.5H109V431.5L112 418L114.5 406L117.5 393.5L121 384L128 382L142.5 355L129.5 382H216.5L217.5 385.5L238 384L250.5 382L266 379.5L281 375L292.5 372H309.5L310.5 377L284.5 384L268.5 385.5V407H264V388L243 391.5V414.5H234V407H227.5V429H221.5L216.5 413L201.5 401.5L190.5 391.5H175.5L167 401.5V414.5H160V412.75Z" stroke="black" stroke-width="3"/>
<path d="M578.5 433.5L575 419L571.5 407L570 401H559.5L539.5 413.75M539.5 413.75V412V402.5L561.5 390.5H568.5H577.5V402.5L582 414L585 424.5V433.5H590.5V432.5L587.5 419L585 407L582 394.5L578.5 385L571.5 383L557 356L570 383H483L482 386.5L461.5 385L449 383L433.5 380.5L418.5 376L407 373H390L389 378L415 385L431 386.5V408H435.5V389L456.5 392.5V415.5H465.5V408H472V430H478L483 414L498 402.5L509 392.5H524L532.5 402.5V415.5H539.5V413.75Z" stroke="black" stroke-width="3"/>
<path d="M105 204L37.5 394" stroke="black" stroke-width="3"/>
<path d="M592.5 191.5L656 389" stroke="black" stroke-width="3"/>
<path d="M334.968 234L329.146 234L341.98 198.93L347.585 201.01L334.968 234Z" stroke="black" stroke-width="3"/>
<path d="M309.492 365.66L309.51 365.499L309.492 365.339C309.024 361.013 309.927 357.967 311.707 355.742C313.519 353.478 316.399 351.866 320.26 350.754C328.041 348.514 339.042 348.5 351.001 348.5C362.963 348.5 373.455 348.514 380.979 350.75C384.702 351.857 387.549 353.468 389.471 355.767C391.375 358.044 392.501 361.148 392.501 365.5C392.501 371.324 388.42 375.562 380.877 378.409C373.345 381.252 362.807 382.5 351.001 382.5C339.179 382.5 328.263 381.375 320.542 378.589C316.684 377.197 313.748 375.434 311.873 373.305C310.04 371.225 309.163 368.735 309.492 365.66Z" stroke="black" stroke-width="3"/>
<path d="M354.414 355.503L354.457 355.505L354.5 355.505C371.973 355.505 381.595 357.795 386.207 360.798C388.455 362.262 389.383 363.808 389.61 365.248C389.843 366.728 389.385 368.406 388.238 370.196C385.225 374.894 382.505 376.903 380.016 377.69C377.488 378.49 374.926 378.127 371.944 377.475C371.517 377.382 371.08 377.282 370.633 377.18C368.064 376.593 365.192 375.937 362.164 376.044C358.76 376.165 355.189 377.234 351.387 380.171C343.528 375.521 336.228 376.641 330.276 377.554C329.639 377.652 329.018 377.747 328.412 377.832C325.095 378.302 322.418 378.467 320.114 377.582C317.905 376.733 315.772 374.799 313.874 370.41C313.109 368.64 313.118 366.838 313.981 365.098C314.863 363.319 316.707 361.474 319.85 359.857C326.156 356.614 337.273 354.509 354.414 355.503Z" stroke="black" stroke-width="3"/>
<path d="M33.5 302.5L40 318L48 330L60.5 344L81 360L97.5 369" stroke="black" stroke-width="3"/>
<path d="M671.5 316L663.5 326.5L651 338.5L640 346L625 353L607 359.5L591 362" stroke="black" stroke-width="3"/>
<path d="M297 428.5H332L337.5 421H357.5L363 428.5H399.5V418L395 412V407.5H403V412H410.5V400.5H290.5V412H297V428.5Z" stroke="black" stroke-width="3"/>
<path d="M283.5 398L289.5 400L412 398V393.5L402 388L283.5 389.5V398Z" fill="black" stroke="black" stroke-width="3"/>
<rect x="293.5" y="197.5" width="94" height="4" fill="black" stroke="black" stroke-width="3"/>
<path d="M339.98 233.5L335.703 233.5L348.612 200.746L352.346 202.176L339.98 233.5Z" fill="black" stroke="black" stroke-width="3"/>
<rect x="293.5" y="192.5" width="94" height="6" stroke="black" stroke-width="3"/>
<rect x="293.5" y="243.5" width="94" height="4" fill="black" stroke="black" stroke-width="3"/>
<rect x="293.5" y="235.5" width="94" height="7" stroke="black" stroke-width="3"/>
<path d="M299.5 228C299.5 287.438 253.544 335.5 197 335.5C140.456 335.5 94.5 287.438 94.5 228C94.5 168.562 140.456 120.5 197 120.5C253.544 120.5 299.5 168.562 299.5 228Z" fill="black" stroke="black" stroke-width="3"/>
<path d="M596.5 222.5C596.5 284.972 548.084 335.5 488.5 335.5C428.916 335.5 380.5 284.972 380.5 222.5C380.5 160.028 428.916 109.5 488.5 109.5C548.084 109.5 596.5 160.028 596.5 222.5Z" fill="black" stroke="black" stroke-width="3"/>
<path d="M295.5 220.5C295.5 274.631 251.841 318.5 198 318.5C144.159 318.5 100.5 274.631 100.5 220.5C100.5 166.369 144.159 122.5 198 122.5C251.841 122.5 295.5 166.369 295.5 220.5Z" stroke="white" stroke-width="3"/>
<path d="M290.5 220C290.5 271.079 248.87 312.5 197.5 312.5C146.13 312.5 104.5 271.079 104.5 220C104.5 168.921 146.13 127.5 197.5 127.5C248.87 127.5 290.5 168.921 290.5 220Z" stroke="white" stroke-width="3"/>
<path d="M286.5 219.5C286.5 267.541 247.333 306.5 199 306.5C150.667 306.5 111.5 267.541 111.5 219.5C111.5 171.459 150.667 132.5 199 132.5C247.333 132.5 286.5 171.459 286.5 219.5Z" stroke="white" stroke-width="3"/>
<path d="M591.5 220C591.5 277.727 545.148 324.5 488 324.5C430.852 324.5 384.5 277.727 384.5 220C384.5 162.273 430.852 115.5 488 115.5C545.148 115.5 591.5 162.273 591.5 220Z" stroke="white" stroke-width="3"/>
<circle cx="488.5" cy="220.5" r="98" stroke="white" stroke-width="3"/>
<path d="M581.5 220C581.5 271.079 539.87 312.5 488.5 312.5C437.13 312.5 395.5 271.079 395.5 220C395.5 168.921 437.13 127.5 488.5 127.5C539.87 127.5 581.5 168.921 581.5 220Z" stroke="white" stroke-width="3"/>
<path d="M566.5 216C566.5 257.118 532.501 290.5 490.5 290.5C448.499 290.5 414.5 257.118 414.5 216C414.5 174.882 448.499 141.5 490.5 141.5C532.501 141.5 566.5 174.882 566.5 216Z" fill="white" stroke="white" stroke-width="3"/>
<circle cx="198.5" cy="216.5" r="74" fill="white" stroke="white" stroke-width="3"/>
<path d="M246.5 216C246.5 242.178 224.395 263.5 197 263.5C169.605 263.5 147.5 242.178 147.5 216C147.5 189.822 169.605 168.5 197 168.5C224.395 168.5 246.5 189.822 246.5 216Z" stroke="black" stroke-width="3"/>
<path d="M536.5 217C536.5 243.178 514.395 264.5 487 264.5C459.605 264.5 437.5 243.178 437.5 217C437.5 190.822 459.605 169.5 487 169.5C514.395 169.5 536.5 190.822 536.5 217Z" stroke="black" stroke-width="3"/>
<path d="M202 199H195L189 188L174.5 195.5L179.5 205L176 206.5L172.5 211H163L167.5 228L176 222.5L177 225L179.5 225.5L172.5 235.5L187.5 245.5L189 235.5L195 237L200.5 235.5V245.5L217.5 237L209 229.5L213.5 227L216 222.5L225.5 225.5L227.5 207.5L217.5 211L215.5 206.5L212.5 203L217.5 199L207 190L202 199Z" stroke="black" stroke-width="3"/>
<path d="M494 199H487L481 188L466.5 195.5L471.5 205L468 206.5L464.5 211H455L459.5 228L468 222.5L469 225L471.5 225.5L464.5 235.5L479.5 245.5L481 235.5L487 237L492.5 235.5V245.5L509.5 237L501 229.5L505.5 227L508 222.5L517.5 225.5L519.5 207.5L509.5 211L507.5 206.5L504.5 203L509.5 199L499 190L494 199Z" stroke="black" stroke-width="3"/>
<path d="M143.05 224L137.138 230.059L128 226.525V230.059L129.613 241.168L137.138 256.822L148.425 270.455L156.488 275L171 263.891L167.238 256.822L160.788 253.792L153.8 262.376L151.113 260.356L140.9 244.703L143.05 241.168L151.113 238.644V231.574L143.05 224Z" stroke="black" stroke-width="3"/>
<path d="M499.197 161.701L506.75 155.416L503.783 144.279L507.795 144.669L520.219 147.792L537.125 158.37L551.307 173.15L555.543 183.134L541.275 198.977L533.682 193.771L530.981 185.851L541.523 178.58L539.538 175.196L522.94 161.457L518.682 163.596L514.894 172.8L506.871 172.019L499.197 161.701Z" stroke="black" stroke-width="3"/>
<path d="M81 46.5V54.5H110V46.5M110 46.5V64.5L106 66.5H76.5V46.5H110Z" stroke="black" stroke-width="3"/>
<path d="M598 58.75V52H629.5V58.75M598 58.75V65.5L603.5 71H621L623.5 65.5H629.5V58.75M598 58.75H629.5" stroke="black" stroke-width="3"/>
<path d="M345.792 185.889C346.282 186.556 347.221 186.699 347.889 186.208L358.765 178.211C359.432 177.72 359.576 176.782 359.085 176.114C358.594 175.447 357.655 175.304 356.988 175.794L347.32 182.903L340.211 173.235C339.72 172.568 338.782 172.424 338.114 172.915C337.447 173.406 337.303 174.345 337.794 175.012L345.792 185.889ZM372.517 7.7738L345.517 184.774L348.483 185.226L375.483 8.2262L372.517 7.7738Z" fill="black"/>
<path d="M284.597 142.47C284.304 143.245 284.695 144.111 285.47 144.403L298.1 149.171C298.875 149.464 299.741 149.072 300.033 148.297C300.326 147.522 299.935 146.657 299.16 146.364L287.933 142.126L292.171 130.9C292.464 130.125 292.072 129.259 291.297 128.967C290.522 128.674 289.657 129.065 289.364 129.84L284.597 142.47ZM597.382 0.633103L285.382 141.633L286.618 144.367L598.618 3.3669L597.382 0.633103Z" fill="black"/>
<path d="M531.537 105.331C531.72 106.139 532.523 106.646 533.331 106.463L546.498 103.485C547.306 103.302 547.813 102.499 547.63 101.691C547.448 100.883 546.644 100.376 545.836 100.559L534.132 103.206L531.485 91.5017C531.302 90.6937 530.499 90.1868 529.691 90.3696C528.883 90.5524 528.376 91.3555 528.559 92.1636L531.537 105.331ZM596.731 1.19947L531.731 104.199L534.269 105.801L599.269 2.80053L596.731 1.19947Z" fill="black"/>
<path d="M75.8677 256.984C76.411 257.609 77.3585 257.676 77.9838 257.132L88.1746 248.278C88.7999 247.735 88.8664 246.787 88.3231 246.162C87.7797 245.537 86.8323 245.47 86.207 246.013L77.1485 253.884L69.278 244.825C68.7347 244.2 67.7873 244.134 67.1619 244.677C66.5366 245.22 66.4701 246.168 67.0134 246.793L75.8677 256.984ZM91.5037 27.895L75.5037 255.895L78.4963 256.105L94.4963 28.105L91.5037 27.895Z" fill="black"/>
<path d="M64 412L51.5 474.5" stroke="black" stroke-width="3"/>
<path d="M121.5 444L221.5 555.5" stroke="black" stroke-width="3"/>
<path d="M300.5 441L234.5 474.5" stroke="black" stroke-width="3"/>
<path d="M393 445.5L439.5 473" stroke="black" stroke-width="3"/>
<path d="M553.5 453.5L475.5 549.5" stroke="black" stroke-width="3"/>
<path d="M635 438.5L641 471.5" stroke="black" stroke-width="3"/>
<circle cx="376.5" cy="367.5" r="2.5" fill="black"/>
<circle cx="376.5" cy="367.5" r="2.5" fill="black"/>
<circle cx="376.5" cy="367.5" r="2.5" fill="black"/>
<circle cx="351.5" cy="366.5" r="2.5" fill="black"/>
<circle cx="351.5" cy="366.5" r="2.5" fill="black"/>
<circle cx="351.5" cy="366.5" r="2.5" fill="black"/>
<circle cx="324.5" cy="367.5" r="2.5" fill="black"/>
<circle cx="324.5" cy="367.5" r="2.5" fill="black"/>
<circle cx="324.5" cy="367.5" r="2.5" fill="black"/>
</svg>
