<svg width="1401" height="951" viewBox="0 0 1401 951" fill="none" xmlns="http://www.w3.org/2000/svg">
<path d="M1009.35 249.102C1009.35 297.607 1001.67 340.028 990.384 369.118C984.701 383.769 978.743 393.378 973.807 398.761C972.033 400.694 970.722 401.753 969.881 402.317C969.04 401.753 967.728 400.694 965.955 398.761C961.018 393.378 955.061 383.769 949.378 369.118C938.093 340.028 930.409 297.607 930.409 249.102C930.409 200.597 938.093 158.176 949.378 129.086C955.061 114.435 961.018 104.826 965.955 99.4433C967.728 97.5097 969.04 96.4508 969.881 95.887C970.722 96.4508 972.033 97.5097 973.807 99.4433C978.743 104.826 984.701 114.435 990.384 129.086C1001.67 158.176 1009.35 200.597 1009.35 249.102ZM968.757 402.913C968.757 402.907 968.819 402.881 968.943 402.852C968.819 402.904 968.757 402.919 968.757 402.913ZM970.819 402.852C970.942 402.881 971.004 402.907 971.004 402.913C971.004 402.919 970.942 402.904 970.819 402.852ZM971.004 95.2909C971.004 95.2968 970.942 95.3232 970.818 95.3525C970.942 95.2996 971.004 95.285 971.004 95.2909ZM968.943 95.3525C968.819 95.3232 968.757 95.2968 968.757 95.2909C968.758 95.285 968.82 95.2996 968.943 95.3525Z" fill="white" stroke="black" stroke-width="65.7865"/>
<mask id="path-2-inside-1_329_5362" fill="white">
<rect y="208.22" width="841.127" height="653.166" rx="4.69903"/>
</mask>
<rect y="208.22" width="841.127" height="653.166" rx="4.69903" fill="white" stroke="black" stroke-width="10" mask="url(#path-2-inside-1_329_5362)"/>
<path d="M226.964 281.055L216.156 293.273L207.698 304.081L199.709 314.888L194.54 322.877L190.781 328.986L184.672 338.854L179.034 348.721L174.334 357.18L171.045 365.168L167.756 372.217L165.876 378.325L163.527 383.964L161.177 390.073L159.767 396.652L157.418 404.17" stroke="black" stroke-width="5"/>
<path d="M401.297 886.525L417.23 890.021L430.788 892.151L444.117 893.87L453.611 894.498L460.777 894.81L472.37 895.344L483.735 895.468L493.411 895.457L501.99 894.444L509.749 893.887L516 892.556L522.07 891.865L528.55 890.945L534.983 888.975L542.694 887.369" stroke="black" stroke-width="5"/>
<path d="M285.231 262.259L267.375 275.417L247.169 294.213L237.301 304.551L228.843 314.889L220.854 325.696L215.685 333.685L211.926 339.793L205.817 349.661L200.179 359.529L195.48 367.988L192.19 375.976L188.901 383.025L186.551 387.254L183.732 392.893L180.443 399.471L178.093 406.52L173.394 418.267L169.635 432.364L163.996 461.968" stroke="black" stroke-width="5"/>
<path d="M355.247 845.317L375.601 854.13L402.01 862.138L415.909 865.465L429.099 867.575L442.458 869.042L451.962 869.49L459.133 869.666L470.734 869.981L482.099 869.89L491.773 869.696L500.332 868.52L508.078 867.817L512.915 867.72L519.207 867.32L526.547 866.853L533.821 865.338L546.338 863.489L560.412 859.647L588.834 849.627" stroke="black" stroke-width="5"/>
<rect x="18.4766" y="293.423" width="32.5923" height="221.493" fill="white" stroke="black" stroke-width="5"/>
<rect x="18.4766" y="383.645" width="32.5923" height="38.2311" fill="white" stroke="black" stroke-width="5"/>
<rect x="33.3628" y="302.671" width="2.81942" height="196.42" rx="1.40971" fill="white" stroke="black" stroke-width="2.81942"/>
<circle cx="94.4502" cy="334.624" r="13.0068" fill="white" stroke="black" stroke-width="5"/>
<circle cx="35.7125" cy="687.522" r="17.2359" fill="white" stroke="black" stroke-width="5"/>
<circle cx="745.267" cy="795.599" r="34.1525" fill="white" stroke="black" stroke-width="5"/>
<circle cx="329.872" cy="237.354" r="9.71748" fill="white" stroke="black" stroke-width="5"/>
<circle cx="107.138" cy="703.499" r="5.95826" fill="white" stroke="black" stroke-width="5"/>
<path d="M227.753 693.161C227.753 756.708 177.281 808.136 115.126 808.136C52.9719 808.136 2.5 756.708 2.5 693.161C2.5 629.613 52.9719 578.185 115.126 578.185C177.281 578.185 227.753 629.613 227.753 693.161Z" fill="white" stroke="black" stroke-width="5"/>
<path d="M185.461 692.691C185.461 734.117 151.671 767.725 109.957 767.725C68.2431 767.725 34.4531 734.117 34.4531 692.691C34.4531 651.265 68.2431 617.657 109.957 617.657C151.671 617.657 185.461 651.265 185.461 692.691Z" fill="white" stroke="black" stroke-width="5"/>
<circle cx="494.338" cy="534.333" r="307.636" fill="white" stroke="black" stroke-width="5"/>
<mask id="path-18-inside-2_329_5362" fill="white">
<rect x="71.8691" y="665.76" width="21.9645" height="115.756" rx="2.81942" transform="rotate(-30.4515 71.8691 665.76)"/>
</mask>
<rect x="71.8691" y="665.76" width="21.9645" height="115.756" rx="2.81942" transform="rotate(-30.4515 71.8691 665.76)" fill="white" stroke="black" stroke-width="10" mask="url(#path-18-inside-2_329_5362)"/>
<path d="M78.6273 736.728L127.88 647.179L140.477 653.828L95.664 745.247L78.6273 736.728Z" fill="white" stroke="black" stroke-width="5"/>
<path d="M62.3118 733.294C62.3992 733.156 62.5767 733.106 62.7232 733.179L101.863 752.538C102.01 752.611 102.078 752.783 102.02 752.937L86.1717 795.06C86.1047 795.238 85.8976 795.318 85.7279 795.232L38.6669 771.281C38.4992 771.196 38.4412 770.985 38.5419 770.826L62.3118 733.294Z" fill="white" stroke="black" stroke-width="5"/>
<path d="M780.359 534.333C780.359 692.294 652.097 820.354 493.868 820.354C335.64 820.354 207.378 692.294 207.378 534.333C207.378 376.372 335.64 248.313 493.868 248.313C652.097 248.313 780.359 376.372 780.359 534.333Z" fill="#DDFA42" stroke="black" stroke-width="5"/>
<path d="M338.61 325.556C338.752 325.465 338.939 325.5 339.039 325.635L354.712 346.857C354.809 346.989 354.791 347.173 354.669 347.283L329.64 370.031C329.499 370.159 329.277 370.136 329.166 369.98L310.455 343.903C310.349 343.754 310.389 343.546 310.543 343.447L338.61 325.556Z" fill="white" stroke="black" stroke-width="5"/>
<path d="M309.275 349.124C309.419 349.02 309.621 349.055 309.723 349.2L322.849 367.952C322.953 368.101 322.912 368.307 322.759 368.405L281.861 394.546C281.72 394.636 281.533 394.602 281.433 394.469L269.226 378.192C269.118 378.049 269.15 377.845 269.295 377.741L309.275 349.124Z" fill="white" stroke="black" stroke-width="5"/>
<path d="M254.816 410.669L243.726 395.882L266.307 381.224L277.397 396.011L254.816 410.669Z" fill="white" stroke="black" stroke-width="5"/>
<path d="M586.758 533.863C586.758 588.324 543.443 632.393 490.109 632.393C436.775 632.393 393.459 588.324 393.459 533.863C393.459 479.403 436.775 435.334 490.109 435.334C543.443 435.334 586.758 479.403 586.758 533.863Z" fill="white" stroke="black" stroke-width="5"/>
<rect x="281.615" y="315.737" width="2.69413" height="40.4314" rx="1.34707" transform="rotate(-34.7498 281.615 315.737)" fill="white" stroke="black" stroke-width="2.69413"/>
<path d="M138.622 624.085L129.224 646.64L139.562 650.869L146.14 637.712L148.96 626.434L152.719 615.157L157.888 596.831L160.707 586.963L165.876 562.997L182.793 484.994L191.251 467.607L200.649 453.98L210.047 442.702L221.795 431.894L228.843 426.726L237.771 422.027L253.748 411.689L246.23 400.881L237.771 405.11L228.843 411.689L221.795 416.388L213.336 422.027L202.529 431.894L194.07 440.823L187.492 451.161L181.383 460.559L174.334 475.126L150.839 583.203L138.622 624.085Z" fill="white" stroke="black" stroke-width="5"/>
<path d="M139.092 652.749L147.08 633.483L159.298 592.601L182.793 484.524L189.841 469.957L195.95 460.558L202.529 450.221L210.987 441.292L221.795 431.424L230.253 425.786L237.302 421.087L246.23 414.508L254.688 410.279" stroke="black" stroke-width="5"/>
<circle cx="490.109" cy="534.803" r="9.24758" fill="white" stroke="black" stroke-width="5"/>
<rect x="14.7168" y="542.472" width="38.2311" height="10.9767" fill="white" stroke="black" stroke-width="5"/>
<path d="M849.584 130.686L862.742 123.638L905.503 100.143L947.324 86.5156L989.616 76.6476L1034.73 64.9L1111.32 55.0321L1214.23 36.7058L1398.5 3V86.5156V152.772L1214.23 186.135L1135.76 202.582L1034.73 222.318L989.616 225.137L928.998 247.692L860.392 284.815L853.814 287.634L842.066 294.213L762.652 361.409L751.375 369.867L738.217 377.856L728.349 382.085L714.722 387.254L704.854 391.483L695.926 397.592L689.347 404.64L681.359 416.858L674.311 427.665L668.202 436.124L662.563 441.293H658.334L653.635 439.883L649.876 436.124L647.056 433.304L645.646 427.665V413.568L649.876 403.7L655.514 392.423L660.213 384.904L664.443 375.976L670.081 363.759H652.695L633.429 367.048L619.802 368.458L605.705 371.747L594.897 373.157L580.33 375.976L568.582 376.916L554.015 378.326H525.351H521.122L513.134 375.976L508.905 371.747L506.555 367.048L510.784 359.134L508.905 359.529L488.229 361.409H477.421L471.782 357.65L468.023 354.83L466.613 350.601L468.023 343.553L471.782 339.324L477.421 335.564L483.06 332.275L488.229 329.456H500.916L519.632 321.348L513.134 322.877L502.326 327.106H498.097L494.338 324.287L491.518 320.997V309.72L494.338 306.9L502.326 300.322L513.134 293.743L521.122 289.514L532.4 284.815L541.798 280.586L554.015 274.477L567.642 267.428L581.74 262.259L589.728 258.97L601.945 253.331L605.705 247.692L608.524 242.523L605.705 233.595L601.945 230.306L594.897 225.137L589.728 222.318L581.74 219.498L572.342 217.619H554.015L546.497 220.908H537.099L527.231 222.318H520.182L515.013 217.619L513.134 212.45L518.303 202.582L527.231 196.003L534.279 190.834L541.798 189.424L549.316 186.135H558.714H572.342L589.728 190.834L608.524 193.654H638.128L651.755 190.834L664.443 186.135L677.6 181.436L694.986 176.267L708.613 171.098L722.711 165.929L733.518 162.64L746.676 159.82L759.833 157.941L773.46 155.591L783.328 154.182L793.196 152.772L802.594 150.892L813.402 147.133L825.149 142.904L835.957 137.265L849.584 130.686Z" fill="white"/>
<path d="M585.71 335.564L562.943 343.553L542.738 349.661L517.833 357.65L510.784 359.134M585.71 335.564L589.728 334.155L601.945 329.456L611.813 327.106H624.971L627.79 328.046L611.813 332.275L601.945 334.155L585.71 335.564ZM510.784 359.134L508.905 359.529L488.229 361.409H477.421L471.782 357.65L468.023 354.83L466.613 350.601L468.023 343.553L471.782 339.324L477.421 335.564L483.06 332.275L488.229 329.456H500.916L616.982 279.176L605.705 287.164L596.776 291.863L589.728 295.153L582.679 297.502L577.98 300.322L569.522 303.141L560.594 306.9L550.256 309.72L540.388 313.479L532.4 317.238L521.122 320.997L513.134 322.877L502.326 327.106H498.097L494.338 324.287L491.518 320.997V309.72L494.338 306.9L502.326 300.322L513.134 293.743L521.122 289.514L532.4 284.815L541.798 280.586L554.015 274.477L567.642 267.428L581.74 262.259L589.728 258.97L601.945 253.331L605.705 247.692L608.524 242.523L605.705 233.595L601.945 230.306L594.897 225.137L589.728 222.318L581.74 219.498L572.342 217.619H554.015L546.497 220.908H537.099L527.231 222.318H520.182L515.013 217.619L513.134 212.45L518.303 202.582L527.231 196.003L534.279 190.834L541.798 189.424L549.316 186.135H558.714H572.342L589.728 190.834L608.524 193.654H638.128L651.755 190.834L664.443 186.135L677.6 181.436L694.986 176.267L708.613 171.098L722.711 165.929L733.518 162.64L746.676 159.82L759.833 157.941L773.46 155.591L783.328 154.182L793.196 152.772L802.594 150.892L813.402 147.133L825.149 142.904L835.957 137.265L849.584 130.686L862.742 123.638L905.503 100.143L947.324 86.5156L989.616 76.6476L1034.73 64.9L1111.32 55.0321L1214.23 36.7058L1398.5 3V86.5156V152.772L1214.23 186.135L1135.76 202.582L1034.73 222.318L989.616 225.137L928.998 247.692L860.392 284.815M510.784 359.134L506.555 367.048L508.905 371.747L513.134 375.976L521.122 378.326H525.351H554.015L568.582 376.916L580.33 375.976L594.897 373.157L605.705 371.747L619.802 368.458L633.429 367.048L652.695 363.759H670.081M671.961 363.759L689.347 361.409L704.854 359.529L719.421 357.65L729.289 354.83L743.856 352.481L671.961 363.759ZM671.961 363.759H670.081M670.081 363.759L664.443 375.976L660.213 384.904L655.514 392.423L649.876 403.7L645.646 413.568V427.665L647.056 433.304L649.876 436.124L653.635 439.883L658.334 441.293H662.563L668.202 436.124L674.311 427.665L681.359 416.858L689.347 404.64L695.926 397.592L704.854 391.483L714.722 387.254L728.349 382.085L738.217 377.856L751.375 369.867L762.652 361.409L842.066 294.213L853.814 287.634L860.392 284.815M860.392 284.815H863.212" stroke="black" stroke-width="5"/>
<path d="M1009.35 249.102C1009.35 297.607 1001.67 340.028 990.384 369.118C984.701 383.769 978.743 393.378 973.807 398.761C972.033 400.694 970.722 401.753 969.881 402.317C969.039 401.753 967.728 400.694 965.955 398.761C961.018 393.378 955.061 383.769 949.378 369.118C938.093 340.028 930.409 297.607 930.409 249.102C930.409 200.597 938.093 158.176 949.378 129.086C955.061 114.435 961.018 104.826 965.955 99.4433C967.728 97.5097 969.04 96.4508 969.881 95.887C970.722 96.4508 972.033 97.5097 973.807 99.4433C978.743 104.826 984.701 114.435 990.384 129.086C1001.67 158.176 1009.35 200.597 1009.35 249.102ZM968.757 402.913C968.757 402.907 968.819 402.881 968.943 402.852C968.82 402.904 968.758 402.919 968.757 402.913ZM970.818 402.852C970.942 402.881 971.004 402.907 971.004 402.913C971.004 402.919 970.942 402.904 970.818 402.852ZM971.004 95.2909C971.004 95.2968 970.942 95.3232 970.818 95.3525C970.942 95.2996 971.004 95.285 971.004 95.2909ZM968.943 95.3525C968.819 95.3232 968.757 95.2968 968.757 95.2909C968.758 95.285 968.82 95.2996 968.943 95.3525Z" stroke="black" stroke-width="65.7865"/>
<path d="M1307.11 213C1307.11 267.615 1299.32 315.652 1287.71 348.875C1281.86 365.639 1275.64 376.859 1270.36 383.245C1269.21 384.632 1268.26 385.629 1267.5 386.338C1266.74 385.629 1265.79 384.632 1264.64 383.245C1259.36 376.859 1253.14 365.639 1247.29 348.875C1235.68 315.652 1227.89 267.615 1227.89 213C1227.89 158.385 1235.68 110.348 1247.29 77.125C1253.14 60.3611 1259.36 49.1406 1264.64 42.7552C1265.79 41.368 1266.74 40.3713 1267.5 39.6621C1268.26 40.3713 1269.21 41.368 1270.36 42.7552C1275.64 49.1406 1281.86 60.3611 1287.71 77.125C1299.32 110.348 1307.11 158.385 1307.11 213ZM1265.33 387.971C1265.33 387.965 1265.39 387.929 1265.52 387.882C1265.39 387.954 1265.33 387.977 1265.33 387.971ZM1269.48 387.882C1269.61 387.929 1269.67 387.965 1269.67 387.971C1269.67 387.977 1269.61 387.954 1269.48 387.882ZM1269.67 38.0287C1269.67 38.0349 1269.61 38.0708 1269.48 38.1178C1269.61 38.0461 1269.67 38.0226 1269.67 38.0287ZM1265.52 38.1178C1265.39 38.0708 1265.33 38.0349 1265.33 38.0287C1265.33 38.0226 1265.39 38.0461 1265.52 38.1178Z" fill="white" stroke="black" stroke-width="65.7865"/>
<path d="M1162.11 299.5C1162.11 367.764 1154.2 428.344 1142.13 470.817C1136.02 492.278 1129.37 507.256 1123.42 516.111C1123.1 516.587 1122.79 517.031 1122.5 517.443C1122.21 517.031 1121.9 516.587 1121.58 516.111C1115.63 507.256 1108.98 492.278 1102.87 470.817C1090.8 428.344 1082.89 367.764 1082.89 299.5C1082.89 231.013 1090.09 164.688 1101.71 116.385C1107.46 92.5189 1113.87 74.8368 1119.98 63.735C1119.99 63.7526 1120 63.7702 1120.01 63.7878C1126.73 74.9449 1133.95 92.9497 1140.51 117.258C1153.5 165.419 1162.11 231.482 1162.11 299.5ZM1117.87 522.63C1117.87 522.621 1117.95 522.56 1118.12 522.472C1117.96 522.594 1117.87 522.638 1117.87 522.63ZM1126.88 522.472C1127.05 522.56 1127.13 522.621 1127.13 522.63C1127.13 522.638 1127.04 522.594 1126.88 522.472ZM1126.41 54.5679C1126.41 54.5804 1126.31 54.6761 1126.1 54.8178C1126.3 54.6263 1126.41 54.5555 1126.41 54.5679ZM1113.45 55.0566C1113.32 54.9787 1113.26 54.9291 1113.26 54.9238C1113.26 54.9186 1113.32 54.9575 1113.45 55.0566Z" fill="white" stroke="black" stroke-width="65.7865"/>
<path d="M906.444 103.432L938.397 90.7446L943.096 91.6844L953.434 110.011L963.302 143.374L969.881 177.677L971.29 229.366L892.816 264.609L906.444 103.432Z" fill="white"/>
<path d="M1079.55 61.7923L1113.47 56.1805L1117.86 58.0968L1124.07 78.2005L1126.63 112.898L1125.77 147.816L1122.5 200L1048 217.5L1056.5 136L1079.55 61.7923Z" fill="white"/>
<path d="M1228.5 36.5001L1262.66 30.2864L1267.05 32.2027L1273.26 52.3064L1275.82 87.0041L1274.96 121.922L1273.26 171.5L1194.5 188L1200 110.5L1210 69.5L1228.5 36.5001Z" fill="white"/>
<path d="M962.361 235.945L981.157 228.426" stroke="black" stroke-width="4.69903"/>
<path d="M1261 175V176.5L1277 172.5" stroke="black" stroke-width="5"/>
<path d="M1118.5 203L1128.5 200" stroke="black" stroke-width="5"/>
<path d="M326.522 679.74C315.571 668.428 313.218 652.332 320.701 640.367L330.017 625.473C337.5 613.508 350.356 612.988 361.24 624.231C372.324 635.68 374.413 650.968 366.625 663.421L364.843 666.269L354.092 655.165L356.129 651.909C359.336 646.781 358.431 641.023 353.69 636.126C348.682 630.953 344.01 631.218 340.344 637.078L331.792 650.752C328.127 656.612 328.864 662.464 333.938 667.706C338.746 672.672 343.249 672.501 346.507 667.292L348.238 664.525L358.989 675.629L357.461 678.071C349.724 690.443 337.539 691.12 326.522 679.74Z" fill="black"/>
<path d="M381.095 724.858C368.877 714.478 365.125 698.34 370.73 685.913L377.953 669.899C383.597 657.385 395.796 654.796 408.014 665.176C420.232 675.555 423.984 691.694 418.339 704.208L411.116 720.222C405.472 732.736 393.386 735.3 381.095 724.858ZM382.752 695.158C379.949 701.371 381.337 707.27 386.897 711.994C392.165 716.469 397.081 715.441 399.726 709.578L406.357 694.876C409.12 688.75 407.699 682.701 402.212 678.04C396.724 673.378 392.146 674.33 389.383 680.456L382.752 695.158Z" fill="black"/>
<path d="M453.772 753.667C437.517 749.818 429.533 739.469 430.447 724.714L430.536 723.276L445.483 726.815L445.4 728.157C445.026 734.193 448.286 738.174 455.012 739.766C460.43 741.049 464.123 739.59 464.348 735.949L464.414 734.895C464.639 731.254 462.031 728.984 456.146 727.59L450.541 726.263L451.336 713.424L457.035 714.773C461.986 715.945 464.621 714.722 464.846 711.081L464.894 710.315C465.125 706.578 462.179 703.644 456.948 702.405C450.595 700.901 447.323 703.237 446.955 709.178L446.866 710.615L431.919 707.076L432.02 705.447C432.916 690.979 441.846 684.538 457.634 688.276C471.646 691.594 480.461 700.778 479.802 711.414L479.672 713.522C479.333 718.983 476.544 722.698 471.8 724.297C477.058 728.167 479.587 733.238 479.213 739.274L479.089 741.287C478.424 752.018 468.158 757.073 453.772 753.667Z" fill="black"/>
<path d="M496.517 767.904L491.929 741.321L497.451 740.606C499.392 734.938 499.696 728.806 498.24 719.807L493.677 691.673L536.329 686.152L544.673 734.493L551.337 733.63L555.925 760.213L540.788 762.173L538.567 749.307L509.529 753.066L511.75 765.932L496.517 767.904ZM511.922 738.733L529.535 736.453L523.559 701.829L509.944 703.591L512.19 718.291C513.583 727.492 513.246 733.435 511.922 738.733Z" fill="black"/>
<path d="M567.804 740.684L566.916 738.559L560.42 675.21L576.699 668.111L616.899 716.763L617.787 718.889L603.532 725.105L597.07 716.613L580.527 723.827L582.06 734.468L567.804 740.684ZM578.735 710.576L589.031 706.087L575.562 688.294L578.735 710.576Z" fill="black"/>
<path d="M635.985 704.082L609.102 662.933L598.369 672.96L590.808 661.387L623.498 630.848L631.059 642.421L620.326 652.448L647.21 693.596L635.985 704.082Z" fill="black"/>
<path d="M677.253 663.246L627.156 625.084L645.489 587.456L656.409 595.775L644.762 619.681L653.468 626.313L664.316 604.047L675.16 612.307L664.312 634.573L673.018 641.205L684.665 617.299L695.585 625.618L677.253 663.246Z" fill="black"/>
<path d="M705.721 607.587L692.96 602.027L693.193 600.121C693.786 595.261 691.643 592.32 685.857 589.598L649.128 573.093L654.388 530.021L712.122 555.176L710.26 570.423L665.287 550.828L663.611 564.55L688.988 576.109C701.978 582.07 707.746 591.006 706.268 603.108L705.721 607.587Z" fill="black"/>
<path d="M715.292 532.343L653.906 518.283L653.499 503.217L688.778 511.297L653.013 485.175L652.599 469.821L713.985 483.881L714.391 498.947L679.113 490.867L714.878 516.989L715.292 532.343Z" fill="black"/>
<path d="M988.097 387.142L978.223 382.205L976.38 385.89L982.659 398.018L981.299 400.737L980.906 400.541L974.895 388.859C972.624 393.224 968.831 394.637 964.824 392.634L964.323 392.383C960.245 390.344 959.136 386.391 961.39 381.883L965.915 372.831L989.385 384.566L988.097 387.142ZM966.112 390.058C968.831 391.417 971.157 390.523 972.695 387.446L975.897 381.042L966.989 376.588L963.769 383.028C962.266 386.033 962.892 388.448 965.611 389.808L966.112 390.058Z" fill="white"/>
<path d="M992.311 378.714L974.637 369.877L975.871 367.409L983.599 371.273L985.298 367.874L980.522 358.107L981.899 355.352L982.329 355.566L987.499 366.157L999.305 363.742L999.699 363.938L998.339 366.657L987.588 368.929L985.853 372.4L993.545 376.246L992.311 378.714Z" fill="white"/>
<path d="M1005.39 353.531C1003.19 357.932 999.008 359.417 994.75 357.288L990.386 355.106C986.092 352.959 984.715 348.737 986.933 344.301C989.133 339.9 993.355 338.434 997.648 340.58L1002.01 342.763C1006.27 344.891 1007.59 349.131 1005.39 353.531ZM995.913 354.784C998.847 356.251 1001.6 355.302 1003.07 352.369C1004.55 349.399 1003.61 346.644 1000.71 345.195L996.486 343.085C993.552 341.618 990.779 342.512 989.294 345.482C987.81 348.451 988.722 351.188 991.691 352.673L995.913 354.784Z" fill="white"/>
<path d="M1011.54 328.652C1010.52 333.872 1006.82 336.286 1001.48 335.237L995.243 334.011C988.021 332.593 985.407 329.715 985.802 323.759L986.05 320.424C986.124 319.216 985.926 318.77 985.22 318.631L984.709 318.531L985.241 315.822L985.948 315.961C987.95 316.354 988.73 317.568 988.574 320.023L988.351 323.648C988.037 328.152 989.661 330.265 994.017 331.121L994.057 331.128C992.725 329.399 992.222 326.977 992.693 324.583C993.587 320.03 997.101 317.704 1001.81 318.629L1005.34 319.323C1010.17 320.271 1012.5 323.785 1011.54 328.652ZM1002.06 332.497C1005.87 333.245 1008.29 331.723 1008.98 328.19C1009.63 324.893 1008.1 322.718 1004.73 322.055L1001.47 321.415C998.014 320.736 995.775 322.172 995.128 325.469C994.703 327.627 995.299 329.783 996.686 331.441L1002.06 332.497Z" fill="white"/>
<path d="M1015.69 305.231L989.946 300.174L991.92 290.126C992.868 285.298 996.115 282.878 1000.47 283.734L1001.02 283.842C1005.38 284.698 1007.47 288.166 1006.52 292.994L1005.1 300.216L1016.25 302.405L1015.69 305.231ZM1002.55 299.714L1003.96 292.532C1004.6 289.274 1003.37 287.239 1000.47 286.668L999.917 286.56C997.052 285.997 995.135 287.455 994.503 290.674L993.092 297.856L1002.55 299.714Z" fill="white"/>
<path d="M1025.43 280.946H1022.87V278.466C1022.87 276.626 1022.51 275.786 1020.31 274.906L1018.87 274.346L999.354 282.306H998.874V279.466L1015.31 272.906L998.874 266.506V263.666H999.354L1021.15 272.306C1024.27 273.506 1025.43 275.066 1025.43 278.226V280.946Z" fill="white"/>
<path d="M1018.63 258.855H998.874V256.095H1007.47V245.895H998.874V243.095H1018.63V245.895H1010.03V256.095H1018.63V258.855Z" fill="white"/>
<path d="M1018.63 237.723H998.874V225.763H1001.43V234.963H1018.63V237.723Z" fill="white"/>
<path d="M1016.23 213.148C1017.09 218.033 1014.65 221.712 1009.92 222.544L1005.07 223.397C1000.43 224.215 996.758 221.611 995.905 216.765C995.067 211.999 997.638 208.378 1002.25 207.567L1005.67 206.964L1007.98 220.082L1009.36 219.839C1012.63 219.264 1014.25 216.908 1013.66 213.56C1013.15 210.644 1011.08 208.855 1008.79 209.217L1008.31 206.499C1012.2 205.938 1015.44 208.657 1016.23 213.148ZM1005.74 220.477L1003.91 210.077L1002.84 210.264C999.613 210.833 997.911 213.163 998.466 216.315C999.042 219.584 1001.44 221.233 1004.71 220.658L1005.74 220.477Z" fill="white"/>
<path d="M1125.11 471.5L1146.91 432.738C1147.38 431.917 1147.72 431.034 1147.94 430.116L1160.35 377.125C1160.52 376.378 1160.61 375.612 1160.61 374.844V325.5V270.5L1153.2 198.824C1153.14 198.276 1153.04 197.733 1152.89 197.201L1142.11 158" stroke="black" stroke-width="5"/>
<path d="M1137.95 475.195L1115.08 462.331L1116.49 459.821L1126.77 465.606L1132.58 455.286L1122.29 449.501L1123.71 446.991L1146.58 459.856L1145.17 462.366L1134.88 456.581L1129.08 466.9L1139.36 472.685L1137.95 475.195Z" fill="white"/>
<path d="M1149.77 454.177L1132.55 444.49L1133.86 442.154L1147.22 449.665L1138.92 433.159L1140.16 430.963L1157.38 440.65L1156.07 442.986L1142.75 435.495L1151.01 451.981L1149.77 454.177Z" fill="white"/>
<path d="M1163.95 418.743L1147.2 414.82L1145.25 423.155L1155.21 425.733C1159.78 426.887 1161.52 429.102 1160.7 432.608L1160.48 433.542L1157.99 432.958L1158.15 432.296C1158.63 430.232 1157.47 429.056 1154.33 428.239L1142.16 425.141L1145.34 411.549L1164.58 416.056L1163.95 418.743Z" fill="white"/>
<path d="M1166.04 409.836L1146.8 405.329L1147.43 402.642L1154.48 404.293L1156.02 397.711C1156.96 393.7 1159.89 391.716 1163.47 392.555L1163.82 392.637C1167.44 393.486 1169.14 396.594 1168.21 400.567L1166.04 409.836ZM1164.21 406.574L1165.73 400.109C1166.31 397.616 1165.37 395.835 1163.19 395.324L1162.88 395.251C1160.7 394.741 1159.03 395.91 1158.45 398.403L1156.93 404.868L1164.21 406.574Z" fill="white"/>
<path d="M1172.96 382.193C1171.84 386.983 1168.07 389.426 1163.47 388.35L1158.68 387.228C1154.05 386.142 1151.74 382.315 1152.87 377.486C1153.94 372.929 1157.64 370.468 1161.88 371.462L1162.31 371.562L1161.68 374.25L1161.25 374.149C1158.49 373.502 1156.13 375.128 1155.44 378.088C1154.68 381.32 1156.2 383.772 1159.4 384.52L1164.03 385.605C1167.22 386.353 1169.68 384.832 1170.43 381.6C1171.13 378.64 1169.74 376.138 1167.05 375.509L1166.63 375.408L1167.25 372.721L1167.68 372.821C1171.93 373.816 1174.05 377.558 1172.96 382.193Z" fill="white"/>
<path d="M1173.61 352.214H1149.97V360.134H1147.37V341.414H1149.97V349.334H1173.61V352.214Z" fill="white"/>
<path d="M1174.05 331.143C1174.05 336.063 1170.97 339.263 1166.21 339.263H1161.33C1156.53 339.263 1153.41 336.103 1153.41 331.143C1153.41 326.223 1156.53 323.023 1161.33 323.023H1166.21C1170.97 323.023 1174.05 326.223 1174.05 331.143ZM1166.13 336.503C1169.41 336.503 1171.45 334.423 1171.45 331.143C1171.45 327.823 1169.37 325.783 1166.13 325.783H1161.41C1158.13 325.783 1156.05 327.823 1156.05 331.143C1156.05 334.463 1158.09 336.503 1161.41 336.503H1166.13Z" fill="white"/>
<path d="M1173.61 317.277H1153.85V313.677L1169.85 306.637L1153.85 299.637V295.997H1173.61V298.557H1157.61L1158.93 299.037L1173.61 305.517V307.717L1158.97 314.197L1157.53 314.717H1173.61V317.277Z" fill="white"/>
<path d="M1174.05 281.95C1174.05 286.87 1170.93 290.11 1166.21 290.11H1161.29C1156.53 290.11 1153.41 286.91 1153.41 281.95C1153.41 277.27 1156.45 274.03 1160.81 274.03H1161.25V276.79H1160.81C1157.97 276.79 1156.05 278.91 1156.05 281.95C1156.05 285.27 1158.09 287.31 1161.37 287.31H1166.13C1169.41 287.31 1171.45 285.27 1171.45 281.95C1171.45 278.91 1169.53 276.79 1166.77 276.79H1166.33V274.03H1166.77C1171.13 274.03 1174.05 277.19 1174.05 281.95Z" fill="white"/>
<path d="M1171.62 250.594C1171.83 252.583 1171.18 254.058 1169.77 254.847C1171.67 256.138 1172.86 258.268 1173.14 261.013C1173.57 265.111 1171.76 267.872 1168.34 268.226C1165.16 268.555 1163.15 266.671 1162.06 262.32L1160.58 256.24L1159.19 256.384C1156.21 256.693 1154.78 258.489 1155.11 261.672C1155.44 264.815 1157.22 266.441 1159.88 266.165L1160.16 266.136L1160.45 268.921L1160.17 268.95C1155.99 269.382 1152.98 266.678 1152.48 261.903C1151.98 257.01 1154.29 254.076 1158.94 253.595L1166.98 252.763C1168.49 252.607 1169.17 251.812 1169.02 250.3L1168.87 248.908L1171.42 248.645L1171.62 250.594ZM1168.01 265.484C1169.96 265.283 1171 263.607 1170.73 261.061C1170.47 258.475 1168.97 256.418 1166.83 255.594L1162.81 256.009L1164.2 261.617C1164.89 264.4 1166.14 265.678 1168.01 265.484Z" fill="white"/>
<path d="M1171.07 245.221L1151.41 247.254L1151.13 244.509L1159.68 243.624L1158.63 233.478L1150.08 234.363L1149.79 231.578L1169.44 229.545L1169.73 232.33L1161.18 233.215L1162.23 243.361L1170.78 242.476L1171.07 245.221Z" fill="white"/>
<path d="M1271.4 358.5L1294.94 327.436C1295.9 326.164 1296.55 324.679 1296.82 323.107L1304.9 276.5L1309.9 214V151.559C1309.9 150.855 1309.83 150.153 1309.68 149.464L1296.4 87.5" stroke="black" stroke-width="5"/>
<path d="M1281.86 366.23L1279.75 364.636L1280.24 363.998C1281.81 361.926 1281.13 359.907 1277.99 357.483L1263.91 346.463L1273.38 333.965L1294.3 349.81L1292.56 352.106L1273.75 337.855L1267.73 345.794L1279.93 355.389C1284.16 358.745 1285.05 362.021 1282.58 365.274L1281.86 366.23Z" fill="white"/>
<path d="M1298.21 344.648L1282.46 332.716L1284.07 330.58L1296.29 339.831L1290.31 322.354L1291.83 320.345L1307.58 332.277L1305.96 334.413L1293.78 325.187L1299.73 342.639L1298.21 344.648Z" fill="white"/>
<path d="M1312.24 312.868C1311.35 317.952 1308.42 320.609 1304.36 319.905L1303.61 319.775L1304.09 317.016L1304.68 317.119C1307.4 317.591 1309.18 315.952 1309.81 312.365C1310.4 308.936 1309.57 306.925 1307.37 306.542L1307.05 306.488C1305.16 306.16 1303.82 307.308 1303.43 309.594L1302.71 313.693L1300.31 313.276L1300.99 309.374C1301.38 307.088 1300.56 305.524 1298.79 305.217L1298.47 305.162C1296.38 304.799 1294.97 306.382 1294.39 309.732C1293.78 313.239 1294.98 315.437 1297.74 315.916L1298.25 316.004L1297.78 318.763L1297.22 318.667C1293.16 317.963 1291.08 314.313 1291.93 309.387C1292.79 304.46 1295.32 301.813 1298.67 302.395L1299.14 302.477C1301.11 302.818 1302.38 304.175 1302.78 306.275C1303.85 304.349 1305.55 303.427 1307.68 303.796L1308.15 303.878C1311.62 304.479 1313.12 307.784 1312.24 312.868Z" fill="white"/>
<path d="M1316.93 283.219C1316.59 285.189 1315.56 286.432 1314 286.809C1315.48 288.568 1316.04 290.94 1315.57 293.659C1314.86 297.718 1312.38 299.885 1308.99 299.297C1305.83 298.75 1304.42 296.393 1304.54 291.909L1304.78 285.657L1303.4 285.418C1300.44 284.905 1298.58 286.247 1298.04 289.4C1297.5 292.514 1298.77 294.561 1301.41 295.019L1301.68 295.067L1301.2 297.825L1300.93 297.777C1296.79 297.06 1294.62 293.639 1295.44 288.91C1296.28 284.062 1299.3 281.866 1303.92 282.666L1311.88 284.047C1313.37 284.306 1314.25 283.727 1314.51 282.229L1314.74 280.85L1317.27 281.287L1316.93 283.219ZM1309.42 296.571C1311.35 296.906 1312.8 295.574 1313.24 293.052C1313.68 290.49 1312.8 288.104 1310.96 286.73L1306.98 286.04L1306.79 291.812C1306.7 294.679 1307.57 296.25 1309.42 296.571Z" fill="white"/>
<path d="M1317.29 257.552C1316.78 263.932 1312.86 267.39 1306.64 266.892L1304.52 266.723C1298.3 266.225 1294.93 262.184 1295.44 255.804L1295.61 253.691L1293.02 253.484L1293.25 250.613L1295.84 250.82L1296.01 248.747C1296.52 242.327 1300.49 238.873 1306.71 239.37L1308.82 239.54C1315.04 240.037 1318.37 244.075 1317.86 250.495L1317.69 252.568L1320.28 252.776L1320.06 255.646L1317.46 255.439L1317.29 257.552ZM1306.83 264.018C1311.53 264.395 1314.24 262.084 1314.62 257.339L1314.79 255.225L1298.24 253.902L1298.08 256.015C1297.7 260.76 1300.05 263.476 1304.79 263.855L1306.83 264.018ZM1315.02 252.394L1315.19 250.281C1315.57 245.497 1313.3 242.787 1308.55 242.407L1306.52 242.245C1301.78 241.865 1299.02 244.213 1298.64 248.957L1298.47 251.071L1315.02 252.394Z" fill="white"/>
<path d="M1321.23 235.429L1301.53 233.854L1301.75 231.182L1317.02 232.404L1302.57 220.895L1302.77 218.383L1322.47 219.959L1322.25 222.63L1307.02 221.412L1321.43 232.917L1321.23 235.429Z" fill="white"/>
<path d="M1322.9 212.225H1303.14V209.465H1320.34V200.385H1303.14V197.585H1320.34V188.625H1303.14V185.825H1322.9V212.225Z" fill="white"/>
<path d="M1323.34 171.081C1323.34 176.401 1320.18 179.481 1314.74 179.481H1308.38C1301.02 179.481 1297.9 177.161 1297.14 171.241L1296.74 167.921C1296.58 166.721 1296.3 166.321 1295.58 166.321H1295.06V163.561H1295.78C1297.82 163.561 1298.82 164.601 1299.14 167.041L1299.62 170.641C1300.18 175.121 1302.18 176.881 1306.62 176.881H1306.66C1305.02 175.441 1304.06 173.161 1304.06 170.721C1304.06 166.081 1307.06 163.121 1311.86 163.121H1315.46C1320.38 163.121 1323.34 166.121 1323.34 171.081ZM1314.78 176.681C1318.66 176.681 1320.74 174.721 1320.74 171.121C1320.74 167.761 1318.82 165.921 1315.38 165.921H1312.06C1308.54 165.921 1306.62 167.761 1306.62 171.121C1306.62 173.321 1307.62 175.321 1309.3 176.681H1314.78Z" fill="white"/>
<path d="M1320.58 138.296C1321 140.252 1320.51 141.788 1319.2 142.724C1321.23 143.802 1322.64 145.791 1323.22 148.49C1324.08 152.519 1322.58 155.458 1319.22 156.179C1316.09 156.849 1313.9 155.192 1312.34 150.985L1310.22 145.099L1308.85 145.392C1305.92 146.021 1304.7 147.959 1305.37 151.088C1306.03 154.178 1307.97 155.603 1310.59 155.041L1310.86 154.983L1311.45 157.721L1311.18 157.779C1307.07 158.659 1303.78 156.296 1302.78 151.602C1301.75 146.792 1303.73 143.626 1308.3 142.646L1316.2 140.953C1317.69 140.634 1318.28 139.771 1317.96 138.285L1317.67 136.916L1320.17 136.379L1320.58 138.296ZM1318.6 153.488C1320.52 153.077 1321.37 151.301 1320.83 148.798C1320.28 146.255 1318.57 144.372 1316.36 143.783L1312.41 144.629L1314.39 150.055C1315.38 152.748 1316.76 153.882 1318.6 153.488Z" fill="white"/>
<path d="M1319.69 134.107L1319.26 134.199L1308.52 129.545L1300.8 137.99L1300.33 138.091L1299.7 135.157L1306.23 128.195L1297.42 124.519L1296.79 121.585L1297.26 121.485L1307.77 126.025L1315.65 117.381L1316.08 117.289L1316.71 120.222L1310.06 127.374L1319.06 131.173L1319.69 134.107Z" fill="white"/>
</svg>
