<svg width="930" height="793" viewBox="0 0 930 793" fill="none" xmlns="http://www.w3.org/2000/svg">
<g clip-path="url(#clip0_511_7)">
<rect width="930" height="793" fill="white"/>
<path d="M269 595.567L313.786 538.498" stroke="black" stroke-width="5.26562"/>
<path d="M49.6748 499.935L82.874 466.358" stroke="black" stroke-width="5.26562"/>
<path d="M452 663.567L496.786 606.498" stroke="black" stroke-width="5.26562"/>
<path d="M633 740.567L677.786 683.498" stroke="black" stroke-width="5.26562"/>
<path d="M260.406 389.339L301.176 348.415" stroke="black" stroke-width="5.26562"/>
<path d="M483.856 487.633L528.642 430.563" stroke="black" stroke-width="5.26562"/>
<path d="M796.144 614.462L828.642 549.604" stroke="black" stroke-width="5.26562"/>
<path d="M636.886 551.228L673.899 488.837" stroke="black" stroke-width="5.26562"/>
<path d="M363.166 284.849L414.763 233.855" stroke="black" stroke-width="5.26562"/>
<path d="M549.137 374.42L593.923 317.35" stroke="black" stroke-width="5.26562"/>
<path d="M707.105 439.362L741.304 392.694" stroke="black" stroke-width="5.26562"/>
<path d="M636.448 275.495L665.618 239.262" stroke="black" stroke-width="5.26562"/>
<path d="M788.022 328.686L824.723 281" stroke="black" stroke-width="5.26562"/>
<path d="M707.105 171.693L751.891 114.624" stroke="black" stroke-width="5.26562"/>
<path d="M838 234.567L882.786 177.498" stroke="black" stroke-width="5.26562"/>
<path d="M632.07 106.86L805.836 179.701" stroke="black" stroke-width="10.5312"/>
<path d="M471.908 166.537L807.591 307.392" stroke="black" stroke-width="10.5312"/>
<path d="M319.205 231.041L951 512.5" stroke="black" stroke-width="10.5312"/>
<path d="M165.685 309.45L953.5 644" stroke="black" stroke-width="10.884"/>
<path d="M8.05273 447.599L926.5 826.5" stroke="black" stroke-width="11.8902"/>
<path d="M515.789 137.576L520.177 138.454L524.126 142.403L528.075 146.352L530.269 150.74L542.994 168.293L559.23 182.334L577.66 194.182L614.958 199.886L631.193 192.427L639.969 188.039L644.357 187.161H649.623L652.256 264.39L513.595 209.979L496.043 169.609L495.165 163.904V158.639L496.043 152.496L498.237 147.669L501.308 143.281L505.257 140.648L510.084 138.015L515.789 137.576Z" fill="#D9D9D9" fill-opacity="0.5"/>
<path d="M649.622 187.161L654.449 190.232L657.082 192.427L659.715 195.498L661.47 198.57L662.786 202.519L665.419 210.856L667.613 219.193L669.368 236.745L669.807 252.542L667.174 254.297L652.255 264.39L649.622 187.161Z" fill="#D9D9D9" fill-opacity="0.5"/>
<path d="M569.878 104.36L578.655 109.627L582.165 113.137L584.798 117.964L598.84 133.322L613.32 146.925L630.433 158.334L639.648 160.967L657.749 162.283L667.293 162.283L676.946 159.211L687.039 153.507L698.009 153.507L705.469 155.262L711.612 159.211L715.561 164.916L718.193 171.497L721.265 176.763L722.142 183.783L722.142 198.264L722.142 207.039L720.387 214.5L718.193 222.398L714.243 229.856L674.314 250.48L674.314 228.101L674.314 217.131L672.12 207.039L669.487 200.018L667.732 196.508L665.538 191.681L662.905 187.732L659.833 183.782L656.323 180.711L651.057 179.833L645.353 179.833L641.404 181.15L637.893 183.783L631.31 188.609L614.197 192.558L598.4 192.558L583.042 190.364L573.388 184.66L563.735 177.639L545.744 160.964L538.723 152.188L531.702 142.535L526.875 136.83L521.61 131.565L511.079 128.932L517.662 124.107L524.682 120.597L531.702 117.525L539.163 114.893L553.643 107.872L561.103 105.678L569.878 104.36Z" fill="#D9D9D9" fill-opacity="0.5"/>
<path d="M603.987 191.11L657.082 162.588L661.031 159.955" stroke="white" stroke-width="5.26562"/>
<path d="M578.537 185.406L632.071 158.2" stroke="white" stroke-width="5.26562"/>
<path d="M560.546 175.313L616.274 147.669" stroke="white" stroke-width="5.26562"/>
<path d="M545.188 162.149L603.549 135.821" stroke="white" stroke-width="5.26562"/>
<path d="M535.096 144.597L589.507 121.78" stroke="white" stroke-width="5.26562"/>
<path d="M630.316 106.86L804.082 179.701" stroke="black" stroke-width="10.5312"/>
<path d="M470.153 166.537L805.836 307.392" stroke="black" stroke-width="10.5312"/>
<path d="M514.033 137.576L518.421 138.454L522.37 142.403L526.319 146.352L528.513 150.74L541.239 168.293L557.474 182.334L575.904 194.182L613.202 199.886L629.438 192.427L638.214 188.039L642.602 187.161H647.867L650.5 264.39L511.839 209.979L494.287 169.609L493.409 163.904V158.639L494.287 152.496L496.481 147.669L499.552 143.281L503.502 140.648L508.328 138.015L514.033 137.576Z" fill="black"/>
<path d="M647.867 187.161L652.694 190.232L655.327 192.427L657.96 195.498L659.715 198.57L661.031 202.519L663.664 210.856L665.858 219.193L667.613 236.745L668.052 252.542L665.419 254.297L650.5 264.39L647.867 187.161Z" fill="black"/>
<path d="M568.122 104.36L576.899 109.627L580.409 113.137L583.042 117.964L597.084 133.322L611.564 146.925L628.678 158.334L637.892 160.967L655.993 162.283L665.537 162.283L675.191 159.211L685.283 153.507L696.253 153.507L703.713 155.262L709.856 159.211L713.805 164.916L716.437 171.497L719.509 176.763L720.386 183.783L720.386 198.264L720.386 207.039L718.631 214.5L716.437 222.398L712.488 229.856L672.558 250.48L672.558 228.101L672.558 217.131L670.364 207.039L667.731 200.018L665.976 196.508L663.782 191.681L661.149 187.732L658.078 183.782L654.567 180.711L649.302 179.833L643.597 179.833L639.648 181.15L636.138 183.783L629.554 188.609L612.441 192.558L596.644 192.558L581.286 190.364L571.632 184.66L561.979 177.639L543.988 160.964L536.967 152.188L529.946 142.535L525.119 136.83L519.854 131.565L509.323 128.932L515.906 124.107L522.927 120.597L529.946 117.525L537.407 114.893L551.887 107.872L559.347 105.678L568.122 104.36Z" fill="black"/>
<path d="M599.16 193.743L655.522 163.212L659.715 160.394" stroke="white" stroke-width="5.26562"/>
<path d="M576.344 187.6L630.755 155.128" stroke="white" stroke-width="5.26562"/>
<path d="M558.791 175.314L616.713 144.597" stroke="white" stroke-width="5.26562"/>
<path d="M543.433 162.149L601.793 135.821" stroke="white" stroke-width="5.26562"/>
<path d="M529.83 144.597L587.752 121.78" stroke="white" stroke-width="5.26562"/>
<path d="M630.316 106.86L804.082 179.701" stroke="black" stroke-width="10.5312"/>
<path d="M514.033 137.576L518.421 138.454L522.37 142.403L526.319 146.352L528.513 150.74L541.239 168.293L557.474 182.334L575.904 194.182L613.202 199.886L629.438 192.427L638.214 188.039L642.602 187.161H647.867L650.5 264.39L511.839 209.979L494.287 169.609L493.409 163.904V158.639L494.287 152.496L496.481 147.669L499.552 143.281L503.502 140.648L508.328 138.015L514.033 137.576Z" fill="black"/>
<path d="M647.867 187.161L652.694 190.232L655.327 192.427L657.96 195.498L659.715 198.57L661.031 202.519L663.664 210.856L665.858 219.193L667.613 236.745L668.052 252.542L665.419 254.297L650.5 264.39L647.867 187.161Z" fill="black"/>
<path d="M568.122 104.36L576.899 109.627L580.409 113.137L583.042 117.964L597.084 133.322L611.564 146.925L628.678 158.334L637.892 160.967L655.993 162.283L665.537 162.283L675.191 159.211L685.283 153.507L696.253 153.507L703.713 155.262L709.856 159.211L713.805 164.916L716.437 171.497L719.509 176.763L720.386 183.783L720.386 198.264L720.386 207.039L718.631 214.5L716.437 222.398L712.488 229.856L672.558 250.48L672.558 228.101L672.558 217.131L670.364 207.039L667.731 200.018L665.976 196.508L663.782 191.681L661.149 187.732L658.078 183.782L654.567 180.711L649.302 179.833L643.597 179.833L639.648 181.15L636.138 183.783L629.554 188.609L612.441 192.558L596.644 192.558L581.286 190.364L571.632 184.66L561.979 177.639L543.988 160.964L536.967 152.188L529.946 142.535L525.119 136.83L519.854 131.565L509.323 128.932L515.906 124.107L522.927 120.597L529.946 117.525L537.407 114.893L551.887 107.872L559.347 105.678L568.122 104.36Z" fill="black"/>
<path d="M599.16 193.743L655.522 163.212L659.715 160.394" stroke="white" stroke-width="5.26562"/>
<path d="M576.344 187.6L630.755 155.128" stroke="white" stroke-width="5.26562"/>
<path d="M558.791 175.314L616.713 144.597" stroke="white" stroke-width="5.26562"/>
<path d="M543.433 162.149L601.793 135.821" stroke="white" stroke-width="5.26562"/>
<path d="M529.83 144.597L587.752 121.78" stroke="white" stroke-width="5.26562"/>
<path d="M630.316 106.86L804.082 179.701" stroke="black" stroke-width="10.5312"/>
<path d="M514.033 137.576L518.421 138.454L522.37 142.403L526.319 146.352L528.513 150.74L541.239 168.293L557.474 182.334L575.904 194.182L613.202 199.886L629.438 192.427L638.214 188.039L642.602 187.161H647.867L650.5 264.39L511.839 209.979L494.287 169.609L493.409 163.904V158.639L494.287 152.496L496.481 147.669L499.552 143.281L503.502 140.648L508.328 138.015L514.033 137.576Z" fill="black"/>
<path d="M647.867 187.161L652.694 190.232L655.327 192.427L657.96 195.498L659.715 198.57L661.031 202.519L663.664 210.856L665.858 219.193L667.613 236.745L668.052 252.542L665.419 254.297L650.5 264.39L647.867 187.161Z" fill="black"/>
<path d="M568.122 104.36L576.899 109.627L580.409 113.137L583.042 117.964L597.084 133.322L611.564 146.925L628.678 158.334L637.892 160.967L655.993 162.283L665.537 162.283L675.191 159.211L685.283 153.507L696.253 153.507L703.713 155.262L709.856 159.211L713.805 164.916L716.437 171.497L719.509 176.763L720.386 183.783L720.386 198.264L720.386 207.039L718.631 214.5L716.437 222.398L712.488 229.856L672.558 250.48L672.558 228.101L672.558 217.131L670.364 207.039L667.731 200.018L665.976 196.508L663.782 191.681L661.149 187.732L658.078 183.782L654.567 180.711L649.302 179.833L643.597 179.833L639.648 181.15L636.138 183.783L629.554 188.609L612.441 192.558L596.644 192.558L581.286 190.364L571.632 184.66L561.979 177.639L543.988 160.964L536.967 152.188L529.946 142.535L525.119 136.83L519.854 131.565L509.323 128.932L515.906 124.107L522.927 120.597L529.946 117.525L537.407 114.893L551.887 107.872L559.347 105.678L568.122 104.36Z" fill="black"/>
<path d="M599.16 193.743L655.522 163.212L659.715 160.394" stroke="white" stroke-width="5.26562"/>
<path d="M576.344 187.6L630.755 155.128" stroke="white" stroke-width="5.26562"/>
<path d="M558.791 175.314L616.713 144.597" stroke="white" stroke-width="5.26562"/>
<path d="M543.433 162.149L601.793 135.821" stroke="white" stroke-width="5.26562"/>
<path d="M529.83 144.597L587.752 121.78" stroke="white" stroke-width="5.26562"/>
<path d="M630.316 106.86L937.5 236.5" stroke="black" stroke-width="10.5312"/>
<path d="M470.153 166.537L942 363.5" stroke="black" stroke-width="10.5312"/>
<path d="M514.033 137.576L518.421 138.454L522.37 142.403L526.319 146.352L528.513 150.74L541.239 168.293L557.474 182.334L575.904 194.182L613.202 199.886L629.438 192.427L638.214 188.039L642.602 187.161H647.867L650.5 264.39L511.839 209.979L494.287 169.609L493.409 163.904V158.639L494.287 152.496L496.481 147.669L499.552 143.281L503.502 140.648L508.328 138.015L514.033 137.576Z" fill="black"/>
<path d="M647.867 187.161L652.694 190.232L655.327 192.427L657.96 195.498L659.715 198.57L661.031 202.519L663.664 210.856L665.858 219.193L667.613 236.745L668.052 252.542L665.419 254.297L650.5 264.39L647.867 187.161Z" fill="black"/>
<path d="M568.122 104.36L576.899 109.627L580.409 113.137L583.042 117.964L597.084 133.322L611.564 146.925L628.678 158.334L637.892 160.967L655.993 162.283L665.537 162.283L675.191 159.211L685.283 153.507L696.253 153.507L703.713 155.262L709.856 159.211L713.805 164.916L716.437 171.497L719.509 176.763L720.386 183.783L720.386 198.264L720.386 207.039L718.631 214.5L716.437 222.398L712.488 229.856L672.558 250.48L672.558 228.101L672.558 217.131L670.364 207.039L667.731 200.018L665.976 196.508L663.782 191.681L661.149 187.732L658.078 183.782L654.567 180.711L649.302 179.833L643.597 179.833L639.648 181.15L636.138 183.783L629.554 188.609L612.441 192.558L596.644 192.558L581.286 190.364L571.632 184.66L561.979 177.639L543.988 160.964L536.967 152.188L529.946 142.535L525.119 136.83L519.854 131.565L509.323 128.932L515.906 124.107L522.927 120.597L529.946 117.525L537.407 114.893L551.887 107.872L559.347 105.678L568.122 104.36Z" fill="black"/>
<path d="M599.16 193.743L655.522 163.212L659.715 160.394" stroke="white" stroke-width="5.26562"/>
<path d="M576.344 187.6L630.755 155.128" stroke="white" stroke-width="5.26562"/>
<path d="M558.791 175.314L616.713 144.597" stroke="white" stroke-width="5.26562"/>
<path d="M543.433 162.149L601.793 135.821" stroke="white" stroke-width="5.26562"/>
<path d="M529.83 144.597L587.752 121.78" stroke="white" stroke-width="5.26562"/>
<path d="M75.9879 437.641L80.3759 438.519L84.3251 442.468L88.2744 446.417L90.4684 450.805L103.194 468.357L119.429 482.399L137.859 494.247L175.157 499.951L191.393 492.492L200.169 488.104L204.557 487.226H209.822L212.455 564.455L73.7939 510.044L56.2419 469.674L55.3643 463.969V458.704L56.2419 452.561L58.4359 447.734L61.5075 443.346L65.4567 440.713L70.2835 438.08L75.9879 437.641Z" fill="black"/>
<path d="M209.823 487.226L214.65 490.297L217.283 492.491L219.916 495.563L221.671 498.635L222.987 502.584L225.62 510.921L227.814 519.258L229.569 536.81L230.008 552.607L227.375 554.362L212.456 564.455L209.823 487.226Z" fill="black"/>
<path d="M130.078 404.425L138.855 409.692L142.366 413.202L144.998 418.029L159.04 433.387L173.52 446.99L190.634 458.399L199.849 461.032L217.949 462.348L227.493 462.348L237.147 459.276L247.239 453.572L258.209 453.572L265.669 455.327L271.812 459.276L275.761 464.981L278.393 471.562L281.465 476.828L282.342 483.847L282.342 498.329L282.342 507.104L280.587 514.565L278.393 522.463L274.444 529.921L234.514 550.545L234.514 528.166L234.514 517.196L232.32 507.104L229.687 500.083L227.932 496.573L225.738 491.746L223.105 487.797L220.034 483.847L216.523 480.776L211.258 479.898L205.553 479.898L201.604 481.215L198.094 483.847L191.51 488.674L174.397 492.623L158.6 492.623L143.242 490.429L133.588 484.725L123.935 477.704L105.944 461.029L98.9231 452.253L91.9023 442.6L87.0755 436.895L81.8099 431.63L71.2788 428.997L77.8617 424.172L84.8826 420.662L91.9023 417.59L99.363 414.957L113.843 407.937L121.303 405.743L130.078 404.425Z" fill="black"/>
<path d="M161.116 493.808L217.479 463.277L221.671 460.459" stroke="white" stroke-width="5.26562"/>
<path d="M138.299 487.665L192.71 455.193" stroke="white" stroke-width="5.26562"/>
<path d="M120.746 475.378L178.668 444.662" stroke="white" stroke-width="5.26562"/>
<path d="M75.9879 437.641L80.3759 438.519L84.3251 442.468L88.2744 446.417L90.4684 450.805L103.194 468.357L119.429 482.399L137.859 494.247L175.157 499.951L191.393 492.492L200.169 488.104L204.557 487.226H209.822L212.455 564.455L73.7939 510.044L56.2419 469.674L55.3643 463.969V458.704L56.2419 452.561L58.4359 447.734L61.5075 443.346L65.4567 440.713L70.2835 438.08L75.9879 437.641Z" fill="black"/>
<path d="M209.823 487.226L214.65 490.297L217.283 492.491L219.916 495.563L221.671 498.635L222.987 502.584L225.62 510.921L227.814 519.258L229.569 536.81L230.008 552.607L227.375 554.362L212.456 564.455L209.823 487.226Z" fill="black"/>
<path d="M130.078 404.425L138.855 409.692L142.366 413.202L144.998 418.029L159.04 433.387L173.52 446.99L190.634 458.399L199.849 461.032L217.949 462.348L227.493 462.348L237.147 459.276L247.239 453.572L258.209 453.572L265.669 455.327L271.812 459.276L275.761 464.981L278.393 471.562L281.465 476.828L282.342 483.847L282.342 498.329L282.342 507.104L280.587 514.565L278.393 522.463L274.444 529.921L234.514 550.545L234.514 528.166L234.514 517.196L232.32 507.104L229.687 500.083L227.932 496.573L225.738 491.746L223.105 487.797L220.034 483.847L216.523 480.776L211.258 479.898L205.553 479.898L201.604 481.215L198.094 483.847L191.51 488.674L174.397 492.623L158.6 492.623L143.242 490.429L133.588 484.725L123.935 477.704L105.944 461.029L98.9231 452.253L91.9023 442.6L87.0755 436.895L81.8099 431.63L71.2788 428.997L77.8617 424.172L84.8826 420.662L91.9023 417.59L99.363 414.957L113.843 407.937L121.303 405.743L130.078 404.425Z" fill="black"/>
<path d="M161.116 493.808L217.479 463.277L221.671 460.459" stroke="white" stroke-width="5.26562"/>
<path d="M138.299 487.665L192.71 455.193" stroke="white" stroke-width="5.26562"/>
<path d="M120.746 475.378L178.668 444.662" stroke="white" stroke-width="5.26562"/>
<path d="M104.862 462.464L162.784 431.748" stroke="white" stroke-width="5.26562"/>
<path d="M92.8379 448.186L150.76 417.469" stroke="white" stroke-width="5.26562"/>
<path d="M257.311 300.506L261.701 301.374L265.658 305.316L269.615 309.257L271.818 313.641L284.578 331.167L300.842 345.176L319.295 356.987L356.605 362.617L372.825 355.125L381.593 350.72L385.979 349.833L391.244 349.823L394.032 427.046L255.262 372.912L237.629 332.578L236.74 326.875L236.73 321.609L237.595 315.464L239.779 310.633L242.842 306.239L246.786 303.598L251.608 300.956L257.311 300.506Z" fill="black"/>
<path d="M391.244 349.823L396.077 352.885L398.714 355.074L401.353 358.14L403.115 361.208L404.439 365.155L407.088 373.487L409.299 381.819L411.089 399.368L411.56 415.164L408.93 416.924L394.031 427.047L391.244 349.823Z" fill="black"/>
<path d="M311.334 267.181L320.122 272.431L323.639 275.934L326.282 280.755L340.354 296.085L354.862 309.659L371.998 321.034L381.218 323.648L399.321 324.929L408.865 324.909L418.512 321.818L428.593 316.094L439.563 316.072L447.026 317.812L453.178 321.749L457.138 327.446L459.784 334.022L462.866 339.282L463.757 346.299L463.786 360.781L463.804 369.556L462.063 377.02L459.885 384.923L455.951 392.389L416.062 413.092L416.018 390.714L415.996 379.744L413.781 369.656L411.135 362.64L409.372 359.133L407.169 354.311L404.528 350.367L401.449 346.424L397.932 343.359L392.665 342.492L386.96 342.503L383.014 343.828L379.509 346.468L372.935 351.307L355.829 355.291L340.033 355.322L324.67 353.159L315.005 347.474L305.338 340.472L287.313 323.834L280.275 315.072L273.235 305.432L268.397 299.737L263.121 294.482L252.584 291.871L259.158 287.033L266.171 283.508L273.185 280.423L280.64 277.775L295.107 270.725L302.562 268.516L311.334 267.181Z" fill="black"/>
<path d="M342.551 356.502L398.852 325.859L403.039 323.032" stroke="white" stroke-width="5.26562"/>
<path d="M319.721 350.405L374.068 317.825" stroke="white" stroke-width="5.26562"/>
<path d="M302.143 338.153L360.004 307.321" stroke="white" stroke-width="5.26562"/>
<path d="M286.76 325.02L345.067 298.575" stroke="white" stroke-width="5.26562"/>
<path d="M273.122 307.495L330.998 284.562" stroke="white" stroke-width="5.26562"/>
<path d="M257.311 300.506L261.701 301.374L265.658 305.316L269.615 309.257L271.818 313.641L284.578 331.167L300.842 345.176L319.295 356.987L356.605 362.617L372.825 355.125L381.593 350.72L385.979 349.833L391.244 349.823L394.032 427.046L255.262 372.912L237.629 332.578L236.74 326.875L236.73 321.609L237.595 315.464L239.779 310.633L242.842 306.239L246.786 303.598L251.608 300.956L257.311 300.506Z" fill="black"/>
<path d="M652.624 325.273L657.013 326.142L660.97 330.083L664.928 334.024L667.13 338.408L679.891 355.934L696.154 369.944L714.608 381.754L751.917 387.384L768.138 379.892L776.905 375.487L781.291 374.6L786.557 374.59L789.344 451.813L650.574 397.679L632.942 357.345L632.053 351.642L632.042 346.376L632.907 340.231L635.092 335.4L638.155 331.006L642.099 328.365L646.92 325.723L652.624 325.273Z" fill="black"/>
<path d="M391.244 349.823L396.077 352.885L398.714 355.074L401.353 358.14L403.115 361.208L404.439 365.155L407.088 373.487L409.299 381.819L411.089 399.368L411.56 415.164L408.93 416.924L394.031 427.047L391.244 349.823Z" fill="black"/>
<path d="M784 375.04L788.833 378.102L791.47 380.291L794.109 383.357L795.87 386.425L797.195 390.372L799.844 398.704L802.055 407.037L803.845 424.585L804.316 440.381L801.686 442.142L786.787 452.264L784 375.04Z" fill="black"/>
<path d="M311.334 267.181L320.122 272.431L323.639 275.934L326.282 280.755L340.354 296.085L354.862 309.659L371.998 321.034L381.218 323.648L399.321 324.929L408.865 324.909L418.512 321.818L428.593 316.094L439.563 316.072L447.026 317.812L453.178 321.749L457.138 327.446L459.784 334.022L462.866 339.282L463.757 346.299L463.786 360.781L463.804 369.556L462.063 377.02L459.885 384.923L455.951 392.389L416.062 413.092L416.018 390.714L415.996 379.744L413.781 369.656L411.135 362.64L409.372 359.133L407.169 354.311L404.528 350.367L401.449 346.424L397.932 343.359L392.665 342.492L386.96 342.503L383.014 343.828L379.509 346.468L372.935 351.307L355.829 355.291L340.033 355.322L324.67 353.159L315.005 347.474L305.338 340.472L287.313 323.834L280.275 315.072L273.235 305.432L268.397 299.737L263.121 294.482L252.584 291.871L259.158 287.033L266.171 283.508L273.185 280.423L280.64 277.775L295.107 270.725L302.562 268.516L311.334 267.181Z" fill="black"/>
<path d="M342.551 356.502L398.852 325.859L403.039 323.032" stroke="white" stroke-width="5.26562"/>
<path d="M319.721 350.405L374.068 317.825" stroke="white" stroke-width="5.26562"/>
<path d="M302.143 338.153L360.004 307.321" stroke="white" stroke-width="5.26562"/>
<path d="M286.76 325.02L345.067 298.575" stroke="white" stroke-width="5.26562"/>
<path d="M273.122 307.495L330.998 284.562" stroke="white" stroke-width="5.26562"/>
<path d="M705.906 292.167L714.683 297.434L718.194 300.944L720.826 305.771L734.868 321.129L749.349 334.732L766.462 346.141L775.677 348.774L793.777 350.09L803.321 350.09L812.975 347.018L823.067 341.314L834.037 341.314L841.497 343.069L847.64 347.018L851.589 352.723L854.222 359.304L857.293 364.57L858.171 371.589L858.171 386.071L858.171 394.846L856.415 402.307L854.221 410.205L850.272 417.663L810.342 438.287L810.342 415.908L810.342 404.938L808.148 394.846L805.515 387.825L803.76 384.315L801.566 379.488L798.933 375.539L795.862 371.589L792.351 368.518L787.086 367.64L781.381 367.64L777.432 368.957L773.922 371.589L767.338 376.416L750.225 380.365L734.428 380.365L719.07 378.171L709.417 372.466L699.763 365.446L681.772 348.771L674.751 339.995L667.73 330.342L662.904 324.637L657.638 319.371L647.107 316.739L653.69 311.914L660.711 308.404L667.73 305.332L675.191 302.699L689.672 295.679L697.131 293.485L705.906 292.167Z" fill="black"/>
<path d="M696.574 363.12L754.496 332.404" stroke="white" stroke-width="5.26562"/>
<path d="M681.217 349.956L739.577 323.628" stroke="white" stroke-width="5.26562"/>
<path d="M667.614 332.404L725.536 309.586" stroke="white" stroke-width="5.26562"/>
<path d="M705.906 292.167L714.683 297.434L718.194 300.944L720.826 305.771L734.868 321.129L749.349 334.732L766.462 346.141L775.677 348.774L793.777 350.09L803.321 350.09L812.975 347.018L823.067 341.314L834.037 341.314L841.497 343.069L847.64 347.018L851.589 352.723L854.222 359.304L857.293 364.57L858.171 371.589L858.171 386.071L858.171 394.846L856.415 402.307L854.221 410.205L850.272 417.663L810.342 438.287L810.342 415.908L810.342 404.938L808.148 394.846L805.515 387.825L803.76 384.315L801.566 379.488L798.933 375.539L795.862 371.589L792.351 368.518L787.086 367.64L781.381 367.64L777.432 368.957L773.922 371.589L767.338 376.416L750.225 380.365L734.428 380.365L719.07 378.171L709.417 372.466L699.763 365.446L681.772 348.771L674.751 339.995L667.73 330.342L662.904 324.637L657.638 319.371L647.107 316.739L653.69 311.914L660.711 308.404L667.73 305.332L675.191 302.699L689.672 295.679L697.131 293.485L705.906 292.167Z" fill="black"/>
<path d="M696.574 363.12L754.496 332.404" stroke="white" stroke-width="5.26562"/>
<path d="M681.217 349.956L739.577 323.628" stroke="white" stroke-width="5.26562"/>
<path d="M667.614 332.404L725.536 309.586" stroke="white" stroke-width="5.26562"/>
<path d="M239.043 111.321L264.367 112.375" stroke="white" stroke-width="2.65671"/>
<ellipse cx="260.505" cy="111.378" rx="21.7253" ry="10.0271" transform="rotate(2.38364 260.505 111.378)" fill="black"/>
<path d="M237.06 112.075L240.469 117.234L244.551 119.635L250.279 122.661L257.735 124.365L273.145 122.497L279.708 118.868L283.534 114.009L284.245 190.701L277.659 194.887L270.586 197.38L261.878 198.969L254.086 198.645L244.624 198.251L236.669 195.132L229.608 190.657L222.836 185.914L237.06 112.075Z" fill="black"/>
<path d="M241.258 131.764L236.599 190.112L230.36 185.949L235.856 161.089L241.258 131.764Z" fill="white"/>
<path d="M273.824 129.21L274.717 190.741L281.546 186.801L277.484 160.344L273.824 129.21Z" fill="white"/>
<path d="M237.756 108.759L259.474 109.384" stroke="white" stroke-width="2.65671"/>
<path d="M257.978 131.902L259.208 162.618L258.769 193.265L250.977 192.94L254.477 162.421L257.978 131.902Z" fill="white"/>
<ellipse cx="154.739" cy="167.255" rx="24.523" ry="11.3183" transform="rotate(1.35099 154.739 167.255)" fill="black"/>
<path d="M173.918 158.808L155.898 165.129" stroke="white" stroke-width="2.65671"/>
<path d="M128.291 168.518L132.244 174.272L136.899 176.898L143.425 180.197L151.875 181.968L169.229 179.547L176.561 175.317L180.781 169.756L183.143 256.295L175.795 261.154L167.863 264.111L158.068 266.082L149.267 265.874L138.58 265.622L129.54 262.264L121.479 257.357L113.74 252.142L128.291 168.518Z" fill="black"/>
<path d="M133.43 190.653L129.359 256.599L122.234 252.028L127.93 223.859L133.43 190.653Z" fill="white"/>
<path d="M169.89 191.513L170.848 257.577L178.181 253.348L173.819 224.941L169.89 191.513Z" fill="white"/>
<path d="M152.303 190.469L154.317 225.11L154.444 259.706L145.644 259.499L148.974 224.984L152.303 190.469Z" fill="white"/>
<ellipse cx="367.4" cy="60.2111" rx="24.0723" ry="11.1103" transform="rotate(1.35099 367.4 60.2111)" fill="black"/>
<path d="M341.44 61.451L345.32 67.0992L349.89 69.6766L356.296 72.9147L364.59 74.6538L381.625 72.2772L388.823 68.1251L392.965 62.6661L395.284 147.615L388.071 152.384L380.285 155.287L370.669 157.222L362.03 157.018L351.54 156.77L342.666 153.474L334.753 148.657L327.156 143.538L341.44 61.451Z" fill="black"/>
<path d="M346.484 83.1797L342.488 147.914L335.494 143.427L341.085 115.775L346.484 83.1797Z" fill="white"/>
<path d="M382.274 84.0235L383.215 148.874L390.413 144.722L386.131 116.837L382.274 84.0235Z" fill="white"/>
<path d="M365.011 82.999L366.987 117.003L367.112 150.964L358.473 150.76L361.742 116.879L365.011 82.999Z" fill="white"/>
<path d="M356.524 47.7649L367.594 60.6056" stroke="white" stroke-width="2.65671"/>
<path d="M235.074 422.76L236.586 419.066L248.198 414.306C254.873 411.58 256.758 410.273 257.815 407.691L257.997 407.246C259.162 404.397 257.94 401.923 254.69 400.594C251.396 399.246 248.754 400.244 247.515 403.271L247.133 404.206L243.038 402.53L243.438 401.551C245.642 396.165 250.443 394.335 256.274 396.721C262.061 399.088 264.222 403.713 262.092 408.921L261.91 409.367C260.471 412.883 257.633 414.996 250.563 417.924L242.257 421.334L255.656 426.814L254.127 430.554L235.074 422.76ZM280.646 442.025C274.057 439.33 271.745 434.694 274.075 428.996L274.494 427.973L278.456 429.593L278.037 430.617C276.653 434 278.124 436.628 282.175 438.285C285.914 439.815 288.796 439.123 289.961 436.274L290.161 435.784C291.108 433.47 290.293 431.525 287.478 429.386L283.82 426.643C279.637 423.529 278.298 420.071 279.791 416.421L280.046 415.798C282.012 410.99 287.241 409.387 293.206 411.827C299.26 414.304 301.52 418.814 299.353 424.111L298.934 425.135L294.972 423.514L295.391 422.491C296.684 419.33 295.452 417.007 291.534 415.405C288.062 413.985 285.288 414.669 284.232 417.25L284.032 417.74C283.213 419.743 284.143 421.787 286.594 423.673L290.145 426.424C294.7 429.898 296.031 433.249 294.429 437.166L294.174 437.789C292.08 442.908 286.789 444.537 280.646 442.025ZM296.21 447.768L308.155 418.566L312.339 420.278L301.942 445.696L316.32 451.577L314.773 455.361L296.21 447.768ZM316.377 456.017L316.65 455.349L337.715 430.657L342.522 432.624L340.243 465L339.97 465.668L335.83 463.974L336.479 456.29L325.44 451.774L320.517 457.711L316.377 456.017ZM328.189 448.482L336.825 452.014L338.152 436.448L328.189 448.482ZM344.246 467.417L356.191 438.215L360.553 440L363.545 466.477L372.394 444.843L376.49 446.518L364.545 475.72L360.182 473.936L357.154 447.547L348.341 469.092L344.246 467.417ZM376.506 480.613L386.903 455.195L378.534 451.772L380.082 447.988L400.915 456.509L399.367 460.293L391.043 456.888L380.646 482.306L376.506 480.613ZM400.54 491.067C393.952 488.373 391.639 483.737 393.97 478.039L394.388 477.015L398.35 478.636L397.931 479.66C396.548 483.043 398.019 485.671 402.069 487.328C405.809 488.858 408.69 488.166 409.855 485.317L410.056 484.827C411.002 482.512 410.187 480.568 407.372 478.429L403.714 475.686C399.532 472.572 398.192 469.114 399.685 465.464L399.94 464.841C401.907 460.033 407.135 458.43 413.1 460.87C419.154 463.347 421.414 467.857 419.247 473.154L418.829 474.178L414.867 472.557L415.286 471.533C416.578 468.373 415.346 466.05 411.429 464.448C407.957 463.027 405.183 463.711 404.126 466.293L403.926 466.783C403.107 468.786 404.038 470.83 406.488 472.715L410.039 475.467C414.594 478.941 415.925 482.292 414.323 486.209L414.068 486.832C411.974 491.951 406.683 493.58 400.54 491.067Z" fill="black"/>
<path d="M29.012 545.661C23.2002 543.356 20.3725 538.353 22.3054 533.48L22.5181 532.944L26.6758 534.593L26.4631 535.13C25.4168 537.767 27.1394 540.468 30.5371 541.816C34.2924 543.306 37.6911 541.912 39.1097 538.335L40.5993 534.58C38.3685 535.247 35.787 535.103 33.194 534.074C27.4269 531.787 24.9021 526.542 26.9414 521.401L27.4202 520.194C29.495 514.963 35.0798 512.884 41.0257 515.243C47.1505 517.672 49.8818 523.309 47.6298 528.986L43.3029 539.895C40.9799 545.751 35.2262 548.126 29.012 545.661ZM31.1346 522.961C29.8578 526.18 31.2589 528.909 35.0143 530.398C37.9649 531.569 40.5811 531.365 42.4258 529.975L43.4543 527.382C44.8375 523.895 43.2113 520.559 39.5007 519.088C35.8795 517.651 32.8192 518.714 31.5956 521.799L31.1346 522.961ZM61.7624 558.031L65.2162 526.235L65.4822 525.564L69.6399 527.214L66.6252 553.337L82.2024 532.197L86.7177 533.988L83.5512 560.102L99.2802 538.971L103.438 540.62L103.172 541.29L83.892 566.808L78.7955 564.787L81.5827 540.281L66.8142 560.034L61.7624 558.031ZM96.0696 571.639L107.702 542.311L125.809 549.493L124.301 553.293L110.398 547.778L106.833 556.764L119.977 561.978L118.487 565.733L105.344 560.52L101.779 569.506L115.683 575.021L114.176 578.821L96.0696 571.639ZM119.389 580.888L131.021 551.561L135.179 553.21L123.546 582.537L119.389 580.888ZM140.775 589.992C133.89 587.261 131.104 581.241 133.694 574.714L137.169 565.951C139.758 559.424 146.038 556.896 152.878 559.61C159.54 562.252 162.405 567.942 160.082 573.798L159.816 574.469L155.658 572.82L155.924 572.149C157.325 568.617 155.493 565.148 151.425 563.535C146.82 561.708 143.092 563.282 141.318 567.752L137.967 576.202C136.176 580.717 137.713 584.276 142.407 586.138C145.358 587.309 148.198 587.193 150.551 585.695L152.484 580.822L143.677 577.329L145.167 573.573L158.131 578.716L152.12 593.871L148.454 592.417L149.082 590.183C146.566 591.306 143.86 591.216 140.775 589.992ZM158.152 596.264L169.785 566.937L173.987 568.603L168.916 581.39L180.897 586.142L185.969 573.356L190.171 575.023L178.538 604.35L174.336 602.683L179.39 589.942L167.409 585.19L162.355 597.931L158.152 596.264ZM190.551 609.115L200.677 583.588L192.272 580.254L193.779 576.454L214.702 584.753L213.194 588.553L204.834 585.237L194.709 610.764L190.551 609.115ZM214.695 619.313C208.079 616.688 205.717 612.078 207.986 606.356L208.394 605.327L212.373 606.905L211.965 607.934C210.618 611.331 212.117 613.944 216.185 615.558C219.94 617.047 222.814 616.324 223.949 613.463L224.144 612.971C225.066 610.647 224.23 608.711 221.393 606.603L217.705 603.898C213.49 600.829 212.113 597.386 213.568 593.72L213.816 593.094C215.731 588.266 220.942 586.607 226.933 588.984C233.013 591.395 235.321 595.881 233.211 601.201L232.803 602.229L228.824 600.651L229.232 599.623C230.491 596.449 229.234 594.139 225.3 592.578C221.812 591.195 219.046 591.909 218.017 594.502L217.822 594.994C217.024 597.005 217.977 599.039 220.447 600.898L224.028 603.612C228.619 607.037 229.986 610.373 228.426 614.308L228.177 614.934C226.138 620.075 220.865 621.76 214.695 619.313Z" fill="black"/>
</g>
<defs>
<clipPath id="clip0_511_7">
<rect width="930" height="793" fill="white"/>
</clipPath>
</defs>
</svg>
