<svg width="971" height="1147" viewBox="0 0 971 1147" fill="none" xmlns="http://www.w3.org/2000/svg">
<path d="M256.662 856.038L301.448 798.968" stroke="black" stroke-width="5.26562"/>
<path d="M49.6748 751.935L82.874 718.358" stroke="black" stroke-width="5.26562"/>
<path d="M507.904 979.356L552.69 922.287" stroke="black" stroke-width="5.26562"/>
<path d="M260.406 641.339L301.176 600.415" stroke="black" stroke-width="5.26562"/>
<path d="M483.856 739.633L528.642 682.563" stroke="black" stroke-width="5.26562"/>
<path d="M638.652 788.776L683.438 731.707" stroke="black" stroke-width="5.26562"/>
<path d="M363.166 536.849L414.763 485.855" stroke="black" stroke-width="5.26562"/>
<path d="M549.137 626.42L593.923 569.35" stroke="black" stroke-width="5.26562"/>
<path d="M707.105 691.362L741.304 644.694" stroke="black" stroke-width="5.26562"/>
<path d="M636.448 527.495L665.618 491.262" stroke="black" stroke-width="5.26562"/>
<path d="M779.947 577.274L824.733 520.204" stroke="black" stroke-width="5.26562"/>
<path d="M707.105 423.693L751.891 366.624" stroke="black" stroke-width="5.26562"/>
<path d="M632.07 358.86L805.836 431.701" stroke="black" stroke-width="10.5312"/>
<path d="M471.908 418.537L807.591 559.392" stroke="black" stroke-width="10.5312"/>
<path d="M319.205 483.041L808.03 693.227" stroke="black" stroke-width="10.5312"/>
<path d="M165.685 561.45L768.757 818.911" stroke="black" stroke-width="10.884"/>
<path d="M8.05273 699.599L688.389 1015.3" stroke="black" stroke-width="11.8902"/>
<path d="M515.789 389.576L520.177 390.454L524.126 394.403L528.075 398.352L530.269 402.74L542.994 420.293L559.23 434.334L577.66 446.182L614.958 451.886L631.193 444.427L639.969 440.039L644.357 439.161H649.623L652.256 516.39L513.595 461.979L496.043 421.609L495.165 415.904V410.639L496.043 404.496L498.237 399.669L501.308 395.281L505.257 392.648L510.084 390.015L515.789 389.576Z" fill="#D9D9D9" fill-opacity="0.5"/>
<path d="M649.622 439.161L654.449 442.232L657.082 444.427L659.715 447.498L661.47 450.57L662.786 454.519L665.419 462.856L667.613 471.193L669.368 488.745L669.807 504.542L667.174 506.297L652.255 516.39L649.622 439.161Z" fill="#D9D9D9" fill-opacity="0.5"/>
<path d="M569.878 356.36L578.655 361.627L582.165 365.137L584.798 369.964L598.84 385.322L613.32 398.925L630.433 410.334L639.648 412.967L657.749 414.283L667.293 414.283L676.946 411.211L687.039 405.507L698.009 405.507L705.469 407.262L711.612 411.211L715.561 416.916L718.193 423.497L721.265 428.763L722.142 435.783L722.142 450.264L722.142 459.039L720.387 466.5L718.193 474.398L714.243 481.856L674.314 502.48L674.314 480.101L674.314 469.131L672.12 459.039L669.487 452.018L667.732 448.508L665.538 443.681L662.905 439.732L659.833 435.782L656.323 432.711L651.057 431.833L645.353 431.833L641.404 433.15L637.893 435.783L631.31 440.609L614.197 444.558L598.4 444.558L583.042 442.364L573.388 436.66L563.735 429.639L545.744 412.964L538.723 404.188L531.702 394.535L526.875 388.83L521.61 383.565L511.079 380.932L517.662 376.107L524.682 372.597L531.702 369.525L539.163 366.893L553.643 359.872L561.103 357.678L569.878 356.36Z" fill="#D9D9D9" fill-opacity="0.5"/>
<path d="M603.987 443.11L657.082 414.588L661.031 411.955" stroke="white" stroke-width="5.26562"/>
<path d="M578.537 437.406L632.071 410.2" stroke="white" stroke-width="5.26562"/>
<path d="M560.546 427.313L616.274 399.669" stroke="white" stroke-width="5.26562"/>
<path d="M545.188 414.149L603.549 387.821" stroke="white" stroke-width="5.26562"/>
<path d="M535.096 396.597L589.507 373.78" stroke="white" stroke-width="5.26562"/>
<path d="M630.316 358.86L804.082 431.701" stroke="black" stroke-width="10.5312"/>
<path d="M470.153 418.537L805.836 559.392" stroke="black" stroke-width="10.5312"/>
<path d="M514.033 389.576L518.421 390.454L522.37 394.403L526.319 398.352L528.513 402.74L541.239 420.293L557.474 434.334L575.904 446.182L613.202 451.886L629.438 444.427L638.214 440.039L642.602 439.161H647.867L650.5 516.39L511.839 461.979L494.287 421.609L493.409 415.904V410.639L494.287 404.496L496.481 399.669L499.552 395.281L503.502 392.648L508.328 390.015L514.033 389.576Z" fill="black"/>
<path d="M647.867 439.161L652.694 442.232L655.327 444.427L657.96 447.498L659.715 450.57L661.031 454.519L663.664 462.856L665.858 471.193L667.613 488.745L668.052 504.542L665.419 506.297L650.5 516.39L647.867 439.161Z" fill="black"/>
<path d="M568.122 356.36L576.899 361.627L580.409 365.137L583.042 369.964L597.084 385.322L611.564 398.925L628.678 410.334L637.892 412.967L655.993 414.283L665.537 414.283L675.191 411.211L685.283 405.507L696.253 405.507L703.713 407.262L709.856 411.211L713.805 416.916L716.437 423.497L719.509 428.763L720.386 435.783L720.386 450.264L720.386 459.039L718.631 466.5L716.437 474.398L712.488 481.856L672.558 502.48L672.558 480.101L672.558 469.131L670.364 459.039L667.731 452.018L665.976 448.508L663.782 443.681L661.149 439.732L658.078 435.782L654.567 432.711L649.302 431.833L643.597 431.833L639.648 433.15L636.138 435.783L629.554 440.609L612.441 444.558L596.644 444.558L581.286 442.364L571.632 436.66L561.979 429.639L543.988 412.964L536.967 404.188L529.946 394.535L525.119 388.83L519.854 383.565L509.323 380.932L515.906 376.107L522.927 372.597L529.946 369.525L537.407 366.893L551.887 359.872L559.347 357.678L568.122 356.36Z" fill="black"/>
<path d="M599.16 445.743L655.522 415.212L659.715 412.394" stroke="white" stroke-width="5.26562"/>
<path d="M576.344 439.6L630.755 407.128" stroke="white" stroke-width="5.26562"/>
<path d="M558.791 427.314L616.713 396.597" stroke="white" stroke-width="5.26562"/>
<path d="M543.433 414.149L601.793 387.821" stroke="white" stroke-width="5.26562"/>
<path d="M529.83 396.597L587.752 373.78" stroke="white" stroke-width="5.26562"/>
<path d="M630.316 358.86L804.082 431.701" stroke="black" stroke-width="10.5312"/>
<path d="M470.153 418.537L805.836 559.392" stroke="black" stroke-width="10.5312"/>
<path d="M514.033 389.576L518.421 390.454L522.37 394.403L526.319 398.352L528.513 402.74L541.239 420.293L557.474 434.334L575.904 446.182L613.202 451.886L629.438 444.427L638.214 440.039L642.602 439.161H647.867L650.5 516.39L511.839 461.979L494.287 421.609L493.409 415.904V410.639L494.287 404.496L496.481 399.669L499.552 395.281L503.502 392.648L508.328 390.015L514.033 389.576Z" fill="black"/>
<path d="M647.867 439.161L652.694 442.232L655.327 444.427L657.96 447.498L659.715 450.57L661.031 454.519L663.664 462.856L665.858 471.193L667.613 488.745L668.052 504.542L665.419 506.297L650.5 516.39L647.867 439.161Z" fill="black"/>
<path d="M568.122 356.36L576.899 361.627L580.409 365.137L583.042 369.964L597.084 385.322L611.564 398.925L628.678 410.334L637.892 412.967L655.993 414.283L665.537 414.283L675.191 411.211L685.283 405.507L696.253 405.507L703.713 407.262L709.856 411.211L713.805 416.916L716.437 423.497L719.509 428.763L720.386 435.783L720.386 450.264L720.386 459.039L718.631 466.5L716.437 474.398L712.488 481.856L672.558 502.48L672.558 480.101L672.558 469.131L670.364 459.039L667.731 452.018L665.976 448.508L663.782 443.681L661.149 439.732L658.078 435.782L654.567 432.711L649.302 431.833L643.597 431.833L639.648 433.15L636.138 435.783L629.554 440.609L612.441 444.558L596.644 444.558L581.286 442.364L571.632 436.66L561.979 429.639L543.988 412.964L536.967 404.188L529.946 394.535L525.119 388.83L519.854 383.565L509.323 380.932L515.906 376.107L522.927 372.597L529.946 369.525L537.407 366.893L551.887 359.872L559.347 357.678L568.122 356.36Z" fill="black"/>
<path d="M599.16 445.743L655.522 415.212L659.715 412.394" stroke="white" stroke-width="5.26562"/>
<path d="M576.344 439.6L630.755 407.128" stroke="white" stroke-width="5.26562"/>
<path d="M558.791 427.314L616.713 396.597" stroke="white" stroke-width="5.26562"/>
<path d="M543.433 414.149L601.793 387.821" stroke="white" stroke-width="5.26562"/>
<path d="M529.83 396.597L587.752 373.78" stroke="white" stroke-width="5.26562"/>
<path d="M630.316 358.86L804.082 431.701" stroke="black" stroke-width="10.5312"/>
<path d="M470.153 418.537L805.836 559.392" stroke="black" stroke-width="10.5312"/>
<path d="M514.033 389.576L518.421 390.454L522.37 394.403L526.319 398.352L528.513 402.74L541.239 420.293L557.474 434.334L575.904 446.182L613.202 451.886L629.438 444.427L638.214 440.039L642.602 439.161H647.867L650.5 516.39L511.839 461.979L494.287 421.609L493.409 415.904V410.639L494.287 404.496L496.481 399.669L499.552 395.281L503.502 392.648L508.328 390.015L514.033 389.576Z" fill="black"/>
<path d="M647.867 439.161L652.694 442.232L655.327 444.427L657.96 447.498L659.715 450.57L661.031 454.519L663.664 462.856L665.858 471.193L667.613 488.745L668.052 504.542L665.419 506.297L650.5 516.39L647.867 439.161Z" fill="black"/>
<path d="M568.122 356.36L576.899 361.627L580.409 365.137L583.042 369.964L597.084 385.322L611.564 398.925L628.678 410.334L637.892 412.967L655.993 414.283L665.537 414.283L675.191 411.211L685.283 405.507L696.253 405.507L703.713 407.262L709.856 411.211L713.805 416.916L716.437 423.497L719.509 428.763L720.386 435.783L720.386 450.264L720.386 459.039L718.631 466.5L716.437 474.398L712.488 481.856L672.558 502.48L672.558 480.101L672.558 469.131L670.364 459.039L667.731 452.018L665.976 448.508L663.782 443.681L661.149 439.732L658.078 435.782L654.567 432.711L649.302 431.833L643.597 431.833L639.648 433.15L636.138 435.783L629.554 440.609L612.441 444.558L596.644 444.558L581.286 442.364L571.632 436.66L561.979 429.639L543.988 412.964L536.967 404.188L529.946 394.535L525.119 388.83L519.854 383.565L509.323 380.932L515.906 376.107L522.927 372.597L529.946 369.525L537.407 366.893L551.887 359.872L559.347 357.678L568.122 356.36Z" fill="black"/>
<path d="M599.16 445.743L655.522 415.212L659.715 412.394" stroke="white" stroke-width="5.26562"/>
<path d="M576.344 439.6L630.755 407.128" stroke="white" stroke-width="5.26562"/>
<path d="M558.791 427.314L616.713 396.597" stroke="white" stroke-width="5.26562"/>
<path d="M543.433 414.149L601.793 387.821" stroke="white" stroke-width="5.26562"/>
<path d="M529.83 396.597L587.752 373.78" stroke="white" stroke-width="5.26562"/>
<path d="M630.316 358.86L804.082 431.701" stroke="black" stroke-width="10.5312"/>
<path d="M470.153 418.537L805.836 559.392" stroke="black" stroke-width="10.5312"/>
<path d="M514.033 389.576L518.421 390.454L522.37 394.403L526.319 398.352L528.513 402.74L541.239 420.293L557.474 434.334L575.904 446.182L613.202 451.886L629.438 444.427L638.214 440.039L642.602 439.161H647.867L650.5 516.39L511.839 461.979L494.287 421.609L493.409 415.904V410.639L494.287 404.496L496.481 399.669L499.552 395.281L503.502 392.648L508.328 390.015L514.033 389.576Z" fill="black"/>
<path d="M647.867 439.161L652.694 442.232L655.327 444.427L657.96 447.498L659.715 450.57L661.031 454.519L663.664 462.856L665.858 471.193L667.613 488.745L668.052 504.542L665.419 506.297L650.5 516.39L647.867 439.161Z" fill="black"/>
<path d="M568.122 356.36L576.899 361.627L580.409 365.137L583.042 369.964L597.084 385.322L611.564 398.925L628.678 410.334L637.892 412.967L655.993 414.283L665.537 414.283L675.191 411.211L685.283 405.507L696.253 405.507L703.713 407.262L709.856 411.211L713.805 416.916L716.437 423.497L719.509 428.763L720.386 435.783L720.386 450.264L720.386 459.039L718.631 466.5L716.437 474.398L712.488 481.856L672.558 502.48L672.558 480.101L672.558 469.131L670.364 459.039L667.731 452.018L665.976 448.508L663.782 443.681L661.149 439.732L658.078 435.782L654.567 432.711L649.302 431.833L643.597 431.833L639.648 433.15L636.138 435.783L629.554 440.609L612.441 444.558L596.644 444.558L581.286 442.364L571.632 436.66L561.979 429.639L543.988 412.964L536.967 404.188L529.946 394.535L525.119 388.83L519.854 383.565L509.323 380.932L515.906 376.107L522.927 372.597L529.946 369.525L537.407 366.893L551.887 359.872L559.347 357.678L568.122 356.36Z" fill="black"/>
<path d="M599.16 445.743L655.522 415.212L659.715 412.394" stroke="white" stroke-width="5.26562"/>
<path d="M576.344 439.6L630.755 407.128" stroke="white" stroke-width="5.26562"/>
<path d="M558.791 427.314L616.713 396.597" stroke="white" stroke-width="5.26562"/>
<path d="M543.433 414.149L601.793 387.821" stroke="white" stroke-width="5.26562"/>
<path d="M529.83 396.597L587.752 373.78" stroke="white" stroke-width="5.26562"/>
<path d="M75.9879 689.641L80.3759 690.519L84.3251 694.468L88.2744 698.417L90.4684 702.805L103.194 720.357L119.429 734.399L137.859 746.247L175.157 751.951L191.393 744.492L200.169 740.104L204.557 739.226H209.822L212.455 816.455L73.7939 762.044L56.2419 721.674L55.3643 715.969V710.704L56.2419 704.561L58.4359 699.734L61.5075 695.346L65.4567 692.713L70.2835 690.08L75.9879 689.641Z" fill="black"/>
<path d="M209.823 739.226L214.65 742.297L217.283 744.491L219.916 747.563L221.671 750.635L222.987 754.584L225.62 762.921L227.814 771.258L229.569 788.81L230.008 804.607L227.375 806.362L212.456 816.455L209.823 739.226Z" fill="black"/>
<path d="M130.078 656.425L138.855 661.692L142.366 665.202L144.998 670.029L159.04 685.387L173.52 698.99L190.634 710.399L199.849 713.032L217.949 714.348L227.493 714.348L237.147 711.276L247.239 705.572L258.209 705.572L265.669 707.327L271.812 711.276L275.761 716.981L278.393 723.562L281.465 728.828L282.342 735.847L282.342 750.329L282.342 759.104L280.587 766.565L278.393 774.463L274.444 781.921L234.514 802.545L234.514 780.166L234.514 769.196L232.32 759.104L229.687 752.083L227.932 748.573L225.738 743.746L223.105 739.797L220.034 735.847L216.523 732.776L211.258 731.898L205.553 731.898L201.604 733.215L198.094 735.847L191.51 740.674L174.397 744.623L158.6 744.623L143.242 742.429L133.588 736.725L123.935 729.704L105.944 713.029L98.9231 704.253L91.9023 694.6L87.0755 688.895L81.8099 683.63L71.2788 680.997L77.8617 676.172L84.8826 672.662L91.9023 669.59L99.363 666.957L113.843 659.937L121.303 657.743L130.078 656.425Z" fill="black"/>
<path d="M161.116 745.808L217.479 715.277L221.671 712.459" stroke="white" stroke-width="5.26562"/>
<path d="M138.299 739.665L192.71 707.193" stroke="white" stroke-width="5.26562"/>
<path d="M120.746 727.378L178.668 696.662" stroke="white" stroke-width="5.26562"/>
<path d="M75.9879 689.641L80.3759 690.519L84.3251 694.468L88.2744 698.417L90.4684 702.805L103.194 720.357L119.429 734.399L137.859 746.247L175.157 751.951L191.393 744.492L200.169 740.104L204.557 739.226H209.822L212.455 816.455L73.7939 762.044L56.2419 721.674L55.3643 715.969V710.704L56.2419 704.561L58.4359 699.734L61.5075 695.346L65.4567 692.713L70.2835 690.08L75.9879 689.641Z" fill="black"/>
<path d="M209.823 739.226L214.65 742.297L217.283 744.491L219.916 747.563L221.671 750.635L222.987 754.584L225.62 762.921L227.814 771.258L229.569 788.81L230.008 804.607L227.375 806.362L212.456 816.455L209.823 739.226Z" fill="black"/>
<path d="M130.078 656.425L138.855 661.692L142.366 665.202L144.998 670.029L159.04 685.387L173.52 698.99L190.634 710.399L199.849 713.032L217.949 714.348L227.493 714.348L237.147 711.276L247.239 705.572L258.209 705.572L265.669 707.327L271.812 711.276L275.761 716.981L278.393 723.562L281.465 728.828L282.342 735.847L282.342 750.329L282.342 759.104L280.587 766.565L278.393 774.463L274.444 781.921L234.514 802.545L234.514 780.166L234.514 769.196L232.32 759.104L229.687 752.083L227.932 748.573L225.738 743.746L223.105 739.797L220.034 735.847L216.523 732.776L211.258 731.898L205.553 731.898L201.604 733.215L198.094 735.847L191.51 740.674L174.397 744.623L158.6 744.623L143.242 742.429L133.588 736.725L123.935 729.704L105.944 713.029L98.9231 704.253L91.9023 694.6L87.0755 688.895L81.8099 683.63L71.2788 680.997L77.8617 676.172L84.8826 672.662L91.9023 669.59L99.363 666.957L113.843 659.937L121.303 657.743L130.078 656.425Z" fill="black"/>
<path d="M161.116 745.808L217.479 715.277L221.671 712.459" stroke="white" stroke-width="5.26562"/>
<path d="M138.299 739.665L192.71 707.193" stroke="white" stroke-width="5.26562"/>
<path d="M120.746 727.378L178.668 696.662" stroke="white" stroke-width="5.26562"/>
<path d="M104.862 714.464L162.784 683.748" stroke="white" stroke-width="5.26562"/>
<path d="M92.8379 700.186L150.76 669.469" stroke="white" stroke-width="5.26562"/>
<path d="M257.311 552.506L261.701 553.374L265.658 557.316L269.615 561.257L271.818 565.641L284.578 583.167L300.842 597.176L319.295 608.987L356.605 614.617L372.825 607.125L381.593 602.72L385.979 601.833L391.244 601.823L394.032 679.046L255.262 624.912L237.629 584.578L236.74 578.875L236.73 573.609L237.595 567.464L239.779 562.633L242.842 558.239L246.786 555.598L251.608 552.956L257.311 552.506Z" fill="black"/>
<path d="M391.244 601.823L396.077 604.885L398.714 607.074L401.353 610.14L403.115 613.208L404.439 617.155L407.088 625.487L409.299 633.819L411.089 651.368L411.56 667.164L408.93 668.924L394.031 679.047L391.244 601.823Z" fill="black"/>
<path d="M311.334 519.181L320.122 524.431L323.639 527.934L326.282 532.755L340.354 548.085L354.862 561.659L371.998 573.034L381.218 575.648L399.321 576.929L408.865 576.909L418.512 573.818L428.593 568.094L439.563 568.072L447.026 569.812L453.178 573.749L457.138 579.446L459.784 586.022L462.866 591.282L463.757 598.299L463.786 612.781L463.804 621.556L462.063 629.02L459.885 636.923L455.951 644.389L416.062 665.092L416.018 642.714L415.996 631.744L413.781 621.656L411.135 614.64L409.372 611.133L407.169 606.311L404.528 602.367L401.449 598.424L397.932 595.359L392.665 594.492L386.96 594.503L383.014 595.828L379.509 598.468L372.935 603.307L355.829 607.291L340.033 607.322L324.67 605.159L315.005 599.474L305.338 592.472L287.313 575.834L280.275 567.072L273.235 557.432L268.397 551.737L263.121 546.482L252.584 543.871L259.158 539.033L266.171 535.508L273.185 532.423L280.64 529.775L295.107 522.725L302.562 520.516L311.334 519.181Z" fill="black"/>
<path d="M342.551 608.502L398.852 577.859L403.039 575.032" stroke="white" stroke-width="5.26562"/>
<path d="M319.721 602.405L374.068 569.825" stroke="white" stroke-width="5.26562"/>
<path d="M302.143 590.153L360.004 559.321" stroke="white" stroke-width="5.26562"/>
<path d="M286.76 577.02L345.067 550.575" stroke="white" stroke-width="5.26562"/>
<path d="M273.122 559.495L330.998 536.562" stroke="white" stroke-width="5.26562"/>
<path d="M257.311 552.506L261.701 553.374L265.658 557.316L269.615 561.257L271.818 565.641L284.578 583.167L300.842 597.176L319.295 608.987L356.605 614.617L372.825 607.125L381.593 602.72L385.979 601.833L391.244 601.823L394.032 679.046L255.262 624.912L237.629 584.578L236.74 578.875L236.73 573.609L237.595 567.464L239.779 562.633L242.842 558.239L246.786 555.598L251.608 552.956L257.311 552.506Z" fill="black"/>
<path d="M391.244 601.823L396.077 604.885L398.714 607.074L401.353 610.14L403.115 613.208L404.439 617.155L407.088 625.487L409.299 633.819L411.089 651.368L411.56 667.164L408.93 668.924L394.031 679.047L391.244 601.823Z" fill="black"/>
<path d="M311.334 519.181L320.122 524.431L323.639 527.934L326.282 532.755L340.354 548.085L354.862 561.659L371.998 573.034L381.218 575.648L399.321 576.929L408.865 576.909L418.512 573.818L428.593 568.094L439.563 568.072L447.026 569.812L453.178 573.749L457.138 579.446L459.784 586.022L462.866 591.282L463.757 598.299L463.786 612.781L463.804 621.556L462.063 629.02L459.885 636.923L455.951 644.389L416.062 665.092L416.018 642.714L415.996 631.744L413.781 621.656L411.135 614.64L409.372 611.133L407.169 606.311L404.528 602.367L401.449 598.424L397.932 595.359L392.665 594.492L386.96 594.503L383.014 595.828L379.509 598.468L372.935 603.307L355.829 607.291L340.033 607.322L324.67 605.159L315.005 599.474L305.338 592.472L287.313 575.834L280.275 567.072L273.235 557.432L268.397 551.737L263.121 546.482L252.584 543.871L259.158 539.033L266.171 535.508L273.185 532.423L280.64 529.775L295.107 522.725L302.562 520.516L311.334 519.181Z" fill="black"/>
<path d="M342.551 608.502L398.852 577.859L403.039 575.032" stroke="white" stroke-width="5.26562"/>
<path d="M319.721 602.405L374.068 569.825" stroke="white" stroke-width="5.26562"/>
<path d="M302.143 590.153L360.004 559.321" stroke="white" stroke-width="5.26562"/>
<path d="M286.76 577.02L345.067 550.575" stroke="white" stroke-width="5.26562"/>
<path d="M273.122 559.495L330.998 536.562" stroke="white" stroke-width="5.26562"/>
<path d="M651.817 577.383L656.205 578.261L660.154 582.21L664.103 586.159L666.297 590.547L679.023 608.099L695.258 622.141L713.688 633.989L750.986 639.693L767.222 632.233L775.998 627.845L780.386 626.968H785.651L788.284 704.197L649.623 649.786L632.071 609.416L631.193 603.711V598.446L632.071 592.303L634.265 587.476L637.337 583.088L641.286 580.455L646.113 577.822L651.817 577.383Z" fill="black"/>
<path d="M785.65 626.968L790.477 630.039L793.11 632.233L795.743 635.305L797.498 638.377L798.814 642.326L801.447 650.663L803.641 659L805.396 676.552L805.835 692.349L803.202 694.104L788.283 704.197L785.65 626.968Z" fill="black"/>
<path d="M705.906 544.167L714.683 549.434L718.194 552.944L720.826 557.771L734.868 573.129L749.349 586.732L766.462 598.141L775.677 600.774L793.777 602.09L803.321 602.09L812.975 599.018L823.067 593.314L834.037 593.314L841.497 595.069L847.64 599.018L851.589 604.723L854.222 611.304L857.293 616.57L858.171 623.589L858.171 638.071L858.171 646.846L856.415 654.307L854.221 662.205L850.272 669.663L810.342 690.287L810.342 667.908L810.342 656.938L808.148 646.846L805.515 639.825L803.76 636.315L801.566 631.488L798.933 627.539L795.862 623.589L792.351 620.518L787.086 619.64L781.381 619.64L777.432 620.957L773.922 623.589L767.338 628.416L750.225 632.365L734.428 632.365L719.07 630.171L709.417 624.466L699.763 617.446L681.772 600.771L674.751 591.995L667.73 582.342L662.904 576.637L657.638 571.371L647.107 568.739L653.69 563.914L660.711 560.404L667.73 557.332L675.191 554.699L689.672 547.679L697.131 545.485L705.906 544.167Z" fill="black"/>
<path d="M736.944 633.55L793.307 603.019L797.499 600.201" stroke="white" stroke-width="5.26562"/>
<path d="M714.126 627.407L768.537 594.935" stroke="white" stroke-width="5.26562"/>
<path d="M696.574 615.12L754.496 584.404" stroke="white" stroke-width="5.26562"/>
<path d="M681.217 601.956L739.577 575.628" stroke="white" stroke-width="5.26562"/>
<path d="M667.614 584.404L725.536 561.586" stroke="white" stroke-width="5.26562"/>
<path d="M651.817 577.383L656.205 578.261L660.154 582.21L664.103 586.159L666.297 590.547L679.023 608.099L695.258 622.141L713.688 633.989L750.986 639.693L767.222 632.233L775.998 627.845L780.386 626.968H785.651L788.284 704.197L649.623 649.786L632.071 609.416L631.193 603.711V598.446L632.071 592.303L634.265 587.476L637.337 583.088L641.286 580.455L646.113 577.822L651.817 577.383Z" fill="black"/>
<path d="M785.65 626.968L790.477 630.039L793.11 632.233L795.743 635.305L797.498 638.377L798.814 642.326L801.447 650.663L803.641 659L805.396 676.552L805.835 692.349L803.202 694.104L788.283 704.197L785.65 626.968Z" fill="black"/>
<path d="M705.906 544.167L714.683 549.434L718.194 552.944L720.826 557.771L734.868 573.129L749.349 586.732L766.462 598.141L775.677 600.774L793.777 602.09L803.321 602.09L812.975 599.018L823.067 593.314L834.037 593.314L841.497 595.069L847.64 599.018L851.589 604.723L854.222 611.304L857.293 616.57L858.171 623.589L858.171 638.071L858.171 646.846L856.415 654.307L854.221 662.205L850.272 669.663L810.342 690.287L810.342 667.908L810.342 656.938L808.148 646.846L805.515 639.825L803.76 636.315L801.566 631.488L798.933 627.539L795.862 623.589L792.351 620.518L787.086 619.64L781.381 619.64L777.432 620.957L773.922 623.589L767.338 628.416L750.225 632.365L734.428 632.365L719.07 630.171L709.417 624.466L699.763 617.446L681.772 600.771L674.751 591.995L667.73 582.342L662.904 576.637L657.638 571.371L647.107 568.739L653.69 563.914L660.711 560.404L667.73 557.332L675.191 554.699L689.672 547.679L697.131 545.485L705.906 544.167Z" fill="black"/>
<path d="M736.944 633.55L793.307 603.019L797.499 600.201" stroke="white" stroke-width="5.26562"/>
<path d="M714.126 627.407L768.537 594.935" stroke="white" stroke-width="5.26562"/>
<path d="M696.574 615.12L754.496 584.404" stroke="white" stroke-width="5.26562"/>
<path d="M681.217 601.956L739.577 575.628" stroke="white" stroke-width="5.26562"/>
<path d="M667.614 584.404L725.536 561.586" stroke="white" stroke-width="5.26562"/>
<path d="M17.0361 802.606C11.2945 800.131 8.61497 795.048 10.6902 790.234L10.9187 789.704L15.0261 791.474L14.7977 792.004C13.6744 794.61 15.3168 797.361 18.6734 798.808C22.3834 800.407 25.8216 799.113 27.3447 795.58L28.944 791.87C26.6945 792.472 24.1184 792.251 21.5567 791.147C15.8593 788.691 13.4897 783.375 15.6792 778.296L16.1933 777.103C18.4209 771.936 24.0644 770.022 29.9385 772.554C35.9892 775.162 38.5537 780.877 36.1357 786.486L31.4902 797.262C28.9961 803.048 23.1752 805.252 17.0361 802.606ZM19.8248 779.978C18.4539 783.158 19.7743 785.927 23.4842 787.526C26.3992 788.783 29.0203 788.656 30.905 787.321L32.0093 784.759C33.4943 781.314 31.9669 777.933 28.3011 776.352C24.7236 774.81 21.6335 775.782 20.3198 778.83L19.8248 779.978ZM49.4088 815.933L53.7954 784.252L54.081 783.59L58.1885 785.361L54.4074 811.384L70.5991 790.71L75.0599 792.633L71.1273 818.644L87.4705 797.983L91.578 799.754L91.2924 800.417L71.271 825.357L66.236 823.187L69.7421 798.773L54.3995 818.084L49.4088 815.933ZM83.3014 830.543L95.791 801.57L113.678 809.281L112.06 813.035L98.3243 807.114L94.4974 815.991L107.482 821.589L105.883 825.299L92.8982 819.701L89.0713 828.579L102.807 834.5L101.189 838.254L83.3014 830.543ZM106.338 840.474L118.828 811.501L122.936 813.272L110.446 842.245L106.338 840.474ZM127.448 850.202C120.647 847.27 118.039 841.171 120.819 834.722L124.55 826.066C127.33 819.618 133.682 817.276 140.439 820.189C147.02 823.025 149.717 828.797 147.223 834.583L146.937 835.245L142.83 833.474L143.115 832.812C144.619 829.323 142.89 825.802 138.871 824.069C134.322 822.108 130.549 823.572 128.645 827.988L125.046 836.335C123.123 840.796 124.556 844.399 129.193 846.398C132.108 847.655 134.95 847.623 137.346 846.194L139.422 841.38L130.721 837.629L132.32 833.92L145.128 839.441L138.674 854.413L135.053 852.852L135.746 850.637C133.198 851.686 130.496 851.516 127.448 850.202ZM144.634 856.982L157.123 828.009L161.275 829.799L155.83 842.43L167.666 847.533L173.111 834.901L177.263 836.691L164.773 865.664L160.622 863.874L166.048 851.287L154.211 846.184L148.785 858.772L144.634 856.982ZM176.641 870.78L187.512 845.561L179.209 841.982L180.827 838.227L201.497 847.138L199.879 850.892L191.62 847.332L180.748 872.55L176.641 870.78ZM200.475 881.683C193.938 878.865 191.713 874.187 194.15 868.534L194.588 867.518L198.518 869.212L198.08 870.228C196.633 873.585 198.055 876.24 202.074 877.973C205.784 879.572 208.678 878.934 209.896 876.107L210.106 875.621C211.096 873.325 210.317 871.365 207.543 869.175L203.936 866.363C199.813 863.171 198.538 859.689 200.1 856.067L200.366 855.449C202.422 850.679 207.68 849.175 213.598 851.726C219.605 854.315 221.78 858.867 219.514 864.122L219.077 865.138L215.146 863.444L215.584 862.428C216.935 859.292 215.747 856.947 211.86 855.271C208.415 853.786 205.629 854.418 204.525 856.98L204.315 857.466C203.458 859.453 204.351 861.514 206.765 863.445L210.264 866.263C214.753 869.821 216.022 873.196 214.346 877.083L214.08 877.701C211.89 882.78 206.57 884.31 200.475 881.683Z" fill="black"/>
<path d="M235.567 675.008L237.196 671.363L248.954 666.977C255.712 664.465 257.639 663.219 258.777 660.672L258.973 660.233C260.229 657.423 259.086 654.91 255.88 653.478C252.631 652.026 249.958 652.939 248.624 655.925L248.212 656.847L244.172 655.042L244.604 654.076C246.978 648.763 251.835 647.088 257.587 649.658C263.296 652.209 265.308 656.901 263.013 662.038L262.817 662.477C261.267 665.946 258.362 667.967 251.202 670.668L242.792 673.811L256.009 679.717L254.361 683.405L235.567 675.008ZM280.5 695.717C274.002 692.813 271.838 688.106 274.349 682.485L274.8 681.475L278.709 683.222L278.257 684.232C276.766 687.569 278.153 690.243 282.149 692.028C285.837 693.676 288.739 693.076 289.995 690.266L290.21 689.783C291.231 687.5 290.478 685.53 287.733 683.303L284.164 680.444C280.083 677.198 278.854 673.699 280.463 670.099L280.738 669.484C282.857 664.742 288.134 663.307 294.018 665.936C299.99 668.604 302.105 673.184 299.77 678.409L299.319 679.419L295.411 677.673L295.862 676.663C297.255 673.545 296.097 671.184 292.233 669.458C288.808 667.927 286.014 668.523 284.876 671.069L284.66 671.552C283.777 673.528 284.642 675.601 287.031 677.564L290.493 680.427C294.934 684.045 296.158 687.436 294.431 691.3L294.157 691.915C291.9 696.965 286.56 698.424 280.5 695.717ZM295.873 701.953L308.744 673.148L312.872 674.992L301.669 700.065L315.852 706.403L314.184 710.135L295.873 701.953ZM315.767 710.842L316.062 710.184L337.903 686.177L342.646 688.295L339.334 720.582L339.04 721.241L334.956 719.416L335.85 711.756L324.961 706.89L319.851 712.667L315.767 710.842ZM327.814 703.688L336.333 707.494L338.155 691.978L327.814 703.688ZM343.258 723.126L356.129 694.32L360.432 696.243L362.577 722.802L372.112 701.462L376.152 703.267L363.281 732.072L358.978 730.15L356.794 703.678L347.298 724.931L343.258 723.126ZM375.08 737.344L386.283 712.271L378.028 708.583L379.696 704.85L400.246 714.032L398.578 717.765L390.367 714.096L379.164 739.169L375.08 737.344ZM398.768 748.561C392.27 745.657 390.106 740.95 392.617 735.329L393.069 734.319L396.977 736.066L396.525 737.076C395.034 740.413 396.421 743.087 400.417 744.872C404.105 746.52 407.007 745.921 408.263 743.11L408.478 742.627C409.499 740.344 408.746 738.374 406.001 736.147L402.432 733.288C398.351 730.042 397.122 726.543 398.731 722.943L399.006 722.328C401.125 717.586 406.402 716.151 412.286 718.78C418.258 721.448 420.373 726.028 418.038 731.253L417.587 732.263L413.679 730.517L414.13 729.507C415.523 726.389 414.365 724.029 410.501 722.302C407.076 720.772 404.282 721.367 403.144 723.914L402.928 724.397C402.045 726.373 402.91 728.445 405.299 730.408L408.761 733.271C413.202 736.889 414.426 740.28 412.7 744.144L412.425 744.759C410.169 749.809 404.828 751.268 398.768 748.561Z" fill="black"/>
<path d="M239.043 363.321L264.367 364.375" stroke="white" stroke-width="2.65671"/>
<ellipse cx="260.505" cy="363.378" rx="21.7253" ry="10.0271" transform="rotate(2.38364 260.505 363.378)" fill="black"/>
<path d="M237.06 364.075L240.469 369.234L244.551 371.635L250.279 374.661L257.735 376.365L273.145 374.497L279.708 370.868L283.534 366.009L284.245 442.701L277.659 446.887L270.586 449.38L261.878 450.969L254.086 450.645L244.624 450.251L236.669 447.132L229.608 442.657L222.836 437.914L237.06 364.075Z" fill="black"/>
<path d="M241.258 383.764L236.599 442.112L230.36 437.949L235.856 413.089L241.258 383.764Z" fill="white"/>
<path d="M273.824 381.21L274.717 442.741L281.546 438.801L277.484 412.344L273.824 381.21Z" fill="white"/>
<path d="M237.756 360.759L259.474 361.384" stroke="white" stroke-width="2.65671"/>
<path d="M257.978 383.902L259.208 414.618L258.769 445.265L250.977 444.94L254.477 414.421L257.978 383.902Z" fill="white"/>
<ellipse cx="154.739" cy="419.255" rx="24.523" ry="11.3183" transform="rotate(1.35099 154.739 419.255)" fill="black"/>
<path d="M173.918 410.808L155.898 417.129" stroke="white" stroke-width="2.65671"/>
<path d="M128.291 420.518L132.244 426.272L136.899 428.898L143.425 432.197L151.875 433.968L169.229 431.547L176.561 427.317L180.781 421.756L183.143 508.295L175.795 513.154L167.863 516.111L158.068 518.082L149.267 517.874L138.58 517.622L129.54 514.264L121.479 509.357L113.74 504.142L128.291 420.518Z" fill="black"/>
<path d="M133.43 442.653L129.359 508.599L122.234 504.028L127.93 475.859L133.43 442.653Z" fill="white"/>
<path d="M169.89 443.513L170.848 509.577L178.181 505.348L173.819 476.941L169.89 443.513Z" fill="white"/>
<path d="M152.303 442.469L154.317 477.11L154.444 511.706L145.644 511.499L148.974 476.984L152.303 442.469Z" fill="white"/>
<ellipse cx="367.4" cy="312.211" rx="24.0723" ry="11.1103" transform="rotate(1.35099 367.4 312.211)" fill="black"/>
<path d="M341.44 313.451L345.32 319.099L349.89 321.677L356.296 324.915L364.59 326.654L381.625 324.277L388.823 320.125L392.965 314.666L395.284 399.615L388.071 404.384L380.285 407.287L370.669 409.222L362.03 409.018L351.54 408.77L342.666 405.474L334.753 400.657L327.156 395.538L341.44 313.451Z" fill="black"/>
<path d="M346.484 335.18L342.488 399.914L335.494 395.427L341.085 367.775L346.484 335.18Z" fill="white"/>
<path d="M382.274 336.023L383.215 400.874L390.413 396.722L386.131 368.837L382.274 336.023Z" fill="white"/>
<path d="M365.011 334.999L366.987 369.003L367.112 402.964L358.473 402.76L361.742 368.879L365.011 334.999Z" fill="white"/>
<path d="M356.524 299.765L367.594 312.606" stroke="white" stroke-width="2.65671"/>
</svg>
