<svg width="421" height="342" viewBox="0 0 421 342" fill="none" xmlns="http://www.w3.org/2000/svg">
<rect x="78.7822" width="363.379" height="231.927" rx="16.7456" transform="rotate(19.8579 78.7822 0)" fill="#DDFA42"/>
<ellipse cx="134.471" cy="130.499" rx="66.5638" ry="66.1451" transform="rotate(19.8579 134.471 130.499)" fill="#BECD0E"/>
<ellipse cx="287.244" cy="185.675" rx="66.5638" ry="66.1451" transform="rotate(19.8579 287.244 185.675)" fill="#BECD0E"/>
<ellipse cx="134.47" cy="130.499" rx="39.7708" ry="38.5149" transform="rotate(19.8579 134.47 130.499)" fill="#DDFA42"/>
<ellipse cx="287.245" cy="185.676" rx="39.7708" ry="38.5149" transform="rotate(19.8579 287.245 185.676)" fill="#DDFA42"/>
<ellipse cx="134.47" cy="130.499" rx="17.1642" ry="15.9083" transform="rotate(19.8579 134.47 130.499)" fill="#BECD0E"/>
<ellipse cx="287.245" cy="185.675" rx="17.1642" ry="15.9083" transform="rotate(19.8579 287.245 185.675)" fill="#BECD0E"/>
<ellipse cx="43.5076" cy="199.28" rx="15.9083" ry="14.6524" transform="rotate(19.8579 43.5076 199.28)" fill="#BECD0E"/>
<ellipse cx="315.754" cy="304.93" rx="15.9083" ry="14.6524" transform="rotate(19.8579 315.754 304.93)" fill="#BECD0E"/>
<path d="M81.4308 197.5C83.6693 194.698 87.4434 193.633 90.8162 194.851L281.394 263.681C284.638 264.853 286.831 267.894 286.92 271.342L287.909 309.978C288.06 315.87 282.238 320.069 276.695 318.067L61.3922 240.308C55.9979 238.36 54.115 231.687 57.6951 227.207L81.4308 197.5Z" fill="#BECD0E"/>
<circle cx="85.7497" cy="16.2211" r="5.02368" transform="rotate(19.8579 85.7497 16.2211)" fill="#DDFA42" stroke="#BECD0E" stroke-width="2.51184"/>
<circle cx="334.652" cy="327.779" r="5.02368" transform="rotate(19.8579 334.652 327.779)" fill="#DDFA42" stroke="#BECD0E" stroke-width="2.51184"/>
<rect x="160.479" y="153.152" width="101.311" height="34.3285" transform="rotate(19.8579 160.479 153.152)" fill="#BECD0E" fill-opacity="0.48"/>
<rect x="141.649" y="47.5378" width="205.971" height="30.9794" transform="rotate(19.8579 141.649 47.5378)" fill="#BECD0E"/>
<rect x="101.28" y="32.6065" width="291.373" height="29.3048" rx="6.2796" transform="rotate(19.8579 101.28 32.6065)" stroke="#BECD0E" stroke-width="4.1864"/>
<path d="M338.573 144.691C334.081 143.068 332.369 139.957 333.643 136.429L333.703 136.264L338.609 138.036L338.539 138.229C338.151 139.304 338.821 139.951 340.144 140.428C341.605 140.956 342.693 140.445 343.151 139.178L343.539 138.103C342.488 138.253 341.323 138.112 340.083 137.665C336.197 136.261 334.725 133.175 335.79 130.225L336.188 129.123C337.403 125.76 340.87 124.271 345.418 125.913C349.883 127.526 351.616 131.267 350.312 134.878L348.162 140.832C346.818 144.552 343.094 146.323 338.573 144.691ZM340.961 131.438C340.602 132.431 341.072 133.286 342.478 133.794C343.47 134.152 344.359 134.193 345.042 133.941L345.39 132.976C345.838 131.736 345.308 130.703 343.792 130.155C342.414 129.658 341.478 130.005 341.11 131.025L340.961 131.438ZM354.679 150.507C350.269 148.915 348.375 144.928 349.689 141.29L351.73 135.639C353.044 132.001 357.048 130.145 361.458 131.738C365.868 133.33 367.734 137.307 366.421 140.945L364.38 146.595C363.056 150.261 359.089 152.1 354.679 150.507ZM354.712 142.824C354.195 144.257 354.751 145.392 356.322 145.96C357.893 146.527 359.018 145.999 359.536 144.566L361.397 139.411C361.905 138.006 361.369 136.815 359.826 136.258C358.255 135.69 357.082 136.264 356.574 137.669L354.712 142.824Z" fill="white"/>
<path d="M113.959 63.5732L120.489 45.4924L128.207 48.2796C131.873 49.6036 133.473 52.3316 132.378 55.3634L132.309 55.5564C131.721 57.1826 130.592 58.2391 129.043 58.6456C130.253 59.9548 130.602 61.5765 129.975 63.3129L129.905 63.5058C128.78 66.6204 125.673 67.8039 122.063 66.4998L113.959 63.5732ZM120.446 61.0554L123.174 62.0409C124.139 62.3893 124.757 62.1451 125.076 61.2631L125.125 61.1253C125.424 60.2984 125.087 59.6782 124.15 59.3398L121.421 58.3543L120.446 61.0554ZM122.905 54.2475L125.302 55.1135C126.24 55.452 126.857 55.2078 127.176 54.3258L127.226 54.188C127.524 53.3611 127.205 52.7784 126.268 52.44L123.87 51.5739L122.905 54.2475Z" fill="white"/>
<path d="M105.789 59.4269C105.12 61.2791 103.906 62.0372 102.457 61.5138L102.319 61.4638L103.056 59.4226L103.194 59.4727C103.585 59.6137 103.84 59.4209 104.054 58.8287C104.227 58.3499 104.192 58.0524 103.965 57.9705L103.927 57.9568C103.725 57.884 103.592 57.9782 103.371 58.3541L102.83 59.2983C102.17 60.4558 101.17 60.9776 100.25 60.6454L100.162 60.6135C98.9016 60.1585 98.4716 58.707 99.0995 56.9682C99.7412 55.1916 100.916 54.4623 102.327 54.9719L102.466 55.022L101.729 57.0632L101.59 57.0131C101.237 56.8857 100.969 57.1163 100.755 57.7085C100.596 58.1495 100.618 58.4425 100.82 58.5153L100.858 58.5289C101.047 58.5972 101.163 58.5111 101.349 58.1937L101.999 57.1038C102.729 55.8718 103.617 55.4235 104.6 55.7784L104.688 55.8103C105.986 56.279 106.412 57.7007 105.789 59.4269ZM106.894 55.8539L100.519 53.5513L101.306 51.3715L107.682 53.6741L106.894 55.8539ZM98.7072 53.1249C97.9638 52.8564 97.6338 52.1532 97.9114 51.3846C98.1889 50.616 98.8795 50.2815 99.6355 50.5545C100.379 50.823 100.709 51.5261 100.431 52.2947C100.158 53.0507 99.4506 53.3934 98.7072 53.1249ZM108.939 50.7043C108.452 52.0524 107.055 52.6873 105.48 52.1185L103.981 51.5769C102.406 51.0081 101.749 49.6315 102.236 48.2833C102.423 47.7667 102.734 47.338 103.145 47.0304L100.511 46.0793L101.298 43.8995L110.068 47.0667L109.372 48.9945L109.026 48.9266C109.194 49.4859 109.158 50.0995 108.939 50.7043ZM105.999 49.8134C106.554 50.0136 106.944 49.8411 107.121 49.3497C107.23 49.0473 107.217 48.7291 107.113 48.4638L105.072 47.7266C104.823 47.8645 104.61 48.1007 104.5 48.4031C104.323 48.8945 104.487 49.2673 105.042 49.4675L105.999 49.8134ZM111.571 43.4184C110.92 45.2201 109.448 45.9845 107.784 45.3838L106.524 44.9287C104.874 44.3326 104.221 42.7866 104.868 40.9974C105.523 39.183 106.978 38.4268 108.641 39.0274L109.838 39.4597L108.491 43.1893L108.668 43.253C109.172 43.435 109.567 43.2076 109.731 42.754C109.881 42.3382 109.813 42.0144 109.551 41.8342L110.342 39.6418C111.796 40.3093 112.194 41.6922 111.571 43.4184ZM107.194 42.7206L107.758 41.1582C107.241 40.9716 106.858 41.2037 106.695 41.6573C106.531 42.1109 106.677 42.534 107.194 42.7206Z" fill="white"/>
<path d="M174.045 185.497C170.383 184.174 168.723 180.931 169.96 177.505L171.59 172.993C172.827 169.567 176.185 168.109 179.847 169.432C183.39 170.712 185.058 173.931 183.864 177.239L183.685 177.735L180.921 176.737L181.1 176.241C181.808 174.28 181.004 172.734 178.878 171.966C176.752 171.198 175.088 171.959 174.312 174.109L172.767 178.385C171.991 180.535 172.769 182.152 174.919 182.928C177.021 183.688 178.66 182.997 179.359 181.06L179.538 180.564L182.302 181.562L182.123 182.058C180.937 185.342 177.565 186.768 174.045 185.497ZM182.753 188.321L188.35 172.823L193.76 174.777C197.351 176.074 198.941 179.212 197.747 182.52L196.177 186.867C194.982 190.174 191.754 191.572 188.163 190.275L182.753 188.321ZM186.43 186.792L189.146 187.773C191.178 188.507 192.722 187.782 193.43 185.821L194.957 181.593C195.665 179.632 194.926 178.056 192.918 177.331L190.201 176.349L186.43 186.792ZM196.779 193.387L201.036 181.598L203.706 182.562L199.448 194.351L196.779 193.387ZM201.765 178.176C202.14 177.136 203.152 176.701 204.168 177.067C205.208 177.443 205.684 178.416 205.309 179.456C204.942 180.472 203.945 180.939 202.905 180.564C201.866 180.189 201.398 179.192 201.765 178.176ZM207.537 197.273C205.128 196.402 204.274 194.625 205.102 192.333L207.183 186.569L204.301 185.528L205.18 183.095L207.401 183.897C207.968 184.102 208.218 183.925 208.398 183.429L209.268 181.019L211.867 181.958L210.732 185.1L214.37 186.414L213.491 188.847L209.853 187.533L207.797 193.227C207.507 194.03 207.755 194.6 208.511 194.873L210.401 195.556L209.522 197.989L207.537 197.273ZM218.444 201.212L224.041 185.714L226.805 186.712L221.208 202.21L218.444 201.212ZM224.212 203.295L229.809 187.797L232.573 188.795L226.976 204.293L224.212 203.295Z" fill="#DDFA42"/>
<path d="M151.093 119.592L155.011 108.744L159.707 110.44C162.155 111.324 163.005 113.164 162.21 115.363L162.169 115.479C161.362 117.712 159.555 118.573 157.091 117.683L155.355 117.056L154.053 120.661L151.093 119.592ZM156.317 114.394L157.871 114.955C158.566 115.206 158.971 115.016 159.192 114.404L159.234 114.288C159.443 113.709 159.242 113.282 158.564 113.037L157.009 112.475L156.317 114.394ZM164.993 124.856C162.132 123.822 160.953 121.34 161.795 119.008L162.864 116.048C163.713 113.7 166.205 112.544 169.066 113.577C171.944 114.616 173.112 117.076 172.258 119.441L171.189 122.401C170.34 124.749 167.87 125.895 164.993 124.856ZM164.826 119.935C164.455 120.96 164.837 121.715 165.978 122.127C167.053 122.515 167.919 122.136 168.266 121.177L169.233 118.498C169.597 117.489 169.222 116.718 168.081 116.306C166.956 115.9 166.158 116.247 165.793 117.256L164.826 119.935ZM174.685 128.356C172.006 127.388 171.007 125.495 171.885 123.064L171.987 122.783L174.815 123.804L174.713 124.085C174.432 124.862 174.767 125.488 175.627 125.799C176.421 126.085 176.952 125.959 177.138 125.447L177.167 125.364C177.329 124.918 177.181 124.602 176.574 124.159L175.04 123.025C173.472 121.88 172.922 120.503 173.46 119.015L173.519 118.85C174.23 116.882 176.278 116.182 178.709 117.06C181.255 117.979 182.29 119.774 181.513 121.924L181.412 122.205L178.634 121.201L178.735 120.92C178.95 120.325 178.634 119.855 177.823 119.563C177.096 119.3 176.593 119.399 176.443 119.812L176.413 119.895C176.288 120.242 176.485 120.575 177.059 121.006L178.604 122.163C180.259 123.377 180.777 124.686 180.204 126.274L180.144 126.439C179.38 128.556 177.281 129.294 174.685 128.356ZM179.885 129.991L183.803 119.142L186.779 120.217L182.861 131.066L179.885 129.991ZM185.956 132.184L188.907 124.014L186.542 123.16L187.509 120.481L195.216 123.264L194.248 125.943L191.883 125.089L188.933 133.259L185.956 132.184ZM192.029 134.377L195.947 123.529L198.924 124.604L195.006 135.452L192.029 134.377ZM200.603 137.717C197.742 136.683 196.563 134.201 197.406 131.87L198.475 128.909C199.323 126.561 201.815 125.405 204.676 126.438C207.554 127.477 208.722 129.937 207.868 132.302L206.799 135.262C205.951 137.61 203.48 138.756 200.603 137.717ZM200.436 132.796C200.066 133.821 200.447 134.576 201.588 134.988C202.663 135.376 203.529 134.997 203.876 134.038L204.843 131.359C205.208 130.35 204.832 129.579 203.691 129.167C202.566 128.761 201.768 129.108 201.404 130.117L200.436 132.796ZM206.486 139.599L210.405 128.75L213.381 129.825L214.205 136.292L216.176 130.834L218.938 131.832L215.02 142.68L212.043 141.605L211.171 135.271L209.248 140.596L206.486 139.599ZM225.393 146.67C222.615 145.667 221.295 143.264 222.179 140.817L223.248 137.857C224.132 135.409 226.705 134.394 229.467 135.392C232.328 136.425 233.495 138.679 232.546 141.308L232.301 141.986L229.307 140.905L229.6 140.095C229.923 139.202 229.506 138.49 228.465 138.114C227.34 137.708 226.57 138.028 226.194 139.07L225.226 141.749C224.85 142.791 225.238 143.529 226.362 143.935C227.421 144.318 228.179 144.031 228.513 143.104L228.746 142.459L231.739 143.541L231.542 144.086C230.593 146.716 228.254 147.703 225.393 146.67ZM231.131 148.499L235.049 137.651L238.026 138.726L236.551 142.811L239.13 143.742L240.606 139.658L243.582 140.733L239.664 151.581L236.688 150.506L238.157 146.438L235.577 145.506L234.108 149.574L231.131 148.499ZM240.982 152.057L244.9 141.209L249.597 142.905C252.045 143.789 252.894 145.629 252.1 147.828L252.058 147.944C251.497 149.498 250.375 150.327 248.841 150.278L249.677 154.693L249.516 155.139L246.456 154.034L245.692 149.421L245.328 149.29L243.943 153.126L240.982 152.057ZM246.206 146.859L247.761 147.42C248.455 147.671 248.86 147.481 249.081 146.869L249.123 146.753C249.332 146.174 249.132 145.747 248.454 145.502L246.899 144.94L246.206 146.859ZM255.012 157.367C252.151 156.334 250.972 153.852 251.814 151.52L252.883 148.56C253.731 146.211 256.224 145.055 259.085 146.089C261.962 147.128 263.131 149.587 262.276 151.952L261.207 154.912C260.359 157.261 257.889 158.406 255.012 157.367ZM254.845 152.446C254.474 153.471 254.856 154.226 255.997 154.638C257.072 155.027 257.938 154.648 258.284 153.688L259.252 151.009C259.616 150.001 259.241 149.229 258.099 148.817C256.975 148.411 256.177 148.758 255.812 149.767L254.845 152.446ZM265.228 160.814L265.653 154.873L263.706 160.264L260.895 159.249L264.813 148.4L268.451 149.714L268.049 156.729L272.238 151.082L275.893 152.402L271.975 163.251L269.164 162.235L271.135 156.778L267.626 161.68L265.228 160.814ZM273.298 163.728L277.216 152.88L284.592 155.544L283.636 158.19L279.221 156.595L278.689 158.067L282.774 159.542L281.824 162.171L277.739 160.696L277.214 162.152L281.629 163.746L280.674 166.392L273.298 163.728Z" fill="#929E04"/>
<path d="M56.7811 107.12C54.3336 106.236 53.4181 104.578 54.1826 102.461L54.32 102.081L55.7918 102.613L55.6545 102.993C55.2006 104.25 55.7779 105.187 57.2828 105.731C58.672 106.233 59.7139 105.936 60.0961 104.877L60.1618 104.696C60.4724 103.836 60.1449 103.138 59.0842 102.4L57.7061 101.453C56.131 100.379 55.589 99.1368 56.0787 97.7808L56.1623 97.5493C56.8074 95.7632 58.6927 95.0981 60.9087 95.8985C63.1578 96.7108 64.0521 98.3237 63.3414 100.292L63.204 100.672L61.7322 100.14L61.8696 99.7601C62.2936 98.5859 61.8081 97.7562 60.3528 97.2306C59.0629 96.7648 58.0601 97.0569 57.7136 98.0161L57.6479 98.198C57.3792 98.9422 57.7503 99.6744 58.6741 100.326L60.0131 101.277C61.7298 102.476 62.2672 103.68 61.7416 105.135L61.658 105.367C60.9711 107.269 59.0633 107.944 56.7811 107.12ZM66.4511 110.612C63.9705 109.717 62.9021 107.499 63.7622 105.117L64.9268 101.892C65.7929 99.4945 68.0485 98.4771 70.5125 99.367C72.9931 100.263 74.0721 102.503 73.2121 104.885L72.0474 108.11C71.1873 110.491 68.9483 111.514 66.4511 110.612ZM65.3346 105.629C64.7373 107.283 65.3501 108.588 66.9707 109.174C68.5914 109.759 69.942 109.125 70.5273 107.504L71.6502 104.395C72.2534 102.725 71.6301 101.397 69.9929 100.806C68.3723 100.22 67.0607 100.85 66.4575 102.52L65.3346 105.629ZM72.8412 112.696L76.7593 101.847L78.38 102.433L79.8762 112.059L82.7789 104.022L84.3003 104.571L80.3823 115.42L78.7616 114.834L77.2534 105.241L74.3627 113.245L72.8412 112.696ZM85.2063 117.162L86.8428 112.631L85.6281 105.331L85.7176 105.083L87.3218 105.662L88.2054 111.291L92.4649 107.52L94.069 108.099L93.9794 108.347L88.3808 113.186L86.7442 117.717L85.2063 117.162Z" fill="white"/>
<circle cx="402.864" cy="131.149" r="5.02368" transform="rotate(19.8579 402.864 131.149)" fill="#DDFA42" stroke="#BECD0E" stroke-width="2.51184"/>
<circle cx="16.4004" cy="212.816" r="5.85158" transform="rotate(27.0641 16.4004 212.816)" fill="#DDFA42" stroke="#BECD0E" stroke-width="2.92579"/>
</svg>
