<svg width="706" height="706" viewBox="0 0 706 706" fill="none" xmlns="http://www.w3.org/2000/svg">
<ellipse cx="352.977" cy="352.764" rx="250.69" ry="251.95" transform="rotate(-51.8671 352.977 352.764)" fill="#DDFA42"/>
<ellipse cx="353.237" cy="352.434" rx="84.8232" ry="82.3037" transform="rotate(-51.8671 353.237 352.434)" fill="#BECD0E"/>
<circle cx="353.896" cy="352.953" r="6.71867" transform="rotate(-51.8671 353.896 352.953)" fill="white"/>
<path d="M290.342 369.608C288.438 372.034 286.263 372.454 284.17 370.811L283.79 370.512L285.184 368.737L285.564 369.035C286.611 369.857 287.685 369.598 288.693 368.314C289.627 367.125 289.686 366.07 288.83 365.398L288.64 365.248C287.974 364.726 287.153 364.824 286.206 365.541L284.561 366.787C282.839 368.1 281.235 368.25 279.935 367.23L279.681 367.031C277.921 365.649 277.893 363.269 279.611 361.082C281.353 358.862 283.471 358.449 285.374 359.943L285.754 360.241L284.373 362.001L283.992 361.702C283.041 360.956 282.149 361.178 281.178 362.415C280.332 363.493 280.269 364.519 281.03 365.117L281.22 365.266C281.775 365.702 282.608 365.587 283.452 364.969L285.1 363.751C286.986 362.361 288.561 362.214 289.941 363.297L290.194 363.496C292.065 364.965 292.122 367.341 290.342 369.608ZM294.343 364.12L283.942 355.956L285.461 354.021L295.377 355.784L288.386 350.296L289.817 348.472L300.217 356.637L298.686 358.587L288.83 356.846L295.774 362.297L294.343 364.12ZM305.034 350.893C303.117 353.335 300.225 353.755 297.926 351.95L294.914 349.586C292.615 347.781 292.349 344.856 294.253 342.43C296.17 339.988 299.09 339.565 301.373 341.357L304.385 343.722C306.684 345.527 306.963 348.436 305.034 350.893ZM299.319 350.046C300.746 351.166 302.201 350.976 303.321 349.549C304.417 348.154 304.245 346.61 302.866 345.527L300.012 343.287C298.569 342.154 297.085 342.347 295.965 343.774C294.845 345.201 295.022 346.673 296.465 347.805L299.319 350.046ZM312.776 341.031C310.859 343.472 307.967 343.892 305.668 342.088L302.656 339.723C300.357 337.918 300.091 334.993 301.995 332.567C303.912 330.126 306.832 329.702 309.115 331.495L312.128 333.859C314.427 335.664 314.705 338.573 312.776 341.031ZM307.061 340.183C308.488 341.303 309.944 341.114 311.064 339.687C312.159 338.291 311.987 336.747 310.608 335.665L307.754 333.424C306.312 332.292 304.828 332.485 303.707 333.912C302.587 335.339 302.765 336.81 304.207 337.943L307.061 340.183ZM317.242 334.951L306.841 326.786L310.139 322.585C311.782 320.492 313.976 320.113 315.831 321.569L316.1 321.781C317.971 323.249 318.124 325.47 316.481 327.563L314.639 329.91L318.698 333.096L317.242 334.951ZM312.958 328.59L314.776 326.276C315.597 325.229 315.532 324.333 314.644 323.636L314.375 323.424C313.519 322.752 312.607 322.934 311.811 323.948L309.994 326.263L312.958 328.59ZM327.366 322.054L316.966 313.889L319.816 310.258C321.708 307.849 324.499 307.426 326.719 309.169L329.636 311.459C331.856 313.201 332.108 316.013 330.216 318.423L327.366 322.054ZM327.126 318.867L328.557 317.044C329.628 315.68 329.464 314.322 328.148 313.289L325.31 311.061C323.994 310.028 322.608 310.195 321.55 311.543L320.118 313.366L327.126 318.867ZM338.057 308.827C336.141 311.268 333.248 311.688 330.949 309.884L327.937 307.519C325.638 305.714 325.372 302.789 327.276 300.363C329.193 297.922 332.114 297.498 334.397 299.291L337.409 301.655C339.708 303.46 339.986 306.369 338.057 308.827ZM332.342 307.979C333.769 309.099 335.225 308.909 336.345 307.483C337.44 306.087 337.269 304.543 335.889 303.461L333.036 301.22C331.593 300.088 330.109 300.281 328.989 301.708C327.868 303.134 328.046 304.606 329.488 305.739L332.342 307.979ZM345.849 298.901C343.87 301.422 341.038 301.863 338.708 300.034L335.679 297.656C333.365 295.839 333.127 292.911 335.081 290.422C337.01 287.964 339.703 287.439 341.812 289.094L342.065 289.293L340.609 291.148L340.355 290.949C339.293 290.115 337.839 290.434 336.818 291.734C335.648 293.224 335.788 294.744 337.199 295.851L340.084 298.116C341.527 299.249 342.967 299.047 344.162 297.525C344.909 296.574 345.17 295.523 344.918 294.505L343.65 293.51L341.347 296.443L339.667 295.123L343.413 290.351L348.883 294.645L347.613 296.262L346.917 295.844C347.015 296.894 346.658 297.87 345.849 298.901ZM353.665 288.945C351.686 291.466 348.853 291.908 346.523 290.078L343.495 287.701C341.18 285.884 340.942 282.955 342.896 280.466C344.825 278.009 347.518 277.484 349.627 279.139L349.881 279.338L348.424 281.193L348.171 280.994C347.108 280.16 345.654 280.479 344.633 281.779C343.463 283.269 343.603 284.788 345.014 285.896L347.9 288.161C349.343 289.294 350.782 289.092 351.977 287.57C352.724 286.618 352.985 285.568 352.733 284.55L351.465 283.554L349.162 286.487L347.482 285.168L351.228 280.396L356.698 284.69L355.428 286.307L354.732 285.888C354.83 286.939 354.474 287.915 353.665 288.945Z" fill="white"/>
<path d="M322.844 352.877L314.177 346.073L316.749 342.796C318.046 341.145 319.815 340.74 321.176 341.808L321.401 341.985C322.154 342.576 322.484 343.433 322.39 344.342C323.341 343.892 324.307 343.967 325.126 344.61L325.351 344.787C326.765 345.897 326.858 347.764 325.561 349.415L322.844 352.877ZM322.644 350.221L324.106 348.358C324.729 347.565 324.719 346.789 324.085 346.291L323.86 346.115C323.239 345.627 322.449 345.818 321.847 346.585L320.385 348.447L322.644 350.221ZM318.984 347.348L320.343 345.617C320.934 344.864 320.914 344.101 320.306 343.624L320.082 343.448C319.461 342.96 318.762 343.116 318.15 343.896L316.791 345.626L318.984 347.348ZM331.333 342.389C329.85 344.278 327.725 344.51 325.862 343.048L320.102 338.526L321.315 336.98L327.075 341.502C328.119 342.321 329.142 342.27 329.92 341.279C330.698 340.288 330.539 339.267 329.482 338.437L323.721 333.915L324.935 332.369L330.695 336.891C332.571 338.364 332.837 340.473 331.333 342.389ZM337.256 334.845C335.669 336.867 333.857 337.216 332.113 335.847L331.795 335.598L332.957 334.119L333.274 334.368C334.146 335.052 335.041 334.837 335.881 333.766C336.659 332.776 336.709 331.896 335.996 331.336L335.837 331.212C335.282 330.776 334.598 330.859 333.809 331.456L332.438 332.494C331.003 333.588 329.666 333.713 328.583 332.863L328.372 332.697C326.905 331.546 326.882 329.563 328.313 327.739C329.765 325.89 331.53 325.546 333.115 326.79L333.432 327.039L332.281 328.506L331.964 328.257C331.171 327.635 330.428 327.82 329.619 328.85C328.914 329.749 328.861 330.604 329.495 331.102L329.654 331.227C330.116 331.59 330.811 331.494 331.514 330.979L332.887 329.964C334.459 328.806 335.772 328.683 336.921 329.586L337.133 329.752C338.692 330.976 338.739 332.956 337.256 334.845ZM340.59 330.272L331.922 323.468L333.136 321.922L336.769 324.774L339.238 321.63L335.604 318.778L336.818 317.232L345.485 324.036L344.271 325.582L340.651 322.74L338.183 325.884L341.803 328.726L340.59 330.272Z" fill="white"/>
<path d="M352.842 389.176C352.038 390.2 350.835 390.387 349.877 389.635L348.615 388.644C347.657 387.892 347.546 386.674 348.35 385.65C349.128 384.659 350.325 384.467 351.25 385.193L351.389 385.302L350.782 386.075L350.643 385.966C350.095 385.535 349.52 385.628 349.053 386.223C348.586 386.817 348.654 387.425 349.255 387.897L350.451 388.836C351.052 389.308 351.646 389.23 352.118 388.629C352.58 388.041 352.532 387.449 351.991 387.024L351.852 386.915L352.459 386.142L352.598 386.251C353.516 386.972 353.615 388.192 352.842 389.176ZM354.252 387.218L354.133 387.124L350.976 382.468L351.681 381.57L356.954 383.531L357.073 383.624L356.466 384.397L355.367 383.961L354.174 385.48L354.858 386.445L354.252 387.218ZM353.64 384.719L354.5 383.623L352.22 382.719L353.64 384.719ZM357.493 383.088L353.159 379.687L353.766 378.914L357.393 381.761L358.99 379.726L359.697 380.281L357.493 383.088ZM360.081 379.792L355.747 376.39L356.354 375.617L360.688 379.019L360.081 379.792ZM361.342 378.186L357.008 374.784L359.171 372.029L359.878 372.584L358.322 374.566L359.518 375.504L360.98 373.641L361.687 374.196L360.224 376.059L361.949 377.413L361.342 378.186ZM365.331 373.268C364.532 374.285 363.327 374.46 362.369 373.708L361.114 372.723C360.156 371.971 360.045 370.752 360.838 369.741C361.637 368.724 362.854 368.548 363.805 369.294L365.06 370.28C366.018 371.032 366.134 372.244 365.331 373.268ZM362.949 372.915C363.544 373.381 364.15 373.302 364.617 372.708C365.073 372.126 365.002 371.483 364.427 371.032L363.238 370.098C362.637 369.627 362.019 369.707 361.552 370.302C361.085 370.896 361.159 371.509 361.76 371.981L362.949 372.915ZM367.191 370.735L362.858 367.333L364.232 365.582C364.916 364.71 365.831 364.552 366.603 365.159L366.716 365.247C367.363 365.755 367.503 366.474 367.121 367.22L369.551 367.484L369.67 367.577L369.032 368.389L366.48 368.105L366.08 368.613L367.798 369.962L367.191 370.735ZM365.407 368.084L366.164 367.12C366.506 366.684 366.479 366.31 366.109 366.02L365.997 365.932C365.64 365.652 365.26 365.727 364.928 366.15L364.171 367.115L365.407 368.084ZM370.209 366.89L365.876 363.488L366.509 362.682L370.641 363.416L367.727 361.129L368.324 360.37L372.657 363.772L372.019 364.584L367.912 363.859L370.806 366.13L370.209 366.89ZM373.304 362.948L368.97 359.546L369.577 358.773L373.911 362.175L373.304 362.948ZM374.337 361.632L374.218 361.539L371.061 356.883L371.766 355.984L377.039 357.945L377.158 358.039L376.551 358.812L375.452 358.376L374.259 359.895L374.943 360.859L374.337 361.632ZM373.725 359.134L374.586 358.037L372.305 357.134L373.725 359.134ZM378.773 355.981L374.44 352.579L375.814 350.828C376.499 349.956 377.413 349.798 378.186 350.405L378.298 350.493C378.945 351.001 379.086 351.72 378.703 352.466L381.133 352.73L381.252 352.823L380.614 353.636L378.062 353.351L377.662 353.86L379.38 355.208L378.773 355.981ZM376.989 353.331L377.746 352.366C378.088 351.93 378.061 351.557 377.691 351.266L377.579 351.178C377.222 350.898 376.842 350.974 376.51 351.396L375.753 352.361L376.989 353.331ZM383.157 350.56C382.358 351.577 381.153 351.752 380.195 351L378.94 350.015C377.982 349.263 377.871 348.044 378.665 347.033C379.464 346.016 380.68 345.84 381.632 346.586L382.887 347.572C383.845 348.324 383.961 349.536 383.157 350.56ZM380.776 350.207C381.37 350.673 381.977 350.594 382.444 350C382.9 349.418 382.828 348.775 382.254 348.324L381.065 347.39C380.463 346.919 379.845 346.999 379.378 347.594C378.912 348.188 378.985 348.801 379.587 349.273L380.776 350.207ZM385.018 348.027L380.684 344.625L381.291 343.852L384.917 346.699L386.515 344.664L387.222 345.219L385.018 348.027ZM387.6 344.736L383.267 341.335L383.874 340.562L387.5 343.409L389.098 341.374L389.804 341.929L387.6 344.736ZM368.843 384.825L365.21 381.973L364.297 383.135L363.597 382.586L366.024 379.494L366.724 380.044L365.816 381.2L369.45 384.052L368.843 384.825ZM370.737 382.412L366.404 379.01L367.01 378.237L368.827 379.664L370.061 378.091L368.245 376.665L368.851 375.892L373.185 379.294L372.578 380.067L370.768 378.646L369.534 380.218L371.344 381.639L370.737 382.412ZM373.832 378.47L369.498 375.069L370.105 374.296L374.438 377.698L373.832 378.47ZM376.292 375.5C375.498 376.51 374.592 376.685 373.72 376.001L373.562 375.876L374.143 375.136L374.301 375.261C374.737 375.603 375.185 375.495 375.605 374.96C375.994 374.465 376.019 374.025 375.662 373.745L375.583 373.683C375.305 373.465 374.963 373.506 374.568 373.805L373.883 374.324C373.166 374.871 372.497 374.934 371.956 374.509L371.85 374.426C371.117 373.85 371.105 372.858 371.821 371.947C372.547 371.022 373.429 370.85 374.222 371.472L374.38 371.597L373.805 372.33L373.646 372.205C373.25 371.894 372.878 371.987 372.474 372.502C372.121 372.951 372.095 373.379 372.412 373.628L372.491 373.69C372.722 373.872 373.069 373.824 373.421 373.566L374.108 373.059C374.893 372.48 375.55 372.419 376.125 372.87L376.23 372.953C377.01 373.565 377.033 374.555 376.292 375.5ZM380.788 369.772C379.984 370.796 378.781 370.983 377.823 370.231L376.561 369.24C375.603 368.489 375.492 367.27 376.296 366.246C377.074 365.255 378.271 365.063 379.196 365.789L379.334 365.898L378.728 366.671L378.589 366.562C378.041 366.131 377.466 366.225 376.999 366.819C376.532 367.414 376.6 368.022 377.201 368.494L378.396 369.432C378.998 369.904 379.592 369.826 380.064 369.225C380.526 368.637 380.478 368.045 379.937 367.62L379.798 367.511L380.405 366.738L380.543 366.847C381.462 367.568 381.561 368.788 380.788 369.772ZM382.603 367.297L378.269 363.895L378.876 363.122L383.21 366.524L382.603 367.297ZM384.512 364.865L380.879 362.013L379.966 363.176L379.266 362.626L381.693 359.534L382.393 360.084L381.486 361.24L385.119 364.092L384.512 364.865ZM387.174 361.475L385.403 360.085L381.922 359.487L381.803 359.394L382.436 358.588L384.89 359.052L383.851 356.785L384.484 355.979L384.603 356.072L386.01 359.312L387.78 360.702L387.174 361.475ZM372.921 395.825L368.587 392.423L369.961 390.673C370.646 389.801 371.56 389.643 372.333 390.25L372.445 390.338C373.093 390.846 373.233 391.565 372.85 392.311L375.281 392.574L375.4 392.668L374.762 393.48L372.209 393.195L371.81 393.704L373.527 395.052L372.921 395.825ZM371.136 393.175L371.893 392.211C372.236 391.775 372.208 391.401 371.839 391.111L371.726 391.023C371.369 390.742 370.99 390.818 370.658 391.241L369.901 392.205L371.136 393.175ZM378.659 388.678C377.918 389.623 376.855 389.739 375.924 389.008L373.043 386.747L373.65 385.974L376.53 388.235C377.052 388.645 377.564 388.619 377.953 388.124C378.341 387.628 378.262 387.117 377.734 386.702L374.853 384.441L375.46 383.668L378.34 385.929C379.278 386.666 379.411 387.721 378.659 388.678ZM381.388 385.039L381.269 384.946L378.112 380.29L378.818 379.391L384.09 381.352L384.209 381.446L383.602 382.219L382.503 381.783L381.31 383.302L381.995 384.266L381.388 385.039ZM380.776 382.541L381.637 381.444L379.357 380.541L380.776 382.541ZM385.825 379.388L381.491 375.986L383.654 373.231L384.36 373.786L382.805 375.768L384 376.706L385.463 374.844L386.17 375.399L384.707 377.261L386.431 378.615L385.825 379.388ZM388.448 376.046L384.114 372.644L385.489 370.894C386.173 370.022 387.087 369.864 387.86 370.47L387.972 370.559C388.62 371.067 388.76 371.786 388.378 372.532L390.808 372.795L390.927 372.888L390.289 373.701L387.736 373.416L387.337 373.925L389.055 375.273L388.448 376.046ZM386.663 373.396L387.42 372.431C387.763 371.995 387.736 371.622 387.366 371.331L387.253 371.243C386.897 370.963 386.517 371.039 386.185 371.462L385.428 372.426L386.663 373.396ZM391.466 372.201L387.133 368.799L389.29 366.051L389.997 366.606L388.446 368.581L389.556 369.453L391.013 367.596L391.714 368.146L390.256 370.002L391.366 370.873L392.917 368.898L393.624 369.453L391.466 372.201ZM393.917 369.079L393.798 368.986L390.642 364.33L391.347 363.431L396.619 365.392L396.738 365.486L396.131 366.258L395.032 365.823L393.84 367.342L394.524 368.306L393.917 369.079ZM393.305 366.581L394.166 365.484L391.886 364.581L393.305 366.581ZM397.159 364.95L392.825 361.548L393.432 360.775L395.466 362.373L394.661 359.21L395.309 358.384L395.428 358.477L396.126 361.193L399.565 361.64L399.684 361.733L399.02 362.579L396.383 362.238L396.662 363.311L397.765 364.177L397.159 364.95ZM386.339 394.927L386.22 394.834L383.064 390.177L383.769 389.279L389.041 391.24L389.16 391.333L388.554 392.106L387.454 391.67L386.262 393.19L386.946 394.154L386.339 394.927ZM385.727 392.429L386.588 391.332L384.308 390.428L385.727 392.429ZM389.9 390.391L384.794 388.218L384.675 388.125L385.282 387.352L389.215 389.074L386.583 385.694L387.242 384.855L391.15 386.61L388.543 383.197L389.15 382.424L389.269 382.517L392.592 386.962L391.85 387.907L388.269 386.334L390.642 389.446L389.9 390.391ZM393.323 386.031L393.204 385.937L390.047 381.281L390.753 380.383L396.025 382.344L396.144 382.437L395.537 383.21L394.438 382.774L393.245 384.294L393.93 385.258L393.323 386.031ZM392.711 383.532L393.572 382.436L391.292 381.532L392.711 383.532ZM396.564 381.902L392.231 378.5L392.838 377.727L394.872 379.324L394.067 376.161L394.715 375.335L394.834 375.429L395.532 378.144L398.971 378.591L399.09 378.685L398.426 379.53L395.789 379.19L396.068 380.263L397.171 381.129L396.564 381.902ZM399.598 378.037L395.264 374.635L397.422 371.887L398.129 372.442L396.578 374.417L397.688 375.289L399.145 373.432L399.845 373.982L398.388 375.838L399.498 376.71L401.048 374.734L401.755 375.289L399.598 378.037ZM386.732 410.784C385.939 411.795 385.033 411.97 384.161 411.285L384.002 411.161L384.583 410.421L384.741 410.546C385.177 410.888 385.625 410.78 386.045 410.245C386.434 409.75 386.459 409.31 386.102 409.03L386.023 408.968C385.745 408.75 385.403 408.791 385.009 409.09L384.324 409.609C383.606 410.156 382.938 410.218 382.396 409.793L382.29 409.71C381.557 409.135 381.545 408.143 382.261 407.231C382.987 406.307 383.869 406.135 384.662 406.757L384.821 406.881L384.245 407.615L384.086 407.49C383.69 407.179 383.318 407.272 382.914 407.787C382.561 408.236 382.535 408.664 382.852 408.913L382.931 408.975C383.163 409.157 383.51 409.109 383.861 408.851L384.548 408.344C385.334 407.765 385.99 407.703 386.565 408.155L386.671 408.238C387.45 408.85 387.474 409.84 386.732 410.784ZM389.764 406.922C388.966 407.939 387.761 408.114 386.803 407.362L385.548 406.377C384.59 405.625 384.479 404.406 385.272 403.395C386.071 402.378 387.288 402.201 388.239 402.948L389.494 403.933C390.452 404.685 390.568 405.898 389.764 406.922ZM387.383 406.568C387.978 407.035 388.584 406.956 389.051 406.361C389.507 405.78 389.436 405.137 388.861 404.686L387.672 403.752C387.071 403.28 386.453 403.361 385.986 403.955C385.519 404.55 385.593 405.163 386.194 405.635L387.383 406.568ZM394.432 400.813L390.854 399.563L393.675 401.777L393.079 402.537L388.745 399.135L389.513 398.157L393.519 399.541L391.224 395.977L391.991 394.999L396.325 398.401L395.729 399.161L392.921 396.957L394.971 400.126L394.432 400.813ZM396.74 397.873L396.621 397.78L393.464 393.123L394.169 392.225L399.442 394.186L399.561 394.279L398.954 395.052L397.855 394.616L396.662 396.136L397.347 397.1L396.74 397.873ZM396.128 395.375L396.989 394.278L394.709 393.374L396.128 395.375ZM399.981 393.744L395.648 390.342L396.28 389.536L400.412 390.271L397.499 387.984L398.095 387.224L402.429 390.626L401.791 391.438L397.684 390.713L400.578 392.984L399.981 393.744ZM403.838 388.831L402.068 387.441L398.586 386.844L398.467 386.75L399.1 385.944L401.554 386.408L400.516 384.141L401.148 383.335L401.267 383.428L402.674 386.668L404.445 388.058L403.838 388.831ZM406.955 384.861L402.621 381.459L403.996 379.708C404.68 378.836 405.594 378.678 406.367 379.285L406.479 379.373C407.259 379.985 407.322 380.91 406.638 381.782L405.87 382.76L407.562 384.088L406.955 384.861ZM405.17 382.21L405.927 381.246C406.27 380.81 406.243 380.436 405.873 380.146L405.76 380.058C405.404 379.778 405.024 379.853 404.692 380.276L403.935 381.241L405.17 382.21ZM409.933 381.067L405.599 377.665L406.973 375.915C407.658 375.043 408.572 374.885 409.345 375.492L409.457 375.58C410.105 376.088 410.245 376.807 409.862 377.553L412.293 377.816L412.411 377.91L411.774 378.722L409.221 378.437L408.822 378.946L410.539 380.294L409.933 381.067ZM408.148 378.417L408.905 377.453C409.247 377.017 409.22 376.643 408.85 376.353L408.738 376.265C408.381 375.985 408.002 376.06 407.67 376.483L406.913 377.447L408.148 378.417ZM414.316 375.646C413.518 376.664 412.313 376.839 411.355 376.087L410.1 375.102C409.142 374.35 409.031 373.131 409.824 372.12C410.623 371.103 411.84 370.926 412.791 371.673L414.046 372.658C415.004 373.41 415.12 374.623 414.316 375.646ZM411.935 375.293C412.53 375.76 413.136 375.681 413.603 375.086C414.059 374.505 413.988 373.862 413.413 373.411L412.224 372.477C411.623 372.005 411.004 372.086 410.538 372.68C410.071 373.275 410.145 373.888 410.746 374.36L411.935 375.293ZM417.376 371.748C416.583 372.759 415.677 372.934 414.805 372.25L414.646 372.125L415.227 371.385L415.386 371.51C415.822 371.852 416.269 371.744 416.689 371.209C417.078 370.714 417.103 370.274 416.746 369.994L416.667 369.932C416.39 369.714 416.048 369.755 415.653 370.054L414.968 370.573C414.25 371.12 413.582 371.183 413.04 370.757L412.934 370.674C412.201 370.099 412.189 369.107 412.905 368.196C413.631 367.271 414.514 367.099 415.306 367.721L415.465 367.846L414.889 368.579L414.731 368.454C414.334 368.143 413.963 368.236 413.558 368.751C413.205 369.2 413.179 369.628 413.496 369.877L413.576 369.939C413.807 370.121 414.154 370.073 414.506 369.815L415.192 369.308C415.978 368.729 416.634 368.668 417.209 369.119L417.315 369.202C418.094 369.814 418.118 370.804 417.376 371.748Z" fill="white"/>
</svg>
