<svg width="773" height="793" viewBox="0 0 773 793" fill="none" xmlns="http://www.w3.org/2000/svg">
<path d="M251.662 604.038L296.448 546.968" stroke="black" stroke-width="5.26562"/>
<path d="M44.6748 499.935L77.874 466.358" stroke="black" stroke-width="5.26562"/>
<path d="M502.904 727.356L547.69 670.287" stroke="black" stroke-width="5.26562"/>
<path d="M255.406 389.339L296.176 348.415" stroke="black" stroke-width="5.26562"/>
<path d="M478.856 487.633L523.642 430.563" stroke="black" stroke-width="5.26562"/>
<path d="M633.652 536.776L678.438 479.707" stroke="black" stroke-width="5.26562"/>
<path d="M358.166 284.849L409.763 233.855" stroke="black" stroke-width="5.26562"/>
<path d="M544.137 374.42L588.923 317.35" stroke="black" stroke-width="5.26562"/>
<path d="M702.105 439.362L736.304 392.694" stroke="black" stroke-width="5.26562"/>
<path d="M631.448 275.495L660.618 239.262" stroke="black" stroke-width="5.26562"/>
<path d="M702.105 171.693L746.891 114.624" stroke="black" stroke-width="5.26562"/>
<path d="M627.07 106.86L800.836 179.701" stroke="black" stroke-width="10.5312"/>
<path d="M466.908 166.537L802.591 307.392" stroke="black" stroke-width="10.5312"/>
<path d="M314.205 231.041L803.03 441.227" stroke="black" stroke-width="10.5312"/>
<path d="M160.685 309.45L763.757 566.911" stroke="black" stroke-width="10.884"/>
<path d="M3.05273 447.599L683.389 763.299" stroke="black" stroke-width="11.8902"/>
<path d="M510.789 137.576L515.177 138.454L519.126 142.403L523.075 146.352L525.269 150.74L537.994 168.293L554.23 182.334L572.66 194.182L609.958 199.886L626.193 192.427L634.969 188.039L639.357 187.161H644.623L647.256 264.39L508.595 209.979L491.043 169.609L490.165 163.904V158.639L491.043 152.496L493.237 147.669L496.308 143.281L500.257 140.648L505.084 138.015L510.789 137.576Z" fill="#D9D9D9" fill-opacity="0.5"/>
<path d="M644.622 187.161L649.449 190.232L652.082 192.427L654.715 195.498L656.47 198.57L657.786 202.519L660.419 210.856L662.613 219.193L664.368 236.745L664.807 252.542L662.174 254.297L647.255 264.39L644.622 187.161Z" fill="#D9D9D9" fill-opacity="0.5"/>
<path d="M564.878 104.36L573.655 109.627L577.165 113.137L579.798 117.964L593.84 133.322L608.32 146.925L625.433 158.334L634.648 160.967L652.749 162.283L662.293 162.283L671.946 159.211L682.039 153.507L693.009 153.507L700.469 155.262L706.612 159.211L710.561 164.916L713.193 171.497L716.265 176.763L717.142 183.783L717.142 198.264L717.142 207.039L715.387 214.5L713.193 222.398L709.243 229.856L669.314 250.48L669.314 228.101L669.314 217.131L667.12 207.039L664.487 200.018L662.732 196.508L660.538 191.681L657.905 187.732L654.833 183.782L651.323 180.711L646.057 179.833L640.353 179.833L636.404 181.15L632.893 183.783L626.31 188.609L609.197 192.558L593.4 192.558L578.042 190.364L568.388 184.66L558.735 177.639L540.744 160.964L533.723 152.188L526.702 142.535L521.875 136.83L516.61 131.565L506.079 128.932L512.662 124.107L519.682 120.597L526.702 117.525L534.163 114.893L548.643 107.872L556.103 105.678L564.878 104.36Z" fill="#D9D9D9" fill-opacity="0.5"/>
<path d="M598.987 191.11L652.082 162.588L656.031 159.955" stroke="white" stroke-width="5.26562"/>
<path d="M573.537 185.406L627.071 158.2" stroke="white" stroke-width="5.26562"/>
<path d="M555.546 175.313L611.274 147.669" stroke="white" stroke-width="5.26562"/>
<path d="M540.188 162.149L598.549 135.821" stroke="white" stroke-width="5.26562"/>
<path d="M530.096 144.597L584.507 121.78" stroke="white" stroke-width="5.26562"/>
<path d="M625.316 106.86L799.082 179.701" stroke="black" stroke-width="10.5312"/>
<path d="M465.153 166.537L800.836 307.392" stroke="black" stroke-width="10.5312"/>
<path d="M509.033 137.576L513.421 138.454L517.37 142.403L521.319 146.352L523.513 150.74L536.239 168.293L552.474 182.334L570.904 194.182L608.202 199.886L624.438 192.427L633.214 188.039L637.602 187.161H642.867L645.5 264.39L506.839 209.979L489.287 169.609L488.409 163.904V158.639L489.287 152.496L491.481 147.669L494.552 143.281L498.502 140.648L503.328 138.015L509.033 137.576Z" fill="black"/>
<path d="M642.867 187.161L647.694 190.232L650.327 192.427L652.96 195.498L654.715 198.57L656.031 202.519L658.664 210.856L660.858 219.193L662.613 236.745L663.052 252.542L660.419 254.297L645.5 264.39L642.867 187.161Z" fill="black"/>
<path d="M563.122 104.36L571.899 109.627L575.409 113.137L578.042 117.964L592.084 133.322L606.564 146.925L623.678 158.334L632.892 160.967L650.993 162.283L660.537 162.283L670.191 159.211L680.283 153.507L691.253 153.507L698.713 155.262L704.856 159.211L708.805 164.916L711.437 171.497L714.509 176.763L715.386 183.783L715.386 198.264L715.386 207.039L713.631 214.5L711.437 222.398L707.488 229.856L667.558 250.48L667.558 228.101L667.558 217.131L665.364 207.039L662.731 200.018L660.976 196.508L658.782 191.681L656.149 187.732L653.078 183.782L649.567 180.711L644.302 179.833L638.597 179.833L634.648 181.15L631.138 183.783L624.554 188.609L607.441 192.558L591.644 192.558L576.286 190.364L566.632 184.66L556.979 177.639L538.988 160.964L531.967 152.188L524.946 142.535L520.119 136.83L514.854 131.565L504.323 128.932L510.906 124.107L517.927 120.597L524.946 117.525L532.407 114.893L546.887 107.872L554.347 105.678L563.122 104.36Z" fill="black"/>
<path d="M594.16 193.743L650.522 163.212L654.715 160.394" stroke="white" stroke-width="5.26562"/>
<path d="M571.344 187.6L625.755 155.128" stroke="white" stroke-width="5.26562"/>
<path d="M553.791 175.314L611.713 144.597" stroke="white" stroke-width="5.26562"/>
<path d="M538.433 162.149L596.793 135.821" stroke="white" stroke-width="5.26562"/>
<path d="M524.83 144.597L582.752 121.78" stroke="white" stroke-width="5.26562"/>
<path d="M625.316 106.86L799.082 179.701" stroke="black" stroke-width="10.5312"/>
<path d="M465.153 166.537L800.836 307.392" stroke="black" stroke-width="10.5312"/>
<path d="M509.033 137.576L513.421 138.454L517.37 142.403L521.319 146.352L523.513 150.74L536.239 168.293L552.474 182.334L570.904 194.182L608.202 199.886L624.438 192.427L633.214 188.039L637.602 187.161H642.867L645.5 264.39L506.839 209.979L489.287 169.609L488.409 163.904V158.639L489.287 152.496L491.481 147.669L494.552 143.281L498.502 140.648L503.328 138.015L509.033 137.576Z" fill="black"/>
<path d="M642.867 187.161L647.694 190.232L650.327 192.427L652.96 195.498L654.715 198.57L656.031 202.519L658.664 210.856L660.858 219.193L662.613 236.745L663.052 252.542L660.419 254.297L645.5 264.39L642.867 187.161Z" fill="black"/>
<path d="M563.122 104.36L571.899 109.627L575.409 113.137L578.042 117.964L592.084 133.322L606.564 146.925L623.678 158.334L632.892 160.967L650.993 162.283L660.537 162.283L670.191 159.211L680.283 153.507L691.253 153.507L698.713 155.262L704.856 159.211L708.805 164.916L711.437 171.497L714.509 176.763L715.386 183.783L715.386 198.264L715.386 207.039L713.631 214.5L711.437 222.398L707.488 229.856L667.558 250.48L667.558 228.101L667.558 217.131L665.364 207.039L662.731 200.018L660.976 196.508L658.782 191.681L656.149 187.732L653.078 183.782L649.567 180.711L644.302 179.833L638.597 179.833L634.648 181.15L631.138 183.783L624.554 188.609L607.441 192.558L591.644 192.558L576.286 190.364L566.632 184.66L556.979 177.639L538.988 160.964L531.967 152.188L524.946 142.535L520.119 136.83L514.854 131.565L504.323 128.932L510.906 124.107L517.927 120.597L524.946 117.525L532.407 114.893L546.887 107.872L554.347 105.678L563.122 104.36Z" fill="black"/>
<path d="M594.16 193.743L650.522 163.212L654.715 160.394" stroke="white" stroke-width="5.26562"/>
<path d="M571.344 187.6L625.755 155.128" stroke="white" stroke-width="5.26562"/>
<path d="M553.791 175.314L611.713 144.597" stroke="white" stroke-width="5.26562"/>
<path d="M538.433 162.149L596.793 135.821" stroke="white" stroke-width="5.26562"/>
<path d="M524.83 144.597L582.752 121.78" stroke="white" stroke-width="5.26562"/>
<path d="M625.316 106.86L799.082 179.701" stroke="black" stroke-width="10.5312"/>
<path d="M465.153 166.537L800.836 307.392" stroke="black" stroke-width="10.5312"/>
<path d="M509.033 137.576L513.421 138.454L517.37 142.403L521.319 146.352L523.513 150.74L536.239 168.293L552.474 182.334L570.904 194.182L608.202 199.886L624.438 192.427L633.214 188.039L637.602 187.161H642.867L645.5 264.39L506.839 209.979L489.287 169.609L488.409 163.904V158.639L489.287 152.496L491.481 147.669L494.552 143.281L498.502 140.648L503.328 138.015L509.033 137.576Z" fill="black"/>
<path d="M642.867 187.161L647.694 190.232L650.327 192.427L652.96 195.498L654.715 198.57L656.031 202.519L658.664 210.856L660.858 219.193L662.613 236.745L663.052 252.542L660.419 254.297L645.5 264.39L642.867 187.161Z" fill="black"/>
<path d="M563.122 104.36L571.899 109.627L575.409 113.137L578.042 117.964L592.084 133.322L606.564 146.925L623.678 158.334L632.892 160.967L650.993 162.283L660.537 162.283L670.191 159.211L680.283 153.507L691.253 153.507L698.713 155.262L704.856 159.211L708.805 164.916L711.437 171.497L714.509 176.763L715.386 183.783L715.386 198.264L715.386 207.039L713.631 214.5L711.437 222.398L707.488 229.856L667.558 250.48L667.558 228.101L667.558 217.131L665.364 207.039L662.731 200.018L660.976 196.508L658.782 191.681L656.149 187.732L653.078 183.782L649.567 180.711L644.302 179.833L638.597 179.833L634.648 181.15L631.138 183.783L624.554 188.609L607.441 192.558L591.644 192.558L576.286 190.364L566.632 184.66L556.979 177.639L538.988 160.964L531.967 152.188L524.946 142.535L520.119 136.83L514.854 131.565L504.323 128.932L510.906 124.107L517.927 120.597L524.946 117.525L532.407 114.893L546.887 107.872L554.347 105.678L563.122 104.36Z" fill="black"/>
<path d="M594.16 193.743L650.522 163.212L654.715 160.394" stroke="white" stroke-width="5.26562"/>
<path d="M571.344 187.6L625.755 155.128" stroke="white" stroke-width="5.26562"/>
<path d="M553.791 175.314L611.713 144.597" stroke="white" stroke-width="5.26562"/>
<path d="M538.433 162.149L596.793 135.821" stroke="white" stroke-width="5.26562"/>
<path d="M524.83 144.597L582.752 121.78" stroke="white" stroke-width="5.26562"/>
<path d="M625.316 106.86L799.082 179.701" stroke="black" stroke-width="10.5312"/>
<path d="M465.153 166.537L800.836 307.392" stroke="black" stroke-width="10.5312"/>
<path d="M509.033 137.576L513.421 138.454L517.37 142.403L521.319 146.352L523.513 150.74L536.239 168.293L552.474 182.334L570.904 194.182L608.202 199.886L624.438 192.427L633.214 188.039L637.602 187.161H642.867L645.5 264.39L506.839 209.979L489.287 169.609L488.409 163.904V158.639L489.287 152.496L491.481 147.669L494.552 143.281L498.502 140.648L503.328 138.015L509.033 137.576Z" fill="black"/>
<path d="M642.867 187.161L647.694 190.232L650.327 192.427L652.96 195.498L654.715 198.57L656.031 202.519L658.664 210.856L660.858 219.193L662.613 236.745L663.052 252.542L660.419 254.297L645.5 264.39L642.867 187.161Z" fill="black"/>
<path d="M563.122 104.36L571.899 109.627L575.409 113.137L578.042 117.964L592.084 133.322L606.564 146.925L623.678 158.334L632.892 160.967L650.993 162.283L660.537 162.283L670.191 159.211L680.283 153.507L691.253 153.507L698.713 155.262L704.856 159.211L708.805 164.916L711.437 171.497L714.509 176.763L715.386 183.783L715.386 198.264L715.386 207.039L713.631 214.5L711.437 222.398L707.488 229.856L667.558 250.48L667.558 228.101L667.558 217.131L665.364 207.039L662.731 200.018L660.976 196.508L658.782 191.681L656.149 187.732L653.078 183.782L649.567 180.711L644.302 179.833L638.597 179.833L634.648 181.15L631.138 183.783L624.554 188.609L607.441 192.558L591.644 192.558L576.286 190.364L566.632 184.66L556.979 177.639L538.988 160.964L531.967 152.188L524.946 142.535L520.119 136.83L514.854 131.565L504.323 128.932L510.906 124.107L517.927 120.597L524.946 117.525L532.407 114.893L546.887 107.872L554.347 105.678L563.122 104.36Z" fill="black"/>
<path d="M594.16 193.743L650.522 163.212L654.715 160.394" stroke="white" stroke-width="5.26562"/>
<path d="M571.344 187.6L625.755 155.128" stroke="white" stroke-width="5.26562"/>
<path d="M553.791 175.314L611.713 144.597" stroke="white" stroke-width="5.26562"/>
<path d="M538.433 162.149L596.793 135.821" stroke="white" stroke-width="5.26562"/>
<path d="M524.83 144.597L582.752 121.78" stroke="white" stroke-width="5.26562"/>
<path d="M70.9879 437.641L75.3759 438.519L79.3251 442.468L83.2744 446.417L85.4684 450.805L98.1936 468.357L114.429 482.399L132.859 494.247L170.157 499.951L186.393 492.492L195.169 488.104L199.557 487.226H204.822L207.455 564.455L68.7939 510.044L51.2419 469.674L50.3643 463.969V458.704L51.2419 452.561L53.4359 447.734L56.5075 443.346L60.4567 440.713L65.2835 438.08L70.9879 437.641Z" fill="black"/>
<path d="M204.823 487.226L209.65 490.297L212.283 492.491L214.916 495.563L216.671 498.635L217.987 502.584L220.62 510.921L222.814 519.258L224.569 536.81L225.008 552.607L222.375 554.362L207.456 564.455L204.823 487.226Z" fill="black"/>
<path d="M125.078 404.425L133.855 409.692L137.366 413.202L139.998 418.029L154.04 433.387L168.52 446.99L185.634 458.399L194.849 461.032L212.949 462.348L222.493 462.348L232.147 459.276L242.239 453.572L253.209 453.572L260.669 455.327L266.812 459.276L270.761 464.981L273.393 471.562L276.465 476.828L277.342 483.847L277.342 498.329L277.342 507.104L275.587 514.565L273.393 522.463L269.444 529.921L229.514 550.545L229.514 528.166L229.514 517.196L227.32 507.104L224.687 500.083L222.932 496.573L220.738 491.746L218.105 487.797L215.034 483.847L211.523 480.776L206.258 479.898L200.553 479.898L196.604 481.215L193.094 483.847L186.51 488.674L169.397 492.623L153.6 492.623L138.242 490.429L128.588 484.725L118.935 477.704L100.944 461.029L93.9231 452.253L86.9023 442.6L82.0755 436.895L76.8099 431.63L66.2788 428.997L72.8617 424.172L79.8826 420.662L86.9023 417.59L94.363 414.957L108.843 407.937L116.303 405.743L125.078 404.425Z" fill="black"/>
<path d="M156.116 493.808L212.479 463.277L216.671 460.459" stroke="white" stroke-width="5.26562"/>
<path d="M133.299 487.665L187.71 455.193" stroke="white" stroke-width="5.26562"/>
<path d="M115.746 475.378L173.668 444.662" stroke="white" stroke-width="5.26562"/>
<path d="M70.9879 437.641L75.3759 438.519L79.3251 442.468L83.2744 446.417L85.4684 450.805L98.1936 468.357L114.429 482.399L132.859 494.247L170.157 499.951L186.393 492.492L195.169 488.104L199.557 487.226H204.822L207.455 564.455L68.7939 510.044L51.2419 469.674L50.3643 463.969V458.704L51.2419 452.561L53.4359 447.734L56.5075 443.346L60.4567 440.713L65.2835 438.08L70.9879 437.641Z" fill="black"/>
<path d="M204.823 487.226L209.65 490.297L212.283 492.491L214.916 495.563L216.671 498.635L217.987 502.584L220.62 510.921L222.814 519.258L224.569 536.81L225.008 552.607L222.375 554.362L207.456 564.455L204.823 487.226Z" fill="black"/>
<path d="M125.078 404.425L133.855 409.692L137.366 413.202L139.998 418.029L154.04 433.387L168.52 446.99L185.634 458.399L194.849 461.032L212.949 462.348L222.493 462.348L232.147 459.276L242.239 453.572L253.209 453.572L260.669 455.327L266.812 459.276L270.761 464.981L273.393 471.562L276.465 476.828L277.342 483.847L277.342 498.329L277.342 507.104L275.587 514.565L273.393 522.463L269.444 529.921L229.514 550.545L229.514 528.166L229.514 517.196L227.32 507.104L224.687 500.083L222.932 496.573L220.738 491.746L218.105 487.797L215.034 483.847L211.523 480.776L206.258 479.898L200.553 479.898L196.604 481.215L193.094 483.847L186.51 488.674L169.397 492.623L153.6 492.623L138.242 490.429L128.588 484.725L118.935 477.704L100.944 461.029L93.9231 452.253L86.9023 442.6L82.0755 436.895L76.8099 431.63L66.2788 428.997L72.8617 424.172L79.8826 420.662L86.9023 417.59L94.363 414.957L108.843 407.937L116.303 405.743L125.078 404.425Z" fill="black"/>
<path d="M156.116 493.808L212.479 463.277L216.671 460.459" stroke="white" stroke-width="5.26562"/>
<path d="M133.299 487.665L187.71 455.193" stroke="white" stroke-width="5.26562"/>
<path d="M115.746 475.378L173.668 444.662" stroke="white" stroke-width="5.26562"/>
<path d="M99.8623 462.464L157.784 431.748" stroke="white" stroke-width="5.26562"/>
<path d="M87.8379 448.186L145.76 417.469" stroke="white" stroke-width="5.26562"/>
<path d="M252.311 300.506L256.701 301.374L260.658 305.316L264.615 309.257L266.818 313.641L279.578 331.167L295.842 345.176L314.295 356.987L351.605 362.617L367.825 355.125L376.593 350.72L380.979 349.833L386.244 349.823L389.032 427.046L250.262 372.912L232.629 332.578L231.74 326.875L231.73 321.609L232.595 315.464L234.779 310.633L237.842 306.239L241.786 303.598L246.608 300.956L252.311 300.506Z" fill="black"/>
<path d="M386.244 349.823L391.077 352.885L393.714 355.074L396.353 358.14L398.115 361.208L399.439 365.155L402.088 373.487L404.299 381.819L406.089 399.368L406.56 415.164L403.93 416.924L389.031 427.047L386.244 349.823Z" fill="black"/>
<path d="M306.334 267.181L315.122 272.431L318.639 275.934L321.282 280.755L335.354 296.085L349.862 309.659L366.998 321.034L376.218 323.648L394.321 324.929L403.865 324.909L413.512 321.818L423.593 316.094L434.563 316.072L442.026 317.812L448.178 321.749L452.138 327.446L454.784 334.022L457.866 339.282L458.757 346.299L458.786 360.781L458.804 369.556L457.063 377.02L454.885 384.923L450.951 392.389L411.062 413.092L411.018 390.714L410.996 379.744L408.781 369.656L406.135 362.64L404.372 359.133L402.169 354.311L399.528 350.367L396.449 346.424L392.932 343.359L387.665 342.492L381.96 342.503L378.014 343.828L374.509 346.468L367.935 351.307L350.829 355.291L335.033 355.322L319.67 353.159L310.005 347.474L300.338 340.472L282.313 323.834L275.275 315.072L268.235 305.432L263.397 299.737L258.121 294.482L247.584 291.871L254.158 287.033L261.171 283.508L268.185 280.423L275.64 277.775L290.107 270.725L297.562 268.516L306.334 267.181Z" fill="black"/>
<path d="M337.551 356.502L393.852 325.859L398.039 323.032" stroke="white" stroke-width="5.26562"/>
<path d="M314.721 350.405L369.068 317.825" stroke="white" stroke-width="5.26562"/>
<path d="M297.143 338.153L355.004 307.321" stroke="white" stroke-width="5.26562"/>
<path d="M281.76 325.02L340.067 298.575" stroke="white" stroke-width="5.26562"/>
<path d="M268.122 307.495L325.998 284.562" stroke="white" stroke-width="5.26562"/>
<path d="M252.311 300.506L256.701 301.374L260.658 305.316L264.615 309.257L266.818 313.641L279.578 331.167L295.842 345.176L314.295 356.987L351.605 362.617L367.825 355.125L376.593 350.72L380.979 349.833L386.244 349.823L389.032 427.046L250.262 372.912L232.629 332.578L231.74 326.875L231.73 321.609L232.595 315.464L234.779 310.633L237.842 306.239L241.786 303.598L246.608 300.956L252.311 300.506Z" fill="black"/>
<path d="M386.244 349.823L391.077 352.885L393.714 355.074L396.353 358.14L398.115 361.208L399.439 365.155L402.088 373.487L404.299 381.819L406.089 399.368L406.56 415.164L403.93 416.924L389.031 427.047L386.244 349.823Z" fill="black"/>
<path d="M306.334 267.181L315.122 272.431L318.639 275.934L321.282 280.755L335.354 296.085L349.862 309.659L366.998 321.034L376.218 323.648L394.321 324.929L403.865 324.909L413.512 321.818L423.593 316.094L434.563 316.072L442.026 317.812L448.178 321.749L452.138 327.446L454.784 334.022L457.866 339.282L458.757 346.299L458.786 360.781L458.804 369.556L457.063 377.02L454.885 384.923L450.951 392.389L411.062 413.092L411.018 390.714L410.996 379.744L408.781 369.656L406.135 362.64L404.372 359.133L402.169 354.311L399.528 350.367L396.449 346.424L392.932 343.359L387.665 342.492L381.96 342.503L378.014 343.828L374.509 346.468L367.935 351.307L350.829 355.291L335.033 355.322L319.67 353.159L310.005 347.474L300.338 340.472L282.313 323.834L275.275 315.072L268.235 305.432L263.397 299.737L258.121 294.482L247.584 291.871L254.158 287.033L261.171 283.508L268.185 280.423L275.64 277.775L290.107 270.725L297.562 268.516L306.334 267.181Z" fill="black"/>
<path d="M337.551 356.502L393.852 325.859L398.039 323.032" stroke="white" stroke-width="5.26562"/>
<path d="M314.721 350.405L369.068 317.825" stroke="white" stroke-width="5.26562"/>
<path d="M297.143 338.153L355.004 307.321" stroke="white" stroke-width="5.26562"/>
<path d="M281.76 325.02L340.067 298.575" stroke="white" stroke-width="5.26562"/>
<path d="M268.122 307.495L325.998 284.562" stroke="white" stroke-width="5.26562"/>
<path d="M646.817 325.383L651.205 326.261L655.154 330.21L659.103 334.159L661.297 338.547L674.023 356.099L690.258 370.141L708.688 381.989L745.986 387.693L762.222 380.233L770.998 375.845L775.386 374.968H780.651L783.284 452.197L644.623 397.786L627.071 357.416L626.193 351.711V346.446L627.071 340.303L629.265 335.476L632.337 331.088L636.286 328.455L641.113 325.822L646.817 325.383Z" fill="black"/>
<path d="M700.906 292.167L709.683 297.434L713.194 300.944L715.826 305.771L729.868 321.129L744.349 334.732L761.462 346.141L770.677 348.774L788.777 350.09L798.321 350.09L807.975 347.018L818.067 341.314L829.037 341.314L836.497 343.069L842.64 347.018L846.589 352.723L849.222 359.304L852.293 364.57L853.171 371.589L853.171 386.071L853.171 394.846L851.415 402.307L849.221 410.205L845.272 417.663L805.342 438.287L805.342 415.908L805.342 404.938L803.148 394.846L800.515 387.825L798.76 384.315L796.566 379.488L793.933 375.539L790.862 371.589L787.351 368.518L782.086 367.64L776.381 367.64L772.432 368.957L768.922 371.589L762.338 376.416L745.225 380.365L729.428 380.365L714.07 378.171L704.417 372.466L694.763 365.446L676.772 348.771L669.751 339.995L662.73 330.342L657.904 324.637L652.638 319.371L642.107 316.739L648.69 311.914L655.711 308.404L662.73 305.332L670.191 302.699L684.672 295.679L692.131 293.485L700.906 292.167Z" fill="black"/>
<path d="M691.574 363.12L749.496 332.404" stroke="white" stroke-width="5.26562"/>
<path d="M676.217 349.956L734.577 323.628" stroke="white" stroke-width="5.26562"/>
<path d="M662.614 332.404L720.536 309.586" stroke="white" stroke-width="5.26562"/>
<path d="M646.817 325.383L651.205 326.261L655.154 330.21L659.103 334.159L661.297 338.547L674.023 356.099L690.258 370.141L708.688 381.989L745.986 387.693L762.222 380.233L770.998 375.845L775.386 374.968H780.651L783.284 452.197L644.623 397.786L627.071 357.416L626.193 351.711V346.446L627.071 340.303L629.265 335.476L632.337 331.088L636.286 328.455L641.113 325.822L646.817 325.383Z" fill="black"/>
<path d="M700.906 292.167L709.683 297.434L713.194 300.944L715.826 305.771L729.868 321.129L744.349 334.732L761.462 346.141L770.677 348.774L788.777 350.09L798.321 350.09L807.975 347.018L818.067 341.314L829.037 341.314L836.497 343.069L842.64 347.018L846.589 352.723L849.222 359.304L852.293 364.57L853.171 371.589L853.171 386.071L853.171 394.846L851.415 402.307L849.221 410.205L845.272 417.663L805.342 438.287L805.342 415.908L805.342 404.938L803.148 394.846L800.515 387.825L798.76 384.315L796.566 379.488L793.933 375.539L790.862 371.589L787.351 368.518L782.086 367.64L776.381 367.64L772.432 368.957L768.922 371.589L762.338 376.416L745.225 380.365L729.428 380.365L714.07 378.171L704.417 372.466L694.763 365.446L676.772 348.771L669.751 339.995L662.73 330.342L657.904 324.637L652.638 319.371L642.107 316.739L648.69 311.914L655.711 308.404L662.73 305.332L670.191 302.699L684.672 295.679L692.131 293.485L700.906 292.167Z" fill="black"/>
<path d="M691.574 363.12L749.496 332.404" stroke="white" stroke-width="5.26562"/>
<path d="M676.217 349.956L734.577 323.628" stroke="white" stroke-width="5.26562"/>
<path d="M662.614 332.404L720.536 309.586" stroke="white" stroke-width="5.26562"/>
<path d="M234.043 111.321L259.367 112.375" stroke="white" stroke-width="2.65671"/>
<ellipse cx="255.505" cy="111.378" rx="21.7253" ry="10.0271" transform="rotate(2.38364 255.505 111.378)" fill="black"/>
<path d="M232.06 112.075L235.469 117.234L239.551 119.635L245.279 122.661L252.735 124.365L268.145 122.497L274.708 118.868L278.534 114.009L279.245 190.701L272.659 194.887L265.586 197.38L256.878 198.969L249.086 198.645L239.624 198.251L231.669 195.132L224.608 190.657L217.836 185.914L232.06 112.075Z" fill="black"/>
<path d="M236.258 131.764L231.599 190.112L225.36 185.949L230.856 161.089L236.258 131.764Z" fill="white"/>
<path d="M268.824 129.21L269.717 190.741L276.546 186.801L272.484 160.344L268.824 129.21Z" fill="white"/>
<path d="M232.756 108.759L254.474 109.384" stroke="white" stroke-width="2.65671"/>
<path d="M252.978 131.902L254.208 162.618L253.769 193.265L245.977 192.94L249.477 162.421L252.978 131.902Z" fill="white"/>
<ellipse cx="149.739" cy="167.255" rx="24.523" ry="11.3183" transform="rotate(1.35099 149.739 167.255)" fill="black"/>
<path d="M168.918 158.808L150.898 165.129" stroke="white" stroke-width="2.65671"/>
<path d="M123.291 168.518L127.244 174.272L131.899 176.898L138.425 180.197L146.875 181.968L164.229 179.547L171.561 175.317L175.781 169.756L178.143 256.295L170.795 261.154L162.863 264.111L153.068 266.082L144.267 265.874L133.58 265.622L124.54 262.264L116.479 257.357L108.74 252.142L123.291 168.518Z" fill="black"/>
<path d="M128.43 190.653L124.359 256.599L117.234 252.028L122.93 223.859L128.43 190.653Z" fill="white"/>
<path d="M164.89 191.513L165.848 257.577L173.181 253.348L168.819 224.941L164.89 191.513Z" fill="white"/>
<path d="M147.303 190.469L149.317 225.11L149.444 259.706L140.644 259.499L143.974 224.984L147.303 190.469Z" fill="white"/>
<ellipse cx="362.4" cy="60.2111" rx="24.0723" ry="11.1103" transform="rotate(1.35099 362.4 60.2111)" fill="black"/>
<path d="M336.44 61.451L340.32 67.0992L344.89 69.6766L351.296 72.9147L359.59 74.6538L376.625 72.2772L383.823 68.1251L387.965 62.6661L390.284 147.615L383.071 152.384L375.285 155.287L365.669 157.222L357.03 157.018L346.54 156.77L337.666 153.474L329.753 148.657L322.156 143.538L336.44 61.451Z" fill="black"/>
<path d="M341.484 83.1797L337.488 147.914L330.494 143.427L336.085 115.775L341.484 83.1797Z" fill="white"/>
<path d="M377.274 84.0235L378.215 148.874L385.413 144.722L381.131 116.837L377.274 84.0235Z" fill="white"/>
<path d="M360.011 82.999L361.987 117.003L362.112 150.964L353.473 150.76L356.742 116.879L360.011 82.999Z" fill="white"/>
<path d="M351.524 47.7649L362.594 60.6056" stroke="white" stroke-width="2.65671"/>
</svg>
