<svg width="1432" height="574" viewBox="0 0 1432 574" fill="none" xmlns="http://www.w3.org/2000/svg">
<g clip-path="url(#clip0_645_127)">
<path d="M77.0808 80.8647H76.8978L76.7215 80.8158L23.3752 66.0223L23.2522 65.9882L23.1378 65.9316L-23.0358 43.0689L-23.0473 43.0632L-23.0588 43.0573L-116.201 -5.30499L-158.031 -18.6551H-205.152L-251.858 -5.31071L-297.199 23.1387L-330.571 69.4145L-355.118 130.559L-368.97 201.608L-371.654 277.656L-368.523 345.187L-356.478 403.631L-331.486 452.722L-317.259 474.952L-297.221 494.545L-297.196 494.569L-278.447 511.979L-259.386 526.163L-211.77 543.519L-186.901 545.739H-163.26L-137.902 543.515L-116.974 537.281L-116.963 537.278L-65.9712 521.622L-22.134 500.151L-22.1107 500.139L-22.087 500.129L9.29312 486.232L9.34247 486.21L9.3934 486.192L36.2907 476.778L36.462 476.718L36.6431 476.706L69.3548 474.465L69.3681 474.465L92.2175 472.672L92.3857 472.659L92.552 472.688L115.863 476.723L115.965 476.74L116.063 476.773L158.628 491.111L158.65 491.118L202.015 504.082L245.306 511.669H298.879L347.525 504.082L375.052 494.759L395.045 481.875L395.065 481.862L415.404 467.712L420.999 457.384L423.586 447.037L422.292 437.122L420.212 431.298L415.74 427.232L406.76 424.239L393.081 423.357H347.847H347.747L347.649 423.342L326.579 420.204L326.492 420.191L326.408 420.167L307.58 414.787L307.37 414.727L307.19 414.604L290.155 402.949L290.043 402.872L289.949 402.775L275.156 387.534L274.986 387.359L274.889 387.136L268.612 372.791L268.5 372.533V372.252V357.01V356.813L268.556 356.624L271.246 347.658L271.285 347.53L271.348 347.411L274.934 340.687L274.941 340.674L274.948 340.661L278.983 333.488L279.061 333.349L279.17 333.232L284.363 327.639L231 220.913L212.636 188.216L212.464 187.909V187.557V157.97V157.823L212.496 157.678L215.186 145.575L215.221 145.413L215.295 145.265L220.227 135.403L220.394 135.068L220.711 134.867L251.194 115.591L251.318 115.513L251.455 115.463L277.456 106.049L277.504 106.032L277.554 106.018L285.358 103.85L291.853 98.654L297.482 93.8914L301.282 87.1353L302.549 79.5337L301.282 72.7803L298.357 66.93L293.659 63.0859L287.588 58.3155L280.651 56.1477L280.585 56.1272L280.522 56.1002L274.354 53.4566L266.922 51.7079L251.818 49.9309L215.639 49.0376L204.564 49.9237L194.469 51.6792L175.786 59.6865L175.754 59.7002L175.721 59.7123L141.651 72.2644L141.575 72.2922L141.497 72.3109L105.634 80.8283L105.48 80.8647H105.323H77.0808Z" fill="black"/>
<path d="M77.0808 80.8647H76.8978L76.7215 80.8158L23.3752 66.0223L23.2522 65.9882L23.1378 65.9316L-23.0358 43.0689L-23.0473 43.0632L-23.0588 43.0573L-116.201 -5.30499L-158.031 -18.6551H-205.152L-251.858 -5.31071L-297.199 23.1387L-330.571 69.4145L-355.118 130.559L-368.97 201.608L-371.654 277.656L-368.523 345.187L-356.478 403.631L-331.486 452.722L-317.259 474.952L-297.221 494.545L-297.196 494.569L-278.447 511.979L-259.386 526.163L-211.77 543.519L-186.901 545.739H-163.26L-137.902 543.515L-116.974 537.281L-116.963 537.278L-65.9712 521.622L-22.134 500.151L-22.1107 500.139L-22.087 500.129L9.29312 486.232L9.34247 486.21L9.3934 486.192L36.2907 476.778L36.462 476.718L36.6431 476.706L69.3548 474.465L69.3681 474.465L92.2175 472.672L92.3857 472.659L92.552 472.688L115.863 476.723L115.965 476.74L116.063 476.773L158.628 491.111L158.65 491.118L202.015 504.082L245.306 511.669H298.879L347.525 504.082L375.052 494.759L395.045 481.875L395.065 481.862L415.404 467.712L420.999 457.384L423.586 447.037L422.292 437.122L420.212 431.298L415.74 427.232L406.76 424.239L393.081 423.357H347.847H347.747L347.649 423.342L326.579 420.204L326.492 420.191L326.408 420.167L307.58 414.787L307.37 414.727L307.19 414.604L290.155 402.949L290.043 402.872L289.949 402.775L275.156 387.534L274.986 387.359L274.889 387.136L268.612 372.791L268.5 372.533V372.252V357.01V356.813L268.556 356.624L271.246 347.658L271.285 347.53L271.348 347.411L274.934 340.687L274.941 340.674L274.948 340.661L278.983 333.488L279.061 333.349L279.17 333.232L284.363 327.639L231 220.913L212.636 188.216L212.464 187.909V187.557V157.97V157.823L212.496 157.678L215.186 145.575L215.221 145.413L215.295 145.265L220.227 135.403L220.394 135.068L220.711 134.867L251.194 115.591L251.318 115.513L251.455 115.463L277.456 106.049L277.504 106.032L277.554 106.018L285.358 103.85L291.853 98.654L297.482 93.8914L301.282 87.1353L302.549 79.5337L301.282 72.7803L298.357 66.93L293.659 63.0859L287.588 58.3155L280.651 56.1477L280.585 56.1272L280.522 56.1002L274.354 53.4566L266.922 51.7079L251.818 49.9309L215.639 49.0376L204.564 49.9237L194.469 51.6792L175.786 59.6865L175.754 59.7002L175.721 59.7123L141.651 72.2644L141.575 72.2922L141.497 72.3109L105.634 80.8283L105.48 80.8647H105.323H77.0808Z" stroke="black" stroke-width="2.68973"/>
<path d="M77.0808 80.8647H76.8978L76.7215 80.8158L23.3752 66.0223L23.2522 65.9882L23.1378 65.9316L-23.0358 43.0689L-23.0473 43.0632L-23.0588 43.0573L-116.201 -5.30499L-158.031 -18.6551H-205.152L-251.858 -5.31071L-297.199 23.1387L-330.571 69.4145L-355.118 130.559L-368.97 201.608L-371.654 277.656L-368.523 345.187L-356.478 403.631L-331.486 452.722L-317.259 474.952L-297.221 494.545L-297.196 494.569L-278.447 511.979L-259.386 526.163L-211.77 543.519L-186.901 545.739H-163.26L-137.902 543.515L-116.974 537.281L-116.963 537.278L-65.9712 521.622L-22.134 500.151L-22.1107 500.139L-22.087 500.129L9.29312 486.232L9.34247 486.21L9.3934 486.192L36.2907 476.778L36.462 476.718L36.6431 476.706L69.3548 474.465L69.3681 474.465L92.2175 472.672L92.3857 472.659L92.552 472.688L115.863 476.723L115.965 476.74L116.063 476.773L158.628 491.111L158.65 491.118L202.015 504.082L245.306 511.669H298.879L347.525 504.082L375.052 494.759L395.045 481.875L395.065 481.862L415.404 467.712L420.999 457.384L423.586 447.037L422.292 437.122L420.212 431.298L415.74 427.232L406.76 424.239L393.081 423.357H347.847H347.747L347.649 423.342L326.579 420.204L326.492 420.191L326.408 420.167L307.58 414.787L307.37 414.727L307.19 414.604L290.155 402.949L290.043 402.872L289.949 402.775L275.156 387.534L274.986 387.359L274.889 387.136L268.612 372.791L268.5 372.533V372.252V357.01V356.813L268.556 356.624L271.246 347.658L271.285 347.53L271.348 347.411L274.934 340.687L274.941 340.674L274.948 340.661L278.983 333.488L279.061 333.349L279.17 333.232L284.363 327.639L231 220.913L212.636 188.216L212.464 187.909V187.557V157.97V157.823L212.496 157.678L215.186 145.575L215.221 145.413L215.295 145.265L220.227 135.403L220.394 135.068L220.711 134.867L251.194 115.591L251.318 115.513L251.455 115.463L277.456 106.049L277.504 106.032L277.554 106.018L285.358 103.85L291.853 98.654L297.482 93.8914L301.282 87.1353L302.549 79.5337L301.282 72.7803L298.357 66.93L293.659 63.0859L287.588 58.3155L280.651 56.1477L280.585 56.1272L280.522 56.1002L274.354 53.4566L266.922 51.7079L251.818 49.9309L215.639 49.0376L204.564 49.9237L194.469 51.6792L175.786 59.6865L175.754 59.7002L175.721 59.7123L141.651 72.2644L141.575 72.2922L141.497 72.3109L105.634 80.8283L105.48 80.8647H105.323H77.0808Z" stroke="black" stroke-width="2.68973"/>
<path d="M-125.545 340.871V341.102L-125.622 341.319L-128.288 348.874L-130.899 359.751L-128.256 376.046L-125.599 389.331L-119.922 402.432L-105.436 417.797L-87.9344 427.423L-69.0625 429.178L-50.4031 427.401L-39.3389 425.631L6.71873 410.875L95.4606 379.501L95.5208 379.48L95.5827 379.464L111.721 375.43L111.734 375.426L111.748 375.423L127.438 371.837L127.508 371.821L127.58 371.812L142.822 370.019L142.9 370.01H142.979H160.911H161.032L161.151 370.032L171.014 371.825L171.186 371.856L171.346 371.931L178.943 375.507L196.787 383.09L208.305 386.634L217.395 388.366L226.337 386.663L238.35 379.798L244.292 368.337V351.348L238.082 326.507L192.847 220.361L192.829 220.321L192.815 220.279L183.849 194.727L183.825 194.658L183.808 194.587L180.67 181.138L180.635 180.988V180.833V153.039V152.821L180.704 152.614L182.497 147.234L182.5 147.226L182.503 147.218L186.089 136.907L186.108 136.854L186.131 136.803L189.717 128.733L189.74 128.681L189.767 128.632L194.699 119.666L194.761 119.552L194.844 119.453L199.327 114.073L199.507 113.857L199.758 113.732L206.035 110.594L206.107 110.557L206.183 110.53L254.683 93.1769L260.879 85.3288V75.6212L254.842 69.9867L245.927 67.8642H235.326H225.622L216.396 70.0609L178.363 81.2469L155.987 89.3025L155.929 89.3235L155.869 89.339L131.661 95.615L131.596 95.6319L131.53 95.6421L105.529 99.6767L105.414 99.6945L105.298 99.6924L7.57152 97.8993L7.40399 97.8962L7.24232 97.8521L-17.4135 91.1278L-17.4688 91.1127L-17.5226 91.093L-44.4199 81.2306L-44.508 81.1983L-44.5909 81.1541L-70.5915 67.2571L-70.6169 67.2435L-70.6418 67.2289L-90.3664 55.5734L-90.3894 55.5598L-90.4119 55.5453L-111.898 41.669L-134.672 28.7192L-147.412 23.0079L-161.025 21.6906H-169.132L-177.778 26.4459L-185.197 30.8102L-191.637 38.1087L-195.541 47.2167L-197.237 54.4241L-195.567 61.9367L-182.716 80.5487L-182.711 80.556L-182.706 80.5635L-159.843 114.633L-159.826 114.659L-159.81 114.686L-150.844 129.479L-150.812 129.532L-150.785 129.588L-142.716 146.175L-142.709 146.188L-142.703 146.201L-135.082 162.788L-135.047 162.864L-135.022 162.945L-129.642 179.979L-129.61 180.08L-129.595 180.185L-125.56 207.082L-125.545 207.181V207.282V340.871Z" fill="white"/>
<path d="M-125.545 340.871V341.102L-125.622 341.319L-128.288 348.874L-130.899 359.751L-128.256 376.046L-125.599 389.331L-119.922 402.432L-105.436 417.797L-87.9344 427.423L-69.0625 429.178L-50.4031 427.401L-39.3389 425.631L6.71873 410.875L95.4606 379.501L95.5208 379.48L95.5827 379.464L111.721 375.43L111.734 375.426L111.748 375.423L127.438 371.837L127.508 371.821L127.58 371.812L142.822 370.019L142.9 370.01H142.979H160.911H161.032L161.151 370.032L171.014 371.825L171.186 371.856L171.346 371.931L178.943 375.507L196.787 383.09L208.305 386.634L217.395 388.366L226.337 386.663L238.35 379.798L244.292 368.337V351.348L238.082 326.507L192.847 220.361L192.829 220.321L192.815 220.279L183.849 194.727L183.825 194.658L183.808 194.587L180.67 181.138L180.635 180.988V180.833V153.039V152.821L180.704 152.614L182.497 147.234L182.5 147.226L182.503 147.218L186.089 136.907L186.108 136.854L186.131 136.803L189.717 128.733L189.74 128.681L189.767 128.632L194.699 119.666L194.761 119.552L194.844 119.453L199.327 114.073L199.507 113.857L199.758 113.732L206.035 110.594L206.107 110.557L206.183 110.53L254.683 93.1769L260.879 85.3288V75.6212L254.842 69.9867L245.927 67.8642H235.326H225.622L216.396 70.0609L178.363 81.2469L155.987 89.3025L155.929 89.3235L155.869 89.339L131.661 95.615L131.596 95.6319L131.53 95.6421L105.529 99.6767L105.414 99.6945L105.298 99.6924L7.57152 97.8993L7.40399 97.8962L7.24232 97.8521L-17.4135 91.1278L-17.4688 91.1127L-17.5226 91.093L-44.4199 81.2306L-44.508 81.1983L-44.5909 81.1541L-70.5915 67.2571L-70.6169 67.2435L-70.6418 67.2289L-90.3664 55.5734L-90.3894 55.5598L-90.4119 55.5453L-111.898 41.669L-134.672 28.7192L-147.412 23.0079L-161.025 21.6906H-169.132L-177.778 26.4459L-185.197 30.8102L-191.637 38.1087L-195.541 47.2167L-197.237 54.4241L-195.567 61.9367L-182.716 80.5487L-182.711 80.556L-182.706 80.5635L-159.843 114.633L-159.826 114.659L-159.81 114.686L-150.844 129.479L-150.812 129.532L-150.785 129.588L-142.716 146.175L-142.709 146.188L-142.703 146.201L-135.082 162.788L-135.047 162.864L-135.022 162.945L-129.642 179.979L-129.61 180.08L-129.595 180.185L-125.56 207.082L-125.545 207.181V207.282V340.871Z" stroke="black" stroke-width="2.68973"/>
<path d="M-125.545 340.871V341.102L-125.622 341.319L-128.288 348.874L-130.899 359.751L-128.256 376.046L-125.599 389.331L-119.922 402.432L-105.436 417.797L-87.9344 427.423L-69.0625 429.178L-50.4031 427.401L-39.3389 425.631L6.71873 410.875L95.4606 379.501L95.5208 379.48L95.5827 379.464L111.721 375.43L111.734 375.426L111.748 375.423L127.438 371.837L127.508 371.821L127.58 371.812L142.822 370.019L142.9 370.01H142.979H160.911H161.032L161.151 370.032L171.014 371.825L171.186 371.856L171.346 371.931L178.943 375.507L196.787 383.09L208.305 386.634L217.395 388.366L226.337 386.663L238.35 379.798L244.292 368.337V351.348L238.082 326.507L192.847 220.361L192.829 220.321L192.815 220.279L183.849 194.727L183.825 194.658L183.808 194.587L180.67 181.138L180.635 180.988V180.833V153.039V152.821L180.704 152.614L182.497 147.234L182.5 147.226L182.503 147.218L186.089 136.907L186.108 136.854L186.131 136.803L189.717 128.733L189.74 128.681L189.767 128.632L194.699 119.666L194.761 119.552L194.844 119.453L199.327 114.073L199.507 113.857L199.758 113.732L206.035 110.594L206.107 110.557L206.183 110.53L254.683 93.1769L260.879 85.3288V75.6212L254.842 69.9867L245.927 67.8642H235.326H225.622L216.396 70.0609L178.363 81.2469L155.987 89.3025L155.929 89.3235L155.869 89.339L131.661 95.615L131.596 95.6319L131.53 95.6421L105.529 99.6767L105.414 99.6945L105.298 99.6924L7.57152 97.8993L7.40399 97.8962L7.24232 97.8521L-17.4135 91.1278L-17.4688 91.1127L-17.5226 91.093L-44.4199 81.2306L-44.508 81.1983L-44.5909 81.1541L-70.5915 67.2571L-70.6169 67.2435L-70.6418 67.2289L-90.3664 55.5734L-90.3894 55.5598L-90.4119 55.5453L-111.898 41.669L-134.672 28.7192L-147.412 23.0079L-161.025 21.6906H-169.132L-177.778 26.4459L-185.197 30.8102L-191.637 38.1087L-195.541 47.2167L-197.237 54.4241L-195.567 61.9367L-182.716 80.5487L-182.711 80.556L-182.706 80.5635L-159.843 114.633L-159.826 114.659L-159.81 114.686L-150.844 129.479L-150.812 129.532L-150.785 129.588L-142.716 146.175L-142.709 146.188L-142.703 146.201L-135.082 162.788L-135.047 162.864L-135.022 162.945L-129.642 179.979L-129.61 180.08L-129.595 180.185L-125.56 207.082L-125.545 207.181V207.282V340.871Z" stroke="black" stroke-width="2.68973"/>
<path d="M116.978 276.766C116.978 285.051 116.673 293.017 116.389 300.413C116.329 301.997 116.269 303.554 116.214 305.083C115.898 313.779 115.72 321.528 116.245 328.01C116.773 334.521 117.998 339.542 120.333 342.917C122.59 346.179 125.985 348.044 131.323 348.044C136.661 348.044 140.056 346.179 142.313 342.917C144.648 339.542 145.873 334.521 146.401 328.01C146.926 321.528 146.748 313.779 146.433 305.083C146.377 303.554 146.317 301.997 146.257 300.413C145.973 293.017 145.668 285.051 145.668 276.766C145.668 268.999 145.903 261.509 146.123 254.507C146.187 252.447 146.251 250.43 146.306 248.46C146.551 239.768 146.646 232.017 146.066 225.534C145.483 219.022 144.231 213.99 141.93 210.607C139.704 207.337 136.415 205.488 131.323 205.488C126.231 205.488 122.942 207.337 120.717 210.607C118.415 213.99 117.163 219.022 116.58 225.534C116 232.017 116.095 239.768 116.34 248.46C116.396 250.43 116.459 252.447 116.523 254.507C116.743 261.509 116.978 268.999 116.978 276.766Z" fill="white"/>
<path d="M116.978 276.766C116.978 285.051 116.673 293.017 116.389 300.413C116.329 301.997 116.269 303.554 116.214 305.083C115.898 313.779 115.72 321.528 116.245 328.01C116.773 334.521 117.998 339.542 120.333 342.917C122.59 346.179 125.985 348.044 131.323 348.044C136.661 348.044 140.056 346.179 142.313 342.917C144.648 339.542 145.873 334.521 146.401 328.01C146.926 321.528 146.748 313.779 146.433 305.083C146.377 303.554 146.317 301.997 146.257 300.413C145.973 293.017 145.668 285.051 145.668 276.766C145.668 268.999 145.903 261.509 146.123 254.507C146.187 252.447 146.251 250.43 146.306 248.46C146.551 239.768 146.646 232.017 146.066 225.534C145.483 219.022 144.231 213.99 141.93 210.607C139.704 207.337 136.415 205.488 131.323 205.488C126.231 205.488 122.942 207.337 120.717 210.607C118.415 213.99 117.163 219.022 116.58 225.534C116 232.017 116.095 239.768 116.34 248.46C116.396 250.43 116.459 252.447 116.523 254.507C116.743 261.509 116.978 268.999 116.978 276.766Z" stroke="black" stroke-width="2.68973"/>
<path d="M116.978 276.766C116.978 285.051 116.673 293.017 116.389 300.413C116.329 301.997 116.269 303.554 116.214 305.083C115.898 313.779 115.72 321.528 116.245 328.01C116.773 334.521 117.998 339.542 120.333 342.917C122.59 346.179 125.985 348.044 131.323 348.044C136.661 348.044 140.056 346.179 142.313 342.917C144.648 339.542 145.873 334.521 146.401 328.01C146.926 321.528 146.748 313.779 146.433 305.083C146.377 303.554 146.317 301.997 146.257 300.413C145.973 293.017 145.668 285.051 145.668 276.766C145.668 268.999 145.903 261.509 146.123 254.507C146.187 252.447 146.251 250.43 146.306 248.46C146.551 239.768 146.646 232.017 146.066 225.534C145.483 219.022 144.231 213.99 141.93 210.607C139.704 207.337 136.415 205.488 131.323 205.488C126.231 205.488 122.942 207.337 120.717 210.607C118.415 213.99 117.163 219.022 116.58 225.534C116 232.017 116.095 239.768 116.34 248.46C116.396 250.43 116.459 252.447 116.523 254.507C116.743 261.509 116.978 268.999 116.978 276.766Z" stroke="black" stroke-width="2.68973"/>
<path d="M17.2894 274.973C17.2894 283.258 16.9842 291.224 16.7009 298.62C16.6402 300.204 16.5805 301.761 16.5251 303.29C16.2097 311.986 16.0316 319.735 16.5568 326.217C17.0843 332.728 18.3096 337.75 20.6441 341.124C22.9012 344.386 26.2967 346.251 31.6346 346.251C36.9724 346.251 40.3678 344.386 42.625 341.124C44.9594 337.75 46.1847 332.728 46.7123 326.217C47.2374 319.735 47.0594 311.986 46.744 303.29C46.6886 301.761 46.6289 300.204 46.5683 298.62C46.2849 291.224 45.9798 283.258 45.9798 274.973C45.9798 267.206 46.2147 259.716 46.4343 252.714C46.4989 250.654 46.5621 248.637 46.6177 246.667C46.863 237.975 46.9578 230.224 46.3773 223.741C45.7942 217.229 44.5427 212.197 42.2411 208.814C40.0157 205.544 36.7268 203.695 31.6346 203.695C26.5424 203.695 23.2535 205.544 21.028 208.814C18.7265 212.197 17.475 217.229 16.8918 223.741C16.3114 230.224 16.4062 237.975 16.6515 246.667C16.707 248.637 16.7703 250.654 16.8349 252.714C17.0545 259.716 17.2894 267.206 17.2894 274.973Z" fill="white"/>
<path d="M17.2894 274.973C17.2894 283.258 16.9842 291.224 16.7009 298.62C16.6402 300.204 16.5805 301.761 16.5251 303.29C16.2097 311.986 16.0316 319.735 16.5568 326.217C17.0843 332.728 18.3096 337.75 20.6441 341.124C22.9012 344.386 26.2967 346.251 31.6346 346.251C36.9724 346.251 40.3678 344.386 42.625 341.124C44.9594 337.75 46.1847 332.728 46.7123 326.217C47.2374 319.735 47.0594 311.986 46.744 303.29C46.6886 301.761 46.6289 300.204 46.5683 298.62C46.2849 291.224 45.9798 283.258 45.9798 274.973C45.9798 267.206 46.2147 259.716 46.4343 252.714C46.4989 250.654 46.5621 248.637 46.6177 246.667C46.863 237.975 46.9578 230.224 46.3773 223.741C45.7942 217.229 44.5427 212.197 42.2411 208.814C40.0157 205.544 36.7268 203.695 31.6346 203.695C26.5424 203.695 23.2535 205.544 21.028 208.814C18.7265 212.197 17.475 217.229 16.8918 223.741C16.3114 230.224 16.4062 237.975 16.6515 246.667C16.707 248.637 16.7703 250.654 16.8349 252.714C17.0545 259.716 17.2894 267.206 17.2894 274.973Z" stroke="black" stroke-width="2.68973"/>
<path d="M17.2894 274.973C17.2894 283.258 16.9842 291.224 16.7009 298.62C16.6402 300.204 16.5805 301.761 16.5251 303.29C16.2097 311.986 16.0316 319.735 16.5568 326.217C17.0843 332.728 18.3096 337.75 20.6441 341.124C22.9012 344.386 26.2967 346.251 31.6346 346.251C36.9724 346.251 40.3678 344.386 42.625 341.124C44.9594 337.75 46.1847 332.728 46.7123 326.217C47.2374 319.735 47.0594 311.986 46.744 303.29C46.6886 301.761 46.6289 300.204 46.5683 298.62C46.2849 291.224 45.9798 283.258 45.9798 274.973C45.9798 267.206 46.2147 259.716 46.4343 252.714C46.4989 250.654 46.5621 248.637 46.6177 246.667C46.863 237.975 46.9578 230.224 46.3773 223.741C45.7942 217.229 44.5427 212.197 42.2411 208.814C40.0157 205.544 36.7268 203.695 31.6346 203.695C26.5424 203.695 23.2535 205.544 21.028 208.814C18.7265 212.197 17.475 217.229 16.8918 223.741C16.3114 230.224 16.4062 237.975 16.6515 246.667C16.707 248.637 16.7703 250.654 16.8349 252.714C17.0545 259.716 17.2894 267.206 17.2894 274.973Z" stroke="black" stroke-width="2.68973"/>
<path d="M126.841 349.389C126.841 351.389 127.384 353.139 128.191 354.349C129.004 355.569 129.979 356.114 130.875 356.114C131.771 356.114 132.747 355.569 133.56 354.349C134.367 353.139 134.91 351.389 134.91 349.389C134.91 347.39 134.367 345.64 133.56 344.43C132.747 343.21 131.771 342.665 130.875 342.665C129.979 342.665 129.004 343.21 128.191 344.43C127.384 345.64 126.841 347.39 126.841 349.389Z" fill="black"/>
<path d="M126.841 349.389C126.841 351.389 127.384 353.139 128.191 354.349C129.004 355.569 129.979 356.114 130.875 356.114C131.771 356.114 132.747 355.569 133.56 354.349C134.367 353.139 134.91 351.389 134.91 349.389C134.91 347.39 134.367 345.64 133.56 344.43C132.747 343.21 131.771 342.665 130.875 342.665C129.979 342.665 129.004 343.21 128.191 344.43C127.384 345.64 126.841 347.39 126.841 349.389Z" stroke="black" stroke-width="2.68973"/>
<path d="M126.841 349.389C126.841 351.389 127.384 353.139 128.191 354.349C129.004 355.569 129.979 356.114 130.875 356.114C131.771 356.114 132.747 355.569 133.56 354.349C134.367 353.139 134.91 351.389 134.91 349.389C134.91 347.39 134.367 345.64 133.56 344.43C132.747 343.21 131.771 342.665 130.875 342.665C129.979 342.665 129.004 343.21 128.191 344.43C127.384 345.64 126.841 347.39 126.841 349.389Z" stroke="black" stroke-width="2.68973"/>
<path d="M29.1143 349.389C29.1143 351.389 29.6571 353.139 30.464 354.349C31.2772 355.569 32.2529 356.114 33.1489 356.114C34.0448 356.114 35.0205 355.569 35.8337 354.349C36.6407 353.139 37.1835 351.389 37.1835 349.389C37.1835 347.39 36.6407 345.64 35.8337 344.43C35.0205 343.21 34.0448 342.665 33.1489 342.665C32.2529 342.665 31.2772 343.21 30.464 344.43C29.6571 345.64 29.1143 347.39 29.1143 349.389Z" fill="black"/>
<path d="M29.1143 349.389C29.1143 351.389 29.6571 353.139 30.464 354.349C31.2772 355.569 32.2529 356.114 33.1489 356.114C34.0448 356.114 35.0205 355.569 35.8337 354.349C36.6407 353.139 37.1835 351.389 37.1835 349.389C37.1835 347.39 36.6407 345.64 35.8337 344.43C35.0205 343.21 34.0448 342.665 33.1489 342.665C32.2529 342.665 31.2772 343.21 30.464 344.43C29.6571 345.64 29.1143 347.39 29.1143 349.389Z" stroke="black" stroke-width="2.68973"/>
<path d="M29.1143 349.389C29.1143 351.389 29.6571 353.139 30.464 354.349C31.2772 355.569 32.2529 356.114 33.1489 356.114C34.0448 356.114 35.0205 355.569 35.8337 354.349C36.6407 353.139 37.1835 351.389 37.1835 349.389C37.1835 347.39 36.6407 345.64 35.8337 344.43C35.0205 343.21 34.0448 342.665 33.1489 342.665C32.2529 342.665 31.2772 343.21 30.464 344.43C29.6571 345.64 29.1143 347.39 29.1143 349.389Z" stroke="black" stroke-width="2.68973"/>
<path d="M29.1143 200.557C29.1143 202.557 29.6571 204.307 30.464 205.517C31.2772 206.737 32.2529 207.282 33.1489 207.282C34.0448 207.282 35.0205 206.737 35.8337 205.517C36.6407 204.307 37.1835 202.557 37.1835 200.557C37.1835 198.558 36.6407 196.808 35.8337 195.598C35.0205 194.378 34.0448 193.833 33.1489 193.833C32.2529 193.833 31.2772 194.378 30.464 195.598C29.6571 196.808 29.1143 198.558 29.1143 200.557Z" fill="black"/>
<path d="M29.1143 200.557C29.1143 202.557 29.6571 204.307 30.464 205.517C31.2772 206.737 32.2529 207.282 33.1489 207.282C34.0448 207.282 35.0205 206.737 35.8337 205.517C36.6407 204.307 37.1835 202.557 37.1835 200.557C37.1835 198.558 36.6407 196.808 35.8337 195.598C35.0205 194.378 34.0448 193.833 33.1489 193.833C32.2529 193.833 31.2772 194.378 30.464 195.598C29.6571 196.808 29.1143 198.558 29.1143 200.557Z" stroke="black" stroke-width="2.68973"/>
<path d="M29.1143 200.557C29.1143 202.557 29.6571 204.307 30.464 205.517C31.2772 206.737 32.2529 207.282 33.1489 207.282C34.0448 207.282 35.0205 206.737 35.8337 205.517C36.6407 204.307 37.1835 202.557 37.1835 200.557C37.1835 198.558 36.6407 196.808 35.8337 195.598C35.0205 194.378 34.0448 193.833 33.1489 193.833C32.2529 193.833 31.2772 194.378 30.464 195.598C29.6571 196.808 29.1143 198.558 29.1143 200.557Z" stroke="black" stroke-width="2.68973"/>
<path d="M126.841 200.557C126.841 202.557 127.384 204.307 128.191 205.517C129.004 206.737 129.979 207.282 130.875 207.282C131.771 207.282 132.747 206.737 133.56 205.517C134.367 204.307 134.91 202.557 134.91 200.557C134.91 198.558 134.367 196.808 133.56 195.598C132.747 194.378 131.771 193.833 130.875 193.833C129.979 193.833 129.004 194.378 128.191 195.598C127.384 196.808 126.841 198.558 126.841 200.557Z" fill="black"/>
<path d="M126.841 200.557C126.841 202.557 127.384 204.307 128.191 205.517C129.004 206.737 129.979 207.282 130.875 207.282C131.771 207.282 132.747 206.737 133.56 205.517C134.367 204.307 134.91 202.557 134.91 200.557C134.91 198.558 134.367 196.808 133.56 195.598C132.747 194.378 131.771 193.833 130.875 193.833C129.979 193.833 129.004 194.378 128.191 195.598C127.384 196.808 126.841 198.558 126.841 200.557Z" stroke="black" stroke-width="2.68973"/>
<path d="M126.841 200.557C126.841 202.557 127.384 204.307 128.191 205.517C129.004 206.737 129.979 207.282 130.875 207.282C131.771 207.282 132.747 206.737 133.56 205.517C134.367 204.307 134.91 202.557 134.91 200.557C134.91 198.558 134.367 196.808 133.56 195.598C132.747 194.378 131.771 193.833 130.875 193.833C129.979 193.833 129.004 194.378 128.191 195.598C127.384 196.808 126.841 198.558 126.841 200.557Z" stroke="black" stroke-width="2.68973"/>
<circle cx="5.82774" cy="5.82774" r="4.48288" transform="matrix(-1 0 0 1 137.151 322.492)" fill="black"/>
<circle cx="5.82774" cy="5.82774" r="4.48288" transform="matrix(-1 0 0 1 137.151 322.492)" stroke="black" stroke-width="2.68973"/>
<circle cx="5.82774" cy="5.82774" r="4.48288" transform="matrix(-1 0 0 1 137.151 322.492)" stroke="black" stroke-width="2.68973"/>
<circle cx="5.82774" cy="5.82774" r="4.48288" transform="matrix(-1 0 0 1 137.151 301.87)" fill="black"/>
<circle cx="5.82774" cy="5.82774" r="4.48288" transform="matrix(-1 0 0 1 137.151 301.87)" stroke="black" stroke-width="2.68973"/>
<circle cx="5.82774" cy="5.82774" r="4.48288" transform="matrix(-1 0 0 1 137.151 301.87)" stroke="black" stroke-width="2.68973"/>
<circle cx="5.82774" cy="5.82774" r="4.48288" transform="matrix(-1 0 0 1 137.151 281.249)" fill="black"/>
<circle cx="5.82774" cy="5.82774" r="4.48288" transform="matrix(-1 0 0 1 137.151 281.249)" stroke="black" stroke-width="2.68973"/>
<circle cx="5.82774" cy="5.82774" r="4.48288" transform="matrix(-1 0 0 1 137.151 281.249)" stroke="black" stroke-width="2.68973"/>
<circle cx="5.82774" cy="5.82774" r="4.48288" transform="matrix(-1 0 0 1 137.151 259.731)" fill="black"/>
<circle cx="5.82774" cy="5.82774" r="4.48288" transform="matrix(-1 0 0 1 137.151 259.731)" stroke="black" stroke-width="2.68973"/>
<circle cx="5.82774" cy="5.82774" r="4.48288" transform="matrix(-1 0 0 1 137.151 259.731)" stroke="black" stroke-width="2.68973"/>
<circle cx="5.82774" cy="5.82774" r="4.48288" transform="matrix(-1 0 0 1 137.151 238.214)" fill="black"/>
<circle cx="5.82774" cy="5.82774" r="4.48288" transform="matrix(-1 0 0 1 137.151 238.214)" stroke="black" stroke-width="2.68973"/>
<circle cx="5.82774" cy="5.82774" r="4.48288" transform="matrix(-1 0 0 1 137.151 238.214)" stroke="black" stroke-width="2.68973"/>
<circle cx="5.82774" cy="5.82774" r="4.48288" transform="matrix(-1 0 0 1 137.151 219.386)" fill="black"/>
<circle cx="5.82774" cy="5.82774" r="4.48288" transform="matrix(-1 0 0 1 137.151 219.386)" stroke="black" stroke-width="2.68973"/>
<circle cx="5.82774" cy="5.82774" r="4.48288" transform="matrix(-1 0 0 1 137.151 219.386)" stroke="black" stroke-width="2.68973"/>
<circle cx="5.82774" cy="5.82774" r="4.48288" transform="matrix(-1 0 0 1 39.4248 219.386)" fill="black"/>
<circle cx="5.82774" cy="5.82774" r="4.48288" transform="matrix(-1 0 0 1 39.4248 219.386)" stroke="black" stroke-width="2.68973"/>
<circle cx="5.82774" cy="5.82774" r="4.48288" transform="matrix(-1 0 0 1 39.4248 219.386)" stroke="black" stroke-width="2.68973"/>
<circle cx="5.82774" cy="5.82774" r="4.48288" transform="matrix(-1 0 0 1 39.4248 238.214)" fill="black"/>
<circle cx="5.82774" cy="5.82774" r="4.48288" transform="matrix(-1 0 0 1 39.4248 238.214)" stroke="black" stroke-width="2.68973"/>
<circle cx="5.82774" cy="5.82774" r="4.48288" transform="matrix(-1 0 0 1 39.4248 238.214)" stroke="black" stroke-width="2.68973"/>
<circle cx="5.82774" cy="5.82774" r="4.48288" transform="matrix(-1 0 0 1 39.4248 259.731)" fill="black"/>
<circle cx="5.82774" cy="5.82774" r="4.48288" transform="matrix(-1 0 0 1 39.4248 259.731)" stroke="black" stroke-width="2.68973"/>
<circle cx="5.82774" cy="5.82774" r="4.48288" transform="matrix(-1 0 0 1 39.4248 259.731)" stroke="black" stroke-width="2.68973"/>
<circle cx="5.82774" cy="5.82774" r="4.48288" transform="matrix(-1 0 0 1 39.4248 285.732)" fill="black"/>
<circle cx="5.82774" cy="5.82774" r="4.48288" transform="matrix(-1 0 0 1 39.4248 285.732)" stroke="black" stroke-width="2.68973"/>
<circle cx="5.82774" cy="5.82774" r="4.48288" transform="matrix(-1 0 0 1 39.4248 285.732)" stroke="black" stroke-width="2.68973"/>
<circle cx="5.82774" cy="5.82774" r="4.48288" transform="matrix(-1 0 0 1 39.4248 301.87)" fill="black"/>
<circle cx="5.82774" cy="5.82774" r="4.48288" transform="matrix(-1 0 0 1 39.4248 301.87)" stroke="black" stroke-width="2.68973"/>
<circle cx="5.82774" cy="5.82774" r="4.48288" transform="matrix(-1 0 0 1 39.4248 301.87)" stroke="black" stroke-width="2.68973"/>
<circle cx="5.82774" cy="5.82774" r="4.48288" transform="matrix(-1 0 0 1 39.4248 322.492)" fill="black"/>
<circle cx="5.82774" cy="5.82774" r="4.48288" transform="matrix(-1 0 0 1 39.4248 322.492)" stroke="black" stroke-width="2.68973"/>
<circle cx="5.82774" cy="5.82774" r="4.48288" transform="matrix(-1 0 0 1 39.4248 322.492)" stroke="black" stroke-width="2.68973"/>
<path d="M1264.15 301.938V247.115L193.329 224.778L186.95 227.405L181.743 233.012L178.244 238.066L177.049 245.632V274.973V305.029L179.008 312.081L183.436 317.716L188.322 322.602L193.448 325.165L1264.15 301.938Z" fill="white"/>
<path d="M1264.15 301.938V247.115L193.329 224.778L186.95 227.405L181.743 233.012L178.244 238.066L177.049 245.632V274.973V305.029L179.008 312.081L183.436 317.716L188.322 322.602L193.448 325.165L1264.15 301.938Z" stroke="black" stroke-width="6.27603"/>
<path d="M1264.15 301.938V247.115L193.329 224.778L186.95 227.405L181.743 233.012L178.244 238.066L177.049 245.632V274.973V305.029L179.008 312.081L183.436 317.716L188.322 322.602L193.448 325.165L1264.15 301.938Z" stroke="black" stroke-width="6.27603"/>
<path d="M1513.12 186.024L1512.76 186.155L1512.38 186.195L1504.63 187.011L1498.83 190.875L1488.35 201.797L1468.66 223.724L1467.93 224.535L1466.86 224.72L1453.86 226.961L1453.59 227.007H1453.32H1438.53H1438.19L1437.86 226.935L1427.55 224.694L1427.54 224.691L1427.53 224.688L1403.77 219.308L1403.72 219.298L1403.68 219.287L1358.43 207.638L1349.81 205.586L1342.71 207.454L1326.2 220.921L1326.01 221.077L1325.79 221.202L1306.52 232.409L1306.39 232.482L1306.26 232.544L1287.88 241.061L1287.58 241.2L1287.26 241.274L1269.97 245.202V304.021L1282.01 305.48L1282.41 305.529L1282.79 305.681L1296.24 311.061L1296.42 311.132L1296.59 311.223L1310.48 318.844L1310.64 318.931L1310.79 319.035L1320.25 325.739L1550.34 249.636L1555.65 247.188L1559.79 243.8L1562.38 238.995L1563.18 233.738L1564.48 223.845L1563.19 212.748L1561.99 207.51L1559.55 203.05L1556.66 198.498L1552.87 194.707L1552.8 194.642L1552.74 194.573L1549.42 190.841L1544.44 187.52L1540.38 185.082L1534.92 183.523H1528.64H1522.19L1517.8 184.321L1513.12 186.024Z" fill="white"/>
<path d="M1513.12 186.024L1512.76 186.155L1512.38 186.195L1504.63 187.011L1498.83 190.875L1488.35 201.797L1468.66 223.724L1467.93 224.535L1466.86 224.72L1453.86 226.961L1453.59 227.007H1453.32H1438.53H1438.19L1437.86 226.935L1427.55 224.694L1427.54 224.691L1427.53 224.688L1403.77 219.308L1403.72 219.298L1403.68 219.287L1358.43 207.638L1349.81 205.586L1342.71 207.454L1326.2 220.921L1326.01 221.077L1325.79 221.202L1306.52 232.409L1306.39 232.482L1306.26 232.544L1287.88 241.061L1287.58 241.2L1287.26 241.274L1269.97 245.202V304.021L1282.01 305.48L1282.41 305.529L1282.79 305.681L1296.24 311.061L1296.42 311.132L1296.59 311.223L1310.48 318.844L1310.64 318.931L1310.79 319.035L1320.25 325.739L1550.34 249.636L1555.65 247.188L1559.79 243.8L1562.38 238.995L1563.18 233.738L1564.48 223.845L1563.19 212.748L1561.99 207.51L1559.55 203.05L1556.66 198.498L1552.87 194.707L1552.8 194.642L1552.74 194.573L1549.42 190.841L1544.44 187.52L1540.38 185.082L1534.92 183.523H1528.64H1522.19L1517.8 184.321L1513.12 186.024Z" stroke="black" stroke-width="6.27603"/>
<path d="M1513.12 186.024L1512.76 186.155L1512.38 186.195L1504.63 187.011L1498.83 190.875L1488.35 201.797L1468.66 223.724L1467.93 224.535L1466.86 224.72L1453.86 226.961L1453.59 227.007H1453.32H1438.53H1438.19L1437.86 226.935L1427.55 224.694L1427.54 224.691L1427.53 224.688L1403.77 219.308L1403.72 219.298L1403.68 219.287L1358.43 207.638L1349.81 205.586L1342.71 207.454L1326.2 220.921L1326.01 221.077L1325.79 221.202L1306.52 232.409L1306.39 232.482L1306.26 232.544L1287.88 241.061L1287.58 241.2L1287.26 241.274L1269.97 245.202V304.021L1282.01 305.48L1282.41 305.529L1282.79 305.681L1296.24 311.061L1296.42 311.132L1296.59 311.223L1310.48 318.844L1310.64 318.931L1310.79 319.035L1320.25 325.739L1550.34 249.636L1555.65 247.188L1559.79 243.8L1562.38 238.995L1563.18 233.738L1564.48 223.845L1563.19 212.748L1561.99 207.51L1559.55 203.05L1556.66 198.498L1552.87 194.707L1552.8 194.642L1552.74 194.573L1549.42 190.841L1544.44 187.52L1540.38 185.082L1534.92 183.523H1528.64H1522.19L1517.8 184.321L1513.12 186.024Z" stroke="black" stroke-width="6.27603"/>
<path d="M1432.25 293.802L1435.39 306.354" stroke="black" stroke-width="2.68973"/>
<path d="M1432.25 293.802L1435.39 306.354" stroke="black" stroke-width="2.68973"/>
<path d="M1399.08 304.561L1402.22 317.113" stroke="black" stroke-width="2.68973"/>
<path d="M1399.08 304.561L1402.22 317.113" stroke="black" stroke-width="2.68973"/>
<path d="M1363.22 315.319L1366.36 327.871" stroke="black" stroke-width="2.68973"/>
<path d="M1363.22 315.319L1366.36 327.871" stroke="black" stroke-width="2.68973"/>
<path d="M1424.54 320.973C1426.15 327.814 1434.33 332.155 1443.22 330.057C1452.11 327.959 1457.48 320.421 1455.86 313.579C1454.25 306.738 1446.07 302.397 1437.18 304.495C1428.3 306.593 1422.92 314.132 1424.54 320.973Z" fill="black"/>
<path d="M1424.54 320.973C1426.15 327.814 1434.33 332.155 1443.22 330.057C1452.11 327.959 1457.48 320.421 1455.86 313.579C1454.25 306.738 1446.07 302.397 1437.18 304.495C1428.3 306.593 1422.92 314.132 1424.54 320.973Z" stroke="black" stroke-width="2.68973"/>
<path d="M1424.54 320.973C1426.15 327.814 1434.33 332.155 1443.22 330.057C1452.11 327.959 1457.48 320.421 1455.86 313.579C1454.25 306.738 1446.07 302.397 1437.18 304.495C1428.3 306.593 1422.92 314.132 1424.54 320.973Z" stroke="black" stroke-width="2.68973"/>
<path d="M1390.47 333.526C1392.08 340.367 1400.26 344.708 1409.15 342.61C1418.04 340.512 1423.41 332.974 1421.79 326.132C1420.18 319.291 1412 314.95 1403.11 317.048C1394.23 319.146 1388.85 326.684 1390.47 333.526Z" fill="black"/>
<path d="M1390.47 333.526C1392.08 340.367 1400.26 344.708 1409.15 342.61C1418.04 340.512 1423.41 332.974 1421.79 326.132C1420.18 319.291 1412 314.95 1403.11 317.048C1394.23 319.146 1388.85 326.684 1390.47 333.526Z" stroke="black" stroke-width="2.68973"/>
<path d="M1390.47 333.526C1392.08 340.367 1400.26 344.708 1409.15 342.61C1418.04 340.512 1423.41 332.974 1421.79 326.132C1420.18 319.291 1412 314.95 1403.11 317.048C1394.23 319.146 1388.85 326.684 1390.47 333.526Z" stroke="black" stroke-width="2.68973"/>
<path d="M1353.71 343.388C1355.32 350.229 1363.5 354.57 1372.39 352.472C1381.28 350.374 1386.65 342.836 1385.03 335.995C1383.42 329.153 1375.24 324.812 1366.35 326.91C1357.47 329.008 1352.09 336.547 1353.71 343.388Z" fill="black"/>
<path d="M1353.71 343.388C1355.32 350.229 1363.5 354.57 1372.39 352.472C1381.28 350.374 1386.65 342.836 1385.03 335.995C1383.42 329.153 1375.24 324.812 1366.35 326.91C1357.47 329.008 1352.09 336.547 1353.71 343.388Z" stroke="black" stroke-width="2.68973"/>
<path d="M1353.71 343.388C1355.32 350.229 1363.5 354.57 1372.39 352.472C1381.28 350.374 1386.65 342.836 1385.03 335.995C1383.42 329.153 1375.24 324.812 1366.35 326.91C1357.47 329.008 1352.09 336.547 1353.71 343.388Z" stroke="black" stroke-width="2.68973"/>
<path d="M1409.84 280.801C1409.84 284.698 1413.19 287.973 1417.46 287.973C1421.74 287.973 1425.08 284.698 1425.08 280.801C1425.08 276.904 1421.74 273.628 1417.46 273.628C1413.19 273.628 1409.84 276.904 1409.84 280.801Z" fill="black"/>
<path d="M1409.84 280.801C1409.84 284.698 1413.19 287.973 1417.46 287.973C1421.74 287.973 1425.08 284.698 1425.08 280.801C1425.08 276.904 1421.74 273.628 1417.46 273.628C1413.19 273.628 1409.84 276.904 1409.84 280.801Z" stroke="black" stroke-width="2.68973"/>
<path d="M1409.84 280.801C1409.84 284.698 1413.19 287.973 1417.46 287.973C1421.74 287.973 1425.08 284.698 1425.08 280.801C1425.08 276.904 1421.74 273.628 1417.46 273.628C1413.19 273.628 1409.84 276.904 1409.84 280.801Z" stroke="black" stroke-width="2.68973"/>
<path d="M1373.08 291.56C1373.08 295.458 1376.43 298.733 1380.7 298.733C1384.98 298.733 1388.32 295.458 1388.32 291.56C1388.32 287.663 1384.98 284.388 1380.7 284.388C1376.43 284.388 1373.08 287.663 1373.08 291.56Z" fill="black"/>
<path d="M1373.08 291.56C1373.08 295.458 1376.43 298.733 1380.7 298.733C1384.98 298.733 1388.32 295.458 1388.32 291.56C1388.32 287.663 1384.98 284.388 1380.7 284.388C1376.43 284.388 1373.08 287.663 1373.08 291.56Z" stroke="black" stroke-width="2.68973"/>
<path d="M1373.08 291.56C1373.08 295.458 1376.43 298.733 1380.7 298.733C1384.98 298.733 1388.32 295.458 1388.32 291.56C1388.32 287.663 1384.98 284.388 1380.7 284.388C1376.43 284.388 1373.08 287.663 1373.08 291.56Z" stroke="black" stroke-width="2.68973"/>
<path d="M1341.7 300.525C1341.7 304.422 1345.05 307.698 1349.32 307.698C1353.6 307.698 1356.94 304.422 1356.94 300.525C1356.94 296.628 1353.6 293.353 1349.32 293.353C1345.05 293.353 1341.7 296.628 1341.7 300.525Z" fill="black"/>
<path d="M1341.7 300.525C1341.7 304.422 1345.05 307.698 1349.32 307.698C1353.6 307.698 1356.94 304.422 1356.94 300.525C1356.94 296.628 1353.6 293.353 1349.32 293.353C1345.05 293.353 1341.7 296.628 1341.7 300.525Z" stroke="black" stroke-width="2.68973"/>
<path d="M1341.7 300.525C1341.7 304.422 1345.05 307.698 1349.32 307.698C1353.6 307.698 1356.94 304.422 1356.94 300.525C1356.94 296.628 1353.6 293.353 1349.32 293.353C1345.05 293.353 1341.7 296.628 1341.7 300.525Z" stroke="black" stroke-width="2.68973"/>
<line y1="-1.34486" x2="1647.23" y2="-1.34486" transform="matrix(-0.999867 -0.0163288 -0.0163288 0.999867 1508.91 248.973)" stroke="black" stroke-width="2.68973"/>
<line y1="-1.34486" x2="1647.23" y2="-1.34486" transform="matrix(-0.999867 -0.0163288 -0.0163288 0.999867 1508.91 248.973)" stroke="black" stroke-width="2.68973"/>
<line y1="-1.34486" x2="1612.1" y2="-1.34486" transform="matrix(-0.999965 -0.00835625 -0.00835625 0.999965 1471.26 257.938)" stroke="black" stroke-width="2.68973"/>
<line y1="-1.34486" x2="1612.1" y2="-1.34486" transform="matrix(-0.999965 -0.00835625 -0.00835625 0.999965 1471.26 257.938)" stroke="black" stroke-width="2.68973"/>
<line y1="-1.34486" x2="1585.15" y2="-1.34486" transform="matrix(-0.999999 -0.00169665 -0.00169665 0.999999 1447.05 268.697)" stroke="black" stroke-width="2.68973"/>
<line y1="-1.34486" x2="1585.15" y2="-1.34486" transform="matrix(-0.999999 -0.00169665 -0.00169665 0.999999 1447.05 268.697)" stroke="black" stroke-width="2.68973"/>
<line y1="-1.34486" x2="1560.95" y2="-1.34486" transform="matrix(-0.999994 0.00343051 0.00343051 0.999994 1422.84 280.353)" stroke="black" stroke-width="2.68973"/>
<line y1="-1.34486" x2="1560.95" y2="-1.34486" transform="matrix(-0.999994 0.00343051 0.00343051 0.999994 1422.84 280.353)" stroke="black" stroke-width="2.68973"/>
<line y1="-1.34486" x2="1524.25" y2="-1.34486" transform="matrix(-0.99995 0.00998336 0.00998336 0.99995 1383.39 289.318)" stroke="black" stroke-width="2.68973"/>
<line y1="-1.34486" x2="1524.25" y2="-1.34486" transform="matrix(-0.99995 0.00998336 0.00998336 0.99995 1383.39 289.318)" stroke="black" stroke-width="2.68973"/>
<line y1="-1.34486" x2="1490.3" y2="-1.34486" transform="matrix(-0.999868 0.0162268 0.0162268 0.999868 1349.32 300.974)" stroke="black" stroke-width="2.68973"/>
<line y1="-1.34486" x2="1490.3" y2="-1.34486" transform="matrix(-0.999868 0.0162268 0.0162268 0.999868 1349.32 300.974)" stroke="black" stroke-width="2.68973"/>
<path d="M1087.07 273.629C1087.07 276.958 1090.14 279.905 1094.25 279.905C1098.35 279.905 1101.42 276.958 1101.42 273.629C1101.42 270.299 1098.35 267.353 1094.25 267.353C1090.14 267.353 1087.07 270.299 1087.07 273.629Z" fill="black"/>
<path d="M1087.07 273.629C1087.07 276.958 1090.14 279.905 1094.25 279.905C1098.35 279.905 1101.42 276.958 1101.42 273.629C1101.42 270.299 1098.35 267.353 1094.25 267.353C1090.14 267.353 1087.07 270.299 1087.07 273.629Z" stroke="black" stroke-width="2.68973"/>
<path d="M1087.07 273.629C1087.07 276.958 1090.14 279.905 1094.25 279.905C1098.35 279.905 1101.42 276.958 1101.42 273.629C1101.42 270.299 1098.35 267.353 1094.25 267.353C1090.14 267.353 1087.07 270.299 1087.07 273.629Z" stroke="black" stroke-width="2.68973"/>
<path d="M950.794 273.629C950.794 276.958 953.861 279.905 957.967 279.905C962.073 279.905 965.14 276.958 965.14 273.629C965.14 270.299 962.073 267.353 957.967 267.353C953.861 267.353 950.794 270.299 950.794 273.629Z" fill="black"/>
<path d="M950.794 273.629C950.794 276.958 953.861 279.905 957.967 279.905C962.073 279.905 965.14 276.958 965.14 273.629C965.14 270.299 962.073 267.353 957.967 267.353C953.861 267.353 950.794 270.299 950.794 273.629Z" stroke="black" stroke-width="2.68973"/>
<path d="M950.794 273.629C950.794 276.958 953.861 279.905 957.967 279.905C962.073 279.905 965.14 276.958 965.14 273.629C965.14 270.299 962.073 267.353 957.967 267.353C953.861 267.353 950.794 270.299 950.794 273.629Z" stroke="black" stroke-width="2.68973"/>
<path d="M818.997 274.525C818.997 277.855 822.064 280.801 826.17 280.801C830.276 280.801 833.343 277.855 833.343 274.525C833.343 271.196 830.276 268.249 826.17 268.249C822.064 268.249 818.997 271.196 818.997 274.525Z" fill="black"/>
<path d="M818.997 274.525C818.997 277.855 822.064 280.801 826.17 280.801C830.276 280.801 833.343 277.855 833.343 274.525C833.343 271.196 830.276 268.249 826.17 268.249C822.064 268.249 818.997 271.196 818.997 274.525Z" stroke="black" stroke-width="2.68973"/>
<path d="M818.997 274.525C818.997 277.855 822.064 280.801 826.17 280.801C830.276 280.801 833.343 277.855 833.343 274.525C833.343 271.196 830.276 268.249 826.17 268.249C822.064 268.249 818.997 271.196 818.997 274.525Z" stroke="black" stroke-width="2.68973"/>
<path d="M714.098 273.629C714.098 276.958 717.165 279.905 721.271 279.905C725.377 279.905 728.443 276.958 728.443 273.629C728.443 270.299 725.377 267.353 721.271 267.353C717.165 267.353 714.098 270.299 714.098 273.629Z" fill="black"/>
<path d="M714.098 273.629C714.098 276.958 717.165 279.905 721.271 279.905C725.377 279.905 728.443 276.958 728.443 273.629C728.443 270.299 725.377 267.353 721.271 267.353C717.165 267.353 714.098 270.299 714.098 273.629Z" stroke="black" stroke-width="2.68973"/>
<path d="M714.098 273.629C714.098 276.958 717.165 279.905 721.271 279.905C725.377 279.905 728.443 276.958 728.443 273.629C728.443 270.299 725.377 267.353 721.271 267.353C717.165 267.353 714.098 270.299 714.098 273.629Z" stroke="black" stroke-width="2.68973"/>
<path d="M609.199 250.317C609.199 253.647 612.265 256.593 616.371 256.593C620.477 256.593 623.544 253.647 623.544 250.317C623.544 246.988 620.477 244.041 616.371 244.041C612.265 244.041 609.199 246.988 609.199 250.317Z" fill="black"/>
<path d="M609.199 250.317C609.199 253.647 612.265 256.593 616.371 256.593C620.477 256.593 623.544 253.647 623.544 250.317C623.544 246.988 620.477 244.041 616.371 244.041C612.265 244.041 609.199 246.988 609.199 250.317Z" stroke="black" stroke-width="2.68973"/>
<path d="M609.199 250.317C609.199 253.647 612.265 256.593 616.371 256.593C620.477 256.593 623.544 253.647 623.544 250.317C623.544 246.988 620.477 244.041 616.371 244.041C612.265 244.041 609.199 246.988 609.199 250.317Z" stroke="black" stroke-width="2.68973"/>
<path d="M609.199 296.043C609.199 299.372 612.265 302.319 616.371 302.319C620.477 302.319 623.544 299.372 623.544 296.043C623.544 292.713 620.477 289.767 616.371 289.767C612.265 289.767 609.199 292.713 609.199 296.043Z" fill="black"/>
<path d="M609.199 296.043C609.199 299.372 612.265 302.319 616.371 302.319C620.477 302.319 623.544 299.372 623.544 296.043C623.544 292.713 620.477 289.767 616.371 289.767C612.265 289.767 609.199 292.713 609.199 296.043Z" stroke="black" stroke-width="2.68973"/>
<path d="M609.199 296.043C609.199 299.372 612.265 302.319 616.371 302.319C620.477 302.319 623.544 299.372 623.544 296.043C623.544 292.713 620.477 289.767 616.371 289.767C612.265 289.767 609.199 292.713 609.199 296.043Z" stroke="black" stroke-width="2.68973"/>
<path d="M493.54 274.525C493.54 277.855 496.607 280.801 500.713 280.801C504.819 280.801 507.886 277.855 507.886 274.525C507.886 271.196 504.819 268.249 500.713 268.249C496.607 268.249 493.54 271.196 493.54 274.525Z" fill="black"/>
<path d="M493.54 274.525C493.54 277.855 496.607 280.801 500.713 280.801C504.819 280.801 507.886 277.855 507.886 274.525C507.886 271.196 504.819 268.249 500.713 268.249C496.607 268.249 493.54 271.196 493.54 274.525Z" stroke="black" stroke-width="2.68973"/>
<path d="M493.54 274.525C493.54 277.855 496.607 280.801 500.713 280.801C504.819 280.801 507.886 277.855 507.886 274.525C507.886 271.196 504.819 268.249 500.713 268.249C496.607 268.249 493.54 271.196 493.54 274.525Z" stroke="black" stroke-width="2.68973"/>
<path d="M414.642 273.629C414.642 276.958 417.709 279.905 421.815 279.905C425.92 279.905 428.987 276.958 428.987 273.629C428.987 270.299 425.92 267.353 421.815 267.353C417.709 267.353 414.642 270.299 414.642 273.629Z" fill="black"/>
<path d="M414.642 273.629C414.642 276.958 417.709 279.905 421.815 279.905C425.92 279.905 428.987 276.958 428.987 273.629C428.987 270.299 425.92 267.353 421.815 267.353C417.709 267.353 414.642 270.299 414.642 273.629Z" stroke="black" stroke-width="2.68973"/>
<path d="M414.642 273.629C414.642 276.958 417.709 279.905 421.815 279.905C425.92 279.905 428.987 276.958 428.987 273.629C428.987 270.299 425.92 267.353 421.815 267.353C417.709 267.353 414.642 270.299 414.642 273.629Z" stroke="black" stroke-width="2.68973"/>
<path d="M356.365 273.629C356.365 276.958 359.431 279.905 363.537 279.905C367.643 279.905 370.71 276.958 370.71 273.629C370.71 270.299 367.643 267.353 363.537 267.353C359.431 267.353 356.365 270.299 356.365 273.629Z" fill="black"/>
<path d="M356.365 273.629C356.365 276.958 359.431 279.905 363.537 279.905C367.643 279.905 370.71 276.958 370.71 273.629C370.71 270.299 367.643 267.353 363.537 267.353C359.431 267.353 356.365 270.299 356.365 273.629Z" stroke="black" stroke-width="2.68973"/>
<path d="M356.365 273.629C356.365 276.958 359.431 279.905 363.537 279.905C367.643 279.905 370.71 276.958 370.71 273.629C370.71 270.299 367.643 267.353 363.537 267.353C359.431 267.353 356.365 270.299 356.365 273.629Z" stroke="black" stroke-width="2.68973"/>
<path d="M298.087 273.629C298.087 276.958 301.154 279.905 305.26 279.905C309.366 279.905 312.432 276.958 312.432 273.629C312.432 270.299 309.366 267.353 305.26 267.353C301.154 267.353 298.087 270.299 298.087 273.629Z" fill="black"/>
<path d="M298.087 273.629C298.087 276.958 301.154 279.905 305.26 279.905C309.366 279.905 312.432 276.958 312.432 273.629C312.432 270.299 309.366 267.353 305.26 267.353C301.154 267.353 298.087 270.299 298.087 273.629Z" stroke="black" stroke-width="2.68973"/>
<path d="M298.087 273.629C298.087 276.958 301.154 279.905 305.26 279.905C309.366 279.905 312.432 276.958 312.432 273.629C312.432 270.299 309.366 267.353 305.26 267.353C301.154 267.353 298.087 270.299 298.087 273.629Z" stroke="black" stroke-width="2.68973"/>
<path d="M1277.6 242.696V302.319" stroke="black" stroke-width="2.68973"/>
<path d="M1277.6 242.696V302.319" stroke="black" stroke-width="2.68973"/>
<path d="M1208.11 242.248V303.215" stroke="black" stroke-width="2.68973"/>
<path d="M1208.11 242.248V303.215" stroke="black" stroke-width="2.68973"/>
<path d="M1129.21 241.8V302.767" stroke="black" stroke-width="2.68973"/>
<path d="M1129.21 241.8V302.767" stroke="black" stroke-width="2.68973"/>
<path d="M1060.18 239.559V304.56" stroke="black" stroke-width="2.68973"/>
<path d="M1060.18 239.559V304.56" stroke="black" stroke-width="2.68973"/>
<path d="M992.036 238.662V307.25" stroke="black" stroke-width="2.68973"/>
<path d="M992.036 238.662V307.25" stroke="black" stroke-width="2.68973"/>
<path d="M921.655 236.421V307.25" stroke="black" stroke-width="2.68973"/>
<path d="M921.655 236.421V307.25" stroke="black" stroke-width="2.68973"/>
<path d="M861.137 236.421V307.699" stroke="black" stroke-width="2.68973"/>
<path d="M861.137 236.421V307.699" stroke="black" stroke-width="2.68973"/>
<path d="M797.479 236.421V309.94" stroke="black" stroke-width="2.68973"/>
<path d="M797.479 236.421V309.94" stroke="black" stroke-width="2.68973"/>
<path d="M748.168 233.73V313.077" stroke="black" stroke-width="2.68973"/>
<path d="M748.168 233.73V313.077" stroke="black" stroke-width="2.68973"/>
<path d="M699.753 234.627V314.422" stroke="black" stroke-width="2.68973"/>
<path d="M699.753 234.627V314.422" stroke="black" stroke-width="2.68973"/>
<path d="M645.958 231.938V312.629" stroke="black" stroke-width="2.68973"/>
<path d="M645.958 231.938V312.629" stroke="black" stroke-width="2.68973"/>
<path d="M596.198 231.041V313.078" stroke="black" stroke-width="2.68973"/>
<path d="M596.198 231.041V313.078" stroke="black" stroke-width="2.68973"/>
<path d="M552.266 230.593V318.457" stroke="black" stroke-width="2.68973"/>
<path d="M552.266 230.593V318.457" stroke="black" stroke-width="2.68973"/>
<path d="M517.3 231.041V318.905" stroke="black" stroke-width="2.68973"/>
<path d="M517.3 231.041V318.905" stroke="black" stroke-width="2.68973"/>
<path d="M481.437 230.145V320.699" stroke="black" stroke-width="2.68973"/>
<path d="M481.437 230.145V320.699" stroke="black" stroke-width="2.68973"/>
<path d="M436.607 230.145V320.699" stroke="black" stroke-width="2.68973"/>
<path d="M436.607 230.145V320.699" stroke="black" stroke-width="2.68973"/>
<path d="M405.228 228.352V321.595" stroke="black" stroke-width="2.68973"/>
<path d="M405.228 228.352V321.595" stroke="black" stroke-width="2.68973"/>
<path d="M376.537 228.352V321.595" stroke="black" stroke-width="2.68973"/>
<path d="M376.537 228.352V321.595" stroke="black" stroke-width="2.68973"/>
<path d="M346.95 228.352L347.847 325.182" stroke="black" stroke-width="2.68973"/>
<path d="M346.95 228.352L347.847 325.182" stroke="black" stroke-width="2.68973"/>
<path d="M320.053 228.352L320.949 325.182" stroke="black" stroke-width="2.68973"/>
<path d="M320.053 228.352L320.949 325.182" stroke="black" stroke-width="2.68973"/>
<path d="M290.466 228.352V325.182" stroke="black" stroke-width="2.68973"/>
<path d="M290.466 228.352V325.182" stroke="black" stroke-width="2.68973"/>
<path d="M261.775 225.662V325.182" stroke="black" stroke-width="2.68973"/>
<path d="M261.775 225.662V325.182" stroke="black" stroke-width="2.68973"/>
<path d="M237.568 223.868L238.465 325.181" stroke="black" stroke-width="2.68973"/>
<path d="M237.568 223.868L238.465 325.181" stroke="black" stroke-width="2.68973"/>
<path d="M218.74 223.868V325.181" stroke="black" stroke-width="2.68973"/>
<path d="M218.74 223.868V325.181" stroke="black" stroke-width="2.68973"/>
<path d="M193.636 222.075V326.975" stroke="black" stroke-width="2.68973"/>
<path d="M193.636 222.075V326.975" stroke="black" stroke-width="2.68973"/>
</g>
<defs>
<clipPath id="clip0_645_127">
<rect width="1432" height="574" fill="white"/>
</clipPath>
</defs>
</svg>
