<svg width="750" height="127" viewBox="0 0 750 127" fill="none" xmlns="http://www.w3.org/2000/svg">
<path d="M172.557 10.5839C172.549 6.94978 175.615 4.0658 179.242 4.29681L737.707 39.8695C741.011 40.0799 743.585 42.8167 743.593 46.127L743.761 117.818C743.77 121.441 740.721 124.321 737.104 124.107L178.644 90.9285C175.329 90.7315 172.74 87.99 172.732 84.6693L172.557 10.5839Z" fill="#DDFA42" stroke="#BECD0E" stroke-width="2"/>
<path d="M188.506 21.1156C188.452 17.4531 191.528 14.5199 195.184 14.7489L724.684 47.9101C727.96 48.1153 730.526 50.8068 730.576 54.0889L731.37 107.165C731.424 110.818 728.362 113.748 724.714 113.533L195.242 82.247C191.957 82.0529 189.378 79.3575 189.328 76.0669L188.506 21.1156Z" fill="white" stroke="#BECD0E" stroke-width="2"/>
<path d="M176.232 92.04C176.541 91.9857 176.854 91.9679 177.166 91.9868L710.277 124.193H39.2826C34.3945 124.193 33.7754 117.1 38.5896 116.253L176.232 92.04Z" fill="#DDFA42" stroke="#BECD0E" stroke-width="2"/>
<path d="M31.5024 45.4764C31.5126 42.6493 33.4091 40.1769 36.137 39.4345L168.257 3.47742C172.263 2.38705 176.207 5.41234 176.192 9.56449L175.915 86.6718C175.904 89.5848 173.894 92.1088 171.057 92.7701L38.9557 123.565C35.0048 124.486 31.2293 121.478 31.2439 117.421L31.5024 45.4764Z" fill="#DDFA42" stroke="#BECD0E" stroke-width="2"/>
<path d="M38.2353 50.1204C38.2353 47.2635 40.1622 44.766 42.9256 44.0411L159.879 13.3629C163.863 12.3179 167.759 15.3234 167.759 19.4423L167.759 80.1462C167.759 83.0958 165.707 85.6486 162.827 86.2838L45.8736 112.071C41.9512 112.936 38.2353 109.95 38.2353 105.934L38.2353 50.1204Z" fill="#DDFA42" stroke="#BECD0E" stroke-width="2"/>
<path d="M257.453 68.3948C249.834 67.9487 244.844 62.8482 245.254 55.8522L245.778 46.8915C246.188 39.8955 251.742 35.3645 259.361 35.8107C266.932 36.254 271.737 41.2474 271.327 48.2434L271.248 49.5851L264.588 49.1951L264.675 47.7096C264.88 44.2116 262.791 42.1179 258.909 41.8906C254.98 41.6605 252.604 43.637 252.374 47.5663L251.883 55.9519C251.656 59.8333 253.737 62.0708 257.714 62.3037C261.595 62.531 263.917 60.6475 264.122 57.1495L264.198 55.8557L270.858 56.2457L270.788 57.4437C270.379 64.4397 264.976 68.8354 257.453 68.3948ZM274.606 68.8223L276.447 37.3882L296.86 38.5836L296.509 44.5733L282.661 43.7624L282.265 50.5188L295.203 51.2764L294.855 57.2182L281.917 56.4606L281.521 63.217L295.37 64.028L295.019 70.0177L274.606 68.8223ZM311.867 71.0044L306.848 51.6218L305.734 70.6452L299.36 70.272L301.201 38.8378L309.443 39.3205L315.283 61.1072L323.627 40.1511L331.869 40.6337L330.028 72.0679L323.655 71.6947L324.769 52.6712L317.521 71.3355L311.867 71.0044ZM335.299 72.3765L337.14 40.9424L357.553 42.1378L357.202 48.1275L343.354 47.3166L342.958 54.073L355.896 54.8306L355.548 60.7725L342.61 60.0148L342.214 66.7712L356.063 67.5822L355.712 73.5719L335.299 72.3765ZM360.053 73.8262L361.894 42.392L368.363 42.7709L367.204 62.5609L378.713 43.377L385.326 43.7642L383.485 75.1984L377.016 74.8195L378.175 55.0294L366.666 74.2134L360.053 73.8262ZM366.379 33.1344L366.415 32.5114L371.639 32.8173L371.608 33.3444C371.532 34.6382 372.358 35.3116 374.179 35.4183C375.952 35.5221 376.755 34.9441 376.831 33.6503L376.862 33.1232L382.133 33.4318L382.096 34.0548C381.838 38.4632 378.918 40.6964 373.839 40.3989C368.808 40.1043 366.124 37.4949 366.379 33.1344ZM401.02 76.8022C393.401 76.356 388.41 71.2555 388.82 64.2595L389.345 55.2989C389.755 48.3029 395.309 43.7718 402.928 44.218C410.499 44.6614 415.303 49.6548 414.894 56.6508L414.815 57.9925L408.154 57.6024L408.241 56.117C408.446 52.619 406.357 50.5253 402.476 50.298C398.546 50.0679 396.171 52.0444 395.941 55.9736L395.45 64.3593C395.222 68.2406 397.303 70.4781 401.28 70.711C405.162 70.9383 407.484 69.0548 407.689 65.5568L407.764 64.263L414.425 64.6531L414.355 65.851C413.945 72.847 408.543 77.2427 401.02 76.8022ZM422.801 77.5007L424.291 52.0563L416.384 51.5933L416.735 45.6035L439.161 46.9168L438.81 52.9065L430.903 52.4435L429.413 77.8879L422.801 77.5007ZM440.494 78.5368L442.334 47.1027L454.697 47.8266C460.831 48.1858 464.665 51.6799 464.368 56.7592L464.331 57.3822C464.168 60.1614 462.791 62.3406 460.505 63.6011C463.062 65.0972 464.413 67.4842 464.236 70.503L464.197 71.1739C463.891 76.3969 459.613 79.6564 453.527 79.3001L440.494 78.5368ZM447.404 73.0273L453.489 73.3837C455.981 73.5296 457.489 72.4159 457.606 70.4033L457.643 69.7804C457.761 67.7678 456.298 66.4801 453.902 66.3398L447.816 65.9834L447.404 73.0273ZM448.153 60.2333L453.759 60.5616C456.107 60.6991 457.567 59.5825 457.682 57.6179L457.718 56.9949C457.834 55.0303 456.556 53.8496 454.16 53.7093L448.554 53.381L448.153 60.2333ZM480.194 81.4387C472.528 80.9897 467.689 75.7539 468.093 68.8537L468.615 59.941C469.019 53.0408 474.484 48.4083 482.103 48.8545C489.817 49.3063 494.656 54.5421 494.251 61.4423L493.73 70.355C493.325 77.2552 487.957 81.8933 480.194 81.4387ZM474.72 69.0014C474.496 72.8348 476.574 75.1202 480.551 75.3531C484.432 75.5804 486.915 73.4178 487.131 69.7282L487.619 61.3905C487.846 57.5091 485.723 55.173 481.746 54.9401C477.817 54.71 475.436 56.7823 475.208 60.6637L474.72 69.0014ZM511.247 82.6802L513.088 51.246L519.701 51.6333L518.954 64.3794L529.017 64.9687L529.764 52.2226L536.376 52.6098L534.536 84.044L527.923 83.6567L528.666 70.9585L518.604 70.3692L517.86 83.0674L511.247 82.6802ZM537.732 84.2311L537.791 83.2248L549.06 53.3526L556.727 53.8016L564.433 84.785L564.374 85.7913L557.714 85.4013L556.427 79.4599L546.364 78.8706L544.392 84.6212L537.732 84.2311ZM548.327 73.2638L555.131 73.6622L552.445 61.2439L548.327 73.2638ZM567.635 85.9823L569.476 54.5481L576.041 54.9326L574.554 80.3291L588.689 81.1569L588.336 87.1945L567.635 85.9823ZM594.903 87.5791L587.246 56.5985L587.304 55.5922L594.013 55.985L599.276 79.4208L607.19 56.7567L613.899 57.1496L613.84 58.1558L602.618 88.0309L594.903 87.5791ZM609.983 88.4622L610.042 87.4559L621.312 57.5837L628.978 58.0326L636.684 89.0161L636.625 90.0224L629.965 89.6323L628.678 83.6909L618.615 83.1017L616.644 88.8522L609.983 88.4622ZM620.578 77.4948L627.383 77.8933L624.696 65.475L620.578 77.4948ZM639.886 90.2134L641.727 58.7792L654.713 59.5397C661.278 59.9241 664.991 63.8439 664.649 69.6899L664.609 70.3607C664.337 75.0087 661.66 78.0254 657.097 78.7679L663.425 90.5821L663.366 91.5883L656.514 91.1871L649.983 78.736L647.156 78.5704L646.451 90.5978L639.886 90.2134ZM647.484 72.964L653.665 73.326C656.444 73.4887 657.859 72.3214 657.997 69.9735L658.036 69.3026C658.171 67.0026 656.806 65.6725 654.123 65.5154L647.941 65.1534L647.484 72.964Z" fill="black"/>
<path d="M64.9914 47.4245L126.566 34.0994L126.566 58.4999L64.9913 72.4999L64.9914 47.4245Z" fill="black"/>
<path d="M101.5 93.4999L50.862 72.191L143.5 54L101.5 93.4999Z" fill="black"/>
</svg>
