<svg width="850" height="216" viewBox="0 0 850 216" fill="none" xmlns="http://www.w3.org/2000/svg">
<path d="M697.479 213.5H2.5V67.5088L843.4 70.4785L697.479 213.5Z" fill="white" stroke="black" stroke-width="5"/>
<path d="M700.768 209.817L699.044 168.008L844.339 25.6179L846.934 68.0058L700.768 209.817Z" fill="white" stroke="black" stroke-width="5"/>
<path d="M2.5 23.5H841.035L697.452 169.5H2.5V23.5Z" fill="white" stroke="black" stroke-width="5"/>
<path d="M55.5137 8.12231L609.175 47.7214C612.464 47.9566 615.012 50.6932 615.012 53.9904V132.528C615.012 136.257 611.785 139.165 608.076 138.779L54.4143 81.1174C51.2125 80.784 48.7803 78.0852 48.7803 74.8662V14.3913C48.7803 10.7436 51.8753 7.86209 55.5137 8.12231Z" fill="#DDFA42" stroke="#BECD0E" stroke-width="2"/>
<path d="M64.2908 15.4537L596.098 56.467C599.372 56.7195 601.899 59.4497 601.899 62.7334V123.08C601.899 126.802 598.683 129.708 594.981 129.333L63.1738 75.4433C59.9645 75.1181 57.5225 72.416 57.5225 69.1903V21.7202C57.5225 18.0586 60.64 15.1722 64.2908 15.4537Z" fill="white" stroke="#BECD0E" stroke-width="2"/>
<path d="M80.9392 61.2709L83.9418 29.9264L88.4332 30.3567L87.1242 44.0221L99.9296 45.2488L101.239 31.5833L105.73 32.0136L102.728 63.3581L98.2361 62.9278L99.5405 49.3102L86.7351 48.0835L85.4307 61.7012L80.9392 61.2709ZM107.253 63.7915L107.321 63.0748L120.337 33.4128L125.497 33.9071L132.645 65.5007L132.577 66.2174L128.133 65.7917L126.54 58.2615L114.69 57.1264L111.696 64.2172L107.253 63.7915ZM116.369 53.1886L125.639 54.0765L122.423 38.8203L116.369 53.1886ZM137.166 66.657L140.169 35.3125L144.66 35.7428L142.047 63.0259L157.48 64.5043L157.091 68.5657L137.166 66.657ZM164.882 69.312L157.782 37.723L157.851 37.0063L162.295 37.432L168.003 63.921L178.683 39.0019L183.127 39.4276L183.058 40.1443L170.091 69.8109L164.882 69.312ZM179.298 70.6929L179.366 69.9762L192.382 40.3142L197.543 40.8085L204.69 72.402L204.622 73.1188L200.178 72.6931L198.585 65.1629L186.735 64.0277L183.741 71.1186L179.298 70.6929ZM188.414 60.0899L197.684 60.9779L194.468 45.7217L188.414 60.0899ZM209.211 73.5584L212.214 42.2139L224.685 43.4085C230.753 43.9898 234.155 47.7393 233.633 53.1863L233.565 53.9031C233.098 58.7767 229.838 61.5988 224.761 61.7393L231.451 74.9654L231.382 75.6822L226.699 75.2336L219.687 61.3497L214.957 60.8966L213.703 73.9886L209.211 73.5584ZM215.328 57.0263L223.212 57.7815C226.795 58.1248 228.823 56.5832 229.121 53.4774L229.19 52.7607C229.483 49.7027 227.736 47.7995 224.2 47.4608L216.316 46.7055L215.328 57.0263ZM260.297 79.0306C253.225 78.3532 249.68 74.59 250.266 68.474L250.371 67.375L254.624 67.7824L254.518 68.8814C254.171 72.5128 256.333 74.6005 260.682 75.017C264.695 75.4015 267.249 73.9102 267.542 70.8522L267.592 70.3266C267.83 67.842 266.491 66.2189 263.185 64.9861L258.899 63.4182C254.006 61.6475 251.73 58.7292 252.105 54.8111L252.169 54.1422C252.664 48.9818 257.198 45.9443 263.601 46.5577C270.099 47.1802 273.558 50.8387 273.013 56.5246L272.908 57.6236L268.655 57.2162L268.761 56.1173C269.085 52.7248 267.239 50.8602 263.034 50.4574C259.307 50.1004 256.853 51.5531 256.588 54.3244L256.538 54.85C256.332 57.0001 257.81 58.6848 260.694 59.7808L264.88 61.3873C270.233 63.3949 272.471 66.2131 272.068 70.4178L272.004 71.0868C271.478 76.5816 266.891 79.6623 260.297 79.0306ZM281.821 80.5138L284.435 53.2307L275.452 52.3702L275.841 48.3088L298.202 50.4509L297.813 54.5123L288.878 53.6564L286.265 80.9395L281.821 80.5138ZM299.081 82.1672L302.084 50.8227L321.435 52.6764L321.046 56.7378L306.186 55.3144L305.266 64.9184L319.314 66.2641L318.929 70.2777L304.882 68.932L303.962 78.5361L318.822 79.9595L318.433 84.0209L299.081 82.1672ZM323.765 84.5317L326.768 53.1872L331.45 53.6358L341.936 78.075L344.16 54.8533L348.556 55.2744L345.553 86.6189L340.871 86.1703L330.376 61.8267L328.161 84.9528L323.765 84.5317ZM363.737 88.9393C356.522 88.2482 352.14 83.1511 352.799 76.2706L353.696 66.9055C354.36 59.9772 359.634 55.7569 366.849 56.4481C373.825 57.1163 378.264 62.1224 377.637 68.6684L377.527 69.8152L373.084 69.3895L373.193 68.2428C373.61 63.8947 371.086 61.049 366.403 60.6005C361.625 60.1428 358.636 62.6532 358.174 67.4791L357.309 76.5098C356.846 81.3357 359.309 84.3201 364.087 84.7778C368.722 85.2218 371.788 82.9116 372.205 78.5635L372.319 77.369L376.763 77.7947L376.648 78.9892C376.021 85.5352 370.713 89.6076 363.737 88.9393ZM381.818 90.0927L384.82 58.7482L389.264 59.1739L386.261 90.5184L381.818 90.0927ZM393.244 91.1873L396.247 59.8428L400.738 60.273L398.124 87.5561L413.558 89.0345L413.169 93.0959L393.244 91.1873Z" fill="black"/>
<path d="M689.287 1.09327L749.934 11.0567C756.872 12.1966 756.989 22.1322 750.079 23.4348L613.855 49.1165C613.315 49.2182 612.765 49.2488 612.217 49.2075L56.9087 7.29219C55.268 7.16835 54 5.80099 54 4.15562C54 2.41842 55.4083 1.01013 57.1455 1.01013H208H368.5H688.268C688.609 1.01013 688.95 1.03794 689.287 1.09327Z" fill="#DDFA42" stroke="#BECD0E" stroke-width="2"/>
<path d="M614.736 47.0734L747.666 13.2777C751.639 12.2676 755.5 15.2697 755.5 19.3689V91.6235C755.5 94.381 753.703 96.8164 751.068 97.6293L618.138 138.635C614.095 139.882 610 136.859 610 132.629V53.1646C610 50.29 611.95 47.7817 614.736 47.0734Z" fill="#DDFA42" stroke="#BECD0E" stroke-width="2"/>
<path d="M624.712 53.3776L737.142 24.322C741.121 23.2937 745 26.2976 745 30.4071V86.0756C745 88.8528 743.177 91.3008 740.517 92.0969L628.087 125.737C624.055 126.944 620 123.924 620 119.716V59.4627C620 56.5973 621.938 54.0946 624.712 53.3776Z" fill="#DDFA42" stroke="#BECD0E" stroke-width="2"/>
</svg>
