<svg width="496" height="715" viewBox="0 0 496 715" fill="none" xmlns="http://www.w3.org/2000/svg">
<path d="M282.165 234.26C282.618 230.556 287.224 224.587 289.528 221.557C290.571 220.187 293.421 217.067 293.67 215.535C294.322 211.536 299.05 209.593 301.126 205.467C312.807 182.246 321.927 158.153 321.927 131.698C321.927 122.971 323.14 113.366 321.835 104.693C320.553 96.1762 313.958 85.8831 310.33 78.2528C307.184 71.6387 302.186 66.1008 299.469 59.4341C295.997 50.9158 293.14 40.934 286.399 34.4053C278.359 26.6183 269.682 15.7747 258.051 15.7747C247.125 15.7747 237.177 9 225.745 9C203.722 9 184.651 27.7814 172.453 44.5674C157.962 64.5096 161.224 88.571 161.224 112.221C161.224 129.879 161.224 147.537 161.224 165.195C161.224 174.699 161.224 184.202 161.224 193.706C161.224 203.015 156.081 210.621 154.69 219.864C153.887 225.2 149.969 233.472 146.314 237.647C140.832 243.911 137.205 250.817 132.232 257.031C121.537 270.393 114.121 285.514 104.896 299.937C95.3123 314.921 96.2468 332.544 89.157 348.489C86.4737 354.525 88.3287 364.91 88.3287 371.448C88.3287 380.47 88.0692 389.53 88.3287 398.547C88.5771 407.181 94.0617 416.366 97.3486 424.047C100.854 432.238 102.052 439.692 107.473 446.817C111.152 451.653 118.399 457.812 123.488 461.213C129.876 465.484 137.545 466.028 143.369 471.752C148.128 476.43 157.535 482.011 163.802 483.231C170.078 484.453 174.374 488.904 180.737 490.383C186.129 491.635 196.464 494.739 200.986 497.628C214.831 506.474 225.646 496.781 239.09 496.781" stroke="#DDFA42" stroke-width="16.9484" stroke-linecap="round"/>
<path d="M319.051 183.554C321.278 183.269 320.807 180.059 322.356 178.47C324.023 176.761 327.397 176.425 328.6 174.328C331.477 169.313 333.942 167.344 337.599 163.595C341.51 159.585 343.477 150.72 345.68 145.519C349 137.68 352.748 131.016 357.25 123.488C364.18 111.902 365.78 101.239 369.371 88.0893C371.879 78.9043 374.84 65.7639 382.777 59.8453C393.653 51.7356 393.641 49.8737 406.652 49.6775C417.505 49.5139 429.284 45.4974 439.709 50.4307C455.911 58.0976 464.672 61.2216 471.113 78.3922C474.668 87.8675 481.875 95.0167 485.071 104.847C488.417 115.139 485.989 129.418 485.989 140.058C485.989 149.311 487.02 159.188 485.897 168.396C485.151 174.516 480.446 181.016 478.459 186.943C473.345 202.197 462.181 218.771 451.279 230.251C430.452 252.181 415.364 278.214 386.083 290.222C371.075 296.377 332.047 326.623 345.496 317.43" stroke="#DDFA42" stroke-width="16.9484" stroke-linecap="round"/>
<path d="M401.624 294.84C408.466 294.84 419.546 292.805 425.405 297.474C429.756 300.943 432.977 307.907 437.157 311.965C442.731 317.376 442.003 329.126 444.595 336.43C447.56 344.787 449.553 353.464 449.553 362.494C449.553 380.134 443.655 389.215 433.393 403.237C427.735 410.967 424.477 419.34 418.702 426.948C413.286 434.084 405.473 440.648 398.502 445.955C385.445 455.895 368.975 463.468 352.96 466.75C339.558 469.497 333.862 464.284 333.862 449.813C333.862 442.962 344.094 437.683 349.563 434.57C358.413 429.531 357.754 418.492 362.784 411.046C370.191 400.082 374.26 386.26 373.527 372.75C373.264 367.897 366.722 367.025 363.243 365.599C357.364 363.188 356.097 358.139 352.96 354.119C348.54 348.457 345.601 342.603 342.125 336.241C339.374 331.207 335.621 325.841 334.229 320.245C333.037 315.454 329.362 313.129 328.077 308.389C322.445 287.613 301.727 263.145 284.28 251.651C278.71 247.981 273.977 245.723 267.385 245.723C257.791 245.723 250.219 241.111 240.574 243.652C229.836 246.482 221.997 252.894 213.212 258.896C208.71 261.972 207.127 268.143 203.296 272.069C200.016 275.43 190.654 278.22 188.789 282.043C187.086 285.533 184.524 289.612 181.443 292.77C178.323 295.967 169.424 310.083 175.2 310.083" stroke="#DDFA42" stroke-width="16.9484" stroke-linecap="round"/>
<path d="M353.795 432.71C352.932 436.686 338.016 442.743 334.296 442.879C325.45 443.202 317.103 446.269 307.807 446.269C289.75 446.269 275.065 428.763 262.738 416.515C250.926 404.778 242.312 386.51 235.881 371.696C233.131 365.362 234.288 358.09 231.282 351.358C229.81 348.061 227.5 336.345 231.282 334.409" stroke="#DDFA42" stroke-width="16.9484" stroke-linecap="round"/>
<path d="M239.393 379.758C232.562 385.639 216.574 382.942 208.347 382.942C201.429 382.942 183.167 373.391 190.085 373.391" stroke="#DDFA42" stroke-width="16.9484" stroke-linecap="round"/>
<path d="M439.861 303.902C440.355 308.944 443.371 313.737 444.456 318.72C445.641 324.163 450.274 326.999 451.255 331.756C453.761 343.905 459.527 356.71 459.709 369.176C460.011 389.794 455.301 408.085 442.25 424.602C429.52 440.713 418.995 459.889 404.392 474.402C391.85 486.866 373.275 496.278 357.988 504.788C346.842 510.993 333.658 516.605 320.773 516.605C312.227 516.605 303.682 516.605 295.136 516.605C292.397 516.605 277.823 516.605 287.693 516.605" stroke="#DDFA42" stroke-width="16.9484" stroke-linecap="round"/>
<path d="M338.541 530.403C338.541 545.335 327.803 552.427 315.261 558.269C295.911 567.281 277.855 565.75 256.829 565.75C245.864 565.75 235.481 569.51 224.623 569.116C216.54 568.822 205.898 565.677 197.938 563.879C195.206 563.263 193.02 560.663 190.117 559.765C184.732 558.1 179.086 558.237 173.829 556.586C162.357 552.982 151.928 547.377 140.703 543.775C134.542 541.798 128.223 536.228 123.22 532.273C117.582 527.817 111.278 525.597 105.92 520.304C95.0992 509.613 88.7457 497.287 82.1799 483.275C79.1672 476.846 82.2037 465.547 84.7564 459.711C86.1495 456.525 90.2934 444.461 93.406 442.879" stroke="#DDFA42" stroke-width="16.9484" stroke-linecap="round"/>
<path d="M234.308 577.619C233.943 581.348 231.587 584.774 229.888 587.979C223.902 599.27 219.625 612.327 210.919 621.788C187.138 647.63 160.055 675.325 128.046 689.595C100.481 701.884 74.6134 704.757 44.9895 704.757C40.6007 704.757 8.89378 708.081 8.89378 701.367" stroke="#DDFA42" stroke-width="16.9484" stroke-linecap="round"/>
<path d="M88.5518 504.741C88.5518 508.853 83.8461 510.897 80.8264 513.215C72.6133 519.522 61.0502 526.533 51.2127 529.41C43.62 531.631 36.2929 536.713 28.2207 536.943C23.9896 537.063 21.2581 537.31 17.3684 538.638" stroke="#DDFA42" stroke-width="16.9484" stroke-linecap="round"/>
<path d="M289.391 38.9269C289.069 35.6373 288.271 34.705 285.595 34.0676C283.211 33.5 280.94 31.371 279.134 29.8064C275.974 27.0682 272 25.8356 268.366 23.9752C262.612 21.0288 256.272 18.1963 249.861 17.06C244.749 16.154 238.298 15.056 233.144 16.4246C229.471 17.3997 225.973 18.8128 222.376 19.9382C216.361 21.8204 207.721 25.7867 203.688 30.7035C201.399 33.4945 198.042 35.8534 195.293 38.1793C191.116 41.7126 189.113 46.8122 186.898 51.6733C182.959 60.3177 181.249 70.7031 179.379 80.0068C178.388 84.9359 177.979 90.1005 177.663 95.1081C177.309 100.738 175.436 106.28 174.926 111.966C174.371 118.146 173.046 124.047 172.079 130.133C171.012 136.84 170.57 143.591 169.67 150.317C168.913 155.971 167.188 161.116 167.188 166.914C167.188 172.912 165.958 178.041 165.217 183.921C164.578 188.987 163.942 193.985 163.392 199.06C162.915 203.454 161.932 208.144 161.932 212.554C161.932 216.981 160.79 221.573 160.253 225.973C159.844 229.322 159.171 232.338 157.698 235.355C157.102 236.576 156.019 238.657 156.019 240.103C156.019 241.151 157.374 239.051 157.552 238.832C160.869 234.755 150.644 246.789 147.77 251.204C145.558 254.602 144.183 259.762 141.564 262.68C137.558 267.144 135.617 273.247 132.366 278.304C128.097 284.947 124.349 291.857 120.613 298.826C117.497 304.638 113.553 309.665 111.853 316.132C109.868 323.684 105.411 329.939 103.787 337.7C98.86 361.245 89.6121 384.56 95.5741 408.983" stroke="#DDFA42" stroke-width="21.1855" stroke-linecap="round"/>
<path d="M100.886 406.615C101.004 407.816 101.753 408.553 102.204 409.613C103.096 411.705 103.012 414.344 103.376 416.583C104.044 420.682 103.687 424.309 104.841 428.349C106.377 433.726 107.511 439.223 109.015 444.611C109.66 446.92 110.054 448.895 112.237 449.932C113.818 450.683 116.885 457.59 116.668 455.816C115.808 448.778 113.005 441.395 109.894 435.169C107.233 429.844 105.075 424.362 102.864 418.831C100.84 413.769 98.1136 409.13 96.2725 403.992C95.3748 401.487 93.6361 399.032 93.6361 396.31C93.6361 391.551 93.6361 386.792 93.6361 382.033C93.6361 373.455 93.5878 365.405 94.9543 356.927C95.0041 356.618 96.5475 348.851 96.7851 349.733C97.7372 353.265 96.621 357.932 96.419 361.499C96.0418 368.158 95.3109 376.063 96.5654 382.633C97.4714 387.378 98.5045 391.65 99.2018 396.423C100.634 406.223 102.029 415.178 104.475 424.789C107.287 435.842 112.668 444.986 117.767 454.841C118.991 457.207 126.898 469.232 129.228 463.272" stroke="#DDFA42" stroke-width="21.1855" stroke-linecap="round"/>
<path d="M272.442 20.0164C272.891 22.5355 275.383 23.9222 276.917 25.6978C278.912 28.0087 280.404 30.1378 281.832 32.8743C283.718 36.4909 285.83 41.5963 288.984 44.2746C292.382 47.1606 294.149 53.5995 295.476 57.6558C297.38 63.4761 301.527 68.1235 303.985 73.6909C306.028 78.3171 307.995 82.757 309.707 87.4459C311.809 93.2009 312.998 99.0665 315.026 104.789C317.571 111.973 319.678 119.079 320.637 126.655C321.371 132.452 323.439 137.755 323.278 143.812C323.161 148.231 321.101 153.704 319.977 158.015C318.236 164.696 315.944 171.425 314.622 178.162C312.708 187.913 307.663 197.004 303.325 206.008C301.189 210.443 297.709 215.76 294.376 219.315C290.692 223.243 289.361 228.417 286.71 232.92C285.787 234.487 285.697 236.992 283.959 238.004C282.858 238.645 280.801 242.041 283.005 242.041" stroke="#DDFA42" stroke-width="21.1855" stroke-linecap="round"/>
<path d="M410.571 287.802C411.028 289.674 414.403 288.462 415.197 289.819C415.408 290.18 417.133 291.529 417.528 291.799C418.854 292.706 419.731 293.985 421.061 294.863C423.581 296.524 425.839 299.311 427.618 301.775C429.513 304.4 432.113 305.58 434.684 307.305C440.996 311.538 445.76 320.268 448.234 327.517C449.095 330.041 449.329 332.109 450.711 334.504C453.205 338.829 453.157 343.332 454.499 348.029C455.659 352.09 457.03 355.983 457.121 360.284C457.253 366.492 457.121 372.718 457.121 378.928C457.121 381.14 456.575 383.177 456.466 385.317C456.346 387.644 454.499 389.497 454.499 392.042C454.499 398.682 453.11 406.298 450.055 412.217C448.868 414.516 449.256 417.091 448.27 419.316C446.96 422.272 444.175 425.332 443.353 428.283C443.031 429.439 441.428 430.533 440.73 431.571C439.603 433.248 438.669 435.5 437.307 436.951C434.488 439.954 432.786 443.174 430.386 446.516C427.914 449.956 425.709 453.719 423.065 456.94C419.566 461.202 417.768 466.861 413.849 471.063C406.051 479.425 396.119 484.373 387.478 491.574C382.379 495.825 375.572 498.049 369.995 501.625C365.104 504.76 359.901 507.12 355.097 510.405C352.176 512.403 349.273 515.08 346.028 516.458C342.856 517.804 340.133 518.497 337.14 520.194C332.631 522.75 328.005 524.918 322.862 526.022C316.825 527.318 310.158 526.545 303.994 526.545C297.853 526.545 291.721 522.448 286.001 520.493" stroke="#DDFA42" stroke-width="21.1855" stroke-linecap="round"/>
<path d="M236.002 494.768C229.635 494.768 223.176 498.136 216.851 498.136C209.797 498.136 202.693 498.809 195.572 498.809C187.891 498.809 180.071 496.971 172.606 495.067C164.48 492.995 158.006 488.618 150.887 484.327C148.133 482.667 146.13 479.838 143.402 478.078C140.456 476.176 136.994 474.192 134.451 471.716C132.045 469.374 130.195 466.741 128.067 464.157C126.242 461.94 123.552 459.895 122.16 457.383C117.143 448.33 110.354 440.266 105.027 431.375C102.891 427.809 102.692 422.695 101.285 418.727C98.1747 409.956 93.7996 401.892 89.3982 393.729" stroke="#DDFA42" stroke-width="21.1855" stroke-linecap="round"/>
<path d="M415.336 276.785C416.73 276.964 419.53 283.355 420.479 284.692C422.27 287.216 423.867 288.616 426.44 290.322C433.734 295.159 440.672 304.479 445.609 311.766C451.044 319.786 454.229 330.042 455.953 339.559C459.357 358.341 460.57 376.892 460.57 395.863C460.57 399.154 457.45 404.264 456.129 407.244C453.79 412.517 452.652 418.233 450.051 423.416C447.402 428.695 443.322 432.926 441.109 438.511C439.057 443.687 436.062 449.303 432.05 453.186C424.998 460.012 417.685 467.497 412.18 475.648C402.312 490.257 383.996 498.493 369.049 506.436" stroke="#DDFA42" stroke-width="21.1855" stroke-linecap="round"/>
<path d="M8 543.57L47.3329 526.585L82.6431 508.259L92.4763 498.426M92.4763 498.426L82.6431 470.267L92.4763 444.79L104.991 434.957M92.4763 498.426L104.991 508.259L124.658 526.585L146.559 543.57L172.036 553.403L202.43 560.554L226.119 565.024H241.539M104.991 434.957L124.658 461.775L146.559 478.76L175.612 494.404L202.43 498.426L237.74 494.404M104.991 434.957L92.4763 404.564V378.64L96.499 347.352L104.991 320.534L121.529 284.777L153.264 232.482L160.415 216.392L163.097 188.233L167.119 61.7417L180.528 36.2648L199.301 20.621L223.884 12.1287L246.679 15.7044L264.558 20.621L280.648 31.3481L295.398 51.9085L302.997 74.2568L310.595 92.1353L318.64 114.484L321.322 139.514V160.521L318.64 179.293L285.118 236.952L327.58 171.248L342.777 152.923L350.375 135.491L361.102 109.12L366.466 88.1127L372.276 69.7871L381.216 55.0373L395.071 47.4389L408.48 44.7571H421.889L441.109 47.4389L454.071 55.0373L465.245 69.7871L475.525 85.4309L480.889 101.075L485.358 114.484V131.915V156.498L480.889 179.293L465.245 207.899L441.109 236.952L408.48 275.391L342.777 316.512L411.162 282.095L430.829 293.716L447.813 320.534L455.859 340.648L461.222 361.208V381.768L455.859 404.564L447.813 427.806L437.086 444.79L424.571 461.775L408.033 481.442L391.049 494.404L361.102 508.259L333.39 519.434M333.39 519.434L310.595 522.562L285.118 519.434M333.39 519.434L336.966 533.736L333.39 550.274L310.595 560.554L288.247 565.024H256.959H241.539M241.539 565.024L231.929 589.607L218.967 611.955L189.021 644.584L166.672 665.591L142.536 681.235L124.658 691.962L104.991 696.432L82.6431 700.454L49.1208 703.136H8" stroke="black" stroke-width="7.15143"/>
<path d="M286.906 235.164L278.413 248.573L260.088 242.315H243.997L225.672 248.573L213.604 257.512L198.407 273.156L187.68 289.247L177.399 308.019" stroke="black" stroke-width="7.15143"/>
<path d="M278.414 250.361L291.823 257.512L304.338 268.686L313.724 282.095L320.876 294.163L327.58 308.019L336.073 322.769L345.012 337.966L354.398 352.716L362.891 363.89L374.065 369.7V382.215L370.936 398.306L366.466 413.056L358.421 430.041L345.012 442.109L320.876 447.919H300.763L278.414 433.616L260.983 417.079L247.574 398.306L238.634 379.087M238.634 379.087L232.377 363.89L227.46 337.966L238.634 379.087ZM238.634 379.087L220.309 382.215H206.006L192.597 375.064L185.893 369.7" stroke="black" stroke-width="7.15143"/>
<path d="M335.625 444.791V458.646L340.095 465.351H351.716L370.488 458.646L386.132 450.154L399.988 442.109L413.844 429.147L426.806 413.95L440.215 392.496L446.472 376.405L450.048 356.739V346.458V332.155L446.472 318.3" stroke="black" stroke-width="7.15143"/>
</svg>
