<svg width="1327" height="1742" viewBox="0 0 1327 1742" fill="none" xmlns="http://www.w3.org/2000/svg">
<path d="M499.819 426.204L85.844 290.746L175.345 88.587L598.722 238.094L499.819 426.204Z" fill="white" stroke="black" stroke-width="3"/>
<path d="M600.581 235.556L177.049 85.9949L196.903 41.9689L623.78 188.964L600.581 235.556Z" fill="white" stroke="black" stroke-width="3"/>
<path d="M84.4724 286.47L77.989 246.829L181.402 11.5949L194.452 40.1124L84.4724 286.47Z" fill="white" stroke="black" stroke-width="3"/>
<path d="M618.312 163.511L623.773 185.789L197.186 38.8936L184.051 10.9113L329.016 58.3459L327.928 61.6724L327.462 63.098L328.887 63.5645L399.915 86.8059L399.931 86.8109L618.312 163.511Z" fill="white" stroke="black" stroke-width="3"/>
<path d="M605.771 141.006L612.778 162.176L329.826 62.8565L330.896 60.5025L334.423 57.2342L337.921 54.312L341.795 52.0119L605.771 141.006Z" fill="white" stroke="black" stroke-width="3"/>
<path d="M149.525 311.583L86.7917 291.056L175.369 90.1396L241.384 111.741L149.525 311.583Z" fill="white" stroke="black" stroke-width="3"/>
<path d="M102.865 228.976L93.3494 225.863L105.156 197.109L115.105 200.364L102.865 228.976Z" fill="white" stroke="black" stroke-width="3"/>
<path d="M93.1553 218.751L93.2517 216.211L103.261 193.073L103.272 195.101L93.1553 218.751Z" fill="white" stroke="black" stroke-width="3"/>
<path d="M115.416 197.308L106.173 194.284L105.648 188.851L114.892 191.876L115.416 197.308Z" fill="white" stroke="black" stroke-width="3"/>
<rect x="74.6948" y="131.376" width="11" height="58" transform="rotate(-71.8811 74.6948 131.376)" fill="white" stroke="black" stroke-width="3"/>
<rect x="79.0484" y="118.07" width="14" height="58" transform="rotate(-71.8811 79.0484 118.07)" fill="white" stroke="black" stroke-width="3"/>
<path d="M72.111 129.622L60.8541 119.006L65.9623 103.395L80.5487 103.835L72.111 129.622Z" fill="white" stroke="black" stroke-width="3"/>
<path d="M57.7754 102.692L62.5274 104.247L58.4846 116.602L53.7325 115.047L57.7754 102.692Z" fill="white" stroke="black" stroke-width="3"/>
<path d="M50.3281 99.7287L55.0802 101.284L51.0373 113.639L46.2853 112.084L50.3281 99.7287Z" fill="white" stroke="black" stroke-width="3"/>
<path d="M42.291 98.5627L47.0431 100.118L43.8656 109.828L39.1135 108.273L42.291 98.5627Z" fill="white" stroke="black" stroke-width="3"/>
<path d="M37.3233 97.6693L39.2241 98.2913L36.4793 106.68L34.5785 106.058L37.3233 97.6693Z" fill="white" stroke="black" stroke-width="3"/>
<path d="M32.6192 95.9698L34.52 96.5917L31.9915 104.319L30.0907 103.697L32.6192 95.9698Z" fill="white" stroke="black" stroke-width="3"/>
<path d="M27.961 94.1253L29.8618 94.7472L27.766 101.152L25.8652 100.53L27.961 94.1253Z" fill="white" stroke="black" stroke-width="3"/>
<path d="M22.9923 93.2315L24.8931 93.8534L23.23 98.9361L21.3291 98.3141L22.9923 93.2315Z" fill="white" stroke="black" stroke-width="3"/>
<path d="M18.5518 90.7266L20.4527 91.3486L18.7895 96.4312L16.8887 95.8092L18.5518 90.7266Z" fill="white" stroke="black" stroke-width="3"/>
<path d="M14.8438 89.1936L15.7942 89.5046L14.5638 93.2649L13.6134 92.954L14.8438 89.1936Z" fill="white" stroke="black" stroke-width="3"/>
<path d="M458.795 166.572C462.038 167.633 463.702 170.869 462.787 173.665C461.872 176.461 458.618 178.088 455.374 177.026C452.13 175.965 450.467 172.729 451.382 169.933C452.297 167.137 455.551 165.511 458.795 166.572Z" fill="white" stroke="black" stroke-width="3"/>
<path d="M577.376 136.983C580.7 138.07 583.539 139.402 585.44 140.645C586.399 141.273 587.046 141.83 587.403 142.266C587.445 142.317 587.48 142.362 587.51 142.403C587.462 142.418 587.407 142.434 587.343 142.45C586.797 142.59 585.946 142.657 584.801 142.596C582.534 142.476 579.456 141.872 576.132 140.784C572.809 139.697 569.969 138.364 568.069 137.121C567.11 136.494 566.463 135.937 566.105 135.501C566.064 135.45 566.029 135.405 565.999 135.364C566.047 135.349 566.102 135.333 566.166 135.317C566.712 135.177 567.563 135.109 568.708 135.17C570.975 135.291 574.053 135.895 577.376 136.983ZM587.662 142.669C587.661 142.669 587.66 142.666 587.659 142.659C587.661 142.666 587.662 142.669 587.662 142.669ZM587.781 142.284C587.787 142.28 587.79 142.277 587.79 142.277C587.79 142.278 587.788 142.28 587.781 142.284ZM565.847 135.098C565.847 135.098 565.849 135.101 565.85 135.108C565.847 135.101 565.847 135.097 565.847 135.098ZM565.727 135.482C565.722 135.487 565.719 135.489 565.719 135.489C565.719 135.489 565.721 135.487 565.727 135.482Z" fill="black" stroke="black" stroke-width="3"/>
<path d="M156.973 98.4583C158.304 95.2245 159.844 92.4922 161.225 90.6896C161.922 89.7794 162.526 89.1761 162.987 88.8516C163.04 88.8139 163.088 88.7823 163.131 88.7559C163.143 88.8047 163.154 88.8609 163.166 88.9255C163.265 89.4805 163.269 90.3341 163.123 91.4713C162.834 93.7234 162.003 96.7476 160.671 99.9814C159.34 103.215 157.8 105.947 156.419 107.75C155.722 108.66 155.118 109.264 154.657 109.588C154.604 109.626 154.556 109.657 154.513 109.684C154.501 109.635 154.49 109.579 154.478 109.514C154.379 108.959 154.375 108.106 154.521 106.968C154.81 104.716 155.641 101.692 156.973 98.4583ZM163.408 88.6242C163.408 88.6244 163.404 88.6253 163.397 88.626C163.405 88.6242 163.408 88.6239 163.408 88.6242ZM163.033 88.476C163.029 88.4706 163.027 88.4674 163.027 88.4672C163.027 88.4669 163.029 88.4696 163.033 88.476ZM154.236 109.816C154.236 109.815 154.24 109.814 154.247 109.814C154.239 109.815 154.236 109.816 154.236 109.816ZM154.611 109.964C154.615 109.969 154.617 109.972 154.617 109.972C154.617 109.973 154.615 109.97 154.611 109.964Z" fill="black" stroke="black" stroke-width="3"/>
<path d="M456.225 102.075L454.445 94.6534L485.334 104.761L488.54 112.649" stroke="black" stroke-width="3"/>
<path d="M441.611 359.779L243.947 289.912L275.685 219.239L481.309 286.522L441.611 359.779Z" fill="black" stroke="black" stroke-width="3"/>
<path d="M299.771 231.328C307.823 233.963 312.162 241.692 309.984 248.349C307.806 255.005 299.738 258.674 291.685 256.039C283.633 253.404 279.294 245.675 281.472 239.019C283.65 232.363 291.719 228.694 299.771 231.328Z" fill="white" stroke="black" stroke-width="3"/>
<path d="M432.207 276.767C440.259 279.402 444.598 287.131 442.42 293.788C440.242 300.444 432.173 304.113 424.121 301.478C416.069 298.843 411.73 291.114 413.908 284.458C416.086 277.802 424.155 274.133 432.207 276.767Z" fill="white" stroke="black" stroke-width="3"/>
<path d="M299.494 238.604C306.468 240.886 310.202 247.682 308.273 253.576C306.344 259.47 299.315 262.745 292.341 260.463C285.367 258.181 281.634 251.384 283.562 245.491C285.491 239.597 292.52 236.322 299.494 238.604Z" fill="white" stroke="black" stroke-width="3"/>
<path d="M432.553 282.141C439.527 284.423 443.26 291.22 441.332 297.114C439.403 303.008 432.374 306.283 425.4 304.001C418.426 301.719 414.692 294.922 416.621 289.028C418.549 283.134 425.578 279.859 432.553 282.141Z" fill="white" stroke="black" stroke-width="3"/>
<path d="M299.84 243.977C305.67 245.885 308.815 251.92 307.029 257.377C305.244 262.835 299.139 265.843 293.31 263.936C287.48 262.028 284.335 255.993 286.12 250.536C287.906 245.078 294.011 242.07 299.84 243.977Z" fill="white" stroke="black" stroke-width="3"/>
<path d="M432.276 289.417C438.105 291.324 441.251 297.36 439.465 302.817C437.679 308.274 431.574 311.283 425.745 309.375C419.916 307.468 416.77 301.432 418.556 295.975C420.342 290.518 426.447 287.509 432.276 289.417Z" fill="white" stroke="black" stroke-width="3"/>
<path d="M397.187 307.396L296.443 274.431L316.187 235.141L417.357 269.779L397.187 307.396Z" fill="white" stroke="black" stroke-width="3"/>
<path d="M384.765 303.331L310.619 279.069L327.672 240.458L402.705 265.01L384.765 303.331Z" fill="white" stroke="black" stroke-width="3"/>
<path d="M410.522 228.097L413.165 220.019L385.128 210.844L387.616 203.241L358.698 206.405L379.686 227.477L382.485 218.923L410.522 228.097Z" fill="white" stroke="black" stroke-width="3"/>
<path d="M134.977 147.122L132.593 147.366L139.554 126.092L141.383 127.744L143.384 130.464L138.396 145.707L134.977 147.122Z" fill="black" stroke="black" stroke-width="3"/>
<path d="M1161.21 1604.28L1148.61 1628.16L1115.94 1690.06L1108.38 1697.95L1095.89 1706.62L1082.17 1710.12L1070.11 1709.41L1055 1704.83L1042.18 1698.06L1036.78 1689L1029.46 1676.09L1026.64 1662.16L1027.82 1649.21L1030.51 1638.76L1034.71 1630.8L1042.05 1622.24L1051.14 1615.73L1062.83 1612.85L1074.48 1612.21L1090.59 1611.67L1104.01 1611.97L1116.33 1611.12L1121.68 1611.69L1134.28 1587.81L1138.71 1590.14L1192.1 1491.11L1212 1501.61L1159.49 1601.11L1161.21 1604.28Z" fill="white"/>
<path d="M1159.49 1601.11L1134.28 1587.81L1121.68 1611.69L1116.33 1611.12L1104.01 1611.97L1090.59 1611.67L1074.48 1612.21L1062.83 1612.85L1051.14 1615.73L1042.05 1622.24L1034.71 1630.8L1030.51 1638.76L1027.82 1649.21L1026.64 1662.16L1029.46 1676.09L1036.78 1689L1042.18 1698.06L1055 1704.83L1070.11 1709.41L1082.17 1710.12L1095.89 1706.62L1108.38 1697.95L1115.94 1690.06L1148.61 1628.16L1161.21 1604.28L1159.49 1601.11ZM1159.49 1601.11L1212 1501.61L1192.1 1491.11L1138.47 1590.58" stroke="black" stroke-width="3"/>
<circle cx="1083.3" cy="1638.35" r="75.1175" transform="rotate(27.8231 1083.3 1638.35)" fill="black" stroke="black" stroke-width="2.76506"/>
<circle cx="954.644" cy="1589.68" r="81.5" transform="rotate(27.8231 954.644 1589.68)" fill="black" stroke="black" stroke-width="3"/>
<path d="M1029.84 1546.82L1017.24 1570.7L984.567 1632.61L977.013 1640.49L964.521 1649.16L950.801 1652.67L938.739 1651.95L923.631 1647.37L910.807 1640.6L905.415 1631.54L898.094 1618.63L895.268 1604.7L896.447 1591.75L899.137 1581.3L903.338 1573.34L910.683 1564.78L919.772 1558.27L931.466 1555.4L943.11 1554.76L959.226 1554.22L972.639 1554.51L984.959 1553.66L990.314 1554.23L1002.92 1530.35L1007.34 1532.68L1060.73 1433.66L1080.63 1444.16L1028.12 1543.65L1029.84 1546.82Z" fill="white"/>
<path d="M1028.12 1543.65L1002.92 1530.35L990.314 1554.23L984.959 1553.66L972.639 1554.51L959.226 1554.22L943.11 1554.76L931.466 1555.4L919.772 1558.27L910.683 1564.78L903.338 1573.34L899.137 1581.3L896.447 1591.75L895.268 1604.7L898.094 1618.63L905.415 1631.54L910.807 1640.6L923.631 1647.37L938.739 1651.95L950.801 1652.67L964.521 1649.16L977.013 1640.49L984.567 1632.61L1017.24 1570.7L1029.84 1546.82L1028.12 1543.65ZM1028.12 1543.65L1080.63 1444.16L1060.73 1433.66L1007.1 1533.12" stroke="black" stroke-width="3"/>
<path d="M977.172 1623.05C967.264 1641.82 943.594 1648.86 924.269 1638.66C904.945 1628.46 897.397 1604.95 907.305 1586.18C917.213 1567.4 940.884 1560.37 960.208 1570.56C979.533 1580.76 987.08 1604.28 977.172 1623.05Z" fill="white" stroke="black" stroke-width="3"/>
<path d="M1055.92 1428.85L1087.31 1445.42L1094.31 1432.16L1099.68 1421.99L1104.35 1413.14L1114.47 1400.39L1125.08 1385.64L1136.34 1371.8L1143.04 1362.33L1152.9 1351.14L1165.26 1338.43L1178.76 1324.64L1189.92 1315.27L1200.41 1306.1L1207.68 1300.9L1218.33 1294.64L1226.93 1290.14L1236.65 1285.65L1244.94 1284.94L1251.83 1286.88L1262.44 1292.48L1265.72 1295.91L1272.02 1304.32L1273.55 1316.43L1274.05 1324.05L1273.73 1338.58L1272.94 1354L1272.26 1364.94L1212.23 1501.17L1223.29 1507.01L1254.26 1440.81L1268.36 1409.81L1275.23 1392.52L1280.98 1375.2L1283.61 1357.36L1284.09 1345.74L1283.78 1329.18L1283.53 1320.01L1282.5 1305.89L1273.69 1289.37L1266.09 1279.14L1247.91 1271.81L1237.43 1270.24L1225.58 1270.2L1212.33 1272.82L1192.69 1281.11L1174.32 1292.34L1153.18 1307.75L1135.82 1324.59L1119.36 1340.78L1105.83 1355.69L1092.03 1373.28L1078.69 1389.99L1068.28 1405.42L1055.92 1428.85Z" fill="white"/>
<path d="M1087.31 1445.42L1055.92 1428.85L1068.28 1405.42L1078.69 1389.99L1092.03 1373.28L1105.83 1355.69L1119.36 1340.78L1135.82 1324.59L1153.18 1307.75L1174.32 1292.34L1192.69 1281.11L1212.33 1272.82L1225.58 1270.2L1237.43 1270.24L1247.91 1271.81L1266.09 1279.14L1273.69 1289.37L1282.5 1305.89L1283.53 1320.01L1283.78 1329.18L1284.09 1345.74L1283.61 1357.36L1280.98 1375.2L1275.23 1392.52L1268.36 1409.81L1254.26 1440.81L1223.29 1507.01L1212.23 1501.17L1272.26 1364.94L1272.94 1354L1273.73 1338.58L1274.05 1324.05L1273.55 1316.43L1272.02 1304.32L1265.72 1295.91L1262.44 1292.48L1251.83 1286.88L1244.94 1284.94L1236.65 1285.65L1226.93 1290.14L1218.33 1294.64L1207.68 1300.9L1200.41 1306.1L1189.92 1315.27L1178.76 1324.64L1165.26 1338.43L1152.9 1351.14L1143.04 1362.33L1136.34 1371.8L1125.08 1385.64L1114.47 1400.39L1104.35 1413.14L1099.68 1421.99L1094.31 1432.16L1086.61 1446.75" stroke="black" stroke-width="3"/>
<path d="M1245.74 1360.56L1190.12 1489.5L1213.56 1501.87L1263.94 1387.12L1272.07 1363.15L1271.77 1305.88L1263.51 1294.74L1249.8 1287.51L1251.56 1299.18L1252.3 1306.35L1251.96 1311.26L1251.74 1321.32L1251.34 1329.59L1250 1339.62L1248.19 1350.54L1245.74 1360.56Z" fill="white" stroke="black" stroke-width="3"/>
<path d="M585.5 267L725 326L776 339L889.5 348.5L1069.5 371.5L1121.5 382.5L1156.5 396L1185.5 413L1216 437L1248.5 463.5L1267.5 487.5L1284.5 512L1296.5 538.5L1305 562.5V588V622L1296.5 647L1284.5 682.5L1267.5 734L1248.5 784L1238.5 815L1216 833.5L1185.5 848L1162.5 845.5L1137 833.5L1115.5 817.5L1103.5 791V767L1115.5 734L1127.5 716L1156.5 698H1185.5H1209.5L1230.5 706.5L1248.5 716L1277.5 742.5L1289.5 754.5L1296.5 767L1305 780.5L1308.5 793.5V808.5L1305 821.5L1302 833.5L1296.5 845.5L1289.5 853L1277.5 861L1248.5 874L1220.5 881L1189 889.5L1147 902.5L1115.5 911.5L1087.5 921L1070 929L1049 940L1029 951L1012.5 959.5L985 978L965 989L939 1002.5L917 1009L891.5 1016H866.5H840H820L790.5 1002.5L769 989L749 978L735.5 970.5L723 959.5L699.5 940L681.5 929L666.5 917.5L648.5 902.5L630 895.5L598 881L584 870.5L564 855L549 848L526.5 835.5L495.5 824L463 819L426 824L398.5 831L376.5 835.5L355 855L345 870.5L335 902.5V917.5V940L345 959.5L361.5 978L384 989L411.5 994H435.5L459.5 989L484.5 978L495.5 959.5L501 940V912V888.5L495.5 870.5L481 848L446.5 805.5L426 798.5L403 793H376.5L345 798.5L294.5 805.5L254 819L221.5 831L168.5 855L131 888.5L100.5 928L81.5 963.5L64 998.5L51 1031.5L41.5 1066.5V1093V1118V1141V1290L51 1345L73 1379.5L90.5 1407.5L102 1421L110.5 1429.5L123.5 1451L135 1464L147.5 1473.5L164.5 1482.5L188 1493L216 1504.5L248 1515L296 1530L349 1540.5L390 1549.5L422.5 1555L461.5 1559.5H483.5L501 1564H519.5L536.5 1569.5L562 1577L582 1585L609 1600L638.5 1614.5L655 1623L664.5 1630.5L679.5 1641L690.5 1650.5L704.5 1661.5L722 1673L736 1683.5L752.5 1689L767 1693L795 1697L826.5 1701.5H846H861L886 1693L899.5 1683.5L908 1673.5" stroke="#DDFA42" stroke-width="8"/>
<path d="M13 91L6.5 83L4 76V69.5L9 64.5H16.5H22.5L30.5 67L45.5 72L137.5 104L139.5 105" stroke="#DDFA42" stroke-width="7"/>
<path d="M905.085 1671.51L915.757 1645.48L926.147 1650.96L911.481 1674.88L905.085 1671.51Z" fill="white" stroke="black" stroke-width="3"/>
</svg>
