<svg width="1464" height="1149" viewBox="0 0 1464 1149" fill="none" xmlns="http://www.w3.org/2000/svg">
<g clip-path="url(#clip0_696_6)">
<rect width="1464" height="1149" fill="white"/>
<rect width="1836.11" height="726.61" transform="matrix(0.943172 0.332306 0.332306 -0.943172 -156.031 685.318)" fill="#DDFA42"/>
<ellipse cx="944.753" cy="145.613" rx="32.6322" ry="33.7199" transform="rotate(160.591 944.753 145.613)" fill="white"/>
<ellipse cx="32.6322" cy="33.7199" rx="32.6322" ry="33.7199" transform="matrix(0.822847 0.568263 0.568263 -0.822847 191.805 839.354)" fill="white"/>
<ellipse cx="32.6322" cy="33.7199" rx="32.6322" ry="33.7199" transform="matrix(0.822847 0.568263 0.568263 -0.822847 475 171.493)" fill="white"/>
<path d="M390.705 397.03L418.405 406.79" stroke="black" stroke-width="10.8774"/>
<path d="M298.75 643.767L326.745 652.645" stroke="black" stroke-width="10.8774"/>
<path d="M73.0808 682.726H72.8978L72.7215 682.677L19.3752 667.884L19.2522 667.85L19.1378 667.793L-27.0358 644.93L-27.0473 644.925L-27.0588 644.919L-120.201 596.556L-162.031 583.206H-209.152L-255.858 596.551L-301.199 625L-334.571 671.276L-359.118 732.42L-372.97 803.469L-375.654 879.517L-372.523 947.048L-360.478 1005.49L-335.486 1054.58L-321.259 1076.81L-301.221 1096.41L-301.196 1096.43L-282.447 1113.84L-263.386 1128.02L-215.77 1145.38L-190.901 1147.6H-167.26L-141.902 1145.38L-120.974 1139.14L-120.963 1139.14L-69.9712 1123.48L-26.134 1102.01L-26.1107 1102L-26.087 1101.99L5.29312 1088.09L5.34247 1088.07L5.3934 1088.05L32.2907 1078.64L32.462 1078.58L32.6431 1078.57L65.3548 1076.33L65.3681 1076.33L88.2175 1074.53L88.3857 1074.52L88.552 1074.55L111.863 1078.58L111.965 1078.6L112.063 1078.63L154.628 1092.97L154.65 1092.98L198.015 1105.94L241.306 1113.53H294.879L343.525 1105.94L371.052 1096.62L391.045 1083.74L391.065 1083.72L411.404 1069.57L416.999 1059.24L419.586 1048.9L418.292 1038.98L416.212 1033.16L411.74 1029.09L402.76 1026.1L389.081 1025.22H343.847H343.747L343.649 1025.2L322.579 1022.07L322.492 1022.05L322.408 1022.03L303.58 1016.65L303.37 1016.59L303.19 1016.47L286.155 1004.81L286.043 1004.73L285.949 1004.64L271.156 989.395L270.986 989.22L270.889 988.997L264.612 974.652L264.5 974.394V974.113V958.871V958.674L264.556 958.485L267.246 949.519L267.285 949.391L267.348 949.273L270.934 942.548L270.941 942.535L270.948 942.522L274.983 935.349L275.061 935.21L275.17 935.094L280.363 929.5L227 822.774L208.636 790.077L208.464 789.77V789.419V759.832V759.684L208.496 759.54L211.186 747.436L211.221 747.274L211.295 747.126L216.227 737.264L216.394 736.929L216.711 736.729L247.194 717.452L247.318 717.374L247.455 717.325L273.456 707.911L273.504 707.893L273.554 707.879L281.358 705.711L287.853 700.515L293.482 695.753L297.282 688.997L298.549 681.395L297.282 674.642L294.357 668.791L289.659 664.947L283.588 660.177L276.651 658.009L276.585 657.989L276.522 657.962L270.354 655.318L262.922 653.569L247.818 651.792L211.639 650.899L200.564 651.785L190.469 653.541L171.786 661.548L171.754 661.562L171.721 661.574L137.651 674.126L137.575 674.154L137.497 674.172L101.634 682.69L101.48 682.726H101.323H73.0808Z" fill="black"/>
<path d="M73.0808 682.726H72.8978L72.7215 682.677L19.3752 667.884L19.2522 667.85L19.1378 667.793L-27.0358 644.93L-27.0473 644.925L-27.0588 644.919L-120.201 596.556L-162.031 583.206H-209.152L-255.858 596.551L-301.199 625L-334.571 671.276L-359.118 732.42L-372.97 803.469L-375.654 879.517L-372.523 947.048L-360.478 1005.49L-335.486 1054.58L-321.259 1076.81L-301.221 1096.41L-301.196 1096.43L-282.447 1113.84L-263.386 1128.02L-215.77 1145.38L-190.901 1147.6H-167.26L-141.902 1145.38L-120.974 1139.14L-120.963 1139.14L-69.9712 1123.48L-26.134 1102.01L-26.1107 1102L-26.087 1101.99L5.29312 1088.09L5.34247 1088.07L5.3934 1088.05L32.2907 1078.64L32.462 1078.58L32.6431 1078.57L65.3548 1076.33L65.3681 1076.33L88.2175 1074.53L88.3857 1074.52L88.552 1074.55L111.863 1078.58L111.965 1078.6L112.063 1078.63L154.628 1092.97L154.65 1092.98L198.015 1105.94L241.306 1113.53H294.879L343.525 1105.94L371.052 1096.62L391.045 1083.74L391.065 1083.72L411.404 1069.57L416.999 1059.24L419.586 1048.9L418.292 1038.98L416.212 1033.16L411.74 1029.09L402.76 1026.1L389.081 1025.22H343.847H343.747L343.649 1025.2L322.579 1022.07L322.492 1022.05L322.408 1022.03L303.58 1016.65L303.37 1016.59L303.19 1016.47L286.155 1004.81L286.043 1004.73L285.949 1004.64L271.156 989.395L270.986 989.22L270.889 988.997L264.612 974.652L264.5 974.394V974.113V958.871V958.674L264.556 958.485L267.246 949.519L267.285 949.391L267.348 949.273L270.934 942.548L270.941 942.535L270.948 942.522L274.983 935.349L275.061 935.21L275.17 935.094L280.363 929.5L227 822.774L208.636 790.077L208.464 789.77V789.419V759.832V759.684L208.496 759.54L211.186 747.436L211.221 747.274L211.295 747.126L216.227 737.264L216.394 736.929L216.711 736.729L247.194 717.452L247.318 717.374L247.455 717.325L273.456 707.911L273.504 707.893L273.554 707.879L281.358 705.711L287.853 700.515L293.482 695.753L297.282 688.997L298.549 681.395L297.282 674.642L294.357 668.791L289.659 664.947L283.588 660.177L276.651 658.009L276.585 657.989L276.522 657.962L270.354 655.318L262.922 653.569L247.818 651.792L211.639 650.899L200.564 651.785L190.469 653.541L171.786 661.548L171.754 661.562L171.721 661.574L137.651 674.126L137.575 674.154L137.497 674.172L101.634 682.69L101.48 682.726H101.323H73.0808Z" stroke="black" stroke-width="2.68973"/>
<path d="M73.0808 682.726H72.8978L72.7215 682.677L19.3752 667.884L19.2522 667.85L19.1378 667.793L-27.0358 644.93L-27.0473 644.925L-27.0588 644.919L-120.201 596.556L-162.031 583.206H-209.152L-255.858 596.551L-301.199 625L-334.571 671.276L-359.118 732.42L-372.97 803.469L-375.654 879.517L-372.523 947.048L-360.478 1005.49L-335.486 1054.58L-321.259 1076.81L-301.221 1096.41L-301.196 1096.43L-282.447 1113.84L-263.386 1128.02L-215.77 1145.38L-190.901 1147.6H-167.26L-141.902 1145.38L-120.974 1139.14L-120.963 1139.14L-69.9712 1123.48L-26.134 1102.01L-26.1107 1102L-26.087 1101.99L5.29312 1088.09L5.34247 1088.07L5.3934 1088.05L32.2907 1078.64L32.462 1078.58L32.6431 1078.57L65.3548 1076.33L65.3681 1076.33L88.2175 1074.53L88.3857 1074.52L88.552 1074.55L111.863 1078.58L111.965 1078.6L112.063 1078.63L154.628 1092.97L154.65 1092.98L198.015 1105.94L241.306 1113.53H294.879L343.525 1105.94L371.052 1096.62L391.045 1083.74L391.065 1083.72L411.404 1069.57L416.999 1059.24L419.586 1048.9L418.292 1038.98L416.212 1033.16L411.74 1029.09L402.76 1026.1L389.081 1025.22H343.847H343.747L343.649 1025.2L322.579 1022.07L322.492 1022.05L322.408 1022.03L303.58 1016.65L303.37 1016.59L303.19 1016.47L286.155 1004.81L286.043 1004.73L285.949 1004.64L271.156 989.395L270.986 989.22L270.889 988.997L264.612 974.652L264.5 974.394V974.113V958.871V958.674L264.556 958.485L267.246 949.519L267.285 949.391L267.348 949.273L270.934 942.548L270.941 942.535L270.948 942.522L274.983 935.349L275.061 935.21L275.17 935.094L280.363 929.5L227 822.774L208.636 790.077L208.464 789.77V789.419V759.832V759.684L208.496 759.54L211.186 747.436L211.221 747.274L211.295 747.126L216.227 737.264L216.394 736.929L216.711 736.729L247.194 717.452L247.318 717.374L247.455 717.325L273.456 707.911L273.504 707.893L273.554 707.879L281.358 705.711L287.853 700.515L293.482 695.753L297.282 688.997L298.549 681.395L297.282 674.642L294.357 668.791L289.659 664.947L283.588 660.177L276.651 658.009L276.585 657.989L276.522 657.962L270.354 655.318L262.922 653.569L247.818 651.792L211.639 650.899L200.564 651.785L190.469 653.541L171.786 661.548L171.754 661.562L171.721 661.574L137.651 674.126L137.575 674.154L137.497 674.172L101.634 682.69L101.48 682.726H101.323H73.0808Z" stroke="black" stroke-width="2.68973"/>
<path d="M-129.545 942.733V942.963L-129.622 943.18L-132.288 950.735L-134.899 961.612L-132.256 977.908L-129.599 991.192L-123.922 1004.29L-109.436 1019.66L-91.9344 1029.28L-73.0625 1031.04L-54.4031 1029.26L-43.3389 1027.49L2.71873 1012.74L91.4606 981.362L91.5208 981.341L91.5827 981.326L107.721 977.291L107.734 977.288L107.748 977.285L123.438 973.698L123.508 973.682L123.58 973.674L138.822 971.881L138.9 971.871H138.979H156.911H157.032L157.151 971.893L167.014 973.686L167.186 973.718L167.346 973.793L174.943 977.368L192.787 984.952L204.305 988.496L213.395 990.227L222.337 988.524L234.35 981.659L240.292 970.199V953.209L234.082 928.369L188.847 822.222L188.829 822.182L188.815 822.14L179.849 796.588L179.825 796.519L179.808 796.448L176.67 783L176.635 782.849V782.694V754.9V754.682L176.704 754.475L178.497 749.095L178.5 749.087L178.503 749.079L182.089 738.768L182.108 738.715L182.131 738.664L185.717 730.595L185.74 730.543L185.767 730.493L190.699 721.527L190.761 721.414L190.844 721.314L195.327 715.935L195.507 715.719L195.758 715.593L202.035 712.455L202.107 712.419L202.183 712.391L250.683 695.038L256.879 687.19V677.483L250.842 671.848L241.927 669.726H231.326H221.622L212.396 671.922L174.363 683.108L151.987 691.164L151.929 691.185L151.869 691.2L127.661 697.476L127.596 697.493L127.53 697.503L101.529 701.538L101.414 701.556L101.298 701.554L3.57152 699.761L3.40399 699.758L3.24232 699.713L-21.4135 692.989L-21.4688 692.974L-21.5226 692.954L-48.4199 683.092L-48.508 683.06L-48.5909 683.015L-74.5915 669.118L-74.6169 669.105L-74.6418 669.09L-94.3664 657.435L-94.3894 657.421L-94.4119 657.407L-115.898 643.53L-138.672 630.58L-151.412 624.869L-165.025 623.552H-173.132L-181.778 628.307L-189.197 632.672L-195.637 639.97L-199.541 649.078L-201.237 656.285L-199.567 663.798L-186.716 682.41L-186.711 682.417L-186.706 682.425L-163.843 716.495L-163.826 716.52L-163.81 716.547L-154.844 731.34L-154.812 731.393L-154.785 731.449L-146.716 748.036L-146.709 748.049L-146.703 748.063L-139.082 764.649L-139.047 764.726L-139.022 764.806L-133.642 781.841L-133.61 781.942L-133.595 782.046L-129.56 808.944L-129.545 809.043V809.143V942.733Z" fill="white"/>
<path d="M-129.545 942.733V942.963L-129.622 943.18L-132.288 950.735L-134.899 961.612L-132.256 977.908L-129.599 991.192L-123.922 1004.29L-109.436 1019.66L-91.9344 1029.28L-73.0625 1031.04L-54.4031 1029.26L-43.3389 1027.49L2.71873 1012.74L91.4606 981.362L91.5208 981.341L91.5827 981.326L107.721 977.291L107.734 977.288L107.748 977.285L123.438 973.698L123.508 973.682L123.58 973.674L138.822 971.881L138.9 971.871H138.979H156.911H157.032L157.151 971.893L167.014 973.686L167.186 973.718L167.346 973.793L174.943 977.368L192.787 984.952L204.305 988.496L213.395 990.227L222.337 988.524L234.35 981.659L240.292 970.199V953.209L234.082 928.369L188.847 822.222L188.829 822.182L188.815 822.14L179.849 796.588L179.825 796.519L179.808 796.448L176.67 783L176.635 782.849V782.694V754.9V754.682L176.704 754.475L178.497 749.095L178.5 749.087L178.503 749.079L182.089 738.768L182.108 738.715L182.131 738.664L185.717 730.595L185.74 730.543L185.767 730.493L190.699 721.527L190.761 721.414L190.844 721.314L195.327 715.935L195.507 715.719L195.758 715.593L202.035 712.455L202.107 712.419L202.183 712.391L250.683 695.038L256.879 687.19V677.483L250.842 671.848L241.927 669.726H231.326H221.622L212.396 671.922L174.363 683.108L151.987 691.164L151.929 691.185L151.869 691.2L127.661 697.476L127.596 697.493L127.53 697.503L101.529 701.538L101.414 701.556L101.298 701.554L3.57152 699.761L3.40399 699.758L3.24232 699.713L-21.4135 692.989L-21.4688 692.974L-21.5226 692.954L-48.4199 683.092L-48.508 683.06L-48.5909 683.015L-74.5915 669.118L-74.6169 669.105L-74.6418 669.09L-94.3664 657.435L-94.3894 657.421L-94.4119 657.407L-115.898 643.53L-138.672 630.58L-151.412 624.869L-165.025 623.552H-173.132L-181.778 628.307L-189.197 632.672L-195.637 639.97L-199.541 649.078L-201.237 656.285L-199.567 663.798L-186.716 682.41L-186.711 682.417L-186.706 682.425L-163.843 716.495L-163.826 716.52L-163.81 716.547L-154.844 731.34L-154.812 731.393L-154.785 731.449L-146.716 748.036L-146.709 748.049L-146.703 748.063L-139.082 764.649L-139.047 764.726L-139.022 764.806L-133.642 781.841L-133.61 781.942L-133.595 782.046L-129.56 808.944L-129.545 809.043V809.143V942.733Z" stroke="black" stroke-width="2.68973"/>
<path d="M-129.545 942.733V942.963L-129.622 943.18L-132.288 950.735L-134.899 961.612L-132.256 977.908L-129.599 991.192L-123.922 1004.29L-109.436 1019.66L-91.9344 1029.28L-73.0625 1031.04L-54.4031 1029.26L-43.3389 1027.49L2.71873 1012.74L91.4606 981.362L91.5208 981.341L91.5827 981.326L107.721 977.291L107.734 977.288L107.748 977.285L123.438 973.698L123.508 973.682L123.58 973.674L138.822 971.881L138.9 971.871H138.979H156.911H157.032L157.151 971.893L167.014 973.686L167.186 973.718L167.346 973.793L174.943 977.368L192.787 984.952L204.305 988.496L213.395 990.227L222.337 988.524L234.35 981.659L240.292 970.199V953.209L234.082 928.369L188.847 822.222L188.829 822.182L188.815 822.14L179.849 796.588L179.825 796.519L179.808 796.448L176.67 783L176.635 782.849V782.694V754.9V754.682L176.704 754.475L178.497 749.095L178.5 749.087L178.503 749.079L182.089 738.768L182.108 738.715L182.131 738.664L185.717 730.595L185.74 730.543L185.767 730.493L190.699 721.527L190.761 721.414L190.844 721.314L195.327 715.935L195.507 715.719L195.758 715.593L202.035 712.455L202.107 712.419L202.183 712.391L250.683 695.038L256.879 687.19V677.483L250.842 671.848L241.927 669.726H231.326H221.622L212.396 671.922L174.363 683.108L151.987 691.164L151.929 691.185L151.869 691.2L127.661 697.476L127.596 697.493L127.53 697.503L101.529 701.538L101.414 701.556L101.298 701.554L3.57152 699.761L3.40399 699.758L3.24232 699.713L-21.4135 692.989L-21.4688 692.974L-21.5226 692.954L-48.4199 683.092L-48.508 683.06L-48.5909 683.015L-74.5915 669.118L-74.6169 669.105L-74.6418 669.09L-94.3664 657.435L-94.3894 657.421L-94.4119 657.407L-115.898 643.53L-138.672 630.58L-151.412 624.869L-165.025 623.552H-173.132L-181.778 628.307L-189.197 632.672L-195.637 639.97L-199.541 649.078L-201.237 656.285L-199.567 663.798L-186.716 682.41L-186.711 682.417L-186.706 682.425L-163.843 716.495L-163.826 716.52L-163.81 716.547L-154.844 731.34L-154.812 731.393L-154.785 731.449L-146.716 748.036L-146.709 748.049L-146.703 748.063L-139.082 764.649L-139.047 764.726L-139.022 764.806L-133.642 781.841L-133.61 781.942L-133.595 782.046L-129.56 808.944L-129.545 809.043V809.143V942.733Z" stroke="black" stroke-width="2.68973"/>
<path d="M112.978 878.628C112.978 886.913 112.673 894.878 112.389 902.275C112.329 903.858 112.269 905.415 112.214 906.944C111.898 915.64 111.72 923.389 112.245 929.871C112.773 936.382 113.998 941.404 116.333 944.778C118.59 948.04 121.985 949.905 127.323 949.905C132.661 949.905 136.056 948.04 138.313 944.778C140.648 941.404 141.873 936.382 142.401 929.871C142.926 923.389 142.748 915.64 142.433 906.944C142.377 905.415 142.317 903.858 142.257 902.274C141.973 894.878 141.668 886.912 141.668 878.628C141.668 870.86 141.903 863.37 142.123 856.368C142.187 854.309 142.251 852.291 142.306 850.322C142.551 841.629 142.646 833.878 142.066 827.395C141.483 820.883 140.231 815.851 137.93 812.469C135.704 809.198 132.415 807.35 127.323 807.35C122.231 807.35 118.942 809.198 116.717 812.469C114.415 815.851 113.163 820.883 112.58 827.395C112 833.878 112.095 841.629 112.34 850.322C112.396 852.291 112.459 854.309 112.523 856.368C112.743 863.37 112.978 870.86 112.978 878.628Z" fill="white"/>
<path d="M112.978 878.628C112.978 886.913 112.673 894.878 112.389 902.275C112.329 903.858 112.269 905.415 112.214 906.944C111.898 915.64 111.72 923.389 112.245 929.871C112.773 936.382 113.998 941.404 116.333 944.778C118.59 948.04 121.985 949.905 127.323 949.905C132.661 949.905 136.056 948.04 138.313 944.778C140.648 941.404 141.873 936.382 142.401 929.871C142.926 923.389 142.748 915.64 142.433 906.944C142.377 905.415 142.317 903.858 142.257 902.274C141.973 894.878 141.668 886.912 141.668 878.628C141.668 870.86 141.903 863.37 142.123 856.368C142.187 854.309 142.251 852.291 142.306 850.322C142.551 841.629 142.646 833.878 142.066 827.395C141.483 820.883 140.231 815.851 137.93 812.469C135.704 809.198 132.415 807.35 127.323 807.35C122.231 807.35 118.942 809.198 116.717 812.469C114.415 815.851 113.163 820.883 112.58 827.395C112 833.878 112.095 841.629 112.34 850.322C112.396 852.291 112.459 854.309 112.523 856.368C112.743 863.37 112.978 870.86 112.978 878.628Z" stroke="black" stroke-width="2.68973"/>
<path d="M112.978 878.628C112.978 886.913 112.673 894.878 112.389 902.275C112.329 903.858 112.269 905.415 112.214 906.944C111.898 915.64 111.72 923.389 112.245 929.871C112.773 936.382 113.998 941.404 116.333 944.778C118.59 948.04 121.985 949.905 127.323 949.905C132.661 949.905 136.056 948.04 138.313 944.778C140.648 941.404 141.873 936.382 142.401 929.871C142.926 923.389 142.748 915.64 142.433 906.944C142.377 905.415 142.317 903.858 142.257 902.274C141.973 894.878 141.668 886.912 141.668 878.628C141.668 870.86 141.903 863.37 142.123 856.368C142.187 854.309 142.251 852.291 142.306 850.322C142.551 841.629 142.646 833.878 142.066 827.395C141.483 820.883 140.231 815.851 137.93 812.469C135.704 809.198 132.415 807.35 127.323 807.35C122.231 807.35 118.942 809.198 116.717 812.469C114.415 815.851 113.163 820.883 112.58 827.395C112 833.878 112.095 841.629 112.34 850.322C112.396 852.291 112.459 854.309 112.523 856.368C112.743 863.37 112.978 870.86 112.978 878.628Z" stroke="black" stroke-width="2.68973"/>
<path d="M13.2894 876.835C13.2894 885.12 12.9842 893.085 12.7009 900.482C12.6402 902.065 12.5805 903.623 12.5251 905.151C12.2097 913.847 12.0316 921.596 12.5568 928.078C13.0843 934.589 14.3096 939.611 16.6441 942.985C18.9012 946.247 22.2967 948.112 27.6346 948.112C32.9724 948.112 36.3678 946.247 38.625 942.985C40.9594 939.611 42.1847 934.589 42.7123 928.078C43.2374 921.596 43.0594 913.847 42.744 905.151C42.6886 903.622 42.6289 902.065 42.5683 900.481C42.2849 893.085 41.9798 885.119 41.9798 876.835C41.9798 869.067 42.2147 861.577 42.4343 854.575C42.4989 852.516 42.5621 850.498 42.6177 848.529C42.863 839.836 42.9578 832.085 42.3773 825.603C41.7942 819.09 40.5427 814.058 38.2411 810.676C36.0157 807.405 32.7268 805.557 27.6346 805.557C22.5424 805.557 19.2535 807.405 17.028 810.676C14.7265 814.058 13.475 819.09 12.8918 825.603C12.3114 832.085 12.4062 839.836 12.6515 848.529C12.707 850.498 12.7703 852.516 12.8349 854.575C13.0545 861.577 13.2894 869.067 13.2894 876.835Z" fill="white"/>
<path d="M13.2894 876.835C13.2894 885.12 12.9842 893.085 12.7009 900.482C12.6402 902.065 12.5805 903.623 12.5251 905.151C12.2097 913.847 12.0316 921.596 12.5568 928.078C13.0843 934.589 14.3096 939.611 16.6441 942.985C18.9012 946.247 22.2967 948.112 27.6346 948.112C32.9724 948.112 36.3678 946.247 38.625 942.985C40.9594 939.611 42.1847 934.589 42.7123 928.078C43.2374 921.596 43.0594 913.847 42.744 905.151C42.6886 903.622 42.6289 902.065 42.5683 900.481C42.2849 893.085 41.9798 885.119 41.9798 876.835C41.9798 869.067 42.2147 861.577 42.4343 854.575C42.4989 852.516 42.5621 850.498 42.6177 848.529C42.863 839.836 42.9578 832.085 42.3773 825.603C41.7942 819.09 40.5427 814.058 38.2411 810.676C36.0157 807.405 32.7268 805.557 27.6346 805.557C22.5424 805.557 19.2535 807.405 17.028 810.676C14.7265 814.058 13.475 819.09 12.8918 825.603C12.3114 832.085 12.4062 839.836 12.6515 848.529C12.707 850.498 12.7703 852.516 12.8349 854.575C13.0545 861.577 13.2894 869.067 13.2894 876.835Z" stroke="black" stroke-width="2.68973"/>
<path d="M13.2894 876.835C13.2894 885.12 12.9842 893.085 12.7009 900.482C12.6402 902.065 12.5805 903.623 12.5251 905.151C12.2097 913.847 12.0316 921.596 12.5568 928.078C13.0843 934.589 14.3096 939.611 16.6441 942.985C18.9012 946.247 22.2967 948.112 27.6346 948.112C32.9724 948.112 36.3678 946.247 38.625 942.985C40.9594 939.611 42.1847 934.589 42.7123 928.078C43.2374 921.596 43.0594 913.847 42.744 905.151C42.6886 903.622 42.6289 902.065 42.5683 900.481C42.2849 893.085 41.9798 885.119 41.9798 876.835C41.9798 869.067 42.2147 861.577 42.4343 854.575C42.4989 852.516 42.5621 850.498 42.6177 848.529C42.863 839.836 42.9578 832.085 42.3773 825.603C41.7942 819.09 40.5427 814.058 38.2411 810.676C36.0157 807.405 32.7268 805.557 27.6346 805.557C22.5424 805.557 19.2535 807.405 17.028 810.676C14.7265 814.058 13.475 819.09 12.8918 825.603C12.3114 832.085 12.4062 839.836 12.6515 848.529C12.707 850.498 12.7703 852.516 12.8349 854.575C13.0545 861.577 13.2894 869.067 13.2894 876.835Z" stroke="black" stroke-width="2.68973"/>
<path d="M122.841 951.251C122.841 953.251 123.384 955 124.191 956.211C125.004 957.43 125.979 957.975 126.875 957.975C127.771 957.975 128.747 957.43 129.56 956.211C130.367 955 130.91 953.251 130.91 951.251C130.91 949.251 130.367 947.501 129.56 946.291C128.747 945.071 127.771 944.527 126.875 944.527C125.979 944.527 125.004 945.071 124.191 946.291C123.384 947.501 122.841 949.251 122.841 951.251Z" fill="black"/>
<path d="M122.841 951.251C122.841 953.251 123.384 955 124.191 956.211C125.004 957.43 125.979 957.975 126.875 957.975C127.771 957.975 128.747 957.43 129.56 956.211C130.367 955 130.91 953.251 130.91 951.251C130.91 949.251 130.367 947.501 129.56 946.291C128.747 945.071 127.771 944.527 126.875 944.527C125.979 944.527 125.004 945.071 124.191 946.291C123.384 947.501 122.841 949.251 122.841 951.251Z" stroke="black" stroke-width="2.68973"/>
<path d="M122.841 951.251C122.841 953.251 123.384 955 124.191 956.211C125.004 957.43 125.979 957.975 126.875 957.975C127.771 957.975 128.747 957.43 129.56 956.211C130.367 955 130.91 953.251 130.91 951.251C130.91 949.251 130.367 947.501 129.56 946.291C128.747 945.071 127.771 944.527 126.875 944.527C125.979 944.527 125.004 945.071 124.191 946.291C123.384 947.501 122.841 949.251 122.841 951.251Z" stroke="black" stroke-width="2.68973"/>
<path d="M25.1143 951.251C25.1143 953.251 25.6571 955 26.464 956.211C27.2772 957.43 28.2529 957.975 29.1489 957.975C30.0448 957.975 31.0205 957.43 31.8337 956.211C32.6407 955 33.1835 953.251 33.1835 951.251C33.1835 949.251 32.6407 947.501 31.8337 946.291C31.0205 945.071 30.0448 944.527 29.1489 944.527C28.2529 944.527 27.2772 945.071 26.464 946.291C25.6571 947.501 25.1143 949.251 25.1143 951.251Z" fill="black"/>
<path d="M25.1143 951.251C25.1143 953.251 25.6571 955 26.464 956.211C27.2772 957.43 28.2529 957.975 29.1489 957.975C30.0448 957.975 31.0205 957.43 31.8337 956.211C32.6407 955 33.1835 953.251 33.1835 951.251C33.1835 949.251 32.6407 947.501 31.8337 946.291C31.0205 945.071 30.0448 944.527 29.1489 944.527C28.2529 944.527 27.2772 945.071 26.464 946.291C25.6571 947.501 25.1143 949.251 25.1143 951.251Z" stroke="black" stroke-width="2.68973"/>
<path d="M25.1143 951.251C25.1143 953.251 25.6571 955 26.464 956.211C27.2772 957.43 28.2529 957.975 29.1489 957.975C30.0448 957.975 31.0205 957.43 31.8337 956.211C32.6407 955 33.1835 953.251 33.1835 951.251C33.1835 949.251 32.6407 947.501 31.8337 946.291C31.0205 945.071 30.0448 944.527 29.1489 944.527C28.2529 944.527 27.2772 945.071 26.464 946.291C25.6571 947.501 25.1143 949.251 25.1143 951.251Z" stroke="black" stroke-width="2.68973"/>
<path d="M25.1143 802.419C25.1143 804.419 25.6571 806.168 26.464 807.379C27.2772 808.598 28.2529 809.143 29.1489 809.143C30.0448 809.143 31.0205 808.598 31.8337 807.379C32.6407 806.168 33.1835 804.419 33.1835 802.419C33.1835 800.419 32.6407 798.669 31.8337 797.459C31.0205 796.239 30.0448 795.694 29.1489 795.694C28.2529 795.694 27.2772 796.239 26.464 797.459C25.6571 798.669 25.1143 800.419 25.1143 802.419Z" fill="black"/>
<path d="M25.1143 802.419C25.1143 804.419 25.6571 806.168 26.464 807.379C27.2772 808.598 28.2529 809.143 29.1489 809.143C30.0448 809.143 31.0205 808.598 31.8337 807.379C32.6407 806.168 33.1835 804.419 33.1835 802.419C33.1835 800.419 32.6407 798.669 31.8337 797.459C31.0205 796.239 30.0448 795.694 29.1489 795.694C28.2529 795.694 27.2772 796.239 26.464 797.459C25.6571 798.669 25.1143 800.419 25.1143 802.419Z" stroke="black" stroke-width="2.68973"/>
<path d="M25.1143 802.419C25.1143 804.419 25.6571 806.168 26.464 807.379C27.2772 808.598 28.2529 809.143 29.1489 809.143C30.0448 809.143 31.0205 808.598 31.8337 807.379C32.6407 806.168 33.1835 804.419 33.1835 802.419C33.1835 800.419 32.6407 798.669 31.8337 797.459C31.0205 796.239 30.0448 795.694 29.1489 795.694C28.2529 795.694 27.2772 796.239 26.464 797.459C25.6571 798.669 25.1143 800.419 25.1143 802.419Z" stroke="black" stroke-width="2.68973"/>
<path d="M122.841 802.419C122.841 804.419 123.384 806.168 124.191 807.379C125.004 808.598 125.979 809.143 126.875 809.143C127.771 809.143 128.747 808.598 129.56 807.379C130.367 806.168 130.91 804.419 130.91 802.419C130.91 800.419 130.367 798.669 129.56 797.459C128.747 796.239 127.771 795.694 126.875 795.694C125.979 795.694 125.004 796.239 124.191 797.459C123.384 798.669 122.841 800.419 122.841 802.419Z" fill="black"/>
<path d="M122.841 802.419C122.841 804.419 123.384 806.168 124.191 807.379C125.004 808.598 125.979 809.143 126.875 809.143C127.771 809.143 128.747 808.598 129.56 807.379C130.367 806.168 130.91 804.419 130.91 802.419C130.91 800.419 130.367 798.669 129.56 797.459C128.747 796.239 127.771 795.694 126.875 795.694C125.979 795.694 125.004 796.239 124.191 797.459C123.384 798.669 122.841 800.419 122.841 802.419Z" stroke="black" stroke-width="2.68973"/>
<path d="M122.841 802.419C122.841 804.419 123.384 806.168 124.191 807.379C125.004 808.598 125.979 809.143 126.875 809.143C127.771 809.143 128.747 808.598 129.56 807.379C130.367 806.168 130.91 804.419 130.91 802.419C130.91 800.419 130.367 798.669 129.56 797.459C128.747 796.239 127.771 795.694 126.875 795.694C125.979 795.694 125.004 796.239 124.191 797.459C123.384 798.669 122.841 800.419 122.841 802.419Z" stroke="black" stroke-width="2.68973"/>
<circle cx="5.82774" cy="5.82774" r="4.48288" transform="matrix(-1 0 0 1 133.151 924.354)" fill="black"/>
<circle cx="5.82774" cy="5.82774" r="4.48288" transform="matrix(-1 0 0 1 133.151 924.354)" stroke="black" stroke-width="2.68973"/>
<circle cx="5.82774" cy="5.82774" r="4.48288" transform="matrix(-1 0 0 1 133.151 924.354)" stroke="black" stroke-width="2.68973"/>
<circle cx="5.82774" cy="5.82774" r="4.48288" transform="matrix(-1 0 0 1 133.151 903.731)" fill="black"/>
<circle cx="5.82774" cy="5.82774" r="4.48288" transform="matrix(-1 0 0 1 133.151 903.731)" stroke="black" stroke-width="2.68973"/>
<circle cx="5.82774" cy="5.82774" r="4.48288" transform="matrix(-1 0 0 1 133.151 903.731)" stroke="black" stroke-width="2.68973"/>
<circle cx="5.82774" cy="5.82774" r="4.48288" transform="matrix(-1 0 0 1 133.151 883.11)" fill="black"/>
<circle cx="5.82774" cy="5.82774" r="4.48288" transform="matrix(-1 0 0 1 133.151 883.11)" stroke="black" stroke-width="2.68973"/>
<circle cx="5.82774" cy="5.82774" r="4.48288" transform="matrix(-1 0 0 1 133.151 883.11)" stroke="black" stroke-width="2.68973"/>
<circle cx="5.82774" cy="5.82774" r="4.48288" transform="matrix(-1 0 0 1 133.151 861.593)" fill="black"/>
<circle cx="5.82774" cy="5.82774" r="4.48288" transform="matrix(-1 0 0 1 133.151 861.593)" stroke="black" stroke-width="2.68973"/>
<circle cx="5.82774" cy="5.82774" r="4.48288" transform="matrix(-1 0 0 1 133.151 861.593)" stroke="black" stroke-width="2.68973"/>
<circle cx="5.82774" cy="5.82774" r="4.48288" transform="matrix(-1 0 0 1 133.151 840.075)" fill="black"/>
<circle cx="5.82774" cy="5.82774" r="4.48288" transform="matrix(-1 0 0 1 133.151 840.075)" stroke="black" stroke-width="2.68973"/>
<circle cx="5.82774" cy="5.82774" r="4.48288" transform="matrix(-1 0 0 1 133.151 840.075)" stroke="black" stroke-width="2.68973"/>
<circle cx="5.82774" cy="5.82774" r="4.48288" transform="matrix(-1 0 0 1 133.151 821.247)" fill="black"/>
<circle cx="5.82774" cy="5.82774" r="4.48288" transform="matrix(-1 0 0 1 133.151 821.247)" stroke="black" stroke-width="2.68973"/>
<circle cx="5.82774" cy="5.82774" r="4.48288" transform="matrix(-1 0 0 1 133.151 821.247)" stroke="black" stroke-width="2.68973"/>
<circle cx="5.82774" cy="5.82774" r="4.48288" transform="matrix(-1 0 0 1 35.4248 821.247)" fill="black"/>
<circle cx="5.82774" cy="5.82774" r="4.48288" transform="matrix(-1 0 0 1 35.4248 821.247)" stroke="black" stroke-width="2.68973"/>
<circle cx="5.82774" cy="5.82774" r="4.48288" transform="matrix(-1 0 0 1 35.4248 821.247)" stroke="black" stroke-width="2.68973"/>
<circle cx="5.82774" cy="5.82774" r="4.48288" transform="matrix(-1 0 0 1 35.4248 840.075)" fill="black"/>
<circle cx="5.82774" cy="5.82774" r="4.48288" transform="matrix(-1 0 0 1 35.4248 840.075)" stroke="black" stroke-width="2.68973"/>
<circle cx="5.82774" cy="5.82774" r="4.48288" transform="matrix(-1 0 0 1 35.4248 840.075)" stroke="black" stroke-width="2.68973"/>
<circle cx="5.82774" cy="5.82774" r="4.48288" transform="matrix(-1 0 0 1 35.4248 861.593)" fill="black"/>
<circle cx="5.82774" cy="5.82774" r="4.48288" transform="matrix(-1 0 0 1 35.4248 861.593)" stroke="black" stroke-width="2.68973"/>
<circle cx="5.82774" cy="5.82774" r="4.48288" transform="matrix(-1 0 0 1 35.4248 861.593)" stroke="black" stroke-width="2.68973"/>
<circle cx="5.82774" cy="5.82774" r="4.48288" transform="matrix(-1 0 0 1 35.4248 887.594)" fill="black"/>
<circle cx="5.82774" cy="5.82774" r="4.48288" transform="matrix(-1 0 0 1 35.4248 887.594)" stroke="black" stroke-width="2.68973"/>
<circle cx="5.82774" cy="5.82774" r="4.48288" transform="matrix(-1 0 0 1 35.4248 887.594)" stroke="black" stroke-width="2.68973"/>
<circle cx="5.82774" cy="5.82774" r="4.48288" transform="matrix(-1 0 0 1 35.4248 903.731)" fill="black"/>
<circle cx="5.82774" cy="5.82774" r="4.48288" transform="matrix(-1 0 0 1 35.4248 903.731)" stroke="black" stroke-width="2.68973"/>
<circle cx="5.82774" cy="5.82774" r="4.48288" transform="matrix(-1 0 0 1 35.4248 903.731)" stroke="black" stroke-width="2.68973"/>
<circle cx="5.82774" cy="5.82774" r="4.48288" transform="matrix(-1 0 0 1 35.4248 924.354)" fill="black"/>
<circle cx="5.82774" cy="5.82774" r="4.48288" transform="matrix(-1 0 0 1 35.4248 924.354)" stroke="black" stroke-width="2.68973"/>
<circle cx="5.82774" cy="5.82774" r="4.48288" transform="matrix(-1 0 0 1 35.4248 924.354)" stroke="black" stroke-width="2.68973"/>
<path d="M1260.15 903.799V848.976L189.329 826.639L182.95 829.266L177.743 834.873L174.244 839.927L173.049 847.493V876.835V906.89L175.008 913.942L179.436 919.577L184.322 924.464L189.448 927.027L1260.15 903.799Z" fill="white"/>
<path d="M1260.15 903.799V848.976L189.329 826.639L182.95 829.266L177.743 834.873L174.244 839.927L173.049 847.493V876.835V906.89L175.008 913.942L179.436 919.577L184.322 924.464L189.448 927.027L1260.15 903.799Z" stroke="black" stroke-width="6.27603"/>
<path d="M1260.15 903.799V848.976L189.329 826.639L182.95 829.266L177.743 834.873L174.244 839.927L173.049 847.493V876.835V906.89L175.008 913.942L179.436 919.577L184.322 924.464L189.448 927.027L1260.15 903.799Z" stroke="black" stroke-width="6.27603"/>
<path d="M1509.12 787.885L1508.76 788.016L1508.38 788.057L1500.63 788.872L1494.83 792.736L1484.35 803.658L1464.66 825.585L1463.93 826.396L1462.86 826.581L1449.86 828.822L1449.59 828.868H1449.32H1434.53H1434.19L1433.86 828.796L1423.55 826.555L1423.54 826.552L1423.53 826.549L1399.77 821.17L1399.72 821.16L1399.68 821.148L1354.43 809.5L1345.81 807.447L1338.71 809.315L1322.2 822.782L1322.01 822.939L1321.79 823.063L1302.52 834.271L1302.39 834.344L1302.26 834.405L1283.88 842.922L1283.58 843.062L1283.26 843.135L1265.97 847.063V905.883L1278.01 907.341L1278.41 907.391L1278.79 907.543L1292.24 912.922L1292.42 912.993L1292.59 913.084L1306.48 920.705L1306.64 920.792L1306.79 920.896L1316.25 927.6L1546.34 851.497L1551.65 849.049L1555.79 845.661L1558.38 840.857L1559.18 835.599L1560.48 825.707L1559.19 814.609L1557.99 809.372L1555.55 804.911L1552.66 800.36L1548.87 796.569L1548.8 796.504L1548.74 796.435L1545.42 792.702L1540.44 789.381L1536.38 786.943L1530.92 785.384H1524.64H1518.19L1513.8 786.183L1509.12 787.885Z" fill="white"/>
<path d="M1509.12 787.885L1508.76 788.016L1508.38 788.057L1500.63 788.872L1494.83 792.736L1484.35 803.658L1464.66 825.585L1463.93 826.396L1462.86 826.581L1449.86 828.822L1449.59 828.868H1449.32H1434.53H1434.19L1433.86 828.796L1423.55 826.555L1423.54 826.552L1423.53 826.549L1399.77 821.17L1399.72 821.16L1399.68 821.148L1354.43 809.5L1345.81 807.447L1338.71 809.315L1322.2 822.782L1322.01 822.939L1321.79 823.063L1302.52 834.271L1302.39 834.344L1302.26 834.405L1283.88 842.922L1283.58 843.062L1283.26 843.135L1265.97 847.063V905.883L1278.01 907.341L1278.41 907.391L1278.79 907.543L1292.24 912.922L1292.42 912.993L1292.59 913.084L1306.48 920.705L1306.64 920.792L1306.79 920.896L1316.25 927.6L1546.34 851.497L1551.65 849.049L1555.79 845.661L1558.38 840.857L1559.18 835.599L1560.48 825.707L1559.19 814.609L1557.99 809.372L1555.55 804.911L1552.66 800.36L1548.87 796.569L1548.8 796.504L1548.74 796.435L1545.42 792.702L1540.44 789.381L1536.38 786.943L1530.92 785.384H1524.64H1518.19L1513.8 786.183L1509.12 787.885Z" stroke="black" stroke-width="6.27603"/>
<path d="M1509.12 787.885L1508.76 788.016L1508.38 788.057L1500.63 788.872L1494.83 792.736L1484.35 803.658L1464.66 825.585L1463.93 826.396L1462.86 826.581L1449.86 828.822L1449.59 828.868H1449.32H1434.53H1434.19L1433.86 828.796L1423.55 826.555L1423.54 826.552L1423.53 826.549L1399.77 821.17L1399.72 821.16L1399.68 821.148L1354.43 809.5L1345.81 807.447L1338.71 809.315L1322.2 822.782L1322.01 822.939L1321.79 823.063L1302.52 834.271L1302.39 834.344L1302.26 834.405L1283.88 842.922L1283.58 843.062L1283.26 843.135L1265.97 847.063V905.883L1278.01 907.341L1278.41 907.391L1278.79 907.543L1292.24 912.922L1292.42 912.993L1292.59 913.084L1306.48 920.705L1306.64 920.792L1306.79 920.896L1316.25 927.6L1546.34 851.497L1551.65 849.049L1555.79 845.661L1558.38 840.857L1559.18 835.599L1560.48 825.707L1559.19 814.609L1557.99 809.372L1555.55 804.911L1552.66 800.36L1548.87 796.569L1548.8 796.504L1548.74 796.435L1545.42 792.702L1540.44 789.381L1536.38 786.943L1530.92 785.384H1524.64H1518.19L1513.8 786.183L1509.12 787.885Z" stroke="black" stroke-width="6.27603"/>
<path d="M1464.12 883.11L1467.26 895.662" stroke="black" stroke-width="2.68973"/>
<path d="M1464.12 883.11L1467.26 895.662" stroke="black" stroke-width="2.68973"/>
<path d="M1428.25 895.663L1431.39 908.215" stroke="black" stroke-width="2.68973"/>
<path d="M1428.25 895.663L1431.39 908.215" stroke="black" stroke-width="2.68973"/>
<path d="M1395.08 906.422L1398.22 918.974" stroke="black" stroke-width="2.68973"/>
<path d="M1395.08 906.422L1398.22 918.974" stroke="black" stroke-width="2.68973"/>
<path d="M1359.22 917.181L1362.36 929.733" stroke="black" stroke-width="2.68973"/>
<path d="M1359.22 917.181L1362.36 929.733" stroke="black" stroke-width="2.68973"/>
<path d="M1455.27 911.503C1456.88 918.345 1465.06 922.685 1473.95 920.587C1482.83 918.49 1488.21 910.951 1486.59 904.11C1484.98 897.268 1476.8 892.928 1467.91 895.026C1459.02 897.123 1453.65 904.662 1455.27 911.503Z" fill="black"/>
<path d="M1455.27 911.503C1456.88 918.345 1465.06 922.685 1473.95 920.587C1482.83 918.49 1488.21 910.951 1486.59 904.11C1484.98 897.268 1476.8 892.928 1467.91 895.026C1459.02 897.123 1453.65 904.662 1455.27 911.503Z" stroke="black" stroke-width="2.68973"/>
<path d="M1455.27 911.503C1456.88 918.345 1465.06 922.685 1473.95 920.587C1482.83 918.49 1488.21 910.951 1486.59 904.11C1484.98 897.268 1476.8 892.928 1467.91 895.026C1459.02 897.123 1453.65 904.662 1455.27 911.503Z" stroke="black" stroke-width="2.68973"/>
<path d="M1420.54 922.834C1422.15 929.676 1430.33 934.016 1439.22 931.919C1448.11 929.821 1453.48 922.282 1451.86 915.441C1450.25 908.599 1442.07 904.259 1433.18 906.357C1424.3 908.455 1418.92 915.993 1420.54 922.834Z" fill="black"/>
<path d="M1420.54 922.834C1422.15 929.676 1430.33 934.016 1439.22 931.919C1448.11 929.821 1453.48 922.282 1451.86 915.441C1450.25 908.599 1442.07 904.259 1433.18 906.357C1424.3 908.455 1418.92 915.993 1420.54 922.834Z" stroke="black" stroke-width="2.68973"/>
<path d="M1420.54 922.834C1422.15 929.676 1430.33 934.016 1439.22 931.919C1448.11 929.821 1453.48 922.282 1451.86 915.441C1450.25 908.599 1442.07 904.259 1433.18 906.357C1424.3 908.455 1418.92 915.993 1420.54 922.834Z" stroke="black" stroke-width="2.68973"/>
<path d="M1386.47 935.387C1388.08 942.228 1396.26 946.569 1405.15 944.471C1414.04 942.373 1419.41 934.835 1417.79 927.994C1416.18 921.152 1408 916.811 1399.11 918.909C1390.23 921.007 1384.85 928.546 1386.47 935.387Z" fill="black"/>
<path d="M1386.47 935.387C1388.08 942.228 1396.26 946.569 1405.15 944.471C1414.04 942.373 1419.41 934.835 1417.79 927.994C1416.18 921.152 1408 916.811 1399.11 918.909C1390.23 921.007 1384.85 928.546 1386.47 935.387Z" stroke="black" stroke-width="2.68973"/>
<path d="M1386.47 935.387C1388.08 942.228 1396.26 946.569 1405.15 944.471C1414.04 942.373 1419.41 934.835 1417.79 927.994C1416.18 921.152 1408 916.811 1399.11 918.909C1390.23 921.007 1384.85 928.546 1386.47 935.387Z" stroke="black" stroke-width="2.68973"/>
<path d="M1349.71 945.249C1351.32 952.091 1359.5 956.432 1368.39 954.334C1377.28 952.236 1382.65 944.697 1381.03 937.856C1379.42 931.014 1371.24 926.674 1362.35 928.772C1353.47 930.87 1348.09 938.408 1349.71 945.249Z" fill="black"/>
<path d="M1349.71 945.249C1351.32 952.091 1359.5 956.432 1368.39 954.334C1377.28 952.236 1382.65 944.697 1381.03 937.856C1379.42 931.014 1371.24 926.674 1362.35 928.772C1353.47 930.87 1348.09 938.408 1349.71 945.249Z" stroke="black" stroke-width="2.68973"/>
<path d="M1349.71 945.249C1351.32 952.091 1359.5 956.432 1368.39 954.334C1377.28 952.236 1382.65 944.697 1381.03 937.856C1379.42 931.014 1371.24 926.674 1362.35 928.772C1353.47 930.87 1348.09 938.408 1349.71 945.249Z" stroke="black" stroke-width="2.68973"/>
<path d="M1437.22 872.8C1437.22 876.697 1440.57 879.972 1444.84 879.972C1449.12 879.972 1452.46 876.697 1452.46 872.8C1452.46 868.903 1449.12 865.627 1444.84 865.627C1440.57 865.627 1437.22 868.903 1437.22 872.8Z" fill="black"/>
<path d="M1437.22 872.8C1437.22 876.697 1440.57 879.972 1444.84 879.972C1449.12 879.972 1452.46 876.697 1452.46 872.8C1452.46 868.903 1449.12 865.627 1444.84 865.627C1440.57 865.627 1437.22 868.903 1437.22 872.8Z" stroke="black" stroke-width="2.68973"/>
<path d="M1437.22 872.8C1437.22 876.697 1440.57 879.972 1444.84 879.972C1449.12 879.972 1452.46 876.697 1452.46 872.8C1452.46 868.903 1449.12 865.627 1444.84 865.627C1440.57 865.627 1437.22 868.903 1437.22 872.8Z" stroke="black" stroke-width="2.68973"/>
<path d="M1405.84 882.662C1405.84 886.559 1409.19 889.835 1413.46 889.835C1417.74 889.835 1421.08 886.559 1421.08 882.662C1421.08 878.765 1417.74 875.489 1413.46 875.489C1409.19 875.489 1405.84 878.765 1405.84 882.662Z" fill="black"/>
<path d="M1405.84 882.662C1405.84 886.559 1409.19 889.835 1413.46 889.835C1417.74 889.835 1421.08 886.559 1421.08 882.662C1421.08 878.765 1417.74 875.489 1413.46 875.489C1409.19 875.489 1405.84 878.765 1405.84 882.662Z" stroke="black" stroke-width="2.68973"/>
<path d="M1405.84 882.662C1405.84 886.559 1409.19 889.835 1413.46 889.835C1417.74 889.835 1421.08 886.559 1421.08 882.662C1421.08 878.765 1417.74 875.489 1413.46 875.489C1409.19 875.489 1405.84 878.765 1405.84 882.662Z" stroke="black" stroke-width="2.68973"/>
<path d="M1369.08 893.422C1369.08 897.319 1372.43 900.594 1376.7 900.594C1380.98 900.594 1384.32 897.319 1384.32 893.422C1384.32 889.525 1380.98 886.249 1376.7 886.249C1372.43 886.249 1369.08 889.525 1369.08 893.422Z" fill="black"/>
<path d="M1369.08 893.422C1369.08 897.319 1372.43 900.594 1376.7 900.594C1380.98 900.594 1384.32 897.319 1384.32 893.422C1384.32 889.525 1380.98 886.249 1376.7 886.249C1372.43 886.249 1369.08 889.525 1369.08 893.422Z" stroke="black" stroke-width="2.68973"/>
<path d="M1369.08 893.422C1369.08 897.319 1372.43 900.594 1376.7 900.594C1380.98 900.594 1384.32 897.319 1384.32 893.422C1384.32 889.525 1380.98 886.249 1376.7 886.249C1372.43 886.249 1369.08 889.525 1369.08 893.422Z" stroke="black" stroke-width="2.68973"/>
<path d="M1337.7 902.387C1337.7 906.284 1341.05 909.559 1345.32 909.559C1349.6 909.559 1352.94 906.284 1352.94 902.387C1352.94 898.489 1349.6 895.214 1345.32 895.214C1341.05 895.214 1337.7 898.489 1337.7 902.387Z" fill="black"/>
<path d="M1337.7 902.387C1337.7 906.284 1341.05 909.559 1345.32 909.559C1349.6 909.559 1352.94 906.284 1352.94 902.387C1352.94 898.489 1349.6 895.214 1345.32 895.214C1341.05 895.214 1337.7 898.489 1337.7 902.387Z" stroke="black" stroke-width="2.68973"/>
<path d="M1337.7 902.387C1337.7 906.284 1341.05 909.559 1345.32 909.559C1349.6 909.559 1352.94 906.284 1352.94 902.387C1352.94 898.489 1349.6 895.214 1345.32 895.214C1341.05 895.214 1337.7 898.489 1337.7 902.387Z" stroke="black" stroke-width="2.68973"/>
<line y1="-1.34486" x2="1647.23" y2="-1.34486" transform="matrix(-0.999867 -0.0163288 -0.0163288 0.999867 1504.91 850.834)" stroke="black" stroke-width="2.68973"/>
<line y1="-1.34486" x2="1647.23" y2="-1.34486" transform="matrix(-0.999867 -0.0163288 -0.0163288 0.999867 1504.91 850.834)" stroke="black" stroke-width="2.68973"/>
<line y1="-1.34486" x2="1612.1" y2="-1.34486" transform="matrix(-0.999965 -0.00835625 -0.00835625 0.999965 1467.26 859.8)" stroke="black" stroke-width="2.68973"/>
<line y1="-1.34486" x2="1612.1" y2="-1.34486" transform="matrix(-0.999965 -0.00835625 -0.00835625 0.999965 1467.26 859.8)" stroke="black" stroke-width="2.68973"/>
<line y1="-1.34486" x2="1585.15" y2="-1.34486" transform="matrix(-0.999999 -0.00169665 -0.00169665 0.999999 1443.05 870.559)" stroke="black" stroke-width="2.68973"/>
<line y1="-1.34486" x2="1585.15" y2="-1.34486" transform="matrix(-0.999999 -0.00169665 -0.00169665 0.999999 1443.05 870.559)" stroke="black" stroke-width="2.68973"/>
<line y1="-1.34486" x2="1560.95" y2="-1.34486" transform="matrix(-0.999994 0.00343051 0.00343051 0.999994 1418.84 882.214)" stroke="black" stroke-width="2.68973"/>
<line y1="-1.34486" x2="1560.95" y2="-1.34486" transform="matrix(-0.999994 0.00343051 0.00343051 0.999994 1418.84 882.214)" stroke="black" stroke-width="2.68973"/>
<line y1="-1.34486" x2="1524.25" y2="-1.34486" transform="matrix(-0.99995 0.00998336 0.00998336 0.99995 1379.39 891.18)" stroke="black" stroke-width="2.68973"/>
<line y1="-1.34486" x2="1524.25" y2="-1.34486" transform="matrix(-0.99995 0.00998336 0.00998336 0.99995 1379.39 891.18)" stroke="black" stroke-width="2.68973"/>
<line y1="-1.34486" x2="1490.3" y2="-1.34486" transform="matrix(-0.999868 0.0162268 0.0162268 0.999868 1345.32 902.835)" stroke="black" stroke-width="2.68973"/>
<line y1="-1.34486" x2="1490.3" y2="-1.34486" transform="matrix(-0.999868 0.0162268 0.0162268 0.999868 1345.32 902.835)" stroke="black" stroke-width="2.68973"/>
<path d="M1083.07 875.49C1083.07 878.819 1086.14 881.766 1090.25 881.766C1094.35 881.766 1097.42 878.819 1097.42 875.49C1097.42 872.161 1094.35 869.214 1090.25 869.214C1086.14 869.214 1083.07 872.161 1083.07 875.49Z" fill="black"/>
<path d="M1083.07 875.49C1083.07 878.819 1086.14 881.766 1090.25 881.766C1094.35 881.766 1097.42 878.819 1097.42 875.49C1097.42 872.161 1094.35 869.214 1090.25 869.214C1086.14 869.214 1083.07 872.161 1083.07 875.49Z" stroke="black" stroke-width="2.68973"/>
<path d="M1083.07 875.49C1083.07 878.819 1086.14 881.766 1090.25 881.766C1094.35 881.766 1097.42 878.819 1097.42 875.49C1097.42 872.161 1094.35 869.214 1090.25 869.214C1086.14 869.214 1083.07 872.161 1083.07 875.49Z" stroke="black" stroke-width="2.68973"/>
<path d="M946.794 875.49C946.794 878.819 949.861 881.766 953.967 881.766C958.073 881.766 961.14 878.819 961.14 875.49C961.14 872.161 958.073 869.214 953.967 869.214C949.861 869.214 946.794 872.161 946.794 875.49Z" fill="black"/>
<path d="M946.794 875.49C946.794 878.819 949.861 881.766 953.967 881.766C958.073 881.766 961.14 878.819 961.14 875.49C961.14 872.161 958.073 869.214 953.967 869.214C949.861 869.214 946.794 872.161 946.794 875.49Z" stroke="black" stroke-width="2.68973"/>
<path d="M946.794 875.49C946.794 878.819 949.861 881.766 953.967 881.766C958.073 881.766 961.14 878.819 961.14 875.49C961.14 872.161 958.073 869.214 953.967 869.214C949.861 869.214 946.794 872.161 946.794 875.49Z" stroke="black" stroke-width="2.68973"/>
<path d="M814.997 876.387C814.997 879.716 818.064 882.663 822.17 882.663C826.276 882.663 829.343 879.716 829.343 876.387C829.343 873.057 826.276 870.11 822.17 870.11C818.064 870.11 814.997 873.057 814.997 876.387Z" fill="black"/>
<path d="M814.997 876.387C814.997 879.716 818.064 882.663 822.17 882.663C826.276 882.663 829.343 879.716 829.343 876.387C829.343 873.057 826.276 870.11 822.17 870.11C818.064 870.11 814.997 873.057 814.997 876.387Z" stroke="black" stroke-width="2.68973"/>
<path d="M814.997 876.387C814.997 879.716 818.064 882.663 822.17 882.663C826.276 882.663 829.343 879.716 829.343 876.387C829.343 873.057 826.276 870.11 822.17 870.11C818.064 870.11 814.997 873.057 814.997 876.387Z" stroke="black" stroke-width="2.68973"/>
<path d="M710.098 875.49C710.098 878.819 713.165 881.766 717.271 881.766C721.377 881.766 724.443 878.819 724.443 875.49C724.443 872.161 721.377 869.214 717.271 869.214C713.165 869.214 710.098 872.161 710.098 875.49Z" fill="black"/>
<path d="M710.098 875.49C710.098 878.819 713.165 881.766 717.271 881.766C721.377 881.766 724.443 878.819 724.443 875.49C724.443 872.161 721.377 869.214 717.271 869.214C713.165 869.214 710.098 872.161 710.098 875.49Z" stroke="black" stroke-width="2.68973"/>
<path d="M710.098 875.49C710.098 878.819 713.165 881.766 717.271 881.766C721.377 881.766 724.443 878.819 724.443 875.49C724.443 872.161 721.377 869.214 717.271 869.214C713.165 869.214 710.098 872.161 710.098 875.49Z" stroke="black" stroke-width="2.68973"/>
<path d="M605.199 852.179C605.199 855.508 608.265 858.455 612.371 858.455C616.477 858.455 619.544 855.508 619.544 852.179C619.544 848.849 616.477 845.902 612.371 845.902C608.265 845.902 605.199 848.849 605.199 852.179Z" fill="black"/>
<path d="M605.199 852.179C605.199 855.508 608.265 858.455 612.371 858.455C616.477 858.455 619.544 855.508 619.544 852.179C619.544 848.849 616.477 845.902 612.371 845.902C608.265 845.902 605.199 848.849 605.199 852.179Z" stroke="black" stroke-width="2.68973"/>
<path d="M605.199 852.179C605.199 855.508 608.265 858.455 612.371 858.455C616.477 858.455 619.544 855.508 619.544 852.179C619.544 848.849 616.477 845.902 612.371 845.902C608.265 845.902 605.199 848.849 605.199 852.179Z" stroke="black" stroke-width="2.68973"/>
<path d="M605.199 897.904C605.199 901.233 608.265 904.18 612.371 904.18C616.477 904.18 619.544 901.233 619.544 897.904C619.544 894.575 616.477 891.628 612.371 891.628C608.265 891.628 605.199 894.575 605.199 897.904Z" fill="black"/>
<path d="M605.199 897.904C605.199 901.233 608.265 904.18 612.371 904.18C616.477 904.18 619.544 901.233 619.544 897.904C619.544 894.575 616.477 891.628 612.371 891.628C608.265 891.628 605.199 894.575 605.199 897.904Z" stroke="black" stroke-width="2.68973"/>
<path d="M605.199 897.904C605.199 901.233 608.265 904.18 612.371 904.18C616.477 904.18 619.544 901.233 619.544 897.904C619.544 894.575 616.477 891.628 612.371 891.628C608.265 891.628 605.199 894.575 605.199 897.904Z" stroke="black" stroke-width="2.68973"/>
<path d="M489.54 876.387C489.54 879.716 492.607 882.663 496.713 882.663C500.819 882.663 503.886 879.716 503.886 876.387C503.886 873.057 500.819 870.11 496.713 870.11C492.607 870.11 489.54 873.057 489.54 876.387Z" fill="black"/>
<path d="M489.54 876.387C489.54 879.716 492.607 882.663 496.713 882.663C500.819 882.663 503.886 879.716 503.886 876.387C503.886 873.057 500.819 870.11 496.713 870.11C492.607 870.11 489.54 873.057 489.54 876.387Z" stroke="black" stroke-width="2.68973"/>
<path d="M489.54 876.387C489.54 879.716 492.607 882.663 496.713 882.663C500.819 882.663 503.886 879.716 503.886 876.387C503.886 873.057 500.819 870.11 496.713 870.11C492.607 870.11 489.54 873.057 489.54 876.387Z" stroke="black" stroke-width="2.68973"/>
<path d="M410.642 875.49C410.642 878.819 413.709 881.766 417.815 881.766C421.92 881.766 424.987 878.819 424.987 875.49C424.987 872.161 421.92 869.214 417.815 869.214C413.709 869.214 410.642 872.161 410.642 875.49Z" fill="black"/>
<path d="M410.642 875.49C410.642 878.819 413.709 881.766 417.815 881.766C421.92 881.766 424.987 878.819 424.987 875.49C424.987 872.161 421.92 869.214 417.815 869.214C413.709 869.214 410.642 872.161 410.642 875.49Z" stroke="black" stroke-width="2.68973"/>
<path d="M410.642 875.49C410.642 878.819 413.709 881.766 417.815 881.766C421.92 881.766 424.987 878.819 424.987 875.49C424.987 872.161 421.92 869.214 417.815 869.214C413.709 869.214 410.642 872.161 410.642 875.49Z" stroke="black" stroke-width="2.68973"/>
<path d="M352.365 875.49C352.365 878.819 355.431 881.766 359.537 881.766C363.643 881.766 366.71 878.819 366.71 875.49C366.71 872.161 363.643 869.214 359.537 869.214C355.431 869.214 352.365 872.161 352.365 875.49Z" fill="black"/>
<path d="M352.365 875.49C352.365 878.819 355.431 881.766 359.537 881.766C363.643 881.766 366.71 878.819 366.71 875.49C366.71 872.161 363.643 869.214 359.537 869.214C355.431 869.214 352.365 872.161 352.365 875.49Z" stroke="black" stroke-width="2.68973"/>
<path d="M352.365 875.49C352.365 878.819 355.431 881.766 359.537 881.766C363.643 881.766 366.71 878.819 366.71 875.49C366.71 872.161 363.643 869.214 359.537 869.214C355.431 869.214 352.365 872.161 352.365 875.49Z" stroke="black" stroke-width="2.68973"/>
<path d="M294.087 875.49C294.087 878.819 297.154 881.766 301.26 881.766C305.366 881.766 308.432 878.819 308.432 875.49C308.432 872.161 305.366 869.214 301.26 869.214C297.154 869.214 294.087 872.161 294.087 875.49Z" fill="black"/>
<path d="M294.087 875.49C294.087 878.819 297.154 881.766 301.26 881.766C305.366 881.766 308.432 878.819 308.432 875.49C308.432 872.161 305.366 869.214 301.26 869.214C297.154 869.214 294.087 872.161 294.087 875.49Z" stroke="black" stroke-width="2.68973"/>
<path d="M294.087 875.49C294.087 878.819 297.154 881.766 301.26 881.766C305.366 881.766 308.432 878.819 308.432 875.49C308.432 872.161 305.366 869.214 301.26 869.214C297.154 869.214 294.087 872.161 294.087 875.49Z" stroke="black" stroke-width="2.68973"/>
<path d="M1273.6 844.558V904.18" stroke="black" stroke-width="2.68973"/>
<path d="M1273.6 844.558V904.18" stroke="black" stroke-width="2.68973"/>
<path d="M1204.11 844.109V905.077" stroke="black" stroke-width="2.68973"/>
<path d="M1204.11 844.109V905.077" stroke="black" stroke-width="2.68973"/>
<path d="M1125.21 843.661V904.628" stroke="black" stroke-width="2.68973"/>
<path d="M1125.21 843.661V904.628" stroke="black" stroke-width="2.68973"/>
<path d="M1056.18 841.42V906.422" stroke="black" stroke-width="2.68973"/>
<path d="M1056.18 841.42V906.422" stroke="black" stroke-width="2.68973"/>
<path d="M988.036 840.523V909.111" stroke="black" stroke-width="2.68973"/>
<path d="M988.036 840.523V909.111" stroke="black" stroke-width="2.68973"/>
<path d="M917.655 838.282V909.112" stroke="black" stroke-width="2.68973"/>
<path d="M917.655 838.282V909.112" stroke="black" stroke-width="2.68973"/>
<path d="M857.137 838.282V909.56" stroke="black" stroke-width="2.68973"/>
<path d="M857.137 838.282V909.56" stroke="black" stroke-width="2.68973"/>
<path d="M793.479 838.282V911.801" stroke="black" stroke-width="2.68973"/>
<path d="M793.479 838.282V911.801" stroke="black" stroke-width="2.68973"/>
<path d="M744.168 835.592V914.939" stroke="black" stroke-width="2.68973"/>
<path d="M744.168 835.592V914.939" stroke="black" stroke-width="2.68973"/>
<path d="M695.753 836.488V916.284" stroke="black" stroke-width="2.68973"/>
<path d="M695.753 836.488V916.284" stroke="black" stroke-width="2.68973"/>
<path d="M641.958 833.799V914.491" stroke="black" stroke-width="2.68973"/>
<path d="M641.958 833.799V914.491" stroke="black" stroke-width="2.68973"/>
<path d="M592.198 832.902V914.939" stroke="black" stroke-width="2.68973"/>
<path d="M592.198 832.902V914.939" stroke="black" stroke-width="2.68973"/>
<path d="M548.266 832.454V920.319" stroke="black" stroke-width="2.68973"/>
<path d="M548.266 832.454V920.319" stroke="black" stroke-width="2.68973"/>
<path d="M513.3 832.902V920.767" stroke="black" stroke-width="2.68973"/>
<path d="M513.3 832.902V920.767" stroke="black" stroke-width="2.68973"/>
<path d="M477.437 832.006V922.56" stroke="black" stroke-width="2.68973"/>
<path d="M477.437 832.006V922.56" stroke="black" stroke-width="2.68973"/>
<path d="M432.607 832.006V922.56" stroke="black" stroke-width="2.68973"/>
<path d="M432.607 832.006V922.56" stroke="black" stroke-width="2.68973"/>
<path d="M401.228 830.213V923.457" stroke="black" stroke-width="2.68973"/>
<path d="M401.228 830.213V923.457" stroke="black" stroke-width="2.68973"/>
<path d="M372.537 830.213V923.457" stroke="black" stroke-width="2.68973"/>
<path d="M372.537 830.213V923.457" stroke="black" stroke-width="2.68973"/>
<path d="M342.95 830.213L343.847 927.043" stroke="black" stroke-width="2.68973"/>
<path d="M342.95 830.213L343.847 927.043" stroke="black" stroke-width="2.68973"/>
<path d="M316.053 830.213L316.949 927.043" stroke="black" stroke-width="2.68973"/>
<path d="M316.053 830.213L316.949 927.043" stroke="black" stroke-width="2.68973"/>
<path d="M286.466 830.213V927.043" stroke="black" stroke-width="2.68973"/>
<path d="M286.466 830.213V927.043" stroke="black" stroke-width="2.68973"/>
<path d="M257.775 827.523V927.043" stroke="black" stroke-width="2.68973"/>
<path d="M257.775 827.523V927.043" stroke="black" stroke-width="2.68973"/>
<path d="M233.568 825.729L234.465 927.043" stroke="black" stroke-width="2.68973"/>
<path d="M233.568 825.729L234.465 927.043" stroke="black" stroke-width="2.68973"/>
<path d="M214.74 825.729V927.043" stroke="black" stroke-width="2.68973"/>
<path d="M214.74 825.729V927.043" stroke="black" stroke-width="2.68973"/>
<path d="M189.636 823.937V928.836" stroke="black" stroke-width="2.68973"/>
<path d="M189.636 823.937V928.836" stroke="black" stroke-width="2.68973"/>
<path d="M105.113 449.445L133.297 418.869L156.648 390.147L180.642 361.351L192.639 346.954L198.537 339.685L202.199 336.091L203.973 335.237L205.746 334.383L206.835 334.099L176.677 312.946L176.988 314.213L177.3 315.48L177.124 317.455L176.461 320.136L175.372 323.436L170.871 331.686L161.869 348.184L143.867 381.182L123.975 415.317L105.113 449.445Z" fill="white"/>
<path d="M185.028 481.199L197.838 441.56L207.107 405.673L216.916 369.442L221.82 351.327L224.156 342.249L225.971 337.44L227.202 335.908L228.432 334.376L229.283 333.65L194.206 327.634L194.984 328.639L195.763 329.644L196.39 331.495L196.867 334.192L197.212 337.628L196.502 346.985L195.082 365.698L192.241 403.123L188.33 437.938L185.028 481.199Z" fill="white"/>
<path d="M401.774 211.094L364.759 229.555L330.899 243.823L296.782 258.701L279.723 266.14L271.157 269.74L266.705 272.254L265.384 273.74L264.064 275.226L263.479 276.212L252.317 240.118L253.42 240.808L254.524 241.499L256.436 241.925L259.156 242.086L262.583 242.015L271.666 240.088L289.834 236.234L326.168 228.526L361.507 219.038L401.774 211.094Z" fill="white"/>
<path d="M379.525 387.893L341.216 373.297L308.945 356.068L275.637 340.134L258.984 332.167L250.724 328.071L245.942 326.393L243.959 326.415L241.976 326.436L240.848 326.675L261.174 292.734L261.358 294.072L261.542 295.409L262.448 297.186L264.077 299.401L266.338 301.999L273.655 307.669L288.29 319.007L317.559 341.684L346.067 360.564L379.525 387.893Z" fill="white"/>
<path d="M408.021 312.936L364.855 311.674L329.045 307.317L293.992 303.555L275.605 301.772L266.436 300.759L261.367 300.793L259.513 301.449L257.658 302.105L256.682 302.68L264.042 265.799L264.676 266.937L265.311 268.074L266.776 269.372L269.07 270.831L272.09 272.43L280.918 275.152L298.573 280.598L332.755 288.168L369.906 298.415L408.021 312.936Z" fill="white"/>
<path d="M295.329 464.412L272.508 428.717L254.284 395.697L235.413 362.498L225.978 345.898L221.377 337.543L218.336 333.291L216.684 332.133L215.033 330.976L213.97 330.508L249.244 313.918L248.669 315.156L248.093 316.394L247.876 318.43L248.018 321.265L248.473 324.799L251.439 333.923L257.37 352.171L269.233 388.666L282.786 423.884L295.329 464.412Z" fill="white"/>
<ellipse cx="55.3105" cy="53.0343" rx="55.3105" ry="53.0343" transform="matrix(-0.356021 0.934478 0.934478 0.356021 182.821 206.868)" fill="white"/>
<path d="M148.615 91.3008L155.196 130.644L162.457 168.488L169.867 205.128L173.571 223.448L175.547 232.568L176.027 237.686L175.539 239.639L175.051 241.593L174.556 242.651L211.847 230.543L210.61 230.047L209.372 229.551L207.885 228.239L206.148 226.11L204.192 223.267L200.487 214.708L193.079 197.591L178.261 163.357L165.418 126.91L148.615 91.3008Z" fill="white"/>
<path d="M251.792 81.2393L237.332 120.327L226.617 155.82L215.339 191.633L209.7 209.539L206.998 218.517L204.978 223.248L203.669 224.726L202.359 226.204L201.465 226.892L237.054 234.473L236.295 233.433L235.536 232.393L234.96 230.513L234.567 227.794L234.336 224.341L235.388 215.011L237.491 196.352L241.699 159.033L247.701 122.536L251.792 81.2393Z" fill="white"/>
<path d="M323.578 109.191L297.236 141.369L275.542 171.378L253.223 201.504L242.064 216.567L236.584 224.161L233.147 227.967L231.448 228.935L229.75 229.902L228.697 230.259L258.953 249.056L258.601 247.826L258.248 246.595L258.344 244.632L258.888 241.936L259.825 238.599L263.902 230.134L272.056 213.204L288.365 179.344L306.052 146.846L323.578 109.191Z" fill="white"/>
<path d="M40.8034 381.959L76.3803 366.599L112.734 351.761L146.741 336.627L163.745 329.06L172.188 325.167L177.029 323.583L178.987 323.619L180.945 323.655L182.044 323.894L164.287 290.977L164.014 292.267L163.74 293.557L162.722 295.265L160.961 297.391L158.548 299.883L150.929 305.301L135.689 316.138L105.209 337.811L73.1161 358.059L40.8034 381.959Z" fill="white"/>
<path d="M49.6798 169.095L78.326 195.546L107.395 220.949L135.459 245.046L149.491 257.095L156.581 263.012L160.059 266.72L160.853 268.549L161.647 270.378L161.895 271.511L184.215 239.056L182.932 239.431L181.648 239.806L179.671 239.696L177.002 239.101L173.726 238.082L165.602 233.67L149.353 224.845L116.855 207.194L83.6282 187.616L49.6798 169.095Z" fill="white"/>
<path d="M21.3436 288.685L62.2245 292.555L98.6227 295.398L135.539 297.731L153.998 298.898L163.223 299.344L168.225 300.235L169.948 301.259L171.671 302.282L172.54 303.071L171.389 261.845L170.574 262.971L169.758 264.097L168.096 265.258L165.588 266.452L162.339 267.677L153.167 269.141L134.823 272.07L98.1351 277.926L62.1925 281.519L21.3436 288.685Z" fill="white"/>
<path d="M172.289 371.691L122.082 352.492L127.35 338.715L146.254 345.944L150.82 334.005L131.916 326.775L137.184 312.999L187.392 332.199L182.123 345.975L163.295 338.775L158.73 350.715L177.558 357.915L172.289 371.691ZM188.583 329.083L186.516 328.293L143.819 295.648L149.907 279.728L203.463 283.979L205.529 284.769L200.173 298.775L192.229 297.755L187.312 310.613L193.91 315.154L188.583 329.083ZM177.115 303.555L179.954 296.131L163.395 294.01L177.115 303.555ZM206.731 281.627L156.523 262.427L161.762 248.727L199.494 263.156L207.309 242.721L219.784 247.492L206.731 281.627ZM223.093 238.838L169.49 234.482L167.5 233.721L172.944 219.485L208.563 224.07L178.973 203.719L184.417 189.483L186.407 190.244L229.24 222.766L223.093 238.838ZM232.714 213.681L230.647 212.891L187.95 180.246L194.038 164.326L247.593 168.577L249.66 169.367L244.304 183.373L236.36 182.353L231.443 195.211L238.04 199.752L232.714 213.681ZM221.246 188.153L224.085 180.729L207.525 178.608L221.246 188.153ZM250.861 166.225L200.654 147.025L208.966 125.289C213.298 113.961 221.944 110.162 232.124 114.054L232.659 114.259C239.854 117.01 243.617 122.31 243.254 129.453L263.897 125.942L265.964 126.732L260.549 140.891L238.988 144.051L238.344 145.735L256.1 152.525L250.861 166.225ZM227.093 141.432L229.844 134.238C231.074 131.023 230.223 129.119 227.391 128.036L226.855 127.831C224.177 126.807 222.166 127.705 220.966 130.843L218.215 138.037L227.093 141.432Z" fill="black"/>
<path d="M131.948 656.311L104.311 653.731L129.234 663.345L124.221 676.341L74.0693 656.995L80.5573 640.176L113.2 642.756L87.3107 622.669L93.8282 605.773L143.98 625.119L138.966 638.116L113.738 628.384L136.224 645.226L131.948 656.311ZM146.103 619.615L95.9516 600.269L101.26 586.508L151.412 605.854L146.103 619.615ZM156.93 591.547L119.164 576.978L114.947 587.911L102.562 583.133L116.304 547.507L128.689 552.285L124.472 563.217L162.239 577.786L156.93 591.547ZM171.388 554.068L133.621 539.5L129.404 550.432L117.019 545.655L130.762 510.029L143.147 514.806L138.93 525.739L176.696 540.307L171.388 554.068ZM182.454 525.381L132.302 506.035L145.455 471.938L157.687 476.657L149.813 497.069L156.617 499.694L163.902 480.811L176.057 485.5L168.773 504.383L175.501 506.978L183.375 486.566L195.607 491.284L182.454 525.381ZM197.689 485.887L147.537 466.541L152.816 452.856L190.506 467.395L198.38 446.983L210.842 451.79L197.689 485.887ZM219.581 432.095C214.804 444.48 205.88 448.942 194.642 444.607L193.342 444.106L198.385 431.033L199.685 431.534C203.278 432.92 206.227 431.423 207.761 427.447C209.176 423.778 208.643 421.289 206.273 420.374L205.891 420.227C203.827 419.431 202.344 420.088 200.217 422.869L194.78 429.905C189.284 437.095 182.816 439.518 175.936 436.864L175.171 436.569C166.074 433.06 163.018 423.45 167.353 412.211C171.895 400.438 180.359 395.799 190.298 399.633L191.598 400.134L186.643 412.978L185.343 412.476C182.591 411.415 180.372 412.842 178.927 416.588C177.629 419.952 178.039 422.306 179.95 423.043L180.332 423.19C181.938 423.81 183.509 422.923 185.577 420.295L191.12 413.212C196.946 405.622 203.096 403.34 210.435 406.171L211.2 406.466C220.985 410.241 224.211 420.092 219.581 432.095ZM236.973 387.009C232.018 399.853 220.694 405.76 209.379 401.396L195.694 396.117C184.38 391.752 179.909 379.664 184.834 366.897C189.935 353.671 200.554 348.457 212.709 353.146L215.844 354.355L210.506 368.193L206.76 366.748C202.632 365.155 199.276 367.023 197.418 371.839C195.413 377.038 196.827 380.657 201.644 382.515L214.029 387.293C218.845 389.15 222.324 387.418 224.329 382.22C226.216 377.327 224.955 373.766 220.674 372.115L217.692 370.965L223.03 357.127L225.553 358.1C237.709 362.79 242.075 373.783 236.973 387.009ZM246.072 360.46L195.921 341.114L201.229 327.353L220.113 334.637L224.713 322.711L205.83 315.427L211.138 301.666L261.29 321.012L255.981 334.773L237.175 327.518L232.574 339.444L251.381 346.699L246.072 360.46ZM263.64 314.918L213.489 295.572L221.864 273.86C226.229 262.546 234.887 258.771 245.054 262.694L245.59 262.9C252.776 265.672 256.524 270.982 256.141 278.124L276.793 274.674L278.858 275.47L273.402 289.613L251.831 292.71L251.183 294.392L268.919 301.234L263.64 314.918ZM239.944 290.057L242.717 282.87C243.955 279.659 243.11 277.752 240.281 276.661L239.746 276.455C237.07 275.423 235.057 276.315 233.848 279.449L231.076 286.636L239.944 290.057ZM280.569 271.033L230.417 251.687L235.726 237.926L285.877 257.272L280.569 271.033ZM288.005 251.757L237.853 232.411L251.006 198.314L263.391 203.092L255.517 223.504L263.697 226.659L270.982 207.776L283.367 212.554L276.082 231.437L293.284 238.072L288.005 251.757ZM306.315 204.292L268.548 189.723L264.331 200.656L251.946 195.878L265.689 160.252L278.074 165.03L273.856 175.962L311.623 190.531L306.315 204.292Z" fill="black"/>
<path d="M549.811 313.577L556.409 294.866L559.691 296.023L554.995 309.339L568.518 299.136L571.649 300.24L565.051 318.951L561.732 317.78L566.427 304.464L552.942 314.681L549.811 313.577ZM577.194 323.742C572.403 322.053 570.299 317.917 571.909 313.353L573.478 308.901C575.088 304.337 579.321 302.437 584.112 304.126C588.639 305.722 590.756 309.82 589.28 314.007L589.133 314.422L585.738 313.225L585.885 312.81C586.709 310.471 585.508 308.224 582.981 307.332C580.152 306.335 577.856 307.434 576.885 310.187L575.368 314.488C574.397 317.242 575.534 319.551 578.325 320.536C580.853 321.427 583.184 320.468 583.982 318.204L584.129 317.789L587.524 318.987L587.377 319.402C585.888 323.627 581.834 325.378 577.194 323.742ZM589.266 327.49L595.864 308.779L611.217 314.193L604.619 332.904L601.186 331.694L606.693 316.076L598.168 313.07L592.661 328.687L589.266 327.49ZM616.684 337.668C611.931 335.992 609.851 331.907 611.474 327.305L613.03 322.892C614.653 318.289 618.811 316.362 623.601 318.052C628.43 319.754 630.497 323.876 628.874 328.479L627.317 332.892C625.708 337.457 621.513 339.371 616.684 337.668ZM614.895 328.427C613.924 331.181 615.099 333.503 617.852 334.475C620.644 335.459 622.991 334.336 623.949 331.62L625.439 327.395C626.423 324.603 625.338 322.269 622.508 321.271C619.717 320.287 617.37 321.41 616.385 324.202L614.895 328.427ZM640.788 345.659L646.295 330.042L639.09 327.501L635.776 336.299C634.077 340.875 631.546 342.4 627.887 341.109L626.868 340.75L627.959 337.657L628.563 337.87C630.449 338.535 631.629 337.594 632.689 334.829L637.05 323.303L650.781 328.145L644.183 346.856L640.788 345.659ZM649.166 348.613L655.764 329.903L659.159 331.1L656.419 338.871L665.057 341.917L667.798 334.146L671.231 335.357L664.632 354.067L661.2 352.857L663.967 345.01L655.328 341.964L652.561 349.811L649.166 348.613ZM669.612 355.823L676.21 337.113L679.492 338.27L674.796 351.586L688.319 341.383L691.45 342.487L684.852 361.198L681.532 360.027L686.228 346.711L672.743 356.927L669.612 355.823ZM693.065 364.094L698.572 348.476L692.348 346.282L693.439 343.188L709.32 348.789L708.229 351.882L702.005 349.687L696.497 365.304L693.065 364.094ZM712.247 371.367C707.418 369.665 705.301 365.567 706.91 361.003L708.493 356.513C710.103 351.949 714.336 350.049 719.089 351.725C723.804 353.388 725.796 357.483 724.199 362.01L722.962 365.518L710.665 361.181L710.345 362.087C709.361 364.878 710.497 367.188 713.364 368.199C715.816 369.063 718.106 368.344 718.769 366.584L722.164 367.781C720.659 371.449 716.661 372.924 712.247 371.367ZM711.662 358.352L720.565 361.491L720.751 360.963C721.736 358.172 720.65 355.838 717.972 354.893C715.18 353.909 712.82 355.07 711.848 357.824L711.662 358.352ZM736.091 379.267L741.598 363.649L734.393 361.108L731.078 369.907C729.38 374.482 726.848 376.007 723.189 374.717L722.171 374.358L723.262 371.265L723.865 371.477C725.751 372.143 726.931 371.202 727.991 368.437L732.353 356.911L746.084 361.753L739.486 380.464L736.091 379.267ZM744.468 382.221L751.067 363.51L754.462 364.708L752.174 371.196L758.058 373.271C762.019 374.668 763.76 377.911 762.496 381.495L762.363 381.872C761.099 385.456 757.709 386.89 753.748 385.493L744.468 382.221ZM748.954 380.325L754.688 382.347C756.763 383.079 758.329 382.486 758.981 380.637L759.088 380.336C759.726 378.525 758.854 377.03 756.817 376.311L751.083 374.289L748.954 380.325ZM764.975 387.162C765.303 386.231 765.76 385.657 766.345 385.44C766.931 385.222 767.538 385.224 768.167 385.446C768.821 385.677 769.308 386.06 769.627 386.597C769.972 387.143 769.98 387.881 769.652 388.812C769.333 389.717 768.863 390.287 768.244 390.52C767.649 390.763 767.025 390.769 766.371 390.539C765.742 390.317 765.273 389.925 764.962 389.363C764.651 388.801 764.655 388.067 764.975 387.162ZM770.668 371.016C771.005 370.061 771.467 369.474 772.052 369.257C772.638 369.039 773.245 369.041 773.874 369.263C774.528 369.493 775.015 369.877 775.334 370.414C775.679 370.96 775.683 371.71 775.346 372.666C775.027 373.571 774.557 374.141 773.937 374.375C773.343 374.618 772.719 374.624 772.065 374.393C771.436 374.171 770.966 373.78 770.655 373.218C770.345 372.656 770.349 371.922 770.668 371.016ZM810.577 405.534L806.489 384.412L800.392 382.262L794.22 399.766L788.546 397.765L802.509 358.171L808.183 360.171L802.202 377.132L808.539 379.367L824.6 365.961L830.635 368.089L830.316 368.994L812.268 383.803L816.932 406.757L816.612 407.662L810.577 405.534ZM831.113 413.59C823.508 410.908 820.18 404.373 822.777 397.01L825.267 389.948C827.864 382.585 834.516 379.501 842.181 382.204C849.907 384.929 853.214 391.524 850.617 398.888L848.127 405.949C845.551 413.253 838.839 416.314 831.113 413.59ZM828.252 398.805C826.698 403.211 828.577 406.927 832.983 408.481C837.449 410.056 841.205 408.259 842.737 403.913L845.121 397.153C846.696 392.687 844.959 388.952 840.432 387.356C835.966 385.781 832.211 387.578 830.635 392.045L828.252 398.805ZM856.716 421.804L865.528 396.816L855.569 393.305L857.314 388.355L882.724 397.316L880.979 402.265L871.02 398.753L862.208 423.741L856.716 421.804ZM887.408 433.442C879.682 430.717 876.293 424.161 878.869 416.858L881.402 409.676C883.977 402.372 890.75 399.332 898.355 402.014C905.899 404.674 909.086 411.227 906.531 418.47L904.552 424.083L884.876 417.144L884.365 418.593C882.79 423.059 884.608 426.754 889.196 428.372C893.119 429.755 896.782 428.604 897.843 425.789L903.275 427.704C900.866 433.573 894.469 435.932 887.408 433.442ZM886.472 412.617L900.716 417.64L901.014 416.795C902.589 412.329 900.852 408.595 896.567 407.084C892.101 405.509 888.324 407.366 886.77 411.772L886.472 412.617ZM925.557 446.081L934.369 421.093L922.841 417.028L917.537 431.105C914.82 438.426 910.77 440.866 904.915 438.801L903.286 438.227L905.031 433.277L905.997 433.618C909.014 434.682 910.903 433.176 912.598 428.753L919.577 410.312L941.547 418.059L930.989 447.996L925.557 446.081ZM938.962 450.808L949.519 420.871L954.951 422.786L951.29 433.168L960.706 436.488C967.043 438.723 969.828 443.912 967.806 449.646L967.593 450.25C965.571 455.984 960.147 458.279 953.81 456.044L938.962 450.808ZM946.139 447.774L955.314 451.009C958.633 452.18 961.139 451.231 962.182 448.274L962.352 447.791C963.374 444.894 961.978 442.501 958.719 441.352L949.545 438.117L946.139 447.774ZM970.26 461.845L980.817 431.908L986.249 433.823L981.865 446.257L995.687 451.131L1000.07 438.697L1005.56 440.634L995.007 470.571L989.514 468.635L993.941 456.08L980.12 451.206L975.692 463.76L970.26 461.845ZM1002.97 473.381L1013.53 443.444L1018.78 445.295L1011.27 466.602L1032.9 450.276L1037.91 452.043L1027.36 481.98L1022.05 480.107L1029.56 458.801L1007.98 475.147L1002.97 473.381ZM1035.33 484.792L1045.89 454.855L1051.32 456.771L1046.89 469.325L1051.84 471.07L1065.32 461.709L1071.24 463.795L1070.94 464.64L1055.96 475.169L1061.46 493.057L1061.17 493.902L1055.25 491.816L1050.26 475.941L1045.19 474.153L1040.76 486.708L1035.33 484.792ZM1076.25 500.037C1068.65 497.356 1065.32 490.821 1067.92 483.457L1070.41 476.395C1073.01 469.032 1079.66 465.949 1087.32 468.652C1095.05 471.376 1098.36 477.971 1095.76 485.335L1093.27 492.397C1090.69 499.7 1083.98 502.762 1076.25 500.037ZM1073.39 485.252C1071.84 489.658 1073.72 493.375 1078.12 494.928C1082.59 496.503 1086.35 494.706 1087.88 490.36L1090.26 483.6C1091.84 479.134 1090.1 475.4 1085.57 473.803C1081.11 472.228 1077.35 474.026 1075.78 478.492L1073.39 485.252ZM1096.16 506.243L1106.72 476.306L1121.02 481.35C1128.15 483.862 1130.49 487.809 1128.78 492.637L1128.51 493.422C1127.46 496.38 1125.19 498.02 1122.07 498.209C1124.84 500.544 1125.82 503.537 1124.69 506.736L1124.4 507.581C1122.71 512.349 1118.25 514.033 1111.19 511.543L1096.16 506.243ZM1103.15 503.752L1113.05 507.243C1115.94 508.265 1118.32 507.476 1119.2 505.001L1119.45 504.277C1120.33 501.802 1119 499.776 1115.99 498.711L1106.15 495.242L1103.15 503.752ZM1107.68 490.896L1116.92 494.153C1119.81 495.175 1122.09 494.283 1122.93 491.929L1123.16 491.265C1123.99 488.911 1122.73 486.906 1119.77 485.863L1110.6 482.627L1107.68 490.896ZM1153.27 526.383C1150.38 525.361 1148.56 523.569 1148.1 521.233C1145.07 522.881 1141.37 522.999 1137.38 521.594C1130.93 519.317 1128.03 514.632 1129.93 509.26C1131.65 504.371 1135.77 502.701 1142.79 504.159L1152.21 506.123L1152.89 504.191C1154.25 500.328 1152.74 497.489 1148.45 495.978C1144.23 494.488 1141.15 495.71 1139.9 499.271L1139.75 499.693L1134.25 497.756L1134.4 497.334C1136.72 490.755 1142.9 488.251 1150.44 490.911C1157.99 493.572 1160.85 499.127 1158.34 506.249L1154.27 517.777C1153.59 519.709 1154.11 521.114 1156.1 521.817L1158.22 522.562L1156.47 527.511L1153.27 526.383ZM1135.38 511.115C1134.51 513.59 1136.09 515.844 1139.41 517.014C1142.97 518.27 1146.44 517.662 1148.89 515.538L1150.69 510.408L1142.18 508.763C1138.51 508.011 1136.19 508.822 1135.38 511.115ZM1172.2 533.057L1172.52 532.151L1198.9 497.953L1205.41 500.252L1204.51 543.432L1204.19 544.337L1198.57 542.358L1198.93 532.102L1183.96 526.823L1177.81 535.036L1172.2 533.057ZM1187.4 522.267L1199.11 526.397L1199.86 505.621L1187.4 522.267ZM1209.74 546.297L1220.3 516.36L1225.73 518.275L1221.35 530.709L1235.17 535.583L1239.55 523.149L1245.05 525.086L1234.49 555.023L1229 553.086L1233.42 540.532L1219.6 535.658L1215.18 548.212L1209.74 546.297ZM1242.46 557.833L1253.01 527.896L1258.45 529.811L1254.06 542.245L1267.88 547.119L1272.27 534.685L1277.76 536.622L1267.2 566.559L1261.71 564.622L1266.14 552.068L1252.32 547.194L1247.89 559.748L1242.46 557.833ZM1299.51 577.952C1296.61 576.93 1294.8 575.138 1294.33 572.802C1291.31 574.45 1287.6 574.568 1283.62 573.163C1277.16 570.886 1274.27 566.201 1276.16 560.829C1277.89 555.94 1282 554.27 1289.02 555.728L1298.44 557.692L1299.12 555.76C1300.49 551.898 1298.98 549.058 1294.69 547.547C1290.47 546.057 1287.39 547.279 1286.13 550.84L1285.98 551.262L1280.49 549.326L1280.64 548.903C1282.96 542.324 1289.14 539.82 1296.68 542.48C1304.23 545.141 1307.08 550.696 1304.57 557.818L1300.51 569.346C1299.83 571.278 1300.35 572.683 1302.34 573.386L1304.45 574.131L1302.71 579.08L1299.51 577.952ZM1281.62 562.684C1280.74 565.159 1282.32 567.413 1285.64 568.583C1289.2 569.839 1292.68 569.231 1295.12 567.108L1296.93 561.977L1288.42 560.332C1284.75 559.581 1282.42 560.391 1281.62 562.684Z" fill="black"/>
<path d="M512.908 392.459L519.636 373.795L524.114 375.409L524.915 391.472L535.779 379.613L540.257 381.227L533.53 399.892L530.407 398.766L535.506 384.617L534.502 385.871L524.574 396.664L521.902 395.701L521.143 381.056L521.158 379.361L516.032 393.585L512.908 392.459ZM545.661 404.774C540.844 403.038 538.754 398.926 540.395 394.373L542.009 389.895C543.651 385.341 547.897 383.47 552.638 385.179C557.342 386.874 559.305 390.983 557.677 395.499L556.416 398.999L544.148 394.577L543.823 395.48C542.819 398.265 543.94 400.582 546.8 401.613C549.246 402.495 551.54 401.791 552.215 400.036L555.602 401.257C554.071 404.914 550.063 406.361 545.661 404.774ZM545.166 391.755L554.046 394.956L554.236 394.429C555.24 391.644 554.17 389.303 551.499 388.34C548.714 387.336 546.346 388.481 545.355 391.228L545.166 391.755ZM555.509 415.042L564.542 389.98L567.59 391.078L567.171 392.713C568.963 391.871 571.065 391.82 573.209 392.593C577.575 394.167 579.353 398.081 577.739 402.56L576.003 407.376C574.402 411.817 570.522 413.735 566.157 412.161C564.087 411.415 562.563 410.101 561.717 408.435L558.896 416.262L555.509 415.042ZM563.074 404.672C563.359 406.476 564.638 408 566.67 408.732C569.379 409.709 571.669 408.663 572.632 405.991L574.26 401.476C575.209 398.842 574.126 396.538 571.417 395.561C569.46 394.856 567.465 395.2 566.044 396.431L563.074 404.672ZM584.869 418.905C580.127 417.196 578.075 413.098 579.73 408.507L581.317 404.104C582.971 399.513 587.142 397.615 591.921 399.338C596.738 401.074 598.776 405.21 597.122 409.801L595.535 414.203C593.894 418.757 589.685 420.641 584.869 418.905ZM583.144 409.652C582.154 412.399 583.312 414.73 586.059 415.72C588.844 416.724 591.199 415.617 592.175 412.907L593.694 408.693C594.698 405.908 593.628 403.567 590.806 402.55C588.021 401.546 585.666 402.653 584.663 405.438L583.144 409.652ZM597.283 422.87L604.01 404.205L619.326 409.725L612.599 428.39L609.174 427.155L614.789 411.576L606.285 408.511L600.67 424.09L597.283 422.87ZM615.262 436.578L624.295 411.516L627.343 412.615L626.924 414.249C628.716 413.407 630.818 413.357 632.963 414.13C637.328 415.703 639.106 419.618 637.492 424.096L635.756 428.912C634.155 433.353 630.275 435.271 625.91 433.697C623.84 432.952 622.316 431.637 621.47 429.971L618.649 437.799L615.262 436.578ZM622.827 426.208C623.112 428.012 624.391 429.536 626.423 430.268C629.132 431.245 631.423 430.199 632.385 427.528L634.013 423.012C634.962 420.378 633.879 418.074 631.17 417.098C629.213 416.392 627.218 416.736 625.797 417.967L622.827 426.208ZM637.559 437.386L644.286 418.721L647.56 419.901L642.773 433.185L656.366 423.075L659.489 424.201L652.762 442.865L649.451 441.672L654.238 428.388L640.683 438.512L637.559 437.386ZM656.465 444.2L656.627 443.748L664.395 439.065C661.298 437.396 659.985 434.669 661.016 431.809L661.205 431.282C662.467 427.782 665.976 426.539 670.153 428.044L679.185 431.299L672.457 449.964L669.033 448.73L671.542 441.768L668.419 440.642L660.265 445.57L656.465 444.2ZM664.453 433.005C663.857 434.661 664.797 436.063 667.017 436.863L672.587 438.871L674.662 433.113L669.092 431.106C666.947 430.333 665.227 430.86 664.616 432.554L664.453 433.005ZM680.652 452.917L686.267 437.338L680.058 435.101L681.17 432.015L697.013 437.725L695.9 440.81L689.691 438.573L684.076 454.152L680.652 452.917ZM693.197 457.439L699.924 438.774L703.198 439.954L698.41 453.237L712.003 443.128L715.126 444.253L708.399 462.918L705.088 461.725L709.875 448.441L696.32 458.564L693.197 457.439ZM720.547 467.806C715.73 466.07 713.64 461.958 715.282 457.405L716.896 452.927C718.537 448.374 722.783 446.503 727.524 448.211C732.228 449.907 734.191 454.016 732.563 458.531L731.302 462.031L719.035 457.61L718.709 458.513C717.705 461.297 718.826 463.615 721.686 464.645C724.132 465.527 726.426 464.823 727.102 463.068L730.488 464.289C728.957 467.947 724.949 469.393 720.547 467.806ZM720.052 454.787L728.933 457.988L729.122 457.461C730.126 454.677 729.057 452.335 726.385 451.372C723.6 450.369 721.232 451.514 720.242 454.261L720.052 454.787ZM733.659 469.726C733.994 468.798 734.455 468.227 735.042 468.014C735.629 467.8 736.236 467.806 736.864 468.032C737.516 468.267 738 468.654 738.316 469.194C738.657 469.742 738.66 470.48 738.326 471.408C738 472.311 737.527 472.878 736.905 473.107C736.309 473.346 735.685 473.348 735.033 473.112C734.405 472.886 733.938 472.491 733.631 471.927C733.325 471.363 733.334 470.629 733.659 469.726ZM739.464 453.62C739.808 452.667 740.273 452.084 740.86 451.87C741.448 451.657 742.055 451.663 742.682 451.889C743.334 452.124 743.818 452.511 744.134 453.05C744.475 453.598 744.474 454.349 744.13 455.302C743.805 456.205 743.331 456.772 742.71 457.001C742.114 457.24 741.49 457.242 740.837 457.007C740.21 456.781 739.743 456.385 739.436 455.821C739.129 455.257 739.139 454.524 739.464 453.62ZM781.843 489.389C778.953 488.347 777.154 486.542 776.705 484.203C773.669 485.83 769.962 485.923 765.989 484.491C759.546 482.169 756.684 477.464 758.615 472.105C760.373 467.228 764.502 465.587 771.511 467.093L780.916 469.122L781.61 467.195C782.999 463.342 781.509 460.492 777.235 458.951C773.02 457.432 769.934 458.633 768.654 462.185L768.502 462.606L763.023 460.632L763.175 460.21C765.54 453.647 771.734 451.186 779.26 453.898C786.786 456.611 789.607 462.186 787.046 469.29L782.901 480.79C782.207 482.717 782.719 484.126 784.706 484.842L786.814 485.602L785.034 490.539L781.843 489.389ZM764.056 473.998C763.166 476.466 764.731 478.731 768.042 479.925C771.595 481.205 775.071 480.621 777.531 478.514L779.375 473.397L770.873 471.693C767.208 470.916 764.881 471.71 764.056 473.998ZM785.625 502.317L800.078 462.218L804.954 463.976L804.284 466.591C807.151 465.243 810.513 465.163 813.945 466.4C820.929 468.917 823.774 475.18 821.192 482.345L818.414 490.052C815.853 497.157 809.645 500.225 802.661 497.708C799.349 496.515 796.91 494.411 795.558 491.746L791.044 504.27L785.625 502.317ZM797.728 485.726C798.184 488.611 800.231 491.05 803.482 492.221C807.817 493.784 811.481 492.111 813.022 487.836L815.626 480.611C817.145 476.397 815.412 472.711 811.077 471.148C807.946 470.02 804.754 470.57 802.48 472.54L797.728 485.726ZM826.982 505.658L835.966 480.731L826.032 477.151L827.811 472.214L853.159 481.349L851.38 486.287L841.445 482.706L832.461 507.632L826.982 505.658ZM850.163 497.957L851.942 493.02L867.115 498.489L865.335 503.426L850.163 497.957ZM867.633 520.309L878.396 490.445L902.901 499.277L892.137 529.141L886.658 527.166L895.642 502.24L882.035 497.335L873.051 522.262L867.633 520.309ZM896.4 542.242L910.852 502.143L915.729 503.901L915.059 506.516C917.925 505.169 921.288 505.088 924.72 506.325C931.704 508.842 934.549 515.106 931.966 522.271L929.189 529.977C926.628 537.082 920.42 540.151 913.436 537.633C910.124 536.44 907.685 534.336 906.332 531.672L901.819 544.195L896.4 542.242ZM908.502 525.651C908.959 528.537 911.005 530.975 914.257 532.147C918.592 533.709 922.256 532.037 923.797 527.762L926.401 520.537C927.92 516.322 926.187 512.636 921.852 511.074C918.721 509.945 915.529 510.496 913.255 512.465L908.502 525.651ZM957.001 552.519C954.111 551.477 952.312 549.673 951.863 547.334C948.827 548.961 945.12 549.053 941.147 547.621C934.704 545.299 931.842 540.594 933.773 535.235C935.531 530.358 939.66 528.717 946.669 530.223L956.074 532.252L956.768 530.325C958.157 526.472 956.667 523.622 952.393 522.081C948.178 520.562 945.092 521.763 943.812 525.315L943.66 525.737L938.181 523.762L938.333 523.341C940.698 516.778 946.892 514.316 954.418 517.029C961.944 519.741 964.765 525.316 962.204 532.421L958.059 543.92C957.365 545.847 957.877 547.256 959.864 547.972L961.972 548.732L960.192 553.669L957.001 552.519ZM939.214 537.128C938.324 539.597 939.889 541.861 943.201 543.055C946.753 544.335 950.229 543.751 952.689 541.645L954.533 536.527L946.031 534.823C942.366 534.046 940.039 534.84 939.214 537.128ZM964.472 555.212L975.236 525.348L980.654 527.301L976.141 539.825L981.078 541.604L994.623 532.336L1000.52 534.462L1000.22 535.305L985.169 545.732L990.545 563.657L990.242 564.499L984.341 562.373L979.462 546.464L974.405 544.641L969.891 557.165L964.472 555.212ZM1002.61 568.958L1011.59 544.031L1001.66 540.451L1003.44 535.513L1028.79 544.649L1027.01 549.586L1017.07 546.006L1008.09 570.932L1002.61 568.958ZM1022.68 576.192L1033.45 546.328L1038.68 548.216L1031.02 569.47L1052.77 553.294L1057.77 555.095L1047.01 584.959L1041.71 583.049L1049.37 561.795L1027.68 577.993L1022.68 576.192ZM1054.96 587.826L1065.73 557.962L1071.14 559.915L1066.63 572.439L1071.57 574.218L1085.11 564.95L1091.01 567.077L1090.71 567.919L1075.66 578.346L1081.03 596.271L1080.73 597.114L1074.83 594.987L1069.95 579.078L1064.89 577.255L1060.38 589.779L1054.96 587.826ZM1109.93 607.639C1107.04 606.597 1105.25 604.792 1104.8 602.453C1101.76 604.081 1098.05 604.173 1094.08 602.741C1087.64 600.419 1084.77 595.714 1086.71 590.355C1088.46 585.478 1092.59 583.837 1099.6 585.343L1109.01 587.372L1109.7 585.445C1111.09 581.592 1109.6 578.742 1105.33 577.201C1101.11 575.682 1098.02 576.883 1096.74 580.435L1096.59 580.857L1091.11 578.882L1091.27 578.46C1093.63 571.898 1099.82 569.436 1107.35 572.149C1114.88 574.861 1117.7 580.436 1115.14 587.54L1110.99 599.04C1110.3 600.967 1110.81 602.376 1112.8 603.092L1114.9 603.852L1113.12 608.789L1109.93 607.639ZM1092.15 592.248C1091.26 594.717 1092.82 596.981 1096.13 598.175C1099.69 599.455 1103.16 598.871 1105.62 596.765L1107.47 591.647L1098.96 589.943C1095.3 589.166 1092.97 589.96 1092.15 592.248ZM1133.68 616.197L1135.48 611.199L1150.65 604.217C1159.37 600.217 1161.8 598.373 1163.06 594.881L1163.28 594.279C1164.67 590.426 1162.9 587.205 1158.51 585.621C1154.05 584.015 1150.6 585.49 1149.12 589.584L1148.66 590.848L1143.12 588.852L1143.6 587.527C1146.23 580.242 1152.51 577.54 1160.4 580.382C1168.22 583.203 1171.36 589.231 1168.82 596.275L1168.6 596.878C1166.89 601.634 1163.23 604.603 1154 608.894L1143.15 613.895L1161.27 620.427L1159.45 625.484L1133.68 616.197ZM1179.44 633.506C1171.25 630.555 1167.47 622.932 1170.18 615.406L1175.47 600.715C1178.23 593.069 1185.98 589.673 1194.17 592.624C1202.36 595.576 1206.09 603.176 1203.35 610.763L1198.06 625.454C1195.34 632.98 1187.57 636.436 1179.44 633.506ZM1175.91 617.063C1174.11 622.061 1176.21 626.424 1181.33 628.268C1186.5 630.134 1190.76 628.132 1192.59 623.074L1197.64 609.046C1199.44 604.048 1197.34 599.685 1192.29 597.863C1187.17 596.018 1182.79 597.977 1180.97 603.035L1175.91 617.063ZM1200.71 640.355L1202.51 635.358L1217.68 628.376C1226.4 624.376 1228.83 622.532 1230.09 619.04L1230.31 618.438C1231.7 614.584 1229.93 611.363 1225.54 609.779C1221.08 608.173 1217.62 609.649 1216.15 613.743L1215.69 615.007L1210.15 613.011L1210.63 611.686C1213.26 604.401 1219.54 601.698 1227.43 604.541C1235.25 607.362 1238.39 613.39 1235.85 620.434L1235.63 621.036C1233.92 625.793 1230.26 628.761 1221.03 633.052L1210.18 638.054L1228.3 644.586L1226.48 649.643L1200.71 640.355ZM1236.29 637.466C1243.16 630.486 1248.39 623.526 1253.28 614.676L1259 616.738L1258.68 617.641C1254.08 625.851 1248.85 633.012 1242.43 639.679L1256.04 644.584L1262.75 625.979L1268.28 627.975L1261.58 646.58L1267.96 648.88L1266.07 654.118L1259.69 651.818L1256.57 660.488L1251.03 658.492L1254.15 649.822L1234.4 642.704L1236.29 637.466Z" fill="black"/>
<path d="M478.996 475.85L487.807 451.134L491.349 452.396L487.507 463.172L497.605 466.772L501.446 455.996L504.988 457.259L496.176 481.975L492.635 480.712L496.463 469.974L486.365 466.374L482.537 477.112L478.996 475.85ZM501.44 483.851L510.252 459.135L513.718 460.371L507.136 478.833L524.004 464.038L527.545 465.301L518.734 490.017L515.268 488.781L521.836 470.357L504.982 485.114L501.44 483.851ZM524.635 492.121L525.777 488.918L528.754 489.979C530.035 490.436 530.958 490.468 532.264 489.065L530.947 467.15L531.149 466.585L534.69 467.848L535.55 485.566L546.935 472.213L550.477 473.476L550.276 474.041L535.322 491.09C532.964 493.774 530.965 494.377 527.8 493.249L524.635 492.121ZM552.731 502.137L561.543 477.421L570.585 480.645C575.219 482.297 577.323 485.807 575.939 489.688L575.738 490.253C574.919 492.551 573.13 493.995 570.87 494.378C572.73 496.188 573.377 498.542 572.491 501.028L572.276 501.631C570.852 505.625 566.898 507.188 562.301 505.549L552.731 502.137ZM557.414 500.197L563.33 502.306C565.967 503.246 568.02 502.492 568.812 500.269L569.027 499.666C569.806 497.481 568.683 495.509 566.121 494.596L560.168 492.473L557.414 500.197ZM561.296 489.309L566.835 491.283C569.359 492.183 571.374 491.415 572.14 489.268L572.341 488.702C573.12 486.517 572.081 484.788 569.443 483.847L563.943 481.886L561.296 489.309ZM574.366 509.85L583.178 485.134L586.719 486.397L579.049 507.91L587.941 511.08L595.611 489.567L599.115 490.816L591.445 512.33L600.375 515.513L608.045 493.999L611.586 495.262L602.775 519.978L574.366 509.85ZM616.613 525.421C611.149 523.474 608.531 518.548 610.318 513.537L610.492 513.048L613.996 514.297L613.822 514.787C612.68 517.989 614.315 520.908 617.781 522.143C621.549 523.487 624.5 522.118 625.843 518.35L626.555 516.353L617.211 513.022L618.353 509.82L627.697 513.151L628.395 511.192C629.752 507.386 628.346 504.422 624.653 503.106C620.999 501.803 618.04 502.956 616.884 506.196L616.696 506.724L613.192 505.474L613.38 504.947C615.167 499.936 620.283 497.853 625.747 499.801C631.436 501.829 633.925 506.878 631.977 512.341L629.344 519.726C627.41 525.152 622.302 527.45 616.613 525.421ZM642.377 534.097L643.518 530.894L646.495 531.955C647.776 532.412 648.699 532.444 650.006 531.041L648.688 509.126L648.89 508.561L652.432 509.824L653.292 527.542L664.677 514.189L668.218 515.452L668.017 516.017L653.063 533.066C650.705 535.75 648.706 536.353 645.542 535.225L642.377 534.097ZM660.387 540.518L667.05 521.83L682.384 527.297L675.722 545.985L672.293 544.762L677.854 529.164L669.339 526.128L663.778 541.727L660.387 540.518ZM678.414 554.164L687.36 529.071L690.412 530.159L689.998 531.795C691.787 530.946 693.889 530.889 696.036 531.654C700.407 533.213 702.198 537.121 700.6 541.605L698.881 546.427C697.296 550.873 693.422 552.805 689.051 551.247C686.979 550.508 685.45 549.198 684.599 547.536L681.805 555.373L678.414 554.164ZM685.942 543.768C686.234 545.571 687.518 547.09 689.553 547.816C692.265 548.783 694.552 547.729 695.506 545.054L697.118 540.533C698.058 537.896 696.967 535.596 694.254 534.629C692.295 533.93 690.301 534.281 688.884 535.517L685.942 543.768ZM716.312 560.456C714.503 559.811 713.375 558.687 713.089 557.226C711.196 558.249 708.879 558.315 706.392 557.429C702.361 555.992 700.562 553.057 701.757 549.704C702.845 546.652 705.423 545.617 709.806 546.543L715.689 547.791L716.119 546.585C716.978 544.174 716.041 542.396 713.366 541.442C710.728 540.502 708.802 541.259 708.01 543.482L707.916 543.746L704.487 542.523L704.581 542.26C706.045 538.153 709.911 536.601 714.621 538.28C719.33 539.959 721.105 543.437 719.52 547.883L716.955 555.079C716.525 556.285 716.848 557.165 718.092 557.608L719.41 558.078L718.309 561.168L716.312 560.456ZM705.162 550.875C704.611 552.42 705.594 553.832 707.666 554.571C709.889 555.363 712.06 554.991 713.593 553.669L714.735 550.466L709.418 549.42C707.125 548.942 705.672 549.443 705.162 550.875ZM720.987 562.122L727.65 543.434L736.579 546.618C741.025 548.203 742.479 550.675 741.405 553.689L741.23 554.179C740.572 556.025 739.147 557.046 737.196 557.157C738.924 558.622 739.531 560.495 738.819 562.492L738.631 563.019C737.569 565.996 734.777 567.039 730.369 565.467L720.987 562.122ZM725.359 560.581L731.538 562.784C733.346 563.429 734.837 562.941 735.387 561.396L735.549 560.944C736.099 559.399 735.278 558.129 733.394 557.458L727.253 555.268L725.359 560.581ZM728.22 552.556L733.984 554.611C735.793 555.255 737.221 554.703 737.745 553.234L737.893 552.819C738.417 551.35 737.633 550.094 735.787 549.436L730.06 547.394L728.22 552.556ZM752.946 573.516L758.507 557.918L751.311 555.352L747.966 564.139C746.252 568.709 743.715 570.225 740.06 568.922L739.043 568.56L740.145 565.47L740.747 565.685C742.631 566.357 743.815 565.419 744.884 562.658L749.285 551.148L762.999 556.037L756.337 574.725L752.946 573.516ZM768.499 579.571C763.677 577.851 761.573 573.746 763.198 569.188L764.797 564.704C766.422 560.145 770.662 558.259 775.409 559.952C780.119 561.631 782.096 565.733 780.484 570.254L779.235 573.758L766.952 569.379L766.63 570.283C765.636 573.071 766.764 575.385 769.628 576.406C772.077 577.279 774.369 576.567 775.038 574.81L778.429 576.019C776.911 579.682 772.908 581.142 768.499 579.571ZM767.959 566.553L776.851 569.723L777.039 569.196C778.033 566.408 776.956 564.07 774.281 563.116C771.492 562.122 769.128 563.275 768.147 566.026L767.959 566.553ZM780.667 583.399L787.33 564.711L790.721 565.92L787.954 573.681L796.582 576.757L799.349 568.996L802.777 570.218L796.115 588.906L792.686 587.684L795.48 579.847L786.852 576.771L784.058 584.608L780.667 583.399ZM801.088 590.679L807.751 571.991L811.028 573.16L806.287 586.46L819.845 576.303L822.972 577.418L816.31 596.106L812.994 594.924L817.736 581.624L804.215 591.794L801.088 590.679ZM828.474 600.952C823.651 599.233 821.548 595.128 823.173 590.569L824.771 586.085C826.397 581.527 830.636 579.641 835.383 581.333C840.093 583.012 842.07 587.114 840.458 591.636L839.209 595.14L826.926 590.761L826.604 591.665C825.61 594.453 826.739 596.766 829.602 597.787C832.051 598.66 834.343 597.949 835.012 596.191L838.403 597.4C836.885 601.063 832.882 602.524 828.474 600.952ZM827.934 587.935L836.826 591.105L837.014 590.577C838.008 587.789 836.93 585.452 834.255 584.498C831.467 583.504 829.102 584.657 828.122 587.407L827.934 587.935ZM851.202 608.545L857.864 589.857L866.794 593.041C871.24 594.626 872.694 597.098 871.619 600.112L871.445 600.602C870.787 602.448 869.361 603.468 867.41 603.58C869.139 605.045 869.745 606.918 869.033 608.915L868.845 609.442C867.784 612.419 864.992 613.461 860.583 611.89L851.202 608.545ZM855.573 607.004L861.752 609.207C863.561 609.851 865.051 609.364 865.602 607.819L865.763 607.367C866.314 605.822 865.492 604.552 863.609 603.881L857.467 601.691L855.573 607.004ZM858.434 598.978L864.199 601.034C866.007 601.678 867.436 601.126 867.96 599.657L868.107 599.242C868.631 597.773 867.848 596.517 866.001 595.858L860.275 593.817L858.434 598.978ZM881.814 619.459L888.477 600.771L891.868 601.98L889.074 609.817L892.163 610.918L900.609 605.096L904.301 606.413L904.113 606.94L894.729 613.489L898.128 624.681L897.94 625.208L894.248 623.892L891.164 613.959L887.999 612.831L885.205 620.668L881.814 619.459ZM899.253 632.895L908.199 607.802L911.25 608.89L910.837 610.526C912.626 609.678 914.727 609.62 916.875 610.386C921.245 611.944 923.037 615.852 921.438 620.336L919.719 625.159C918.134 629.605 914.261 631.536 909.89 629.978C907.818 629.239 906.289 627.93 905.437 626.267L902.644 634.104L899.253 632.895ZM906.781 622.499C907.072 624.302 908.357 625.822 910.391 626.547C913.104 627.514 915.39 626.461 916.344 623.786L917.956 619.264C918.896 616.627 917.805 614.327 915.093 613.36C913.133 612.661 911.14 613.012 909.722 614.248L906.781 622.499ZM928.738 636.697C923.915 634.978 921.812 630.873 923.437 626.314L925.035 621.831C926.661 617.272 930.9 615.386 935.647 617.078C940.357 618.757 942.334 622.86 940.722 627.381L939.473 630.885L927.191 626.506L926.868 627.41C925.874 630.198 927.003 632.512 929.866 633.532C932.315 634.406 934.607 633.694 935.276 631.937L938.667 633.145C937.149 636.808 933.146 638.269 928.738 636.697ZM928.198 623.68L937.09 626.85L937.278 626.323C938.272 623.535 937.194 621.197 934.519 620.243C931.731 619.249 929.367 620.402 928.386 623.153L928.198 623.68ZM956.504 646.087C954.696 645.442 953.568 644.318 953.282 642.857C951.388 643.881 949.071 643.946 946.585 643.06C942.553 641.623 940.754 638.688 941.95 635.335C943.038 632.283 945.615 631.248 949.998 632.174L955.881 633.422L956.311 632.216C957.17 629.805 956.233 628.027 953.558 627.073C950.921 626.133 948.995 626.89 948.202 629.113L948.108 629.377L944.679 628.155L944.773 627.891C946.237 623.784 950.103 622.232 954.813 623.911C959.522 625.59 961.298 629.068 959.713 633.514L957.147 640.71C956.717 641.916 957.041 642.796 958.284 643.239L959.603 643.709L958.501 646.799L956.504 646.087ZM945.354 636.506C944.803 638.051 945.786 639.463 947.858 640.202C950.081 640.994 952.253 640.622 953.786 639.3L954.927 636.097L949.61 635.051C947.317 634.573 945.864 635.074 945.354 636.506ZM964.404 648.903L969.965 633.305L963.748 631.088L964.85 627.999L980.712 633.654L979.61 636.743L973.394 634.527L967.833 650.125L964.404 648.903ZM976.964 653.381L983.627 634.693L986.904 635.862L982.163 649.162L995.721 639.005L998.848 640.12L992.186 658.808L988.87 657.626L993.612 644.325L980.091 654.496L976.964 653.381ZM997.164 660.582L1003.83 641.895L1012.76 645.078C1017.2 646.663 1018.66 649.135 1017.58 652.149L1017.41 652.639C1016.75 654.485 1015.32 655.506 1013.37 655.617C1015.1 657.083 1015.71 658.955 1015 660.952L1014.81 661.479C1013.75 664.456 1010.95 665.499 1006.55 663.927L997.164 660.582ZM1001.54 659.041L1007.71 661.244C1009.52 661.889 1011.01 661.401 1011.56 659.856L1011.73 659.404C1012.28 657.859 1011.45 656.589 1009.57 655.918L1003.43 653.728L1001.54 659.041ZM1004.4 651.016L1010.16 653.071C1011.97 653.716 1013.4 653.163 1013.92 651.694L1014.07 651.279C1014.59 649.81 1013.81 648.554 1011.96 647.896L1006.24 645.854L1004.4 651.016ZM1017.22 667.731L1023.88 649.044L1027.27 650.252L1024.5 658.014L1033.13 661.09L1035.9 653.328L1039.33 654.551L1032.66 673.239L1029.24 672.016L1032.03 664.18L1023.4 661.104L1020.61 668.94L1017.22 667.731ZM1037.75 675.052L1044.41 656.364L1047.8 657.573L1045.49 664.053L1051.48 666.189C1055.59 667.653 1057.13 670.962 1055.89 674.428L1055.76 674.805C1054.52 678.271 1051.24 679.861 1047.13 678.397L1037.75 675.052ZM1042.24 673.171L1048.08 675.253C1050.31 676.046 1051.76 675.292 1052.38 673.559L1052.49 673.257C1053.08 671.599 1052.46 670.018 1050.23 669.225L1044.39 667.143L1042.24 673.171ZM1055.8 681.486L1062.46 662.798L1065.89 664.021L1059.23 682.708L1055.8 681.486ZM1062.92 684.025L1063.11 683.497L1072.42 676.795L1069.54 665.918L1069.73 665.391L1073.42 666.707L1075.54 675.063L1082.47 669.931L1086.16 671.247L1085.97 671.775L1076.83 678.367L1079.84 689.461L1079.65 689.989L1075.96 688.672L1073.76 680.074L1066.61 685.341L1062.92 684.025ZM1093.79 695.029L1100.45 676.341L1103.73 677.51L1098.98 690.81L1112.54 680.653L1115.67 681.768L1109.01 700.456L1105.69 699.274L1110.43 685.974L1096.91 696.144L1093.79 695.029ZM1113.99 702.231L1120.65 683.543L1124.04 684.752L1121.27 692.513L1129.9 695.589L1132.67 687.828L1136.1 689.05L1129.43 707.738L1126 706.515L1128.8 698.679L1120.17 695.603L1117.38 703.439L1113.99 702.231ZM1136.33 710.196L1134.57 715.132L1131.18 713.923L1134.04 705.897L1136.37 706.73C1138 705.271 1139.29 703.185 1140.14 700.938L1143.56 691.709L1157.31 696.612L1151.75 712.211L1154.53 713.205L1151.67 721.23L1148.25 720.007L1150 715.072L1136.33 710.196ZM1139.73 707.926L1148.36 711.002L1152.82 698.493L1145.62 695.927L1143.25 702.217C1142.45 704.351 1141.24 706.426 1139.73 707.926ZM1153.61 723.576L1154.71 720.486L1157.39 721.44C1158.82 721.95 1159.75 721.945 1161.13 720.354L1161.8 719.533L1161.01 698.527L1161.2 697.999L1164.66 699.235L1165.14 715.756L1175.74 703.184L1179.21 704.42L1179.02 704.947L1163.97 722.513C1161.78 725.086 1159.71 725.752 1156.59 724.637L1153.61 723.576ZM1182.51 727.169C1177.72 725.463 1175.63 721.32 1177.26 716.761L1178.84 712.315C1180.47 707.756 1184.71 705.87 1189.49 707.576C1194.01 709.188 1196.12 713.293 1194.63 717.475L1194.48 717.89L1191.09 716.681L1191.23 716.266C1192.07 713.93 1190.87 711.679 1188.35 710.779C1185.52 709.772 1183.22 710.863 1182.24 713.613L1180.71 717.908C1179.73 720.659 1180.86 722.972 1183.65 723.966C1186.17 724.866 1188.51 723.915 1189.31 721.654L1189.46 721.24L1192.85 722.449L1192.7 722.863C1191.2 727.083 1187.14 728.821 1182.51 727.169ZM1198.12 732.226L1203.68 716.627L1197.46 714.411L1198.57 711.321L1214.43 716.976L1213.33 720.066L1207.11 717.85L1201.55 733.448L1198.12 732.226ZM1208.4 743.108L1217.34 718.015L1220.39 719.103L1219.98 720.74C1221.77 719.891 1223.87 719.833 1226.02 720.599C1230.39 722.157 1232.18 726.066 1230.58 730.549L1228.86 735.372C1227.28 739.818 1223.41 741.749 1219.03 740.191C1216.96 739.452 1215.43 738.143 1214.58 736.481L1211.79 744.317L1208.4 743.108ZM1215.93 732.713C1216.22 734.515 1217.5 736.035 1219.54 736.76C1222.25 737.727 1224.53 736.674 1225.49 733.999L1227.1 729.478C1228.04 726.84 1226.95 724.54 1224.24 723.573C1222.28 722.875 1220.28 723.226 1218.87 724.461L1215.93 732.713ZM1230.7 743.839L1237.36 725.151L1240.64 726.32L1235.9 739.62L1249.45 729.463L1252.58 730.578L1245.92 749.266L1242.6 748.084L1247.34 734.784L1233.82 744.954L1230.7 743.839ZM1249.63 750.588L1249.79 750.135L1257.54 745.425C1254.44 743.767 1253.11 741.044 1254.13 738.181L1254.32 737.653C1255.57 734.149 1259.08 732.894 1263.26 734.385L1272.3 737.608L1265.64 756.296L1262.21 755.074L1264.69 748.104L1261.57 746.989L1253.43 751.944L1249.63 750.588ZM1257.58 739.366C1256.98 741.023 1257.93 742.422 1260.15 743.215L1265.73 745.203L1267.78 739.438L1262.21 737.45C1260.06 736.684 1258.34 737.218 1257.74 738.913L1257.58 739.366ZM1269.22 757.575L1269.41 757.047L1278.72 750.345L1275.85 739.468L1276.04 738.941L1279.73 740.257L1281.85 748.613L1288.77 743.481L1292.46 744.797L1292.28 745.325L1283.13 751.917L1286.14 763.011L1285.95 763.539L1282.26 762.222L1280.06 753.624L1272.92 758.891L1269.22 757.575Z" fill="black"/>
</g>
<defs>
<clipPath id="clip0_696_6">
<rect width="1464" height="1149" fill="white"/>
</clipPath>
</defs>
</svg>
