<svg width="459" height="440" viewBox="0 0 459 440" fill="none" xmlns="http://www.w3.org/2000/svg">
<path d="M138.922 176.033L158.707 223.815" stroke="black" stroke-width="4.46965"/>
<path d="M144.047 144.602L166.076 206.826" stroke="black" stroke-width="4.46965"/>
<mask id="path-3-inside-1_331_5490" fill="white">
<path d="M374.178 290.291C377.909 275.482 378.447 260.06 375.759 245.003C373.071 229.945 367.215 215.582 358.563 202.823C349.911 190.064 338.652 179.189 325.499 170.888C312.347 162.586 297.588 157.039 282.16 154.599C266.732 152.159 250.972 152.879 235.878 156.713C220.785 160.547 206.688 167.411 194.482 176.871C182.276 186.331 172.227 198.179 164.974 211.664C157.721 225.149 153.42 239.976 152.347 255.205L264.761 263.382L374.178 290.291Z"/>
</mask>
<path d="M374.178 290.291C377.909 275.482 378.447 260.06 375.759 245.003C373.071 229.945 367.215 215.582 358.563 202.823C349.911 190.064 338.652 179.189 325.499 170.888C312.347 162.586 297.588 157.039 282.16 154.599C266.732 152.159 250.972 152.879 235.878 156.713C220.785 160.547 206.688 167.411 194.482 176.871C182.276 186.331 172.227 198.179 164.974 211.664C157.721 225.149 153.42 239.976 152.347 255.205L264.761 263.382L374.178 290.291Z" fill="white" stroke="black" stroke-width="8.93929" mask="url(#path-3-inside-1_331_5490)"/>
<path d="M259.603 273.055L356.964 282.077" stroke="black" stroke-width="4.46965"/>
<path d="M419.236 140.531C439.255 216.076 392.946 293.973 315.682 314.447C238.417 334.922 159.611 290.18 139.592 214.635C119.573 139.09 165.881 61.1939 243.145 40.7192C320.41 20.2446 399.217 64.986 419.236 140.531Z" fill="white" stroke="black" stroke-width="4.46965"/>
<path d="M416.171 146.884C435.421 219.526 389.549 294.873 313.464 315.035C237.379 335.197 160.214 292.454 140.964 219.812C121.714 147.17 167.586 71.8222 243.671 51.6601C319.756 31.498 396.921 74.2417 416.171 146.884Z" fill="white" stroke="black" stroke-width="4.46965"/>
<path d="M157.894 113.233L174.469 196.688" stroke="black" stroke-width="4.46965"/>
<path d="M175.768 91.0848L186.168 184.09" stroke="black" stroke-width="4.46965"/>
<path d="M165.186 209.436L142.765 145.732" stroke="black" stroke-width="4.46965"/>
<path d="M158.796 230.123L137.772 186.626" stroke="black" stroke-width="4.46965"/>
<path d="M374.944 254.361L419.584 195.838" stroke="black" stroke-width="4.46965"/>
<path d="M194.665 75.7885L202.304 170.317" stroke="black" stroke-width="4.46965"/>
<path d="M219.328 61.3391L219.268 162.657" stroke="black" stroke-width="4.46965"/>
<path d="M245.362 52.0659L238.842 155.886" stroke="black" stroke-width="4.46965"/>
<path d="M274.245 47.5771L262.006 153.705" stroke="black" stroke-width="4.46965"/>
<path d="M304.699 49.0046L285.216 154.678" stroke="black" stroke-width="4.46965"/>
<path d="M337.85 57.6309L309.993 161.566" stroke="black" stroke-width="4.46965"/>
<path d="M369.654 76.1109L333.966 177.373" stroke="black" stroke-width="4.46965"/>
<path d="M396.416 105.425L357.485 200.423" stroke="black" stroke-width="4.46965"/>
<path d="M414.545 140.983L370.349 231.046" stroke="black" stroke-width="4.46965"/>
<path d="M403.574 223.874L447.545 243.509L383.901 265.135L403.574 223.874Z" fill="white" stroke="black" stroke-width="4.46965"/>
<path d="M372.949 260.607C367.866 313.462 315.806 352.107 256.192 346.373C196.578 340.64 152.839 292.782 157.922 239.927C163.005 187.072 215.064 148.428 274.678 154.161C334.292 159.894 378.032 207.753 372.949 260.607Z" fill="white" stroke="black" stroke-width="4.46965"/>
<path d="M357.185 240.865C370.926 292.719 339.068 346.239 285.896 360.329C232.723 374.419 178.542 343.7 164.801 291.846C151.06 239.992 182.919 186.472 236.091 172.382C289.263 158.292 343.444 189.011 357.185 240.865Z" fill="white" stroke="black" stroke-width="4.46965"/>
<path d="M261.519 277.296L358.88 286.318" stroke="black" stroke-width="4.46965"/>
<path d="M27.8096 162.289L31.8323 192.235" stroke="black" stroke-width="4.46965"/>
<path d="M35.4082 145.304L38.537 183.743" stroke="black" stroke-width="4.46965"/>
<mask id="path-27-inside-2_331_5490" fill="white">
<path d="M143.574 262.026C147.897 254.221 150.509 245.591 151.244 236.685C151.98 227.779 150.822 218.79 147.845 210.29C144.868 201.789 140.137 193.962 133.951 187.306C127.766 180.649 120.261 175.307 111.913 171.62C103.565 167.933 94.5562 165.981 85.4581 165.888C76.36 165.794 67.3712 167.561 59.062 171.077C50.7529 174.593 43.3047 179.78 37.1901 186.31C31.0755 192.841 26.4279 200.571 23.5421 209.011L85.8058 230.453L143.574 262.026Z"/>
</mask>
<path d="M143.574 262.026C147.897 254.221 150.509 245.591 151.244 236.685C151.98 227.779 150.822 218.79 147.845 210.29C144.868 201.789 140.137 193.962 133.951 187.306C127.766 180.649 120.261 175.307 111.913 171.62C103.565 167.933 94.5562 165.981 85.4581 165.888C76.36 165.794 67.3712 167.561 59.062 171.077C50.7529 174.593 43.3047 179.78 37.1901 186.31C31.0755 192.841 26.4279 200.571 23.5421 209.011L85.8058 230.453L143.574 262.026Z" fill="white" stroke="black" stroke-width="8.93929" mask="url(#path-27-inside-2_331_5490)"/>
<path d="M81.4453 235.144L135.081 254.811" stroke="black" stroke-width="4.46965"/>
<path d="M190.505 184.19C190.505 229.32 153.129 265.985 106.923 265.985C60.7168 265.985 23.3403 229.32 23.3403 184.19C23.3403 139.06 60.7168 102.396 106.923 102.396C153.129 102.396 190.505 139.06 190.505 184.19Z" fill="white" stroke="black" stroke-width="4.46965"/>
<path d="M187.823 187.319C187.823 230.675 151.095 265.985 105.582 265.985C60.069 265.985 23.3403 230.675 23.3403 187.319C23.3403 143.963 60.069 108.653 105.582 108.653C151.095 108.653 187.823 143.963 187.823 187.319Z" fill="white" stroke="black" stroke-width="4.46965"/>
<path d="M47.9227 129.66L44.7939 179.273" stroke="black" stroke-width="4.46965"/>
<path d="M61.3325 119.827L53.2871 173.91" stroke="black" stroke-width="4.46965"/>
<path d="M37.6424 185.084L34.5137 145.751" stroke="black" stroke-width="4.46965"/>
<path d="M30.9378 195.811L25.5742 168.099" stroke="black" stroke-width="4.46965"/>
<path d="M149.384 241.849L183.353 215.478" stroke="black" stroke-width="4.46965"/>
<path d="M74.2942 114.017L64.4609 168.547" stroke="black" stroke-width="4.46965"/>
<path d="M90.3843 109.547L75.1875 166.759" stroke="black" stroke-width="4.46965"/>
<path d="M106.475 108.206L87.2559 165.865" stroke="black" stroke-width="4.46965"/>
<path d="M123.459 109.994L100.664 168.1" stroke="black" stroke-width="4.46965"/>
<path d="M140.445 115.358L113.627 172.122" stroke="black" stroke-width="4.46965"/>
<path d="M157.876 125.191L126.589 179.721" stroke="black" stroke-width="4.46965"/>
<path d="M173.073 140.388L137.763 192.236" stroke="black" stroke-width="4.46965"/>
<path d="M183.8 160.948L147.596 208.773" stroke="black" stroke-width="4.46965"/>
<path d="M188.716 183.743L150.277 227.993" stroke="black" stroke-width="4.46965"/>
<path d="M170.237 230.207L189.584 245.82L154.964 248.196L170.237 230.207Z" fill="white" stroke="black" stroke-width="4.46965"/>
<path d="M146.451 244.755C135.881 273.276 101.291 287.186 68.8697 275.17C36.4487 263.154 19.2788 230.061 29.8491 201.54C40.4194 173.019 75.0095 159.109 107.43 171.125C139.851 183.14 157.021 216.234 146.451 244.755Z" fill="white" stroke="black" stroke-width="4.46965"/>
<path d="M140.445 231.569C140.445 262.377 114.879 287.439 83.2334 287.439C51.588 287.439 26.0219 262.377 26.0219 231.569C26.0219 200.76 51.588 175.698 83.2334 175.698C114.879 175.698 140.445 200.76 140.445 231.569Z" fill="white" stroke="black" stroke-width="4.46965"/>
<path d="M81.8926 237.826L135.528 257.492" stroke="black" stroke-width="4.46965"/>
</svg>
