<svg width="869" height="610" viewBox="0 0 869 610" fill="none" xmlns="http://www.w3.org/2000/svg">
<path d="M197.242 4.29688L755.707 39.8695C759.011 40.08 761.585 42.8168 761.593 46.1271L761.761 117.818C761.77 121.441 758.721 124.321 755.104 124.107L196.644 90.9285C193.329 90.7316 190.74 87.99 190.732 84.6694L190.557 10.584C190.549 6.94984 193.615 4.06586 197.242 4.29688Z" fill="#DDFA42" stroke="#BECD0E" stroke-width="2"/>
<path d="M213.184 14.7489L742.684 47.9102C745.96 48.1154 748.526 50.8069 748.576 54.0889L749.37 107.165C749.424 110.818 746.362 113.748 742.714 113.533L213.242 82.2471C209.957 82.053 207.378 79.3575 207.328 76.067L206.506 21.1157C206.452 17.4532 209.528 14.52 213.184 14.7489Z" fill="white" stroke="#BECD0E" stroke-width="2"/>
<path d="M195.166 91.9868L728.277 124.193H57.2826C52.3945 124.193 51.7754 117.1 56.5896 116.253L194.232 92.04C194.541 91.9858 194.854 91.9679 195.166 91.9868Z" fill="#DDFA42" stroke="#BECD0E" stroke-width="2"/>
<rect x="113.318" y="126.193" width="690.077" height="91.2483" rx="6.28502" fill="#DDFA42" stroke="#BECD0E" stroke-width="2"/>
<rect x="127.889" y="133.478" width="653.652" height="76.6783" rx="6.28502" fill="white" stroke="#BECD0E" stroke-width="2"/>
<rect x="97.291" y="219.441" width="663.851" height="97.0763" rx="6.28502" fill="#DDFA42" stroke="#BECD0E" stroke-width="2"/>
<rect x="113.318" y="226.726" width="630.34" height="75.2213" rx="6.28502" fill="white" stroke="#BECD0E" stroke-width="2"/>
<path d="M54.137 39.4346L186.257 3.47748C190.263 2.38711 194.207 5.4124 194.192 9.56455L193.915 86.6719C193.904 89.5848 191.894 92.1088 189.057 92.7702L56.9557 123.565C53.0048 124.486 49.2293 121.478 49.2439 117.421L49.5024 45.4764C49.5126 42.6494 51.4091 40.177 54.137 39.4346Z" fill="#DDFA42" stroke="#BECD0E" stroke-width="2"/>
<path d="M60.9256 44.0411L177.879 13.363C181.863 12.3179 185.759 15.3235 185.759 19.4424L185.759 80.1462C185.759 83.0959 183.707 85.6487 180.827 86.2838L63.8736 112.071C59.9512 112.936 56.2353 109.95 56.2353 105.934L56.2353 50.1205C56.2353 47.2635 58.1622 44.766 60.9256 44.0411Z" fill="#DDFA42" stroke="#BECD0E" stroke-width="2"/>
<path d="M82.9914 47.4246L144.566 34.0995L144.566 58.4999L82.9913 72.4999L82.9914 47.4246Z" fill="black"/>
<path d="M119.5 93.5L68.862 72.191L161.5 54L119.5 93.5Z" fill="black"/>
<path d="M17.5 461.5H862.837L712.486 607.5H17.5V461.5Z" fill="white" stroke="black" stroke-width="5"/>
<path d="M715.768 603.817L714.044 562.008L859.339 419.618L861.934 462.006L715.768 603.817Z" fill="white" stroke="black" stroke-width="5"/>
<path d="M17.5 417.5H856.035L712.452 563.5H17.5V417.5Z" fill="white" stroke="black" stroke-width="5"/>
<path d="M70.5137 402.122L624.175 441.721C627.464 441.957 630.012 444.693 630.012 447.99V526.528C630.012 530.257 626.785 533.165 623.076 532.779L69.4143 475.117C66.2125 474.784 63.7803 472.085 63.7803 468.866V408.391C63.7803 404.744 66.8753 401.862 70.5137 402.122Z" fill="#DDFA42" stroke="#BECD0E" stroke-width="2"/>
<path d="M79.2908 409.454L611.098 450.467C614.372 450.719 616.899 453.45 616.899 456.733V517.08C616.899 520.802 613.683 523.708 609.981 523.333L78.1738 469.443C74.9645 469.118 72.5225 466.416 72.5225 463.19V415.72C72.5225 412.059 75.64 409.172 79.2908 409.454Z" fill="white" stroke="#BECD0E" stroke-width="2"/>
<path d="M629.736 441.073L762.666 407.278C766.639 406.268 770.5 409.27 770.5 413.369V485.623C770.5 488.381 768.703 490.816 766.068 491.629L633.138 532.635C629.095 533.882 625 530.859 625 526.629V447.165C625 444.29 626.95 441.782 629.736 441.073Z" fill="#DDFA42" stroke="#BECD0E" stroke-width="2"/>
<path d="M643.212 445.878L755.642 416.822C759.621 415.794 763.5 418.798 763.5 422.907V478.576C763.5 481.353 761.677 483.801 759.017 484.597L646.587 518.237C642.555 519.444 638.5 516.424 638.5 512.216V451.963C638.5 449.097 640.438 446.595 643.212 445.878Z" fill="#DDFA42" stroke="#BECD0E" stroke-width="2"/>
<path d="M704.404 395.113L764.934 405.057C771.872 406.197 771.989 416.132 765.079 417.435L628.877 443.112C628.325 443.216 627.761 443.246 627.201 443.2L226.765 410.469L703.182 395.033C703.591 395.019 704 395.046 704.404 395.113Z" fill="#DDFA42" stroke="#BECD0E" stroke-width="2"/>
<rect x="46.2959" y="314.146" width="663.851" height="97.0763" rx="6.28502" fill="#DDFA42" stroke="#BECD0E" stroke-width="2"/>
<rect x="63.7803" y="325.802" width="633.254" height="73.7643" rx="6.28502" fill="white" stroke="#BECD0E" stroke-width="2"/>
</svg>
