<svg width="887" height="866" viewBox="0 0 887 866" fill="none" xmlns="http://www.w3.org/2000/svg">
<path d="M876.725 343.195L791.917 377.136L714.696 402.608L636.821 429.341L597.883 442.708L578.349 449.132L568.108 453.838L564.968 456.811L561.829 459.784L560.392 461.797L540.556 383.346L542.914 384.977L545.272 386.607L549.463 387.79L555.486 388.526L563.112 388.871L583.566 386.083L624.474 380.509L706.289 369.36L791.917 355.224L876.725 343.195Z" fill="#DDFA42"/>
<path d="M879.409 532.075L788.024 527.371L707.106 518.331L625.062 510.132L584.04 506.032L563.579 503.728L552.287 503.692L548.18 505.02L544.073 506.348L541.918 507.527L557.001 430.818L558.455 433.201L559.91 435.585L563.218 438.321L568.38 441.409L575.165 444.805L594.927 450.664L634.451 462.383L713.498 485.822L788.024 505.02L879.409 532.075Z" fill="#DDFA42"/>
<path d="M155.439 765.761L222.283 704.217L278.053 645.867L335.276 587.469L363.888 558.27L377.977 543.501L386.619 536.328L390.702 534.78L394.786 533.231L397.267 532.801L331.904 481.66L332.459 484.466L333.014 487.272L332.393 491.529L330.596 497.238L327.769 504.217L316.71 521.357L294.59 555.636L250.352 624.194L203.239 689.316L155.439 765.761Z" fill="#DDFA42"/>
<path d="M535.767 858.36L535.767 768.305L525.637 688.586L518.977 607.752L515.646 567.336L513.698 547.177L513.994 536.048L515.589 531.994L517.185 527.941L518.557 525.812L432.988 540.992L435.59 542.416L438.192 543.84L441.129 547.089L444.402 552.165L447.969 558.838L453.884 578.293L465.713 617.201L489.373 695.019L505.834 768.305L535.767 858.36Z" fill="#DDFA42"/>
<path d="M359.612 858.229L390.779 768.634L409.842 691.717L429.533 616.819L440.254 577.682L445.345 558.068L449.379 547.688L452.175 544.395L454.972 541.101L456.917 539.547L375.453 525.812L377.292 528.004L379.13 530.197L380.649 534.218L381.849 540.068L382.769 547.518L381.455 567.768L378.825 608.27L367.632 684.358L359.612 768.634L359.612 858.229Z" fill="#DDFA42"/>
<path d="M758.686 745.364L703.261 670.603L649.731 607.369L596.339 542.668L569.642 510.317L556.09 494.339L549.74 484.77L548.655 480.475L547.571 476.179L547.442 473.632L485.799 533.067L488.79 532.854L491.782 532.64L496.132 533.787L501.841 536.295L508.739 539.994L525.149 553.217L557.968 579.664L623.607 632.558L685.3 687.921L758.686 745.364Z" fill="#DDFA42"/>
<ellipse cx="439.5" cy="429.5" rx="121.5" ry="116.5" fill="#DDFA42"/>
<path d="M107.52 152.398L183.135 196.678L255.142 241.179L324.56 285.044L359.269 306.976L376.445 318.165L386.575 323.152L390.967 323.678L395.359 324.204L397.918 324.016L343.898 391.096L343.849 388.168L343.799 385.24L342.268 381.16L339.257 375.929L334.95 369.691L320.278 355.393L290.935 326.798L232.248 269.608L167.476 214.74L107.52 152.398Z" fill="#DDFA42"/>
<path d="M6.17514 356.327L97.7216 357.214L178.96 362.977L261.294 367.834L302.462 370.262L323.005 371.738L334.296 371.291L338.354 369.759L342.412 368.226L344.524 366.93L332.253 445.914L330.712 443.542L329.17 441.17L325.762 438.518L320.487 435.586L313.579 432.409L293.605 427.272L253.657 416.998L173.76 396.451L94.1465 380.227L6.17514 356.327Z" fill="#DDFA42"/>
<path d="M7.41301 525.549L94.0681 496.642L172.635 475.578L251.932 453.323L291.581 442.196L311.454 436.886L321.956 432.808L325.27 430.078L328.584 427.347L330.141 425.466L345.063 502.275L342.813 500.589L340.563 498.902L336.459 497.563L330.499 496.573L322.917 495.886L302.351 497.635L261.221 501.134L178.959 508.13L98.4159 519.022L7.41301 525.549Z" fill="#DDFA42"/>
<path d="M788.492 158.404L729.139 219.423L670.25 282.445L612.587 340.417L583.755 369.404L569.162 383.691L562.124 392.389L560.666 396.437L559.208 400.484L558.839 402.926L505.155 340.733L508.017 341.18L510.879 341.627L515.181 340.874L520.923 338.921L527.925 335.918L545.007 324.513L579.171 301.705L647.498 256.087L714.161 206.043L788.492 158.404Z" fill="#DDFA42"/>
<path d="M344.589 10.1522L376.483 89.6422L405.895 169.181L433.414 245.635L447.173 283.862L453.775 303.043L458.666 313.083L461.799 316.144L464.933 319.205L467.065 320.598L382.987 341.036L384.761 338.694L386.534 336.351L387.854 332.208L388.721 326.263L389.191 318.742L386.487 298.614L381.079 258.357L370.262 177.843L356.059 94.325L344.589 10.1522Z" fill="#DDFA42"/>
<path d="M612.24 45.5112L588.213 132.456L565.583 209.397L541.501 287.002L529.46 325.805L523.162 345.092L521.079 356.056L521.833 360.393L522.586 364.731L523.526 367.132L439.798 332.529L442.748 331.735L445.698 330.941L449.38 328.437L453.794 324.223L458.848 318.512L469.027 300.829L489.384 265.463L530.1 194.732L565.583 123.76L612.24 45.5112Z" fill="#DDFA42"/>
</svg>
