<svg width="1975" height="1296" viewBox="0 0 1975 1296" fill="none" xmlns="http://www.w3.org/2000/svg">
<rect width="1836.11" height="726.61" transform="matrix(0.943172 0.332306 0.332306 -0.943172 0.96875 685.318)" fill="#DDFA42"/>
<ellipse cx="405.983" cy="822.648" rx="32.6322" ry="33.7199" transform="rotate(160.591 405.983 822.648)" fill="white"/>
<ellipse cx="32.6322" cy="33.7199" rx="32.6322" ry="33.7199" transform="matrix(0.822847 0.568263 0.568263 -0.822847 632 171.493)" fill="white"/>
<path d="M547.705 397.03L575.405 406.79" stroke="black" stroke-width="10.8774"/>
<path d="M455.75 643.767L483.745 652.645" stroke="black" stroke-width="10.8774"/>
<path d="M262.113 449.445L290.297 418.869L313.648 390.147L337.642 361.351L349.639 346.954L355.537 339.685L359.199 336.091L360.973 335.237L362.746 334.383L363.835 334.099L333.677 312.946L333.988 314.213L334.3 315.48L334.124 317.455L333.461 320.136L332.372 323.436L327.871 331.686L318.869 348.184L300.867 381.182L280.975 415.317L262.113 449.445Z" fill="white"/>
<path d="M342.028 481.199L354.838 441.56L364.107 405.673L373.916 369.442L378.82 351.327L381.156 342.249L382.971 337.44L384.202 335.908L385.432 334.376L386.283 333.65L351.206 327.634L351.984 328.639L352.763 329.644L353.39 331.495L353.867 334.192L354.212 337.628L353.502 346.985L352.082 365.698L349.241 403.123L345.33 437.938L342.028 481.199Z" fill="white"/>
<path d="M558.774 211.094L521.759 229.555L487.899 243.823L453.782 258.701L436.723 266.14L428.157 269.74L423.705 272.254L422.384 273.74L421.064 275.226L420.479 276.212L409.317 240.118L410.42 240.808L411.524 241.499L413.436 241.925L416.156 242.086L419.583 242.015L428.666 240.088L446.834 236.234L483.168 228.526L518.507 219.038L558.774 211.094Z" fill="white"/>
<path d="M536.525 387.893L498.216 373.297L465.945 356.068L432.637 340.134L415.984 332.167L407.724 328.071L402.942 326.393L400.959 326.415L398.976 326.436L397.848 326.675L418.174 292.734L418.358 294.072L418.542 295.409L419.448 297.186L421.077 299.401L423.338 301.999L430.655 307.669L445.29 319.007L474.559 341.684L503.067 360.564L536.525 387.893Z" fill="white"/>
<path d="M565.021 312.936L521.855 311.674L486.045 307.317L450.992 303.555L432.605 301.772L423.436 300.759L418.367 300.793L416.513 301.449L414.658 302.105L413.682 302.68L421.042 265.799L421.676 266.937L422.311 268.074L423.776 269.372L426.07 270.831L429.09 272.43L437.918 275.152L455.573 280.598L489.755 288.168L526.906 298.415L565.021 312.936Z" fill="white"/>
<path d="M452.329 464.412L429.508 428.717L411.284 395.697L392.413 362.498L382.978 345.898L378.377 337.543L375.336 333.291L373.684 332.133L372.033 330.976L370.97 330.508L406.244 313.918L405.669 315.156L405.093 316.394L404.876 318.43L405.018 321.265L405.473 324.799L408.439 333.923L414.37 352.171L426.233 388.666L439.786 423.884L452.329 464.412Z" fill="white"/>
<ellipse cx="55.3105" cy="53.0343" rx="55.3105" ry="53.0343" transform="matrix(-0.356021 0.934478 0.934478 0.356021 339.821 206.868)" fill="white"/>
<path d="M305.615 91.3008L312.196 130.644L319.457 168.488L326.867 205.128L330.571 223.448L332.547 232.568L333.027 237.686L332.539 239.639L332.051 241.593L331.556 242.651L368.847 230.543L367.61 230.047L366.372 229.551L364.885 228.239L363.148 226.11L361.192 223.267L357.487 214.708L350.079 197.591L335.261 163.357L322.418 126.91L305.615 91.3008Z" fill="white"/>
<path d="M408.792 81.2393L394.332 120.327L383.617 155.82L372.339 191.633L366.7 209.539L363.998 218.517L361.978 223.248L360.669 224.726L359.359 226.204L358.465 226.892L394.054 234.473L393.295 233.433L392.536 232.393L391.96 230.513L391.567 227.794L391.336 224.341L392.388 215.011L394.491 196.352L398.699 159.033L404.701 122.536L408.792 81.2393Z" fill="white"/>
<path d="M480.578 109.191L454.236 141.369L432.542 171.378L410.223 201.504L399.064 216.567L393.584 224.161L390.147 227.967L388.448 228.935L386.75 229.902L385.697 230.259L415.953 249.056L415.601 247.826L415.248 246.595L415.344 244.632L415.888 241.936L416.825 238.599L420.902 230.134L429.056 213.204L445.365 179.344L463.052 146.846L480.578 109.191Z" fill="white"/>
<path d="M197.803 381.959L233.38 366.599L269.734 351.761L303.741 336.627L320.745 329.06L329.188 325.167L334.029 323.583L335.987 323.619L337.945 323.655L339.044 323.894L321.287 290.977L321.014 292.267L320.74 293.557L319.722 295.265L317.961 297.391L315.548 299.883L307.929 305.301L292.689 316.138L262.209 337.811L230.116 358.059L197.803 381.959Z" fill="white"/>
<path d="M206.68 169.095L235.326 195.546L264.395 220.949L292.459 245.046L306.491 257.095L313.581 263.012L317.059 266.72L317.853 268.549L318.647 270.378L318.895 271.511L341.215 239.056L339.932 239.431L338.648 239.806L336.671 239.696L334.002 239.101L330.726 238.082L322.602 233.67L306.353 224.845L273.855 207.194L240.628 187.616L206.68 169.095Z" fill="white"/>
<path d="M178.344 288.685L219.225 292.555L255.623 295.398L292.539 297.731L310.998 298.898L320.223 299.344L325.225 300.235L326.948 301.259L328.671 302.282L329.54 303.071L328.389 261.845L327.574 262.971L326.758 264.097L325.096 265.258L322.588 266.452L319.339 267.677L310.167 269.141L291.823 272.07L255.135 277.926L219.193 281.519L178.344 288.685Z" fill="white"/>
<path d="M329.289 371.691L279.082 352.492L284.35 338.715L303.254 345.944L307.82 334.005L288.916 326.775L294.184 312.999L344.392 332.199L339.123 345.975L320.295 338.775L315.73 350.715L334.558 357.915L329.289 371.691ZM345.583 329.083L343.516 328.293L300.819 295.648L306.907 279.728L360.463 283.979L362.529 284.769L357.173 298.775L349.229 297.755L344.312 310.613L350.91 315.154L345.583 329.083ZM334.115 303.555L336.954 296.131L320.395 294.01L334.115 303.555ZM363.731 281.627L313.523 262.427L318.762 248.727L356.494 263.156L364.309 242.721L376.784 247.492L363.731 281.627ZM380.093 238.838L326.49 234.482L324.5 233.721L329.944 219.485L365.563 224.07L335.973 203.719L341.417 189.483L343.407 190.244L386.24 222.766L380.093 238.838ZM389.714 213.681L387.647 212.891L344.95 180.246L351.038 164.326L404.593 168.577L406.66 169.367L401.304 183.373L393.36 182.353L388.443 195.211L395.04 199.752L389.714 213.681ZM378.246 188.153L381.085 180.729L364.525 178.608L378.246 188.153ZM407.861 166.225L357.654 147.025L365.966 125.289C370.298 113.961 378.944 110.162 389.124 114.054L389.659 114.259C396.854 117.01 400.617 122.31 400.254 129.453L420.897 125.942L422.964 126.732L417.549 140.891L395.988 144.051L395.344 145.735L413.1 152.525L407.861 166.225ZM384.093 141.432L386.844 134.238C388.074 131.023 387.223 129.119 384.391 128.036L383.855 127.831C381.177 126.807 379.166 127.705 377.966 130.843L375.215 138.037L384.093 141.432Z" fill="black"/>
<path d="M288.948 656.311L261.311 653.731L286.234 663.345L281.221 676.341L231.069 656.995L237.557 640.176L270.2 642.756L244.311 622.669L250.828 605.773L300.98 625.119L295.966 638.116L270.738 628.384L293.224 645.226L288.948 656.311ZM303.103 619.615L252.952 600.269L258.26 586.508L308.412 605.854L303.103 619.615ZM313.93 591.547L276.164 576.978L271.947 587.911L259.562 583.133L273.304 547.507L285.689 552.285L281.472 563.217L319.239 577.786L313.93 591.547ZM328.388 554.068L290.621 539.5L286.404 550.432L274.019 545.655L287.762 510.029L300.147 514.806L295.93 525.739L333.696 540.307L328.388 554.068ZM339.454 525.381L289.302 506.035L302.455 471.938L314.687 476.657L306.813 497.069L313.617 499.694L320.902 480.811L333.057 485.5L325.773 504.383L332.501 506.978L340.375 486.566L352.607 491.284L339.454 525.381ZM354.689 485.887L304.537 466.541L309.816 452.856L347.506 467.395L355.38 446.983L367.842 451.79L354.689 485.887ZM376.581 432.095C371.804 444.48 362.88 448.942 351.642 444.607L350.342 444.106L355.385 431.033L356.685 431.534C360.278 432.92 363.227 431.423 364.761 427.447C366.176 423.778 365.643 421.289 363.273 420.374L362.891 420.227C360.827 419.431 359.344 420.088 357.217 422.869L351.78 429.905C346.284 437.095 339.816 439.518 332.936 436.864L332.171 436.569C323.074 433.06 320.018 423.45 324.353 412.211C328.895 400.438 337.359 395.799 347.298 399.633L348.598 400.134L343.643 412.978L342.343 412.476C339.591 411.415 337.372 412.842 335.927 416.588C334.629 419.952 335.039 422.306 336.95 423.043L337.332 423.19C338.938 423.81 340.509 422.923 342.577 420.295L348.12 413.212C353.946 405.622 360.096 403.34 367.435 406.171L368.2 406.466C377.985 410.241 381.211 420.092 376.581 432.095ZM393.973 387.009C389.018 399.853 377.694 405.76 366.379 401.396L352.694 396.117C341.38 391.752 336.909 379.664 341.834 366.897C346.935 353.671 357.554 348.457 369.709 353.146L372.844 354.355L367.506 368.193L363.76 366.748C359.632 365.155 356.276 367.023 354.418 371.839C352.413 377.038 353.827 380.657 358.644 382.515L371.029 387.293C375.845 389.15 379.324 387.418 381.329 382.22C383.216 377.327 381.955 373.766 377.674 372.115L374.692 370.965L380.03 357.127L382.553 358.1C394.709 362.79 399.075 373.783 393.973 387.009ZM403.072 360.46L352.921 341.114L358.229 327.353L377.113 334.637L381.713 322.711L362.83 315.427L368.138 301.666L418.29 321.012L412.981 334.773L394.175 327.518L389.574 339.444L408.381 346.699L403.072 360.46ZM420.64 314.918L370.489 295.572L378.864 273.86C383.229 262.546 391.887 258.771 402.054 262.694L402.59 262.9C409.776 265.672 413.524 270.982 413.141 278.124L433.793 274.674L435.858 275.47L430.402 289.613L408.831 292.71L408.183 294.392L425.919 301.234L420.64 314.918ZM396.944 290.057L399.717 282.87C400.955 279.659 400.11 277.752 397.281 276.661L396.746 276.455C394.07 275.423 392.057 276.315 390.848 279.449L388.076 286.636L396.944 290.057ZM437.569 271.033L387.417 251.687L392.726 237.926L442.877 257.272L437.569 271.033ZM445.005 251.757L394.853 232.411L408.006 198.314L420.391 203.092L412.517 223.504L420.697 226.659L427.982 207.776L440.367 212.554L433.082 231.437L450.284 238.072L445.005 251.757ZM463.315 204.292L425.548 189.723L421.331 200.656L408.946 195.878L422.689 160.252L435.074 165.03L430.856 175.962L468.623 190.531L463.315 204.292Z" fill="black"/>
</svg>
